<svg xmlns="http://www.w3.org/2000/svg" xmlns:xlink="http://www.w3.org/1999/xlink" width="609.088" height="433.58" viewBox="0 0 609.088 433.58">
  <defs>
    <clipPath id="clip-path">
      <rect id="Rectángulo_281707" data-name="Rectángulo 281707" width="520.42" height="172.148" fill="none"/>
    </clipPath>
    <clipPath id="clip-path-2">
      <rect id="Rectángulo_281706" data-name="Rectángulo 281706" width="520.419" height="172.148" fill="none"/>
    </clipPath>
    <clipPath id="clip-path-3">
      <rect id="Rectángulo_281636" data-name="Rectángulo 281636" width="15.756" height="28.157" fill="none"/>
    </clipPath>
    <clipPath id="clip-path-4">
      <rect id="Rectángulo_281638" data-name="Rectángulo 281638" width="2.752" height="3.896" fill="none"/>
    </clipPath>
    <clipPath id="clip-path-5">
      <rect id="Rectángulo_281639" data-name="Rectángulo 281639" width="5.367" height="4.612" fill="none"/>
    </clipPath>
    <clipPath id="clip-path-6">
      <rect id="Rectángulo_281688" data-name="Rectángulo 281688" width="4.447" height="31.316" fill="none"/>
    </clipPath>
    <clipPath id="clip-path-7">
      <rect id="Rectángulo_281691" data-name="Rectángulo 281691" width="4.448" height="31.316" fill="none"/>
    </clipPath>
    <clipPath id="clip-path-12">
      <rect id="Rectángulo_281705" data-name="Rectángulo 281705" width="91.857" height="30.522" fill="none"/>
    </clipPath>
  </defs>
  <g id="Grupo_848033" data-name="Grupo 848033" transform="translate(-181 -1205)">
    <rect id="Rectángulo_281631" data-name="Rectángulo 281631" width="433.58" height="609" transform="translate(181 1638.58) rotate(-90)" fill="#ddefd7"/>
    <path id="Trazado_570937" data-name="Trazado 570937" d="M43.816,19V4.781h5.107A7.232,7.232,0,0,1,53.1,5.787a3.347,3.347,0,0,1,1.431,2.92,3.383,3.383,0,0,1-.508,1.885,2.959,2.959,0,0,1-1.494,1.152,3,3,0,0,1,1.709,1.094,3.18,3.18,0,0,1,.6,1.953,3.765,3.765,0,0,1-1.323,3.14A6.3,6.3,0,0,1,49.588,19Zm3.428-6.045v3.408H49.49a2.136,2.136,0,0,0,1.426-.425,1.487,1.487,0,0,0,.5-1.2,1.576,1.576,0,0,0-1.768-1.787Zm0-2.246h1.787a2.539,2.539,0,0,0,1.6-.411,1.46,1.46,0,0,0,.479-1.185,1.533,1.533,0,0,0-.518-1.3,2.77,2.77,0,0,0-1.67-.4h-1.68Zm15.615,7.148A3.393,3.393,0,0,1,60.037,19.2a3.328,3.328,0,0,1-2.632-1.011,4.251,4.251,0,0,1-.894-2.905V8.434H59.8V15.3a1.183,1.183,0,0,0,1.318,1.357,1.72,1.72,0,0,0,1.611-.811V8.434h3.311V19H62.957Zm10.1,1.338a5.432,5.432,0,0,1-3.936-1.45,5.008,5.008,0,0,1-1.5-3.774V13.7a6.489,6.489,0,0,1,.6-2.861,4.395,4.395,0,0,1,1.753-1.919,5.292,5.292,0,0,1,2.734-.679A4.574,4.574,0,0,1,76.121,9.62a5.43,5.43,0,0,1,1.289,3.853v1.279H70.867a2.372,2.372,0,0,0,.771,1.4,2.3,2.3,0,0,0,1.543.508,2.958,2.958,0,0,0,2.441-1.094l1.5,1.777a4.2,4.2,0,0,1-1.743,1.353A5.891,5.891,0,0,1,72.957,19.2Zm-.371-8.418q-1.445,0-1.719,1.914h3.32v-.254a1.63,1.63,0,0,0-.4-1.226A1.593,1.593,0,0,0,72.586,10.777Zm9.17-2.344.107,1.24a3.583,3.583,0,0,1,3.018-1.436,3.015,3.015,0,0,1,2.466.986,4.7,4.7,0,0,1,.845,2.969V19h-3.3V12.33a1.783,1.783,0,0,0-.322-1.177,1.491,1.491,0,0,0-1.172-.376,1.569,1.569,0,0,0-1.436.762V19H78.67V8.434ZM95.965,19a3.716,3.716,0,0,1-.312-.947A3.06,3.06,0,0,1,93.113,19.2a3.749,3.749,0,0,1-2.539-.9,2.875,2.875,0,0,1-1.045-2.271,2.955,2.955,0,0,1,1.27-2.6,6.468,6.468,0,0,1,3.691-.879h1.016v-.559q0-1.462-1.26-1.462a1.03,1.03,0,0,0-1.172,1.158H89.783a2.95,2.95,0,0,1,1.3-2.487,5.479,5.479,0,0,1,3.325-.956,4.8,4.8,0,0,1,3.193.986,3.429,3.429,0,0,1,1.2,2.705v4.678a4.79,4.79,0,0,0,.449,2.227V19ZM93.9,16.852a1.836,1.836,0,0,0,1.021-.264,1.653,1.653,0,0,0,.581-.6V14.3h-.957q-1.719,0-1.719,1.543a.942.942,0,0,0,.3.728A1.1,1.1,0,0,0,93.9,16.852Zm12.256-.82a.76.76,0,0,0-.439-.674,6.685,6.685,0,0,0-1.67-.527,7.615,7.615,0,0,1-2.031-.718,3.4,3.4,0,0,1-1.221-1.079,2.577,2.577,0,0,1-.42-1.455,2.92,2.92,0,0,1,1.2-2.4,4.948,4.948,0,0,1,3.145-.942,5.482,5.482,0,0,1,3.359.947,2.962,2.962,0,0,1,1.27,2.49h-3.3q0-1.27-1.338-1.27a1.326,1.326,0,0,0-.869.288.892.892,0,0,0-.352.718.819.819,0,0,0,.43.713,4.06,4.06,0,0,0,1.372.449,11.857,11.857,0,0,1,1.655.42,3.007,3.007,0,0,1,2.383,2.939,2.767,2.767,0,0,1-1.284,2.354,5.631,5.631,0,0,1-3.325.908,5.747,5.747,0,0,1-2.422-.488,4.05,4.05,0,0,1-1.66-1.328,3.007,3.007,0,0,1-.6-1.768h3.076a1.272,1.272,0,0,0,.488,1.069,2.009,2.009,0,0,0,1.2.337,1.58,1.58,0,0,0,1.011-.273A.875.875,0,0,0,106.16,16.031Zm13.271-1.855V19H116V4.781h5.674a6.608,6.608,0,0,1,2.886.6,4.526,4.526,0,0,1,1.943,1.709,4.667,4.667,0,0,1,.688,2.515,4.114,4.114,0,0,1-1.489,3.325,6.179,6.179,0,0,1-4.087,1.245Zm0-2.646h2.246a2.118,2.118,0,0,0,1.519-.5,1.85,1.85,0,0,0,.522-1.406,2.287,2.287,0,0,0-.537-1.592,1.9,1.9,0,0,0-1.465-.605h-2.285Zm15.83-.117-1.084-.078a1.947,1.947,0,0,0-1.992.977V19h-3.291V8.434h3.086l.107,1.357A2.548,2.548,0,0,1,134.4,8.238a3.209,3.209,0,0,1,.918.117ZM142.107,19a3.716,3.716,0,0,1-.312-.947,3.06,3.06,0,0,1-2.539,1.143,3.749,3.749,0,0,1-2.539-.9,2.875,2.875,0,0,1-1.045-2.271,2.955,2.955,0,0,1,1.27-2.6,6.468,6.468,0,0,1,3.691-.879h1.016v-.559q0-1.462-1.26-1.462a1.03,1.03,0,0,0-1.172,1.158h-3.291a2.95,2.95,0,0,1,1.3-2.487,5.479,5.479,0,0,1,3.325-.956,4.8,4.8,0,0,1,3.193.986,3.429,3.429,0,0,1,1.2,2.705v4.678a4.79,4.79,0,0,0,.449,2.227V19Zm-2.061-2.148a1.836,1.836,0,0,0,1.021-.264,1.653,1.653,0,0,0,.581-.6V14.3h-.957q-1.719,0-1.719,1.543a.942.942,0,0,0,.3.728A1.1,1.1,0,0,0,140.047,16.852ZM140.867,4h3.477l-2.715,3.066-2.686,0Zm10.371,12.656a1.464,1.464,0,0,0,1.074-.376,1.379,1.379,0,0,0,.371-1.05h3.086a3.653,3.653,0,0,1-1.245,2.852,4.631,4.631,0,0,1-3.208,1.113,4.689,4.689,0,0,1-3.633-1.445,5.7,5.7,0,0,1-1.328-4v-.137a6.436,6.436,0,0,1,.591-2.827,4.3,4.3,0,0,1,1.7-1.885,5.081,5.081,0,0,1,2.637-.659,4.573,4.573,0,0,1,3.271,1.143,4.053,4.053,0,0,1,1.211,3.1h-3.086a1.807,1.807,0,0,0-.4-1.26,1.382,1.382,0,0,0-1.074-.439q-1.279,0-1.494,1.631a11.507,11.507,0,0,0-.068,1.426,4.52,4.52,0,0,0,.381,2.207A1.319,1.319,0,0,0,151.238,16.656Zm9.756-10.85V8.434h1.738v2.285h-1.738v4.834a1.234,1.234,0,0,0,.215.83,1.152,1.152,0,0,0,.85.234,4.828,4.828,0,0,0,.82-.059v2.354a6.074,6.074,0,0,1-1.855.283,3.448,3.448,0,0,1-2.51-.8,3.282,3.282,0,0,1-.811-2.432V10.719h-1.348V8.434H157.7V5.807ZM167.5,19h-3.3V8.434h3.3ZM164,5.7a1.482,1.482,0,0,1,.508-1.159,2.149,2.149,0,0,1,2.637,0,1.482,1.482,0,0,1,.508,1.159,1.482,1.482,0,0,1-.508,1.159,2.149,2.149,0,0,1-2.637,0A1.482,1.482,0,0,1,164,5.7Zm9.99,10.957a1.464,1.464,0,0,0,1.074-.376,1.379,1.379,0,0,0,.371-1.05h3.086a3.653,3.653,0,0,1-1.245,2.852A4.631,4.631,0,0,1,174.07,19.2a4.689,4.689,0,0,1-3.633-1.445,5.7,5.7,0,0,1-1.328-4v-.137a6.436,6.436,0,0,1,.591-2.827A4.3,4.3,0,0,1,171.4,8.9a5.081,5.081,0,0,1,2.637-.659,4.573,4.573,0,0,1,3.271,1.143,4.053,4.053,0,0,1,1.211,3.1h-3.086a1.807,1.807,0,0,0-.4-1.26,1.382,1.382,0,0,0-1.074-.439q-1.279,0-1.494,1.631a11.507,11.507,0,0,0-.068,1.426,4.52,4.52,0,0,0,.381,2.207A1.319,1.319,0,0,0,173.992,16.656ZM185.867,19a3.716,3.716,0,0,1-.312-.947,3.06,3.06,0,0,1-2.539,1.143,3.749,3.749,0,0,1-2.539-.9,2.875,2.875,0,0,1-1.045-2.271,2.955,2.955,0,0,1,1.27-2.6,6.468,6.468,0,0,1,3.691-.879h1.016v-.559q0-1.462-1.26-1.462a1.03,1.03,0,0,0-1.172,1.158h-3.291a2.95,2.95,0,0,1,1.3-2.487,5.479,5.479,0,0,1,3.325-.956,4.8,4.8,0,0,1,3.193.986,3.429,3.429,0,0,1,1.2,2.705v4.678a4.79,4.79,0,0,0,.449,2.227V19Zm-2.061-2.148a1.836,1.836,0,0,0,1.021-.264,1.653,1.653,0,0,0,.581-.6V14.3h-.957q-1.719,0-1.719,1.543a.942.942,0,0,0,.3.728A1.1,1.1,0,0,0,183.807,16.852Zm12.256-.82a.76.76,0,0,0-.439-.674,6.685,6.685,0,0,0-1.67-.527,7.615,7.615,0,0,1-2.031-.718,3.4,3.4,0,0,1-1.221-1.079,2.577,2.577,0,0,1-.42-1.455,2.92,2.92,0,0,1,1.2-2.4,4.948,4.948,0,0,1,3.145-.942,5.482,5.482,0,0,1,3.359.947,2.962,2.962,0,0,1,1.27,2.49h-3.3q0-1.27-1.338-1.27a1.326,1.326,0,0,0-.869.288.892.892,0,0,0-.352.718.819.819,0,0,0,.43.713,4.06,4.06,0,0,0,1.372.449,11.857,11.857,0,0,1,1.655.42,3.007,3.007,0,0,1,2.383,2.939,2.767,2.767,0,0,1-1.284,2.354,5.632,5.632,0,0,1-3.325.908,5.747,5.747,0,0,1-2.422-.488,4.05,4.05,0,0,1-1.66-1.328,3.007,3.007,0,0,1-.6-1.768h3.076a1.272,1.272,0,0,0,.488,1.069,2.009,2.009,0,0,0,1.2.337,1.58,1.58,0,0,0,1.011-.273A.875.875,0,0,0,196.063,16.031Zm21.484,1.211a5.511,5.511,0,0,1-2.314,1.416,9.982,9.982,0,0,1-3.34.537,5.955,5.955,0,0,1-4.463-1.709,6.918,6.918,0,0,1-1.787-4.756l-.01-1.23a8.485,8.485,0,0,1,.742-3.667A5.511,5.511,0,0,1,208.5,5.421a6.008,6.008,0,0,1,3.2-.845,6.3,6.3,0,0,1,4.126,1.216,5.152,5.152,0,0,1,1.714,3.628h-3.3a2.7,2.7,0,0,0-.762-1.7,2.458,2.458,0,0,0-1.66-.508,2.237,2.237,0,0,0-1.992,1.094,5.84,5.84,0,0,0-.713,3.125v.859a5.717,5.717,0,0,0,.728,3.2,2.573,2.573,0,0,0,2.29,1.069,2.88,2.88,0,0,0,1.992-.6V13.756h-2.383V11.4h5.811ZM225.34,19a3.716,3.716,0,0,1-.312-.947,3.06,3.06,0,0,1-2.539,1.143,3.749,3.749,0,0,1-2.539-.9,2.875,2.875,0,0,1-1.045-2.271,2.955,2.955,0,0,1,1.27-2.6,6.468,6.468,0,0,1,3.691-.879h1.016v-.559q0-1.462-1.26-1.462a1.03,1.03,0,0,0-1.172,1.158h-3.291a2.95,2.95,0,0,1,1.3-2.487,5.479,5.479,0,0,1,3.325-.956,4.8,4.8,0,0,1,3.193.986,3.429,3.429,0,0,1,1.2,2.705v4.678a4.79,4.79,0,0,0,.449,2.227V19Zm-2.061-2.148a1.836,1.836,0,0,0,1.021-.264,1.653,1.653,0,0,0,.581-.6V14.3h-.957q-1.719,0-1.719,1.543a.942.942,0,0,0,.3.728A1.1,1.1,0,0,0,223.279,16.852Zm9.746-8.418.107,1.24a3.583,3.583,0,0,1,3.018-1.436,3.015,3.015,0,0,1,2.466.986,4.7,4.7,0,0,1,.845,2.969V19h-3.3V12.33a1.783,1.783,0,0,0-.322-1.177,1.491,1.491,0,0,0-1.172-.376,1.569,1.569,0,0,0-1.436.762V19h-3.291V8.434ZM247.234,19a3.716,3.716,0,0,1-.312-.947,3.06,3.06,0,0,1-2.539,1.143,3.749,3.749,0,0,1-2.539-.9,2.875,2.875,0,0,1-1.045-2.271,2.955,2.955,0,0,1,1.27-2.6,6.468,6.468,0,0,1,3.691-.879h1.016v-.559q0-1.462-1.26-1.462a1.03,1.03,0,0,0-1.172,1.158h-3.291a2.95,2.95,0,0,1,1.3-2.487,5.479,5.479,0,0,1,3.325-.956,4.8,4.8,0,0,1,3.193.986,3.429,3.429,0,0,1,1.2,2.705v4.678a4.79,4.79,0,0,0,.449,2.227V19Zm-2.061-2.148a1.836,1.836,0,0,0,1.021-.264,1.653,1.653,0,0,0,.581-.6V14.3h-.957q-1.719,0-1.719,1.543a.942.942,0,0,0,.3.728A1.1,1.1,0,0,0,245.174,16.852Zm6.309-3.213a6.455,6.455,0,0,1,1.084-3.955,3.568,3.568,0,0,1,3.027-1.445,3.035,3.035,0,0,1,2.383,1.113V4h3.3V19h-2.959l-.166-1.133a3.116,3.116,0,0,1-2.578,1.328,3.562,3.562,0,0,1-2.988-1.445A6.659,6.659,0,0,1,251.482,13.639Zm3.291.205q0,2.813,1.641,2.813a1.62,1.62,0,0,0,1.563-.918V11.715a1.576,1.576,0,0,0-1.543-.937q-1.523,0-1.65,2.461ZM268.26,19.2a5.432,5.432,0,0,1-3.936-1.45,5.008,5.008,0,0,1-1.5-3.774V13.7a6.489,6.489,0,0,1,.6-2.861,4.395,4.395,0,0,1,1.753-1.919,5.292,5.292,0,0,1,2.734-.679,4.574,4.574,0,0,1,3.516,1.382,5.43,5.43,0,0,1,1.289,3.853v1.279H266.17a2.372,2.372,0,0,0,.771,1.4,2.3,2.3,0,0,0,1.543.508,2.958,2.958,0,0,0,2.441-1.094l1.5,1.777a4.2,4.2,0,0,1-1.743,1.353A5.891,5.891,0,0,1,268.26,19.2Zm-.371-8.418q-1.445,0-1.719,1.914h3.32v-.254a1.63,1.63,0,0,0-.4-1.226A1.593,1.593,0,0,0,267.889,10.777Zm12.539.635-1.084-.078a1.947,1.947,0,0,0-1.992.977V19h-3.291V8.434h3.086l.107,1.357a2.548,2.548,0,0,1,2.314-1.553,3.209,3.209,0,0,1,.918.117ZM287.273,19a3.716,3.716,0,0,1-.312-.947,3.06,3.06,0,0,1-2.539,1.143,3.749,3.749,0,0,1-2.539-.9,2.875,2.875,0,0,1-1.045-2.271,2.955,2.955,0,0,1,1.27-2.6,6.468,6.468,0,0,1,3.691-.879h1.016v-.559q0-1.462-1.26-1.462a1.03,1.03,0,0,0-1.172,1.158h-3.291a2.95,2.95,0,0,1,1.3-2.487,5.479,5.479,0,0,1,3.325-.956,4.8,4.8,0,0,1,3.193.986,3.429,3.429,0,0,1,1.2,2.705v4.678a4.79,4.79,0,0,0,.449,2.227V19Zm-2.061-2.148a1.836,1.836,0,0,0,1.021-.264,1.653,1.653,0,0,0,.581-.6V14.3h-.957q-1.719,0-1.719,1.543a.942.942,0,0,0,.3.728A1.1,1.1,0,0,0,285.213,16.852Zm12.256-.82a.76.76,0,0,0-.439-.674,6.685,6.685,0,0,0-1.67-.527,7.615,7.615,0,0,1-2.031-.718,3.4,3.4,0,0,1-1.221-1.079,2.577,2.577,0,0,1-.42-1.455,2.92,2.92,0,0,1,1.2-2.4,4.948,4.948,0,0,1,3.145-.942,5.482,5.482,0,0,1,3.359.947,2.962,2.962,0,0,1,1.27,2.49h-3.3q0-1.27-1.338-1.27a1.326,1.326,0,0,0-.869.288.892.892,0,0,0-.352.718.819.819,0,0,0,.43.713,4.06,4.06,0,0,0,1.372.449,11.856,11.856,0,0,1,1.655.42,3.007,3.007,0,0,1,2.383,2.939,2.767,2.767,0,0,1-1.284,2.354,5.631,5.631,0,0,1-3.325.908,5.747,5.747,0,0,1-2.422-.488,4.05,4.05,0,0,1-1.66-1.328,3.007,3.007,0,0,1-.6-1.768h3.076a1.272,1.272,0,0,0,.488,1.069,2.009,2.009,0,0,0,1.2.337,1.58,1.58,0,0,0,1.011-.273A.875.875,0,0,0,297.469,16.031ZM17.449,46a3.716,3.716,0,0,1-.312-.947A3.06,3.06,0,0,1,14.6,46.2a3.749,3.749,0,0,1-2.539-.9,2.875,2.875,0,0,1-1.045-2.271,2.955,2.955,0,0,1,1.27-2.6,6.468,6.468,0,0,1,3.691-.879H16.99v-.559q0-1.462-1.26-1.462a1.03,1.03,0,0,0-1.172,1.158H11.268a2.95,2.95,0,0,1,1.3-2.487,5.479,5.479,0,0,1,3.325-.956,4.8,4.8,0,0,1,3.193.986,3.429,3.429,0,0,1,1.2,2.705v4.678a4.79,4.79,0,0,0,.449,2.227V46Zm-2.061-2.148a1.836,1.836,0,0,0,1.021-.264,1.653,1.653,0,0,0,.581-.6V41.3h-.957q-1.719,0-1.719,1.543a.942.942,0,0,0,.3.728A1.1,1.1,0,0,0,15.389,43.852Zm16.533-3.057a6.372,6.372,0,0,1-1.108,3.931A3.554,3.554,0,0,1,27.82,46.2a3.046,3.046,0,0,1-2.393-1.064v4.932H22.137V35.434h3.076l.1.977a3.046,3.046,0,0,1,2.49-1.172,3.582,3.582,0,0,1,3.037,1.44,6.45,6.45,0,0,1,1.084,3.96Zm-3.291-.205q0-2.812-1.641-2.812a1.549,1.549,0,0,0-1.562.84v4.16a1.6,1.6,0,0,0,1.582.879q1.572,0,1.621-2.715ZM36.844,46h-3.3V31h3.3Zm5.5,0h-3.3V35.434h3.3Zm-3.5-13.3a1.482,1.482,0,0,1,.508-1.159,2.149,2.149,0,0,1,2.637,0,1.577,1.577,0,0,1,0,2.319,2.149,2.149,0,0,1-2.637,0A1.482,1.482,0,0,1,38.846,32.7Zm9.99,10.957a1.464,1.464,0,0,0,1.074-.376,1.379,1.379,0,0,0,.371-1.05h3.086a3.653,3.653,0,0,1-1.245,2.852A4.631,4.631,0,0,1,48.914,46.2a4.689,4.689,0,0,1-3.633-1.445,5.7,5.7,0,0,1-1.328-4v-.137a6.436,6.436,0,0,1,.591-2.827,4.3,4.3,0,0,1,1.7-1.885,5.081,5.081,0,0,1,2.637-.659,4.573,4.573,0,0,1,3.271,1.143,4.053,4.053,0,0,1,1.211,3.1H50.281a1.807,1.807,0,0,0-.4-1.26,1.382,1.382,0,0,0-1.074-.439q-1.279,0-1.494,1.631a11.507,11.507,0,0,0-.068,1.426,4.52,4.52,0,0,0,.381,2.207A1.319,1.319,0,0,0,48.836,43.656ZM60.711,46a3.716,3.716,0,0,1-.312-.947A3.06,3.06,0,0,1,57.859,46.2a3.749,3.749,0,0,1-2.539-.9,2.875,2.875,0,0,1-1.045-2.271,2.955,2.955,0,0,1,1.27-2.6,6.468,6.468,0,0,1,3.691-.879h1.016v-.559q0-1.462-1.26-1.462a1.03,1.03,0,0,0-1.172,1.158H54.529a2.95,2.95,0,0,1,1.3-2.487,5.479,5.479,0,0,1,3.325-.956,4.8,4.8,0,0,1,3.193.986,3.429,3.429,0,0,1,1.2,2.705v4.678A4.79,4.79,0,0,0,64,45.834V46ZM58.65,43.852a1.836,1.836,0,0,0,1.021-.264,1.653,1.653,0,0,0,.581-.6V41.3h-.957q-1.719,0-1.719,1.543a.942.942,0,0,0,.3.728A1.1,1.1,0,0,0,58.65,43.852Zm6.309-3.213a6.455,6.455,0,0,1,1.084-3.955,3.568,3.568,0,0,1,3.027-1.445,3.035,3.035,0,0,1,2.383,1.113V31h3.3V46H71.795l-.166-1.133A3.116,3.116,0,0,1,69.051,46.2a3.562,3.562,0,0,1-2.988-1.445A6.659,6.659,0,0,1,64.959,40.639Zm3.291.205q0,2.813,1.641,2.813a1.62,1.62,0,0,0,1.563-.918V38.715a1.576,1.576,0,0,0-1.543-.937q-1.523,0-1.65,2.461ZM82.576,46a3.716,3.716,0,0,1-.312-.947A3.06,3.06,0,0,1,79.725,46.2a3.749,3.749,0,0,1-2.539-.9,2.875,2.875,0,0,1-1.045-2.271,2.955,2.955,0,0,1,1.27-2.6,6.468,6.468,0,0,1,3.691-.879h1.016v-.559q0-1.462-1.26-1.462a1.03,1.03,0,0,0-1.172,1.158H76.395a2.95,2.95,0,0,1,1.3-2.487,5.479,5.479,0,0,1,3.325-.956,4.8,4.8,0,0,1,3.193.986,3.429,3.429,0,0,1,1.2,2.705v4.678a4.79,4.79,0,0,0,.449,2.227V46Zm-2.061-2.148a1.836,1.836,0,0,0,1.021-.264,1.653,1.653,0,0,0,.581-.6V41.3H81.16q-1.719,0-1.719,1.543a.942.942,0,0,0,.3.728A1.1,1.1,0,0,0,80.516,43.852Zm12.256-.82a.76.76,0,0,0-.439-.674,6.685,6.685,0,0,0-1.67-.527,7.615,7.615,0,0,1-2.031-.718,3.4,3.4,0,0,1-1.221-1.079,2.577,2.577,0,0,1-.42-1.455,2.92,2.92,0,0,1,1.2-2.4,4.948,4.948,0,0,1,3.145-.942,5.482,5.482,0,0,1,3.359.947,2.962,2.962,0,0,1,1.27,2.49h-3.3q0-1.27-1.338-1.27a1.326,1.326,0,0,0-.869.288.892.892,0,0,0-.352.718.819.819,0,0,0,.43.713,4.06,4.06,0,0,0,1.372.449,11.856,11.856,0,0,1,1.655.42,3.007,3.007,0,0,1,2.383,2.939,2.767,2.767,0,0,1-1.284,2.354,5.631,5.631,0,0,1-3.325.908,5.747,5.747,0,0,1-2.422-.488,4.05,4.05,0,0,1-1.66-1.328,3.007,3.007,0,0,1-.6-1.768h3.076a1.272,1.272,0,0,0,.488,1.069,2.009,2.009,0,0,0,1.2.337,1.58,1.58,0,0,0,1.011-.273A.875.875,0,0,0,92.771,43.031ZM108.416,46a3.716,3.716,0,0,1-.312-.947,3.06,3.06,0,0,1-2.539,1.143,3.749,3.749,0,0,1-2.539-.9,2.875,2.875,0,0,1-1.045-2.271,2.955,2.955,0,0,1,1.27-2.6,6.468,6.468,0,0,1,3.691-.879h1.016v-.559q0-1.462-1.26-1.462a1.03,1.03,0,0,0-1.172,1.158h-3.291a2.95,2.95,0,0,1,1.3-2.487,5.479,5.479,0,0,1,3.325-.956,4.8,4.8,0,0,1,3.193.986,3.429,3.429,0,0,1,1.2,2.705v4.678a4.79,4.79,0,0,0,.449,2.227V46Zm-2.061-2.148a1.836,1.836,0,0,0,1.021-.264,1.653,1.653,0,0,0,.581-.6V41.3H107q-1.719,0-1.719,1.543a.942.942,0,0,0,.3.728A1.1,1.1,0,0,0,106.355,43.852ZM121.531,46h-3.3V31h3.3Zm7.979,0a3.716,3.716,0,0,1-.312-.947,3.06,3.06,0,0,1-2.539,1.143,3.749,3.749,0,0,1-2.539-.9,2.875,2.875,0,0,1-1.045-2.271,2.955,2.955,0,0,1,1.27-2.6,6.468,6.468,0,0,1,3.691-.879h1.016v-.559q0-1.462-1.26-1.462a1.03,1.03,0,0,0-1.172,1.158h-3.291a2.95,2.95,0,0,1,1.3-2.487,5.479,5.479,0,0,1,3.325-.956,4.8,4.8,0,0,1,3.193.986,3.429,3.429,0,0,1,1.2,2.705v4.678a4.79,4.79,0,0,0,.449,2.227V46Zm-2.061-2.148a1.836,1.836,0,0,0,1.021-.264,1.652,1.652,0,0,0,.581-.6V41.3h-.957q-1.719,0-1.719,1.543a.942.942,0,0,0,.3.728A1.1,1.1,0,0,0,127.449,43.852Zm15.283-2.676V46H139.3V31.781h5.674a6.609,6.609,0,0,1,2.886.6,4.526,4.526,0,0,1,1.943,1.709,4.667,4.667,0,0,1,.688,2.515,4.114,4.114,0,0,1-1.489,3.325,6.179,6.179,0,0,1-4.087,1.245Zm0-2.646h2.246a2.118,2.118,0,0,0,1.519-.5,1.85,1.85,0,0,0,.522-1.406,2.287,2.287,0,0,0-.537-1.592,1.9,1.9,0,0,0-1.465-.605h-2.285Zm15.83-.117-1.084-.078a1.947,1.947,0,0,0-1.992.977V46H152.2V35.434h3.086l.107,1.357a2.548,2.548,0,0,1,2.314-1.553,3.209,3.209,0,0,1,.918.117Zm.42,2.207A6.236,6.236,0,0,1,159.6,37.8a4.4,4.4,0,0,1,1.768-1.9,5.323,5.323,0,0,1,2.705-.664,4.858,4.858,0,0,1,3.74,1.47,5.64,5.64,0,0,1,1.367,4v.117a5.472,5.472,0,0,1-1.372,3.921,4.871,4.871,0,0,1-3.716,1.45,4.927,4.927,0,0,1-3.623-1.353,5.29,5.29,0,0,1-1.475-3.667Zm3.291.205a3.932,3.932,0,0,0,.459,2.148,1.529,1.529,0,0,0,1.357.684q1.758,0,1.8-2.705v-.332q0-2.842-1.816-2.842-1.65,0-1.787,2.451Zm7.939-.186a6.455,6.455,0,0,1,1.084-3.955,3.568,3.568,0,0,1,3.027-1.445,3.035,3.035,0,0,1,2.383,1.113V31h3.3V46h-2.959l-.166-1.133A3.116,3.116,0,0,1,174.3,46.2a3.562,3.562,0,0,1-2.988-1.445A6.659,6.659,0,0,1,170.213,40.639Zm3.291.205q0,2.813,1.641,2.813a1.62,1.62,0,0,0,1.563-.918V38.715a1.576,1.576,0,0,0-1.543-.937q-1.523,0-1.65,2.461Zm14.668,4.014A3.393,3.393,0,0,1,185.35,46.2a3.328,3.328,0,0,1-2.632-1.011,4.251,4.251,0,0,1-.894-2.905V35.434h3.291V42.3a1.183,1.183,0,0,0,1.318,1.357,1.72,1.72,0,0,0,1.611-.811V35.434h3.311V46H188.27Zm9.453-1.2a1.464,1.464,0,0,0,1.074-.376,1.379,1.379,0,0,0,.371-1.05h3.086a3.653,3.653,0,0,1-1.245,2.852A4.631,4.631,0,0,1,197.7,46.2a4.689,4.689,0,0,1-3.633-1.445,5.7,5.7,0,0,1-1.328-4v-.137a6.436,6.436,0,0,1,.591-2.827,4.3,4.3,0,0,1,1.7-1.885,5.081,5.081,0,0,1,2.637-.659,4.573,4.573,0,0,1,3.271,1.143,4.053,4.053,0,0,1,1.211,3.1H199.07a1.807,1.807,0,0,0-.4-1.26,1.382,1.382,0,0,0-1.074-.439q-1.279,0-1.494,1.631a11.507,11.507,0,0,0-.068,1.426,4.52,4.52,0,0,0,.381,2.207A1.319,1.319,0,0,0,197.625,43.656Zm10.391,0a1.464,1.464,0,0,0,1.074-.376,1.379,1.379,0,0,0,.371-1.05h3.086a3.653,3.653,0,0,1-1.245,2.852,4.631,4.631,0,0,1-3.208,1.113,4.689,4.689,0,0,1-3.633-1.445,5.7,5.7,0,0,1-1.328-4v-.137a6.436,6.436,0,0,1,.591-2.827,4.3,4.3,0,0,1,1.7-1.885,5.081,5.081,0,0,1,2.637-.659,4.573,4.573,0,0,1,3.271,1.143,4.053,4.053,0,0,1,1.211,3.1h-3.086a1.807,1.807,0,0,0-.4-1.26,1.382,1.382,0,0,0-1.074-.439q-1.279,0-1.494,1.631a11.507,11.507,0,0,0-.068,1.426,4.52,4.52,0,0,0,.381,2.207A1.319,1.319,0,0,0,208.016,43.656ZM217.41,46h-3.3V35.434h3.3Zm-3.5-13.3a1.482,1.482,0,0,1,.508-1.159,2.149,2.149,0,0,1,2.637,0,1.577,1.577,0,0,1,0,2.319,2.149,2.149,0,0,1-2.637,0A1.482,1.482,0,0,1,213.914,32.7Zm5.107,7.92a6.236,6.236,0,0,1,.615-2.817,4.4,4.4,0,0,1,1.768-1.9,5.323,5.323,0,0,1,2.705-.664,4.858,4.858,0,0,1,3.74,1.47,5.64,5.64,0,0,1,1.367,4v.117a5.472,5.472,0,0,1-1.372,3.921,4.871,4.871,0,0,1-3.716,1.45,4.927,4.927,0,0,1-3.623-1.353,5.29,5.29,0,0,1-1.475-3.667Zm3.291.205a3.932,3.932,0,0,0,.459,2.148,1.529,1.529,0,0,0,1.357.684q1.758,0,1.8-2.705v-.332q0-2.842-1.816-2.842-1.65,0-1.787,2.451ZM224.559,31h3.477l-2.715,3.066-2.686,0Zm9.131,4.434.107,1.24a3.583,3.583,0,0,1,3.018-1.436,3.015,3.015,0,0,1,2.466.986,4.7,4.7,0,0,1,.845,2.969V46h-3.3V39.33a1.783,1.783,0,0,0-.322-1.177,1.491,1.491,0,0,0-1.172-.376,1.569,1.569,0,0,0-1.436.762V46H230.6V35.434Zm12.822,5.205a6.455,6.455,0,0,1,1.084-3.955,3.568,3.568,0,0,1,3.027-1.445,3.035,3.035,0,0,1,2.383,1.113V31h3.3V46h-2.959l-.166-1.133A3.116,3.116,0,0,1,250.6,46.2a3.562,3.562,0,0,1-2.988-1.445A6.659,6.659,0,0,1,246.512,40.639Zm3.291.205q0,2.813,1.641,2.813a1.62,1.62,0,0,0,1.563-.918V38.715a1.576,1.576,0,0,0-1.543-.937q-1.523,0-1.65,2.461ZM263.289,46.2a5.432,5.432,0,0,1-3.936-1.45,5.008,5.008,0,0,1-1.5-3.774V40.7a6.489,6.489,0,0,1,.6-2.861,4.395,4.395,0,0,1,1.753-1.919,5.292,5.292,0,0,1,2.734-.679,4.574,4.574,0,0,1,3.516,1.382,5.43,5.43,0,0,1,1.289,3.853v1.279H261.2a2.372,2.372,0,0,0,.771,1.4,2.3,2.3,0,0,0,1.543.508,2.958,2.958,0,0,0,2.441-1.094l1.5,1.777a4.2,4.2,0,0,1-1.743,1.353A5.891,5.891,0,0,1,263.289,46.2Zm-.371-8.418q-1.445,0-1.719,1.914h3.32v-.254a1.63,1.63,0,0,0-.4-1.226A1.593,1.593,0,0,0,262.918,37.777Zm14.707,5.586h5.967V46H274.2V31.781h3.428ZM290,46.2a5.432,5.432,0,0,1-3.936-1.45,5.008,5.008,0,0,1-1.5-3.774V40.7a6.489,6.489,0,0,1,.6-2.861,4.395,4.395,0,0,1,1.753-1.919,5.292,5.292,0,0,1,2.734-.679,4.574,4.574,0,0,1,3.516,1.382,5.43,5.43,0,0,1,1.289,3.853v1.279h-6.543a2.372,2.372,0,0,0,.771,1.4,2.3,2.3,0,0,0,1.543.508,2.958,2.958,0,0,0,2.441-1.094l1.5,1.777a4.2,4.2,0,0,1-1.743,1.353A5.891,5.891,0,0,1,290,46.2Zm-.371-8.418q-1.445,0-1.719,1.914h3.32v-.254a1.63,1.63,0,0,0-.4-1.226A1.593,1.593,0,0,0,289.627,37.777Zm10.615,5.879a1.464,1.464,0,0,0,1.074-.376,1.379,1.379,0,0,0,.371-1.05h3.086a3.653,3.653,0,0,1-1.245,2.852A4.631,4.631,0,0,1,300.32,46.2a4.689,4.689,0,0,1-3.633-1.445,5.7,5.7,0,0,1-1.328-4v-.137a6.436,6.436,0,0,1,.591-2.827,4.3,4.3,0,0,1,1.7-1.885,5.081,5.081,0,0,1,2.637-.659,4.573,4.573,0,0,1,3.271,1.143,4.053,4.053,0,0,1,1.211,3.1h-3.086a1.806,1.806,0,0,0-.4-1.26,1.382,1.382,0,0,0-1.074-.439q-1.279,0-1.494,1.631a11.51,11.51,0,0,0-.068,1.426,4.52,4.52,0,0,0,.381,2.207A1.319,1.319,0,0,0,300.242,43.656Zm9.141-7.09a3.612,3.612,0,0,1,5.332-.293,4.651,4.651,0,0,1,.908,3.057V46h-3.3V39.408a1.86,1.86,0,0,0-.342-1.235,1.469,1.469,0,0,0-1.162-.4,1.582,1.582,0,0,0-1.436.645V46h-3.291V31h3.291ZM322.566,46.2a5.432,5.432,0,0,1-3.936-1.45,5.008,5.008,0,0,1-1.5-3.774V40.7a6.489,6.489,0,0,1,.6-2.861,4.395,4.395,0,0,1,1.753-1.919,5.292,5.292,0,0,1,2.734-.679,4.574,4.574,0,0,1,3.516,1.382,5.43,5.43,0,0,1,1.289,3.853v1.279h-6.543a2.372,2.372,0,0,0,.771,1.4,2.3,2.3,0,0,0,1.543.508,2.958,2.958,0,0,0,2.441-1.094l1.5,1.777a4.2,4.2,0,0,1-1.743,1.353A5.891,5.891,0,0,1,322.566,46.2Zm-.371-8.418q-1.445,0-1.719,1.914h3.32v-.254a1.63,1.63,0,0,0-.4-1.226A1.593,1.593,0,0,0,322.2,37.777Zm8.193,5.029a1.874,1.874,0,0,1,1.3.464,1.619,1.619,0,0,1,0,2.373,2.049,2.049,0,0,1-2.6,0,1.618,1.618,0,0,1,0-2.363A1.858,1.858,0,0,1,330.389,42.807Zm0-7.793a1.874,1.874,0,0,1,1.3.464,1.619,1.619,0,0,1,0,2.373,2.049,2.049,0,0,1-2.6,0,1.618,1.618,0,0,1,0-2.363A1.858,1.858,0,0,1,330.389,35.014Z" transform="translate(314 1257)" fill="#12263f"/>
    <path id="Intersección_1" data-name="Intersección 1" d="M-1700.516,12133.581v-121.662c56.271-59.337,144.021-111.537,268.333-78.655,244.741,64.735,338.756-54.955,338.756-54.955v255.272Z" transform="translate(1883.516 -10495.309)" fill="#f3ffef"/>
    <g id="Grupo_847640" data-name="Grupo 847640" transform="translate(225.29 1410.807)">
      <g id="Grupo_847639" data-name="Grupo 847639" clip-path="url(#clip-path)">
        <g id="Grupo_847638" data-name="Grupo 847638">
          <g id="Grupo_847637" data-name="Grupo 847637" clip-path="url(#clip-path-2)">
            <path id="Trazado_569562" data-name="Trazado 569562" d="M132.088,526.391a15.162,15.162,0,0,0,6.87,7.159h-9.98a43.162,43.162,0,0,1,.8-7.159Z" transform="translate(-88.552 -361.403)" fill="#0d497b"/>
            <path id="Trazado_569563" data-name="Trazado 569563" d="M15.732,526.391s.111,3.58,4.27,7.159h-7.2l.612-7.159Z" transform="translate(-8.792 -361.403)" fill="#0d497b"/>
            <path id="Trazado_569564" data-name="Trazado 569564" d="M14.164,318.67,20,279.51H46.925c3.254,26.251,3.254,78.321,3.254,78.321H46.057c-11.5-27.553-6.508-38.184-6.508-38.184l-6.639-24.082c-11.963,35.371-19.668,62.266-19.668,62.266H9.119c-3.416-30.374,5.045-39.16,5.045-39.16" transform="translate(-5.703 -191.902)" fill="#0e5d98"/>
            <path id="Trazado_569565" data-name="Trazado 569565" d="M28.006,316.543l5.515-37.033H60.449c1.246,10.052,2.015,23.889,2.489,37.14-2.507.462-6.115,1.032-10.3,1.408l-6.2-22.494c-2.739,8.1-5.251,15.743-7.5,22.732a54.548,54.548,0,0,1-10.926-1.754" transform="translate(-19.228 -191.902)" fill="#0d497b"/>
            <path id="Trazado_569566" data-name="Trazado 569566" d="M143.992,159.3s1.882,20.972,2.748,24.878l10.077,11.281-1.486,4.99s-16.414-3.7-18.588-14.548c-2.286-11.406,5.108-24.577,7.248-26.6" transform="translate(-93.586 -109.369)" fill="#dae8f0"/>
            <path id="Trazado_569567" data-name="Trazado 569567" d="M155.6,205.049l-.27.906s-16.414-3.7-18.588-14.548c-1.821-9.087,2.5-19.289,5.416-24.087l1,.921s-1.711,17.537-3.009,21.443c-1.265,3.808-.142,8.3,15.447,15.365" transform="translate(-93.585 -114.877)" fill="#a8cbe0"/>
            <path id="Trazado_569568" data-name="Trazado 569568" d="M62.762,144.724s-5.424,23.142-9.185,31.82c0,0,3.4,21.984,4.592,40.787H46.924l-.94-20.828-4.779,20.828s-13.084.289-23.208-3.761c0,0,6.635-46.573,18.071-75.5,0,0,16.208.579,26.694,6.653" transform="translate(-12.356 -94.795)" fill="#dae8f0"/>
            <path id="Trazado_569569" data-name="Trazado 569569" d="M18,225.053s5.883-41.287,16.116-70.259l2.544,2.725,5.495,22.552,11.883,6.847c-.154.388-.307.764-.457,1.108,0,0,.666,4.31,1.512,10.739-5.476-.136-22.269-.814-26.147-4.07,0,0-7.907,22.784-7.817,31.45-1.061-.324-2.11-.685-3.127-1.093" transform="translate(-12.356 -106.277)" fill="#a8cbe0"/>
            <path id="Trazado_569570" data-name="Trazado 569570" d="M166.442,233.761l-6.45,10.762c-.759,1.268-2.147,1.828-3.1,1.254l-5.223-3.13a2.666,2.666,0,0,1-.912-3.661l6.449-10.762a35.674,35.674,0,0,1,11.627-11.8l3.352,2.009a45.344,45.344,0,0,1-5.74,15.328" transform="translate(-103.241 -148.59)" fill="#dae8f0"/>
            <path id="Trazado_569571" data-name="Trazado 569571" d="M173.473,258.712l-1.231,2.054a17.983,17.983,0,0,0-2.982.54c1-.609,1.4-1.04,1.446-1.362.062-.476-.629-.816-1.657-.745A29.25,29.25,0,0,0,164.7,260.3c.094-.1.982-1,.239-1.588-.794-.625-.6.088-.726.368s-.842,2.593-5.386.516a1.185,1.185,0,0,1-.141-.068l4.269-7.124c.132-.219.275-.432.417-.653l10.476,6.277c-.129.229-.242.459-.374.679" transform="translate(-108.949 -172.847)" fill="#0e5d98"/>
            <path id="Trazado_569572" data-name="Trazado 569572" d="M160.777,262.293s-.955-1.282-.393-2.141,2.464-.313,1.028.616a1.244,1.244,0,0,0-.635,1.525m5.2,4.483c1-.609,1.4-1.04,1.446-1.362.062-.476-.629-.816-1.657-.745a29.291,29.291,0,0,0-4.348,1.105c.094-.1.982-1,.239-1.588-.794-.625-.6.088-.726.368s-.842,2.593-5.386.516a1.177,1.177,0,0,1-.141-.068l-1.5,2.5,10.518,6.3,4.536-7.569a17.979,17.979,0,0,0-2.982.54" transform="translate(-105.669 -178.317)" fill="#fff"/>
            <rect id="Rectángulo_281635" data-name="Rectángulo 281635" width="0.528" height="12.26" transform="matrix(0.514, -0.858, 0.858, 0.514, 48.24, 89.184)" fill="#0e5d98"/>
            <path id="Trazado_569573" data-name="Trazado 569573" d="M188.674,222.743a66.007,66.007,0,0,0-7.06,9.087l-1.329-.8a44.9,44.9,0,0,1,7.67-8.722Z" transform="translate(-123.778 -152.632)" fill="#f0f0f0"/>
            <g id="Grupo_847609" data-name="Grupo 847609" transform="translate(53.648 69.843)" opacity="0.36" style="mix-blend-mode: multiply;isolation: isolate">
              <g id="Grupo_847608" data-name="Grupo 847608">
                <g id="Grupo_847607" data-name="Grupo 847607" clip-path="url(#clip-path-3)">
                  <path id="Trazado_569574" data-name="Trazado 569574" d="M182,238.928l-6.449,10.762a2.669,2.669,0,0,1-3.665.918l-.719-.431c.957.573,2.344.013,3.1-1.254l6.449-10.762a45.345,45.345,0,0,0,5.74-15.328l.463.277A35.767,35.767,0,0,1,182,238.928" transform="translate(-171.163 -222.833)" fill="#0e5d98"/>
                </g>
              </g>
            </g>
            <rect id="Rectángulo_281637" data-name="Rectángulo 281637" width="2.62" height="6.15" transform="translate(64.554 67.901) rotate(-59.066)" fill="#0e5d98"/>
            <path id="Trazado_569575" data-name="Trazado 569575" d="M161.968,270.606l-1.844.152s1.008.134,1.647.228l-.326.629a8.83,8.83,0,0,1-3.773-.032,16.036,16.036,0,0,0,2.743,1.42l-.339.655c-3.54-.483-8.806-3.759-8.806-3.759l.828-2.291a5.742,5.742,0,0,0,4.033-3.779l1.255.183c.271,1.282-1.094,3.016-1.094,3.016a32.47,32.47,0,0,1,5.874.186l.128,1.157a21.685,21.685,0,0,0-3.9.522,20.383,20.383,0,0,1,4.008.881Z" transform="translate(-103.858 -181.136)" fill="#f7a992"/>
            <path id="Trazado_569576" data-name="Trazado 569576" d="M59.6,138.071s1.889,28.059,3.408,31.965l22.13,10.848-2.6,4.99s-25.167-1.519-28.976-12.366C49.552,162.1,55.848,140.1,59.6,138.071" transform="translate(-35.888 -94.795)" fill="#dae8f0"/>
            <path id="Trazado_569577" data-name="Trazado 569577" d="M110.885,142.785c0,.043-1.451,14.781-4.484,23.88,0,0-2.493-16.839-4.935-25.92a73.569,73.569,0,0,1,9.418,2.041" transform="translate(-69.664 -96.63)" fill="#0e5d98"/>
            <path id="Trazado_569578" data-name="Trazado 569578" d="M101.466,112.148,107.8,99.093l4.168,5.238-1.085,9.857s-2.348,5.125-9.418-2.041" transform="translate(-69.663 -68.034)" fill="#f7a992"/>
            <path id="Trazado_569579" data-name="Trazado 569579" d="M124.068,82.011c2.091.118,8.392.684,9.615,3.238a45.3,45.3,0,0,1-3.7,10.406c-1.362-.821-4.827-2.694-8.094-2.694a41.062,41.062,0,0,1,2.182-10.95" transform="translate(-83.683 -56.306)" fill="#f7a992"/>
            <path id="Trazado_569580" data-name="Trazado 569580" d="M120.238,81.916s1.194.006,1.618.03a30.743,30.743,0,0,0-3.121,10.95c3.266,0,6.732,1.873,8.094,2.694a19.083,19.083,0,0,1-3.214,4.812s-6.318-2.538-6.318-7.048,2.941-11.438,2.941-11.438" transform="translate(-80.532 -56.241)" fill="#b8443c"/>
            <path id="Trazado_569581" data-name="Trazado 569581" d="M143.171,107.72l-.98,4.461-1.487-.04,1.11.552.769-.267Z" transform="translate(-96.603 -73.957)" fill="#f0856c"/>
            <path id="Trazado_569582" data-name="Trazado 569582" d="M137.52,105.765c-.321.657-.365,1.295-.1,1.426s.745-.3,1.066-.952.365-1.3.1-1.426-.745.3-1.066.952" transform="translate(-94.229 -71.945)" fill="#0a3557"/>
            <path id="Trazado_569583" data-name="Trazado 569583" d="M149.306,111.533c-.321.657-.365,1.295-.1,1.426s.745-.3,1.066-.952.365-1.295.1-1.426-.745.3-1.066.952" transform="translate(-102.321 -75.905)" fill="#0a3557"/>
            <g id="Grupo_847612" data-name="Grupo 847612" transform="translate(46.267 33.753)" opacity="0.38">
              <g id="Grupo_847611" data-name="Grupo 847611">
                <g id="Grupo_847610" data-name="Grupo 847610" clip-path="url(#clip-path-4)">
                  <path id="Trazado_569584" data-name="Trazado 569584" d="M147.646,111.05a.926.926,0,0,0,.973.522c.31-.067,1.094-1.145,1.749-2.91,0,0-.674-.435-1.745-.973-.38.918-1.172,2.925-.976,3.361" transform="translate(-147.615 -107.689)" fill="#dae8f0"/>
                </g>
              </g>
            </g>
            <path id="Trazado_569585" data-name="Trazado 569585" d="M148.052,111.189a1.134,1.134,0,0,1-1.016-.651c-.063-.139-.249-.563.974-3.515l.081-.195.188.095c1.068.536,1.735.965,1.763.983l.132.085-.055.148c-.594,1.6-1.425,2.933-1.892,3.033a.89.89,0,0,1-.176.017m.239-3.82c-.789,1.932-.979,2.829-.9,3.009h0a.733.733,0,0,0,.754.409,6.1,6.1,0,0,0,1.548-2.637c-.225-.138-.724-.434-1.4-.783" transform="translate(-100.917 -73.345)" fill="#0d497b"/>
            <path id="Trazado_569586" data-name="Trazado 569586" d="M139.111,97.654l2.537.756.341-1.143-2.607-.521Z" transform="translate(-95.509 -66.423)" fill="#a33c35"/>
            <path id="Trazado_569587" data-name="Trazado 569587" d="M153.338,102.664l-1.578-.81.545-1.061,1.466,1.028Z" transform="translate(-104.193 -69.201)" fill="#a33c35"/>
            <path id="Trazado_569588" data-name="Trazado 569588" d="M132.675,124.473c-.11-.029-2.691-.746-2.864-2.853l.391-.032c.15,1.835,2.551,2.5,2.575,2.507Z" transform="translate(-89.124 -83.478)" fill="#f7a992"/>
            <g id="Grupo_847615" data-name="Grupo 847615" transform="translate(40.959 31.749)" opacity="0.38">
              <g id="Grupo_847614" data-name="Grupo 847614">
                <g id="Grupo_847613" data-name="Grupo 847613" clip-path="url(#clip-path-5)">
                  <path id="Trazado_569589" data-name="Trazado 569589" d="M130.9,104.37c.49,1.047,2.549,1.537,3.07,1.537.4,0,1.569-2.106,2.079-3.063A17.673,17.673,0,0,0,130.9,101.3a6.116,6.116,0,0,0,0,3.074" transform="translate(-130.678 -101.296)" fill="#dae8f0"/>
                </g>
              </g>
            </g>
            <path id="Trazado_569590" data-name="Trazado 569590" d="M133.537,105.634c-.577,0-2.716-.514-3.248-1.65a6.206,6.206,0,0,1-.013-3.2l.041-.168.172.019A18.062,18.062,0,0,1,135.7,102.2l.19.087-.1.184c-1.687,3.167-2.082,3.167-2.251,3.167m-2.917-4.591a5.459,5.459,0,0,0,.024,2.775h0c.43.919,2.339,1.425,2.893,1.425.134-.043.68-.681,1.807-2.774a17.679,17.679,0,0,0-4.723-1.425" transform="translate(-89.29 -69.077)" fill="#0d497b"/>
            <path id="Trazado_569591" data-name="Trazado 569591" d="M132.793,103.348a21.032,21.032,0,0,0-10.989-3.329l0-.588h.133a21.715,21.715,0,0,1,11.2,3.436Z" transform="translate(-83.624 -68.265)" fill="#0d497b"/>
            <path id="Trazado_569592" data-name="Trazado 569592" d="M134.519,82.007c-.631.523-5.533-3.233-11.415-2.58,0,0,.076-3.63,2.559-4.937s9.608,0,10.588,1.634-.981,5.259-1.732,5.882" transform="translate(-84.519 -50.777)" fill="#a33c35"/>
            <path id="Trazado_569593" data-name="Trazado 569593" d="M1187.1,440.524H1016.1v-5.207H1187.1a7.052,7.052,0,0,0,7.045-7.045v-9.729h5.207v9.729a12.266,12.266,0,0,1-12.252,12.252" transform="translate(-697.618 -287.359)" fill="#4489c2"/>
            <path id="Trazado_569594" data-name="Trazado 569594" d="M1487.979,427.551h-5.207V383.88a23.068,23.068,0,0,0-.789-6.672H1431.91a23.052,23.052,0,0,0-.789,6.672v43.671h-5.207V383.88a31.674,31.674,0,0,1,.736-7.175c.76-3.121,2.148-4.7,4.127-4.7h52.341c1.978,0,3.367,1.583,4.127,4.7a31.689,31.689,0,0,1,.736,7.175Z" transform="translate(-978.985 -255.404)" fill="#4489c2"/>
            <path id="Trazado_569595" data-name="Trazado 569595" d="M1406.727,75.218V184.345a4.634,4.634,0,0,0,4.634,4.634h64.827a4.633,4.633,0,0,0,4.634-4.634V75.218Z" transform="translate(-965.813 -51.642)" fill="#9ac8e6"/>
            <rect id="Rectángulo_281640" data-name="Rectángulo 281640" width="48.313" height="9.057" transform="translate(440.914 146.034)" fill="#5caed6"/>
            <path id="Trazado_569596" data-name="Trazado 569596" d="M1455.287,460.791a8.936,8.936,0,1,0,8.937-8.937,8.952,8.952,0,0,0-8.937,8.937m1.487,0a7.45,7.45,0,1,1,7.45,7.45,7.457,7.457,0,0,1-7.45-7.45" transform="translate(-999.153 -310.228)" fill="#0e5d98"/>
            <path id="Trazado_569597" data-name="Trazado 569597" d="M1460.03,464.048a7.45,7.45,0,1,0,7.45-7.45,7.457,7.457,0,0,0-7.45,7.45" transform="translate(-1002.409 -313.485)" fill="#fff"/>
            <path id="Trazado_569598" data-name="Trazado 569598" d="M1478.586,465.371v-4.149h1.6v4.149a2.015,2.015,0,1,1-1.6,0" transform="translate(-1014.314 -316.66)" fill="#0e5d98"/>
            <path id="Trazado_569599" data-name="Trazado 569599" d="M1541.815,185.673h2.5V75.218h-2.5Zm6.691,0h8.852V75.218h-8.852Z" transform="translate(-1058.56 -51.642)" fill="#c9e3f3"/>
            <path id="Trazado_569600" data-name="Trazado 569600" d="M1406.727,75.218V184.345a4.634,4.634,0,0,0,4.634,4.634h5.459V77.6h64V75.218Z" transform="translate(-965.813 -51.642)" fill="#5caed6"/>
            <rect id="Rectángulo_281641" data-name="Rectángulo 281641" width="6.653" height="13.885" transform="translate(453.147 5.207)" fill="#5caed6"/>
            <rect id="Rectángulo_281642" data-name="Rectángulo 281642" width="13.885" height="7.666" transform="translate(449.531)" fill="#9ac8e6"/>
            <path id="Trazado_569601" data-name="Trazado 569601" d="M1389.458,44.255h84.918v-1.7l-42.458-13.017-42.46,13.017Z" transform="translate(-953.957 -20.277)" fill="#9ac8e6"/>
            <path id="Trazado_569602" data-name="Trazado 569602" d="M1546.534,44.307h-8.84l-11.644-12Z" transform="translate(-1047.737 -22.178)" fill="#c9e3f3"/>
            <path id="Trazado_569603" data-name="Trazado 569603" d="M1526.051,32.3l7.376,12h-2.435Z" transform="translate(-1047.737 -22.177)" fill="#c9e3f3"/>
            <path id="Trazado_569604" data-name="Trazado 569604" d="M1195.652,427.551h-5.207V383.88a23.042,23.042,0,0,0-.79-6.672h-50.073a23.061,23.061,0,0,0-.789,6.672v43.671h-5.207V383.88a31.684,31.684,0,0,1,.735-7.175c.76-3.121,2.148-4.7,4.126-4.7h52.341c1.978,0,3.367,1.583,4.127,4.7a31.689,31.689,0,0,1,.736,7.175Z" transform="translate(-778.284 -255.404)" fill="#4489c2"/>
            <path id="Trazado_569605" data-name="Trazado 569605" d="M1114.4,190.122v73.112a4.633,4.633,0,0,0,4.634,4.634h64.827a4.633,4.633,0,0,0,4.634-4.634V190.122Z" transform="translate(-765.11 -130.532)" fill="#9ac8e6"/>
            <rect id="Rectángulo_281643" data-name="Rectángulo 281643" width="48.313" height="9.057" transform="translate(349.289 146.034)" fill="#5caed6"/>
            <path id="Trazado_569606" data-name="Trazado 569606" d="M1162.96,460.791a8.936,8.936,0,1,0,8.936-8.937,8.952,8.952,0,0,0-8.936,8.937m1.487,0a7.45,7.45,0,1,1,7.45,7.45,7.457,7.457,0,0,1-7.45-7.45" transform="translate(-798.45 -310.228)" fill="#0e5d98"/>
            <path id="Trazado_569607" data-name="Trazado 569607" d="M1167.7,464.048a7.45,7.45,0,1,0,7.45-7.45,7.457,7.457,0,0,0-7.45,7.45" transform="translate(-801.707 -313.485)" fill="#fff"/>
            <path id="Trazado_569608" data-name="Trazado 569608" d="M1186.257,465.371v-4.149h1.6v4.149a2.015,2.015,0,1,1-1.6,0" transform="translate(-813.61 -316.66)" fill="#0e5d98"/>
            <path id="Trazado_569609" data-name="Trazado 569609" d="M1249.487,264.562h2.5v-74.44h-2.5Zm6.691,0h8.852v-74.44h-8.852Z" transform="translate(-857.857 -130.532)" fill="#c9e3f3"/>
            <path id="Trazado_569610" data-name="Trazado 569610" d="M1114.4,190.122v73.112a4.633,4.633,0,0,0,4.634,4.634h5.459V190.122Z" transform="translate(-765.11 -130.532)" fill="#5caed6"/>
            <path id="Trazado_569611" data-name="Trazado 569611" d="M1097.131,47.094h84.918V43.059l-42.458-30.831-42.46,30.831Z" transform="translate(-753.255 -8.395)" fill="#9ac8e6"/>
            <path id="Trazado_569612" data-name="Trazado 569612" d="M1254.207,47.219h-8.84l-11.643-28.433Z" transform="translate(-847.034 -12.898)" fill="#c9e3f3"/>
            <path id="Trazado_569613" data-name="Trazado 569613" d="M1233.723,18.786l7.377,28.433h-2.436Z" transform="translate(-847.034 -12.898)" fill="#c9e3f3"/>
            <rect id="Rectángulo_281644" data-name="Rectángulo 281644" width="78.127" height="3.037" transform="translate(347.273 59.59)" fill="#c9e3f3"/>
            <rect id="Rectángulo_281645" data-name="Rectángulo 281645" width="17.33" height="9.329" transform="translate(377.672 0.795)" fill="#9ac8e6"/>
            <path id="Trazado_569614" data-name="Trazado 569614" d="M7.268,429.591h9.216V413.008h4.022v16.584h99.8V413.008h4.022v16.584h99.8V413.008h4.022v16.584H244.66v3.254H228.149v22.86h-4.022v-22.86h-99.8v22.86h-4.022v-22.86h-99.8v22.86H16.484v-22.86H7.268Z" transform="translate(-4.99 -283.557)" fill="#4489c2"/>
            <rect id="Rectángulo_281646" data-name="Rectángulo 281646" width="237.392" height="6.509" transform="translate(2.278 115.999)" fill="#0e5d98"/>
            <rect id="Rectángulo_281647" data-name="Rectángulo 281647" width="239.67" height="14.91" transform="translate(0 120.723)" fill="#9ac8e6"/>
            <path id="Trazado_569615" data-name="Trazado 569615" d="M716.952,400.074l-4.918-14.91h16.495v14.91Z" transform="translate(-488.859 -264.441)" fill="#5caed6"/>
            <path id="Trazado_569616" data-name="Trazado 569616" d="M871.219,90.582h-8.87V87.111h8.87a3.838,3.838,0,0,0,3.833-3.833V49.758a3.838,3.838,0,0,0-3.833-3.833h-82.7V42.454h82.7a7.312,7.312,0,0,1,7.3,7.3V83.278a7.312,7.312,0,0,1-7.3,7.3" transform="translate(-541.375 -29.148)" fill="#4489c2"/>
            <rect id="Rectángulo_281648" data-name="Rectángulo 281648" width="3.471" height="17.063" transform="translate(245.414 21.266)" fill="#4489c2"/>
            <rect id="Rectángulo_281649" data-name="Rectángulo 281649" width="3.471" height="17.063" transform="translate(268.43 21.266)" fill="#4489c2"/>
            <rect id="Rectángulo_281650" data-name="Rectángulo 281650" width="3.471" height="17.063" transform="translate(291.447 21.266)" fill="#4489c2"/>
            <rect id="Rectángulo_281651" data-name="Rectángulo 281651" width="3.471" height="17.063" transform="translate(314.464 21.266)" fill="#4489c2"/>
            <path id="Trazado_569617" data-name="Trazado 569617" d="M995.9,79.371h8.1l-1.459,5.062h-5.187Z" transform="translate(-683.751 -54.493)" fill="#9ac8e6"/>
            <path id="Trazado_569618" data-name="Trazado 569618" d="M1003.609,80.733a18.28,18.28,0,0,0-7.128.662L995.9,79.37H1004Z" transform="translate(-683.75 -54.493)" fill="#5caed6"/>
            <rect id="Rectángulo_281652" data-name="Rectángulo 281652" width="9.999" height="24.082" transform="translate(311.199 0.795)" fill="#9ac8e6"/>
            <rect id="Rectángulo_281653" data-name="Rectángulo 281653" width="2.15" height="24.082" transform="translate(317.403 0.795)" fill="#c9e3f3"/>
            <path id="Trazado_569619" data-name="Trazado 569619" d="M922.463,79.371h8.1l-1.459,5.062h-5.187Z" transform="translate(-633.333 -54.493)" fill="#9ac8e6"/>
            <path id="Trazado_569620" data-name="Trazado 569620" d="M930.176,80.733a18.28,18.28,0,0,0-7.128.662l-.584-2.025h8.1Z" transform="translate(-633.334 -54.493)" fill="#5caed6"/>
            <rect id="Rectángulo_281654" data-name="Rectángulo 281654" width="9.999" height="24.082" transform="translate(288.183 0.795)" fill="#9ac8e6"/>
            <rect id="Rectángulo_281655" data-name="Rectángulo 281655" width="2.15" height="24.082" transform="translate(294.386 0.795)" fill="#c9e3f3"/>
            <path id="Trazado_569621" data-name="Trazado 569621" d="M849.029,79.371h8.1l-1.459,5.062h-5.187Z" transform="translate(-582.915 -54.493)" fill="#9ac8e6"/>
            <path id="Trazado_569622" data-name="Trazado 569622" d="M856.741,80.733a18.28,18.28,0,0,0-7.128.662l-.584-2.025h8.1Z" transform="translate(-582.916 -54.493)" fill="#5caed6"/>
            <rect id="Rectángulo_281656" data-name="Rectángulo 281656" width="9.999" height="24.082" transform="translate(265.166 0.795)" fill="#9ac8e6"/>
            <rect id="Rectángulo_281657" data-name="Rectángulo 281657" width="2.15" height="24.082" transform="translate(271.369 0.795)" fill="#c9e3f3"/>
            <path id="Trazado_569623" data-name="Trazado 569623" d="M775.594,79.371h8.1l-1.459,5.062h-5.187Z" transform="translate(-532.498 -54.493)" fill="#9ac8e6"/>
            <path id="Trazado_569624" data-name="Trazado 569624" d="M783.306,80.733a18.28,18.28,0,0,0-7.128.662l-.584-2.025H783.7Z" transform="translate(-532.497 -54.493)" fill="#5caed6"/>
            <rect id="Rectángulo_281658" data-name="Rectángulo 281658" width="9.999" height="24.082" transform="translate(242.149 0.795)" fill="#9ac8e6"/>
            <rect id="Rectángulo_281659" data-name="Rectángulo 281659" width="2.15" height="24.082" transform="translate(248.352 0.795)" fill="#c9e3f3"/>
            <rect id="Rectángulo_281660" data-name="Rectángulo 281660" width="91.857" height="138.469" transform="translate(235.746 33.679)" fill="#1b7bbf"/>
            <rect id="Rectángulo_281661" data-name="Rectángulo 281661" width="58.566" height="22.853" transform="translate(251.849 84.359)" fill="#0e5d98"/>
            <rect id="Rectángulo_281662" data-name="Rectángulo 281662" width="16.006" height="17.321" transform="translate(294.409 118.855)" fill="#0e5d98"/>
            <rect id="Rectángulo_281663" data-name="Rectángulo 281663" width="16.006" height="17.321" transform="translate(273.129 118.855)" fill="#0e5d98"/>
            <rect id="Rectángulo_281664" data-name="Rectángulo 281664" width="16.006" height="17.321" transform="translate(251.849 118.855)" fill="#0e5d98"/>
            <rect id="Rectángulo_281665" data-name="Rectángulo 281665" width="91.857" height="2.533" transform="translate(235.746 146.034)" fill="#0e5d98"/>
            <rect id="Rectángulo_281666" data-name="Rectángulo 281666" width="58.566" height="29.506" transform="translate(252.391 44.259)" fill="#0d497b"/>
            <rect id="Rectángulo_281667" data-name="Rectángulo 281667" width="58.566" height="22.853" transform="translate(252.391 83.817)" fill="#a8cbe0"/>
            <rect id="Rectángulo_281668" data-name="Rectángulo 281668" width="16.006" height="17.321" transform="translate(294.951 118.313)" fill="#a8cbe0"/>
            <rect id="Rectángulo_281669" data-name="Rectángulo 281669" width="11.295" height="6.111" transform="translate(297.306 120.862)" fill="#c22b38"/>
            <rect id="Rectángulo_281670" data-name="Rectángulo 281670" width="16.006" height="17.321" transform="translate(273.671 118.313)" fill="#a8cbe0"/>
            <rect id="Rectángulo_281671" data-name="Rectángulo 281671" width="11.295" height="6.111" transform="translate(276.027 120.862)" fill="#c22b38"/>
            <rect id="Rectángulo_281672" data-name="Rectángulo 281672" width="16.006" height="17.321" transform="translate(252.391 118.313)" fill="#a8cbe0"/>
            <rect id="Rectángulo_281673" data-name="Rectángulo 281673" width="11.295" height="6.111" transform="translate(254.747 120.862)" fill="#c22b38"/>
            <rect id="Rectángulo_281674" data-name="Rectángulo 281674" width="51.623" height="3.905" transform="translate(255.863 48.851)" fill="#1b7bbf"/>
            <rect id="Rectángulo_281675" data-name="Rectángulo 281675" width="51.623" height="3.905" transform="translate(255.863 55.794)" fill="#1b7bbf"/>
            <rect id="Rectángulo_281676" data-name="Rectángulo 281676" width="5.792" height="3.905" transform="translate(301.693 62.736)" fill="#1b7bbf"/>
            <rect id="Rectángulo_281677" data-name="Rectángulo 281677" width="5.792" height="3.905" transform="translate(292.527 62.736)" fill="#1b7bbf"/>
            <rect id="Rectángulo_281678" data-name="Rectángulo 281678" width="5.793" height="3.905" transform="translate(283.361 62.736)" fill="#1b7bbf"/>
            <rect id="Rectángulo_281679" data-name="Rectángulo 281679" width="5.792" height="3.905" transform="translate(274.195 62.736)" fill="#1b7bbf"/>
            <rect id="Rectángulo_281680" data-name="Rectángulo 281680" width="5.792" height="3.905" transform="translate(265.029 62.736)" fill="#1b7bbf"/>
            <rect id="Rectángulo_281681" data-name="Rectángulo 281681" width="5.792" height="3.905" transform="translate(255.863 62.736)" fill="#1b7bbf"/>
            <rect id="Rectángulo_281682" data-name="Rectángulo 281682" width="3.182" height="9.618" transform="translate(301.779 89.024)" fill="#1b7bbf"/>
            <rect id="Rectángulo_281683" data-name="Rectángulo 281683" width="3.182" height="9.618" transform="translate(290.931 89.024)" fill="#1b7bbf"/>
            <rect id="Rectángulo_281684" data-name="Rectángulo 281684" width="3.182" height="9.618" transform="translate(280.083 89.024)" fill="#1b7bbf"/>
            <rect id="Rectángulo_281685" data-name="Rectángulo 281685" width="3.182" height="9.618" transform="translate(269.236 89.024)" fill="#1b7bbf"/>
            <rect id="Rectángulo_281686" data-name="Rectángulo 281686" width="3.182" height="9.618" transform="translate(258.388 89.024)" fill="#1b7bbf"/>
            <path id="Trazado_569625" data-name="Trazado 569625" d="M663.83,286.276v12.547c0,1.478-.9,2.671-2.018,2.671h-6.089a2.666,2.666,0,0,1-2.664-2.671V286.276a35.671,35.671,0,0,1,3.907-16.1h3.908a45.341,45.341,0,0,1,2.956,16.1" transform="translate(-448.369 -185.495)" fill="#dae8f0"/>
            <path id="Trazado_569626" data-name="Trazado 569626" d="M665.321,319.57v2.394a18,18,0,0,0-2.281,2c.547-1.037.668-1.613.54-1.911-.192-.441-.959-.376-1.8.213a29.289,29.289,0,0,0-3.161,3.183c.028-.135.327-1.364-.611-1.485-1-.128-.469.384-.433.689s.611,2.657-4.355,3.211a1.145,1.145,0,0,1-.156.014V319.57c0-.256.014-.512.021-.774h12.213c.007.263.029.519.029.774" transform="translate(-448.369 -218.875)" fill="#0e5d98"/>
            <path id="Trazado_569627" data-name="Trazado 569627" d="M656.033,324.2c.755-1.536-1.158-1.026-1.2,0s1.438,1.635,1.438,1.635a1.244,1.244,0,0,1-.24-1.635m9.288.808v8.824H653.059v-2.913a1.145,1.145,0,0,0,.156-.014c4.966-.554,4.383-2.9,4.355-3.211s-.569-.817.433-.689c.938.121.639,1.35.611,1.485a29.289,29.289,0,0,1,3.161-3.183c.846-.59,1.613-.654,1.8-.213.128.3.008.874-.54,1.911a18,18,0,0,1,2.281-2" transform="translate(-448.369 -221.921)" fill="#fff"/>
            <rect id="Rectángulo_281687" data-name="Rectángulo 281687" width="12.261" height="0.528" transform="translate(204.69 111.385)" fill="#0e5d98"/>
            <path id="Trazado_569628" data-name="Trazado 569628" d="M660.935,277.543a66.054,66.054,0,0,0-1.385,11.424H658a44.907,44.907,0,0,1,2.1-11.424Z" transform="translate(-451.762 -190.552)" fill="#f0f0f0"/>
            <g id="Grupo_847618" data-name="Grupo 847618" transform="translate(212.505 84.682)" opacity="0.36" style="mix-blend-mode: multiply;isolation: isolate">
              <g id="Grupo_847617" data-name="Grupo 847617">
                <g id="Grupo_847616" data-name="Grupo 847616" clip-path="url(#clip-path-6)">
                  <path id="Trazado_569629" data-name="Trazado 569629" d="M682.44,286.276v12.547a2.668,2.668,0,0,1-2.671,2.671h-.839c1.115,0,2.018-1.193,2.018-2.671V286.276a45.339,45.339,0,0,0-2.956-16.1h.54a35.761,35.761,0,0,1,3.908,16.1" transform="translate(-677.992 -270.177)" fill="#0e5d98"/>
                </g>
              </g>
            </g>
            <rect id="Rectángulo_281689" data-name="Rectángulo 281689" width="6.15" height="2.62" transform="translate(207.744 82.652)" fill="#0e5d98"/>
            <path id="Trazado_569630" data-name="Trazado 569630" d="M571.266,286.276v12.547c0,1.478-.9,2.671-2.018,2.671h-6.089a2.666,2.666,0,0,1-2.664-2.671V286.276a35.672,35.672,0,0,1,3.907-16.1h3.908a45.346,45.346,0,0,1,2.956,16.1" transform="translate(-384.818 -185.495)" fill="#dae8f0"/>
            <path id="Trazado_569631" data-name="Trazado 569631" d="M572.758,319.57v2.394a17.991,17.991,0,0,0-2.281,2c.547-1.037.668-1.613.54-1.911-.191-.441-.959-.376-1.8.213a29.319,29.319,0,0,0-3.162,3.183c.028-.135.327-1.364-.611-1.485-1-.128-.469.384-.433.689s.611,2.657-4.355,3.211a1.147,1.147,0,0,1-.156.014V319.57c0-.256.014-.512.021-.774h12.213c.007.263.029.519.029.774" transform="translate(-384.818 -218.875)" fill="#0e5d98"/>
            <path id="Trazado_569632" data-name="Trazado 569632" d="M563.47,324.2c.755-1.536-1.158-1.026-1.2,0s1.438,1.635,1.438,1.635a1.244,1.244,0,0,1-.24-1.635m9.288.808v8.824H560.5v-2.913a1.147,1.147,0,0,0,.156-.014c4.966-.554,4.383-2.9,4.355-3.211s-.569-.817.433-.689c.938.121.639,1.35.611,1.485a29.319,29.319,0,0,1,3.162-3.183c.845-.59,1.613-.654,1.8-.213.128.3.007.874-.54,1.911a17.989,17.989,0,0,1,2.281-2" transform="translate(-384.818 -221.921)" fill="#fff"/>
            <rect id="Rectángulo_281690" data-name="Rectángulo 281690" width="12.261" height="0.528" transform="translate(175.677 111.385)" fill="#0e5d98"/>
            <path id="Trazado_569633" data-name="Trazado 569633" d="M568.37,277.543a66.054,66.054,0,0,0-1.385,11.424h-1.549a44.909,44.909,0,0,1,2.1-11.424Z" transform="translate(-388.21 -190.552)" fill="#f0f0f0"/>
            <g id="Grupo_847621" data-name="Grupo 847621" transform="translate(183.492 84.682)" opacity="0.36" style="mix-blend-mode: multiply;isolation: isolate">
              <g id="Grupo_847620" data-name="Grupo 847620">
                <g id="Grupo_847619" data-name="Grupo 847619" clip-path="url(#clip-path-7)">
                  <path id="Trazado_569634" data-name="Trazado 569634" d="M589.876,286.276v12.547a2.668,2.668,0,0,1-2.671,2.671h-.839c1.115,0,2.018-1.193,2.018-2.671V286.276a45.347,45.347,0,0,0-2.955-16.1h.54a35.762,35.762,0,0,1,3.908,16.1" transform="translate(-585.429 -270.177)" fill="#0e5d98"/>
                </g>
              </g>
            </g>
            <rect id="Rectángulo_281692" data-name="Rectángulo 281692" width="6.15" height="2.62" transform="translate(178.732 82.652)" fill="#0e5d98"/>
            <path id="Trazado_569635" data-name="Trazado 569635" d="M478.7,286.276v12.547c0,1.478-.9,2.671-2.018,2.671h-6.089a2.666,2.666,0,0,1-2.664-2.671V286.276a35.673,35.673,0,0,1,3.908-16.1h3.908a45.348,45.348,0,0,1,2.955,16.1" transform="translate(-321.265 -185.495)" fill="#dae8f0"/>
            <path id="Trazado_569636" data-name="Trazado 569636" d="M480.192,319.57v2.394a17.994,17.994,0,0,0-2.281,2c.547-1.037.668-1.613.54-1.911-.192-.441-.959-.376-1.8.213a29.282,29.282,0,0,0-3.161,3.183c.028-.135.327-1.364-.611-1.485-1-.128-.469.384-.433.689s.611,2.657-4.355,3.211a1.149,1.149,0,0,1-.156.014V319.57c0-.256.014-.512.021-.774h12.213c.007.263.029.519.029.774" transform="translate(-321.265 -218.875)" fill="#0e5d98"/>
            <path id="Trazado_569637" data-name="Trazado 569637" d="M470.9,324.2c.755-1.536-1.158-1.026-1.2,0s1.438,1.635,1.438,1.635a1.244,1.244,0,0,1-.24-1.635m9.288.808v8.824H467.93v-2.913a1.149,1.149,0,0,0,.156-.014c4.966-.554,4.383-2.9,4.355-3.211s-.569-.817.433-.689c.938.121.639,1.35.611,1.485a29.282,29.282,0,0,1,3.161-3.183c.846-.59,1.613-.654,1.8-.213.128.3.007.874-.54,1.911a17.993,17.993,0,0,1,2.281-2" transform="translate(-321.265 -221.921)" fill="#fff"/>
            <rect id="Rectángulo_281693" data-name="Rectángulo 281693" width="12.261" height="0.528" transform="translate(146.665 111.385)" fill="#0e5d98"/>
            <path id="Trazado_569638" data-name="Trazado 569638" d="M475.806,277.543a66.025,66.025,0,0,0-1.385,11.424h-1.549a44.883,44.883,0,0,1,2.1-11.424Z" transform="translate(-324.658 -190.552)" fill="#f0f0f0"/>
            <g id="Grupo_847624" data-name="Grupo 847624" transform="translate(154.48 84.682)" opacity="0.36" style="mix-blend-mode: multiply;isolation: isolate">
              <g id="Grupo_847623" data-name="Grupo 847623">
                <g id="Grupo_847622" data-name="Grupo 847622" clip-path="url(#clip-path-6)">
                  <path id="Trazado_569639" data-name="Trazado 569639" d="M497.311,286.276v12.547a2.668,2.668,0,0,1-2.671,2.671H493.8c1.115,0,2.018-1.193,2.018-2.671V286.276a45.341,45.341,0,0,0-2.956-16.1h.54a35.763,35.763,0,0,1,3.908,16.1" transform="translate(-492.863 -270.177)" fill="#0e5d98"/>
                </g>
              </g>
            </g>
            <rect id="Rectángulo_281695" data-name="Rectángulo 281695" width="6.15" height="2.62" transform="translate(149.719 82.652)" fill="#0e5d98"/>
            <path id="Trazado_569640" data-name="Trazado 569640" d="M386.135,286.276v12.547c0,1.478-.9,2.671-2.018,2.671h-6.089a2.666,2.666,0,0,1-2.664-2.671V286.276a35.672,35.672,0,0,1,3.908-16.1h3.908a45.345,45.345,0,0,1,2.955,16.1" transform="translate(-257.713 -185.495)" fill="#dae8f0"/>
            <path id="Trazado_569641" data-name="Trazado 569641" d="M387.628,319.57v2.394a17.97,17.97,0,0,0-2.281,2c.547-1.037.668-1.613.54-1.911-.191-.441-.959-.376-1.8.213a29.33,29.33,0,0,0-3.161,3.183c.028-.135.327-1.364-.611-1.485-1-.128-.469.384-.433.689s.611,2.657-4.355,3.211a1.146,1.146,0,0,1-.156.014V319.57c0-.256.014-.512.021-.774H387.6c.007.263.029.519.029.774" transform="translate(-257.714 -218.875)" fill="#0e5d98"/>
            <path id="Trazado_569642" data-name="Trazado 569642" d="M378.34,324.2c.755-1.536-1.158-1.026-1.2,0s1.438,1.635,1.438,1.635a1.244,1.244,0,0,1-.24-1.635m9.288.808v8.824H375.366v-2.913a1.146,1.146,0,0,0,.156-.014c4.966-.554,4.383-2.9,4.355-3.211s-.569-.817.433-.689c.938.121.639,1.35.611,1.485a29.329,29.329,0,0,1,3.161-3.183c.846-.59,1.613-.654,1.8-.213.128.3.007.874-.54,1.911a17.969,17.969,0,0,1,2.281-2" transform="translate(-257.714 -221.921)" fill="#fff"/>
            <rect id="Rectángulo_281696" data-name="Rectángulo 281696" width="12.261" height="0.528" transform="translate(117.652 111.385)" fill="#0e5d98"/>
            <path id="Trazado_569643" data-name="Trazado 569643" d="M383.241,277.543a66.054,66.054,0,0,0-1.385,11.424h-1.549a44.878,44.878,0,0,1,2.1-11.424Z" transform="translate(-261.106 -190.552)" fill="#f0f0f0"/>
            <g id="Grupo_847627" data-name="Grupo 847627" transform="translate(125.467 84.682)" opacity="0.36" style="mix-blend-mode: multiply;isolation: isolate">
              <g id="Grupo_847626" data-name="Grupo 847626">
                <g id="Grupo_847625" data-name="Grupo 847625" clip-path="url(#clip-path-7)">
                  <path id="Trazado_569644" data-name="Trazado 569644" d="M404.747,286.276v12.547a2.668,2.668,0,0,1-2.671,2.671h-.838c1.115,0,2.018-1.193,2.018-2.671V286.276a45.346,45.346,0,0,0-2.955-16.1h.54a35.762,35.762,0,0,1,3.908,16.1" transform="translate(-400.3 -270.177)" fill="#0e5d98"/>
                </g>
              </g>
            </g>
            <rect id="Rectángulo_281698" data-name="Rectángulo 281698" width="6.15" height="2.62" transform="translate(120.706 82.652)" fill="#0e5d98"/>
            <path id="Trazado_569645" data-name="Trazado 569645" d="M293.572,286.276v12.547c0,1.478-.9,2.671-2.018,2.671h-6.089a2.666,2.666,0,0,1-2.664-2.671V286.276a35.672,35.672,0,0,1,3.908-16.1h3.908a45.345,45.345,0,0,1,2.955,16.1" transform="translate(-194.162 -185.495)" fill="#dae8f0"/>
            <path id="Trazado_569646" data-name="Trazado 569646" d="M295.063,319.57v2.394a17.969,17.969,0,0,0-2.281,2c.547-1.037.668-1.613.54-1.911-.192-.441-.959-.376-1.8.213a29.3,29.3,0,0,0-3.161,3.183c.028-.135.327-1.364-.611-1.485-1-.128-.469.384-.433.689s.611,2.657-4.355,3.211a1.148,1.148,0,0,1-.156.014V319.57c0-.256.014-.512.021-.774h12.213c.007.263.029.519.029.774" transform="translate(-194.162 -218.875)" fill="#0e5d98"/>
            <path id="Trazado_569647" data-name="Trazado 569647" d="M285.775,324.2c.755-1.536-1.158-1.026-1.2,0s1.438,1.635,1.438,1.635a1.244,1.244,0,0,1-.24-1.635m9.288.808v8.824H282.8v-2.913a1.148,1.148,0,0,0,.156-.014c4.966-.554,4.383-2.9,4.355-3.211s-.569-.817.433-.689c.938.121.639,1.35.611,1.485a29.3,29.3,0,0,1,3.161-3.183c.846-.59,1.613-.654,1.8-.213.128.3.007.874-.54,1.911a17.968,17.968,0,0,1,2.281-2" transform="translate(-194.162 -221.921)" fill="#fff"/>
            <rect id="Rectángulo_281699" data-name="Rectángulo 281699" width="12.261" height="0.528" transform="translate(88.639 111.385)" fill="#0e5d98"/>
            <path id="Trazado_569648" data-name="Trazado 569648" d="M290.677,277.543a66.025,66.025,0,0,0-1.385,11.424h-1.549a44.9,44.9,0,0,1,2.1-11.424Z" transform="translate(-197.555 -190.552)" fill="#f0f0f0"/>
            <g id="Grupo_847630" data-name="Grupo 847630" transform="translate(96.454 84.682)" opacity="0.36" style="mix-blend-mode: multiply;isolation: isolate">
              <g id="Grupo_847629" data-name="Grupo 847629">
                <g id="Grupo_847628" data-name="Grupo 847628" clip-path="url(#clip-path-6)">
                  <path id="Trazado_569649" data-name="Trazado 569649" d="M312.182,286.276v12.547a2.668,2.668,0,0,1-2.671,2.671h-.838c1.115,0,2.018-1.193,2.018-2.671V286.276a45.346,45.346,0,0,0-2.955-16.1h.54a35.766,35.766,0,0,1,3.908,16.1" transform="translate(-307.735 -270.177)" fill="#0e5d98"/>
                </g>
              </g>
            </g>
            <rect id="Rectángulo_281701" data-name="Rectángulo 281701" width="6.15" height="2.62" transform="translate(91.693 82.652)" fill="#0e5d98"/>
            <path id="Trazado_569650" data-name="Trazado 569650" d="M108.442,286.276v12.547c0,1.478-.9,2.671-2.018,2.671h-6.089a2.666,2.666,0,0,1-2.664-2.671V286.276a35.673,35.673,0,0,1,3.908-16.1h3.908a45.347,45.347,0,0,1,2.955,16.1" transform="translate(-67.058 -185.495)" fill="#dae8f0"/>
            <path id="Trazado_569651" data-name="Trazado 569651" d="M109.934,319.57v2.394a17.969,17.969,0,0,0-2.281,2c.547-1.037.668-1.613.54-1.911-.192-.441-.959-.376-1.8.213a29.275,29.275,0,0,0-3.161,3.183c.028-.135.327-1.364-.611-1.485-1-.128-.469.384-.433.689s.611,2.657-4.355,3.211a1.147,1.147,0,0,1-.156.014V319.57c0-.256.014-.512.021-.774h12.213c.007.263.029.519.029.774" transform="translate(-67.058 -218.875)" fill="#0e5d98"/>
            <path id="Trazado_569652" data-name="Trazado 569652" d="M100.646,324.2c.755-1.536-1.158-1.026-1.2,0s1.438,1.635,1.438,1.635a1.244,1.244,0,0,1-.24-1.635m9.288.808v8.824H97.672v-2.913a1.147,1.147,0,0,0,.156-.014c4.966-.554,4.383-2.9,4.355-3.211s-.569-.817.433-.689c.938.121.639,1.35.611,1.485a29.275,29.275,0,0,1,3.161-3.183c.846-.59,1.613-.654,1.8-.213.128.3.007.874-.54,1.911a17.968,17.968,0,0,1,2.281-2" transform="translate(-67.058 -221.921)" fill="#fff"/>
            <rect id="Rectángulo_281702" data-name="Rectángulo 281702" width="12.261" height="0.528" transform="translate(30.614 111.385)" fill="#0e5d98"/>
            <path id="Trazado_569653" data-name="Trazado 569653" d="M105.548,277.543a66.058,66.058,0,0,0-1.385,11.424h-1.549a44.894,44.894,0,0,1,2.1-11.424Z" transform="translate(-70.451 -190.552)" fill="#f0f0f0"/>
            <g id="Grupo_847633" data-name="Grupo 847633" transform="translate(38.429 84.682)" opacity="0.36" style="mix-blend-mode: multiply;isolation: isolate">
              <g id="Grupo_847632" data-name="Grupo 847632">
                <g id="Grupo_847631" data-name="Grupo 847631" clip-path="url(#clip-path-6)">
                  <path id="Trazado_569654" data-name="Trazado 569654" d="M127.053,286.276v12.547a2.668,2.668,0,0,1-2.671,2.671h-.838c1.116,0,2.018-1.193,2.018-2.671V286.276a45.346,45.346,0,0,0-2.955-16.1h.54a35.766,35.766,0,0,1,3.908,16.1" transform="translate(-122.606 -270.177)" fill="#0e5d98"/>
                </g>
              </g>
            </g>
            <rect id="Rectángulo_281704" data-name="Rectángulo 281704" width="6.15" height="2.62" transform="translate(33.668 82.652)" fill="#0e5d98"/>
            <g id="Grupo_847636" data-name="Grupo 847636" transform="translate(235.746 141.626)" opacity="0.24" style="mix-blend-mode: multiply;isolation: isolate">
              <g id="Grupo_847635" data-name="Grupo 847635">
                <g id="Grupo_847634" data-name="Grupo 847634" clip-path="url(#clip-path-12)">
                  <path id="Trazado_569655" data-name="Trazado 569655" d="M844,470.486s-53.106-5.154-91.857-18.632v30.522H844Z" transform="translate(-752.141 -451.854)" fill="#0e6fb8"/>
                </g>
              </g>
            </g>
          </g>
        </g>
      </g>
    </g>
  </g>
</svg>
