<svg xmlns="http://www.w3.org/2000/svg" width="708" height="449" viewBox="0 0 708 449">
  <g id="Grupo_848031" data-name="Grupo 848031" transform="translate(-446 -2624)">
    <g id="Grupo_847983" data-name="Grupo 847983">
      <path id="Trazado_570674" data-name="Trazado 570674" d="M12,0H696a12,12,0,0,1,12,12V437a12,12,0,0,1-12,12H12A12,12,0,0,1,0,437V12A12,12,0,0,1,12,0Z" transform="translate(446 2624)" fill="#f5faff"/>
      <path id="Trazado_570675" data-name="Trazado 570675" d="M6,0H184a6,6,0,0,1,6,6V76a6,6,0,0,1-6,6H6a6,6,0,0,1-6-6V6A6,6,0,0,1,6,0Z" transform="translate(705 2660)" fill="#bbdeaf"/>
      <path id="Trazado_570677" data-name="Trazado 570677" d="M4.952-5.307V0H1.182V-15.641H7.423a7.269,7.269,0,0,1,3.174.661,4.979,4.979,0,0,1,2.138,1.88,5.134,5.134,0,0,1,.757,2.766,4.526,4.526,0,0,1-1.638,3.658,6.8,6.8,0,0,1-4.5,1.37Zm0-2.911H7.423a2.33,2.33,0,0,0,1.67-.548,2.035,2.035,0,0,0,.575-1.547,2.516,2.516,0,0,0-.591-1.751,2.092,2.092,0,0,0-1.611-.666H4.952Zm17.413-.129-1.192-.086a2.142,2.142,0,0,0-2.191,1.074V0h-3.62V-11.623h3.395l.118,1.493a2.8,2.8,0,0,1,2.546-1.708,3.53,3.53,0,0,1,1.01.129Zm.462,2.428a6.86,6.86,0,0,1,.677-3.1,4.84,4.84,0,0,1,1.944-2.089,5.856,5.856,0,0,1,2.976-.73,5.344,5.344,0,0,1,4.114,1.617,6.2,6.2,0,0,1,1.5,4.4v.129A6.019,6.019,0,0,1,32.533-1.38a5.359,5.359,0,0,1-4.087,1.6A5.42,5.42,0,0,1,24.46-1.273a5.819,5.819,0,0,1-1.622-4.034Zm3.62.226a4.325,4.325,0,0,0,.5,2.363,1.682,1.682,0,0,0,1.493.752q1.934,0,1.977-2.976v-.365q0-3.126-2-3.126-1.815,0-1.966,2.7Zm8.733-.2a7.1,7.1,0,0,1,1.192-4.351,3.925,3.925,0,0,1,3.33-1.59,3.338,3.338,0,0,1,2.621,1.225V-16.5h3.631V0H42.7l-.183-1.246A3.428,3.428,0,0,1,39.682.215a3.918,3.918,0,0,1-3.287-1.59A7.325,7.325,0,0,1,35.181-5.9Zm3.62.226q0,3.094,1.8,3.094a1.782,1.782,0,0,0,1.719-1.01V-8.014a1.734,1.734,0,0,0-1.7-1.031q-1.676,0-1.815,2.707ZM54.936-1.257a3.732,3.732,0,0,1-3.1,1.472A3.661,3.661,0,0,1,48.936-.9a4.676,4.676,0,0,1-.983-3.2v-7.53h3.62v7.552a1.3,1.3,0,0,0,1.45,1.493A1.892,1.892,0,0,0,54.8-3.47v-8.153h3.642V0H55.043Zm10.4-1.321a1.61,1.61,0,0,0,1.182-.414,1.517,1.517,0,0,0,.408-1.155h3.395a4.018,4.018,0,0,1-1.37,3.137A5.1,5.1,0,0,1,65.42.215a5.158,5.158,0,0,1-4-1.59,6.264,6.264,0,0,1-1.461-4.4v-.15a7.08,7.08,0,0,1,.65-3.11,4.732,4.732,0,0,1,1.875-2.073,5.589,5.589,0,0,1,2.9-.725,5.03,5.03,0,0,1,3.6,1.257,4.458,4.458,0,0,1,1.332,3.405H66.924a1.987,1.987,0,0,0-.44-1.386A1.52,1.52,0,0,0,65.3-9.045q-1.407,0-1.644,1.794a12.659,12.659,0,0,0-.075,1.568A4.972,4.972,0,0,0,64-3.255,1.45,1.45,0,0,0,65.334-2.578Zm11.43,0a1.61,1.61,0,0,0,1.182-.414,1.517,1.517,0,0,0,.408-1.155h3.395a4.018,4.018,0,0,1-1.37,3.137A5.1,5.1,0,0,1,76.85.215a5.158,5.158,0,0,1-4-1.59,6.264,6.264,0,0,1-1.461-4.4v-.15a7.08,7.08,0,0,1,.65-3.11,4.732,4.732,0,0,1,1.875-2.073,5.589,5.589,0,0,1,2.9-.725,5.03,5.03,0,0,1,3.6,1.257,4.458,4.458,0,0,1,1.332,3.405H78.354a1.987,1.987,0,0,0-.44-1.386,1.52,1.52,0,0,0-1.182-.483q-1.407,0-1.644,1.794a12.658,12.658,0,0,0-.075,1.568,4.972,4.972,0,0,0,.419,2.428A1.45,1.45,0,0,0,76.764-2.578ZM87.1,0H83.467V-11.623H87.1ZM83.252-14.62a1.616,1.616,0,0,1,.559-1.268,2.108,2.108,0,0,1,1.45-.494,2.108,2.108,0,0,1,1.45.494,1.616,1.616,0,0,1,.559,1.268,1.616,1.616,0,0,1-.559,1.268,2.108,2.108,0,0,1-1.45.494,2.108,2.108,0,0,1-1.45-.494A1.616,1.616,0,0,1,83.252-14.62Zm5.618,8.7a6.86,6.86,0,0,1,.677-3.1,4.84,4.84,0,0,1,1.944-2.089,5.856,5.856,0,0,1,2.976-.73,5.344,5.344,0,0,1,4.114,1.617,6.2,6.2,0,0,1,1.5,4.4v.129A6.019,6.019,0,0,1,98.576-1.38a5.359,5.359,0,0,1-4.087,1.6A5.42,5.42,0,0,1,90.5-1.273a5.819,5.819,0,0,1-1.622-4.034Zm3.62.226A4.325,4.325,0,0,0,93-3.33a1.682,1.682,0,0,0,1.493.752q1.934,0,1.977-2.976v-.365q0-3.126-2-3.126-1.815,0-1.966,2.7ZM94.961-16.5h3.824L95.8-13.127H92.845ZM105-11.623l.118,1.364a3.942,3.942,0,0,1,3.319-1.579,3.316,3.316,0,0,1,2.712,1.085,5.165,5.165,0,0,1,.929,3.266V0h-3.631V-7.337a1.961,1.961,0,0,0-.354-1.294,1.64,1.64,0,0,0-1.289-.414,1.726,1.726,0,0,0-1.579.838V0h-3.62V-11.623Z" transform="translate(744 2709)" fill="#12263f"/>
      <path id="Trazado_570683" data-name="Trazado 570683" d="M6,0H184a6,6,0,0,1,6,6V76a6,6,0,0,1-6,6H6a6,6,0,0,1-6-6V6A6,6,0,0,1,6,0Z" transform="translate(495 2948)" fill="#ff854e"/>
      <path id="Trazado_570688" data-name="Trazado 570688" d="M13.836-5.3a5.712,5.712,0,0,1-.881,2.884A5.316,5.316,0,0,1,10.694-.473,7.7,7.7,0,0,1,7.369.215,6.142,6.142,0,0,1,2.514-1.794,8.294,8.294,0,0,1,.741-7.466v-.773a9.467,9.467,0,0,1,.8-4.023,6.064,6.064,0,0,1,2.3-2.664,6.429,6.429,0,0,1,3.48-.94,6.741,6.741,0,0,1,4.576,1.5,5.921,5.921,0,0,1,1.966,4.13h-3.76a2.8,2.8,0,0,0-.72-2.052,2.96,2.96,0,0,0-2.062-.623,2.252,2.252,0,0,0-2.062,1.053A6.766,6.766,0,0,0,4.576-8.5v1.106A7.487,7.487,0,0,0,5.2-3.813,2.3,2.3,0,0,0,7.369-2.739a2.9,2.9,0,0,0,1.987-.612,2.6,2.6,0,0,0,.73-1.944ZM22,0a4.087,4.087,0,0,1-.344-1.042A3.366,3.366,0,0,1,18.863.215,4.124,4.124,0,0,1,16.07-.779a3.163,3.163,0,0,1-1.149-2.5,3.251,3.251,0,0,1,1.4-2.857A7.114,7.114,0,0,1,20.378-7.1H21.5v-.612q0-1.6-1.386-1.6A1.13,1.13,0,0,0,18.82-8.046H15.2a3.25,3.25,0,0,1,1.434-2.739,6.022,6.022,0,0,1,3.658-1.053A5.284,5.284,0,0,1,23.8-10.753a3.772,3.772,0,0,1,1.321,2.976v5.146A5.269,5.269,0,0,0,25.62-.183V0ZM19.733-2.363a2.019,2.019,0,0,0,1.123-.29,1.818,1.818,0,0,0,.639-.655V-5.167H20.442q-1.891,0-1.891,1.7a1.036,1.036,0,0,0,.333.8A1.205,1.205,0,0,0,19.733-2.363Zm11.29-9.26V.4a4.219,4.219,0,0,1-1.182,3.18,4.539,4.539,0,0,1-3.266,1.117,7.71,7.71,0,0,1-1.708-.183V1.772a6.926,6.926,0,0,0,1.021.1,1.325,1.325,0,0,0,1.5-1.493v-12Zm-3.9-3a1.616,1.616,0,0,1,.559-1.268,2.108,2.108,0,0,1,1.45-.494,2.108,2.108,0,0,1,1.45.494,1.616,1.616,0,0,1,.559,1.268,1.616,1.616,0,0,1-.559,1.268,2.108,2.108,0,0,1-1.45.494,2.108,2.108,0,0,1-1.45-.494A1.616,1.616,0,0,1,27.124-14.62ZM39.617,0a4.088,4.088,0,0,1-.344-1.042A3.366,3.366,0,0,1,36.48.215a4.124,4.124,0,0,1-2.793-.994,3.163,3.163,0,0,1-1.149-2.5,3.251,3.251,0,0,1,1.4-2.857A7.114,7.114,0,0,1,38-7.1h1.117v-.612q0-1.6-1.386-1.6a1.13,1.13,0,0,0-1.289,1.268h-3.62a3.25,3.25,0,0,1,1.434-2.739,6.022,6.022,0,0,1,3.658-1.053,5.284,5.284,0,0,1,3.513,1.085,3.772,3.772,0,0,1,1.321,2.976v5.146a5.269,5.269,0,0,0,.494,2.449V0ZM37.351-2.363a2.019,2.019,0,0,0,1.123-.29,1.818,1.818,0,0,0,.639-.655V-5.167H38.06q-1.891,0-1.891,1.7a1.036,1.036,0,0,0,.333.8A1.205,1.205,0,0,0,37.351-2.363Z" transform="translate(568 2997)" fill="#12263f"/>
      <path id="Trazado_570684" data-name="Trazado 570684" d="M6,0H184a6,6,0,0,1,6,6V76a6,6,0,0,1-6,6H6a6,6,0,0,1-6-6V6A6,6,0,0,1,6,0Z" transform="translate(915 2948)" fill="#ffd63d"/>
      <path id="Trazado_570689" data-name="Trazado 570689" d="M11.032-6.23H4.952V0H1.182V-15.641H11.645v2.911H4.952v3.6h6.08ZM19.229,0a4.087,4.087,0,0,1-.344-1.042A3.366,3.366,0,0,1,16.092.215,4.124,4.124,0,0,1,13.3-.779a3.163,3.163,0,0,1-1.149-2.5,3.251,3.251,0,0,1,1.4-2.857A7.114,7.114,0,0,1,17.606-7.1h1.117v-.612q0-1.6-1.386-1.6a1.13,1.13,0,0,0-1.289,1.268h-3.62a3.25,3.25,0,0,1,1.434-2.739,6.022,6.022,0,0,1,3.658-1.053,5.284,5.284,0,0,1,3.513,1.085,3.772,3.772,0,0,1,1.321,2.976v5.146a5.269,5.269,0,0,0,.494,2.449V0ZM16.962-2.363a2.019,2.019,0,0,0,1.123-.29,1.818,1.818,0,0,0,.639-.655V-5.167H17.671q-1.891,0-1.891,1.7a1.036,1.036,0,0,0,.333.8A1.205,1.205,0,0,0,16.962-2.363Zm10.817-9.26.118,1.364a4,4,0,0,1,3.319-1.579,2.942,2.942,0,0,1,2.976,1.751,3.868,3.868,0,0,1,3.416-1.751q3.534,0,3.631,4.275V0H37.608V-7.337a2.216,2.216,0,0,0-.3-1.3,1.28,1.28,0,0,0-1.1-.408,1.715,1.715,0,0,0-1.6.956l.011.15V0H30.991V-7.315a2.329,2.329,0,0,0-.29-1.321,1.277,1.277,0,0,0-1.106-.408A1.736,1.736,0,0,0,28-8.089V0h-3.62V-11.623ZM47.126,0H43.5V-11.623h3.631ZM43.28-14.62a1.616,1.616,0,0,1,.559-1.268,2.108,2.108,0,0,1,1.45-.494,2.108,2.108,0,0,1,1.45.494A1.616,1.616,0,0,1,47.3-14.62a1.616,1.616,0,0,1-.559,1.268,2.108,2.108,0,0,1-1.45.494,2.108,2.108,0,0,1-1.45-.494A1.616,1.616,0,0,1,43.28-14.62ZM53.174,0H49.543V-16.5h3.631Zm6.048,0H55.591V-11.623h3.631ZM55.376-14.62a1.616,1.616,0,0,1,.559-1.268,2.108,2.108,0,0,1,1.45-.494,2.108,2.108,0,0,1,1.45.494,1.616,1.616,0,0,1,.559,1.268,1.616,1.616,0,0,1-.559,1.268,2.108,2.108,0,0,1-1.45.494,2.108,2.108,0,0,1-1.45-.494A1.616,1.616,0,0,1,55.376-14.62ZM68,0a4.087,4.087,0,0,1-.344-1.042A3.366,3.366,0,0,1,64.861.215a4.124,4.124,0,0,1-2.793-.994,3.163,3.163,0,0,1-1.149-2.5,3.251,3.251,0,0,1,1.4-2.857A7.114,7.114,0,0,1,66.376-7.1h1.117v-.612q0-1.6-1.386-1.6a1.13,1.13,0,0,0-1.289,1.268H61.2a3.25,3.25,0,0,1,1.434-2.739,6.022,6.022,0,0,1,3.658-1.053A5.284,5.284,0,0,1,69.8-10.753a3.772,3.772,0,0,1,1.321,2.976v5.146a5.269,5.269,0,0,0,.494,2.449V0ZM65.731-2.363a2.019,2.019,0,0,0,1.123-.29,1.818,1.818,0,0,0,.639-.655V-5.167H66.44q-1.891,0-1.891,1.7a1.036,1.036,0,0,0,.333.8A1.205,1.205,0,0,0,65.731-2.363Z" transform="translate(974 2997)" fill="#12263f"/>
      <path id="Trazado_565795" data-name="Trazado 565795" d="M-7828-8872.817l-95,160.067" transform="translate(8580.5 11638)" fill="none" stroke="#bbdeaf" stroke-width="3"/>
      <path id="Trazado_565796" data-name="Trazado 565796" d="M-7923-8872.817l95,160.067" transform="translate(8774 11638)" fill="none" stroke="#ff854e" stroke-width="3"/>
      <path id="Trazado_565797" data-name="Trazado 565797" d="M-7923-8660.344h190" transform="translate(8628 11644)" fill="none" stroke="#ffd63d" stroke-width="3"/>
      <path id="Trazado_570678" data-name="Trazado 570678" d="M10.5,0,21,18H0Z" transform="translate(752.17 2746.955) rotate(30)" fill="#bbdeaf"/>
      <path id="Trazado_570681" data-name="Trazado 570681" d="M10.5,0,21,18H0Z" transform="matrix(-0.809, -0.588, 0.588, -0.809, 660.705, 2936.906)" fill="#bbdeaf"/>
      <path id="Trazado_570679" data-name="Trazado 570679" d="M10.5,0,21,18H0Z" transform="translate(834.407 2757.455) rotate(-30)" fill="#ff854e"/>
      <path id="Trazado_570682" data-name="Trazado 570682" d="M10.5,0,21,18H0Z" transform="translate(958.636 2925.76) rotate(149)" fill="#ff854e"/>
      <path id="Trazado_570686" data-name="Trazado 570686" d="M11.5,0,23,20H0Z" transform="translate(695 2995.156) rotate(-90)" fill="#ffd63d"/>
      <path id="Trazado_570687" data-name="Trazado 570687" d="M11.5,0,23,20H0Z" transform="translate(905 2972.156) rotate(90)" fill="#ffd63d"/>
    </g>
    <path id="Trazado_570926" data-name="Trazado 570926" d="M7.859-4.648h-4.5V0H1.016V-11.375H8.422v1.9H3.359v2.938h4.5ZM12.016,0H9.75V-12h2.266Zm6.922-.859A2.831,2.831,0,0,1,16.625.156a2.67,2.67,0,0,1-2.074-.781,3.335,3.335,0,0,1-.73-2.289V-8.453h2.258v5.461q0,1.32,1.2,1.32a1.631,1.631,0,0,0,1.578-.8V-8.453h2.266V0H19Zm6.281-7.594V.461a3.024,3.024,0,0,1-.742,2.176,2.821,2.821,0,0,1-2.141.777,4.591,4.591,0,0,1-1.117-.133V1.492a4.238,4.238,0,0,0,.711.07q1.023,0,1.023-1.086v-8.93Zm-2.445-2.187a1.112,1.112,0,0,1,.34-.836,1.277,1.277,0,0,1,.926-.328,1.277,1.277,0,0,1,.926.328,1.112,1.112,0,0,1,.34.836,1.108,1.108,0,0,1-.348.844,1.283,1.283,0,0,1-.918.328,1.283,1.283,0,0,1-.918-.328A1.108,1.108,0,0,1,22.773-10.641ZM26.633-4.3a5.013,5.013,0,0,1,.484-2.242A3.546,3.546,0,0,1,28.512-8.07a4.069,4.069,0,0,1,2.113-.539,3.849,3.849,0,0,1,2.793,1.047,4.2,4.2,0,0,1,1.207,2.844l.016.578A4.418,4.418,0,0,1,33.555-1.02,3.775,3.775,0,0,1,30.641.156a3.793,3.793,0,0,1-2.918-1.172A4.5,4.5,0,0,1,26.633-4.2Zm2.258.164a3.151,3.151,0,0,0,.453,1.84,1.5,1.5,0,0,0,1.3.637,1.5,1.5,0,0,0,1.281-.629A3.448,3.448,0,0,0,32.383-4.3a3.12,3.12,0,0,0-.461-1.828,1.5,1.5,0,0,0-1.3-.648,1.475,1.475,0,0,0-1.281.645A3.506,3.506,0,0,0,28.891-4.141Zm11.719,1.8a.727.727,0,0,0-.41-.652,4.659,4.659,0,0,0-1.316-.426q-3.016-.633-3.016-2.562A2.323,2.323,0,0,1,36.8-7.855a3.766,3.766,0,0,1,2.441-.754,4.053,4.053,0,0,1,2.574.758,2.388,2.388,0,0,1,.965,1.969H40.523a1.092,1.092,0,0,0-.312-.8A1.322,1.322,0,0,0,39.234-7a1.351,1.351,0,0,0-.883.258.814.814,0,0,0-.312.656.7.7,0,0,0,.355.605,3.657,3.657,0,0,0,1.2.4,9.8,9.8,0,0,1,1.422.379A2.336,2.336,0,0,1,42.8-2.43a2.2,2.2,0,0,1-.992,1.871A4.28,4.28,0,0,1,39.25.156a4.47,4.47,0,0,1-1.887-.379A3.166,3.166,0,0,1,36.07-1.262,2.414,2.414,0,0,1,35.6-2.687h2.141a1.179,1.179,0,0,0,.445.922,1.766,1.766,0,0,0,1.109.32,1.635,1.635,0,0,0,.98-.246A.766.766,0,0,0,40.609-2.336ZM48.789,0V-6.8H47.531V-8.453h1.258v-.391a3.17,3.17,0,0,1,.98-2.457,3.945,3.945,0,0,1,2.723-.863,9.031,9.031,0,0,1,2.563.461l-.328,1.867a10,10,0,0,0-1.187-.293,5.835,5.835,0,0,0-.906-.066q-1.578,0-1.578,1.4v.344h1.664V-6.8H51.055V0Zm7.32,0H53.844V-8.453h2.266Zm3.945-8.453.07.977a2.951,2.951,0,0,1,2.43-1.133,2.453,2.453,0,0,1,2,.789,3.682,3.682,0,0,1,.672,2.359V0H62.969V-5.406a1.465,1.465,0,0,0-.312-1.043,1.4,1.4,0,0,0-1.039-.324,1.553,1.553,0,0,0-1.43.813V0H57.93V-8.453ZM71.836,0a2.507,2.507,0,0,1-.227-.758,2.732,2.732,0,0,1-2.133.914,3,3,0,0,1-2.059-.719A2.312,2.312,0,0,1,66.6-2.375a2.389,2.389,0,0,1,1-2.062,4.915,4.915,0,0,1,2.879-.727h1.039v-.484a1.393,1.393,0,0,0-.3-.937,1.183,1.183,0,0,0-.949-.352,1.345,1.345,0,0,0-.895.273.929.929,0,0,0-.324.75H66.789a2.268,2.268,0,0,1,.453-1.359,3,3,0,0,1,1.281-.98,4.669,4.669,0,0,1,1.859-.355,3.689,3.689,0,0,1,2.48.785,2.747,2.747,0,0,1,.918,2.207v3.664a4.041,4.041,0,0,0,.336,1.82V0ZM69.969-1.57a1.945,1.945,0,0,0,.922-.223,1.462,1.462,0,0,0,.625-.6V-3.844h-.844q-1.7,0-1.8,1.172l-.008.133a.9.9,0,0,0,.3.7A1.153,1.153,0,0,0,69.969-1.57Zm7.625-6.883.07.977a2.951,2.951,0,0,1,2.43-1.133,2.453,2.453,0,0,1,2,.789,3.682,3.682,0,0,1,.672,2.359V0H80.508V-5.406A1.465,1.465,0,0,0,80.2-6.449a1.4,1.4,0,0,0-1.039-.324,1.553,1.553,0,0,0-1.43.813V0H75.469V-8.453Zm10.4,6.789a1.481,1.481,0,0,0,1.016-.344,1.2,1.2,0,0,0,.406-.914h2.117a2.9,2.9,0,0,1-.469,1.574A3.093,3.093,0,0,1,89.8-.238a3.949,3.949,0,0,1-1.77.395A3.67,3.67,0,0,1,85.172-1,4.56,4.56,0,0,1,84.125-4.18v-.148a4.508,4.508,0,0,1,1.039-3.117,3.627,3.627,0,0,1,2.852-1.164,3.555,3.555,0,0,1,2.543.9,3.2,3.2,0,0,1,.973,2.4H89.414a1.539,1.539,0,0,0-.406-1.066,1.358,1.358,0,0,0-1.031-.41,1.361,1.361,0,0,0-1.191.574,3.324,3.324,0,0,0-.4,1.863v.234a3.366,3.366,0,0,0,.4,1.875A1.378,1.378,0,0,0,87.992-1.664ZM95.2,0H92.938V-8.453H95.2ZM92.8-10.641a1.112,1.112,0,0,1,.34-.836,1.277,1.277,0,0,1,.926-.328,1.28,1.28,0,0,1,.922.328,1.105,1.105,0,0,1,.344.836,1.108,1.108,0,0,1-.348.844,1.283,1.283,0,0,1-.918.328,1.283,1.283,0,0,1-.918-.328A1.108,1.108,0,0,1,92.8-10.641Zm8.148,10.8A4.15,4.15,0,0,1,97.926-.984a4.054,4.054,0,0,1-1.168-3.039v-.219A5.106,5.106,0,0,1,97.25-6.52a3.612,3.612,0,0,1,1.395-1.547,3.914,3.914,0,0,1,2.059-.543,3.508,3.508,0,0,1,2.73,1.094,4.444,4.444,0,0,1,1,3.1v.922H99.047a2.1,2.1,0,0,0,.66,1.328,2,2,0,0,0,1.395.5,2.437,2.437,0,0,0,2.039-.945l1.109,1.242a3.389,3.389,0,0,1-1.375,1.121A4.511,4.511,0,0,1,100.953.156ZM100.7-6.781a1.414,1.414,0,0,0-1.09.453,2.341,2.341,0,0,0-.535,1.3h3.141v-.18a1.669,1.669,0,0,0-.406-1.16A1.459,1.459,0,0,0,100.7-6.781Zm9.766.445a6.134,6.134,0,0,0-.812-.062,1.654,1.654,0,0,0-1.68.867V0h-2.258V-8.453h2.133l.063,1.008a2.092,2.092,0,0,1,1.883-1.164,2.366,2.366,0,0,1,.7.1Zm.453,2.031a5.013,5.013,0,0,1,.484-2.242,3.546,3.546,0,0,1,1.395-1.523,4.069,4.069,0,0,1,2.113-.539A3.849,3.849,0,0,1,117.7-7.562a4.2,4.2,0,0,1,1.207,2.844l.016.578a4.418,4.418,0,0,1-1.086,3.121A3.775,3.775,0,0,1,114.922.156,3.793,3.793,0,0,1,112-1.016a4.5,4.5,0,0,1-1.09-3.187Zm2.258.164a3.151,3.151,0,0,0,.453,1.84,1.5,1.5,0,0,0,1.3.637,1.5,1.5,0,0,0,1.281-.629,3.448,3.448,0,0,0,.461-2.012,3.12,3.12,0,0,0-.461-1.828,1.5,1.5,0,0,0-1.3-.648,1.475,1.475,0,0,0-1.281.645A3.506,3.506,0,0,0,113.172-4.141Zm11.719,1.8a.727.727,0,0,0-.41-.652,4.659,4.659,0,0,0-1.316-.426q-3.016-.633-3.016-2.562a2.323,2.323,0,0,1,.934-1.879,3.766,3.766,0,0,1,2.441-.754,4.053,4.053,0,0,1,2.574.758,2.388,2.388,0,0,1,.965,1.969H124.8a1.092,1.092,0,0,0-.312-.8A1.322,1.322,0,0,0,123.516-7a1.351,1.351,0,0,0-.883.258.814.814,0,0,0-.312.656.7.7,0,0,0,.355.605,3.657,3.657,0,0,0,1.2.4A9.8,9.8,0,0,1,125.3-4.7a2.336,2.336,0,0,1,1.789,2.273,2.2,2.2,0,0,1-.992,1.871,4.28,4.28,0,0,1-2.562.715,4.47,4.47,0,0,1-1.887-.379,3.166,3.166,0,0,1-1.293-1.039,2.414,2.414,0,0,1-.469-1.426h2.141a1.179,1.179,0,0,0,.445.922,1.766,1.766,0,0,0,1.109.32,1.635,1.635,0,0,0,.98-.246A.766.766,0,0,0,124.891-2.336Z" transform="translate(655.78 2885.875) rotate(-59)" fill="#12263f"/>
    <path id="Trazado_570928" data-name="Trazado 570928" d="M7.859-4.648h-4.5V0H1.016V-11.375H8.422v1.9H3.359v2.938h4.5ZM12.016,0H9.75V-12h2.266Zm6.922-.859A2.831,2.831,0,0,1,16.625.156a2.67,2.67,0,0,1-2.074-.781,3.335,3.335,0,0,1-.73-2.289V-8.453h2.258v5.461q0,1.32,1.2,1.32a1.631,1.631,0,0,0,1.578-.8V-8.453h2.266V0H19Zm6.281-7.594V.461a3.024,3.024,0,0,1-.742,2.176,2.821,2.821,0,0,1-2.141.777,4.591,4.591,0,0,1-1.117-.133V1.492a4.238,4.238,0,0,0,.711.07q1.023,0,1.023-1.086v-8.93Zm-2.445-2.187a1.112,1.112,0,0,1,.34-.836,1.277,1.277,0,0,1,.926-.328,1.277,1.277,0,0,1,.926.328,1.112,1.112,0,0,1,.34.836,1.108,1.108,0,0,1-.348.844,1.283,1.283,0,0,1-.918.328,1.283,1.283,0,0,1-.918-.328A1.108,1.108,0,0,1,22.773-10.641ZM26.633-4.3a5.013,5.013,0,0,1,.484-2.242A3.546,3.546,0,0,1,28.512-8.07a4.069,4.069,0,0,1,2.113-.539,3.849,3.849,0,0,1,2.793,1.047,4.2,4.2,0,0,1,1.207,2.844l.016.578A4.418,4.418,0,0,1,33.555-1.02,3.775,3.775,0,0,1,30.641.156a3.793,3.793,0,0,1-2.918-1.172A4.5,4.5,0,0,1,26.633-4.2Zm2.258.164a3.151,3.151,0,0,0,.453,1.84,1.5,1.5,0,0,0,1.3.637,1.5,1.5,0,0,0,1.281-.629A3.448,3.448,0,0,0,32.383-4.3a3.12,3.12,0,0,0-.461-1.828,1.5,1.5,0,0,0-1.3-.648,1.475,1.475,0,0,0-1.281.645A3.506,3.506,0,0,0,28.891-4.141Zm11.719,1.8a.727.727,0,0,0-.41-.652,4.659,4.659,0,0,0-1.316-.426q-3.016-.633-3.016-2.562A2.323,2.323,0,0,1,36.8-7.855a3.766,3.766,0,0,1,2.441-.754,4.053,4.053,0,0,1,2.574.758,2.388,2.388,0,0,1,.965,1.969H40.523a1.092,1.092,0,0,0-.312-.8A1.322,1.322,0,0,0,39.234-7a1.351,1.351,0,0,0-.883.258.814.814,0,0,0-.312.656.7.7,0,0,0,.355.605,3.657,3.657,0,0,0,1.2.4,9.8,9.8,0,0,1,1.422.379A2.336,2.336,0,0,1,42.8-2.43a2.2,2.2,0,0,1-.992,1.871A4.28,4.28,0,0,1,39.25.156a4.47,4.47,0,0,1-1.887-.379A3.166,3.166,0,0,1,36.07-1.262,2.414,2.414,0,0,1,35.6-2.687h2.141a1.179,1.179,0,0,0,.445.922,1.766,1.766,0,0,0,1.109.32,1.635,1.635,0,0,0,.98-.246A.766.766,0,0,0,40.609-2.336ZM48.789,0V-6.8H47.531V-8.453h1.258v-.391a3.17,3.17,0,0,1,.98-2.457,3.945,3.945,0,0,1,2.723-.863,9.031,9.031,0,0,1,2.563.461l-.328,1.867a10,10,0,0,0-1.187-.293,5.835,5.835,0,0,0-.906-.066q-1.578,0-1.578,1.4v.344h1.664V-6.8H51.055V0Zm7.32,0H53.844V-8.453h2.266Zm3.945-8.453.07.977a2.951,2.951,0,0,1,2.43-1.133,2.453,2.453,0,0,1,2,.789,3.682,3.682,0,0,1,.672,2.359V0H62.969V-5.406a1.465,1.465,0,0,0-.312-1.043,1.4,1.4,0,0,0-1.039-.324,1.553,1.553,0,0,0-1.43.813V0H57.93V-8.453ZM71.836,0a2.507,2.507,0,0,1-.227-.758,2.732,2.732,0,0,1-2.133.914,3,3,0,0,1-2.059-.719A2.312,2.312,0,0,1,66.6-2.375a2.389,2.389,0,0,1,1-2.062,4.915,4.915,0,0,1,2.879-.727h1.039v-.484a1.393,1.393,0,0,0-.3-.937,1.183,1.183,0,0,0-.949-.352,1.345,1.345,0,0,0-.895.273.929.929,0,0,0-.324.75H66.789a2.268,2.268,0,0,1,.453-1.359,3,3,0,0,1,1.281-.98,4.669,4.669,0,0,1,1.859-.355,3.689,3.689,0,0,1,2.48.785,2.747,2.747,0,0,1,.918,2.207v3.664a4.041,4.041,0,0,0,.336,1.82V0ZM69.969-1.57a1.945,1.945,0,0,0,.922-.223,1.462,1.462,0,0,0,.625-.6V-3.844h-.844q-1.7,0-1.8,1.172l-.008.133a.9.9,0,0,0,.3.7A1.153,1.153,0,0,0,69.969-1.57Zm7.625-6.883.07.977a2.951,2.951,0,0,1,2.43-1.133,2.453,2.453,0,0,1,2,.789,3.682,3.682,0,0,1,.672,2.359V0H80.508V-5.406A1.465,1.465,0,0,0,80.2-6.449a1.4,1.4,0,0,0-1.039-.324,1.553,1.553,0,0,0-1.43.813V0H75.469V-8.453Zm10.4,6.789a1.481,1.481,0,0,0,1.016-.344,1.2,1.2,0,0,0,.406-.914h2.117a2.9,2.9,0,0,1-.469,1.574A3.093,3.093,0,0,1,89.8-.238a3.949,3.949,0,0,1-1.77.395A3.67,3.67,0,0,1,85.172-1,4.56,4.56,0,0,1,84.125-4.18v-.148a4.508,4.508,0,0,1,1.039-3.117,3.627,3.627,0,0,1,2.852-1.164,3.555,3.555,0,0,1,2.543.9,3.2,3.2,0,0,1,.973,2.4H89.414a1.539,1.539,0,0,0-.406-1.066,1.358,1.358,0,0,0-1.031-.41,1.361,1.361,0,0,0-1.191.574,3.324,3.324,0,0,0-.4,1.863v.234a3.366,3.366,0,0,0,.4,1.875A1.378,1.378,0,0,0,87.992-1.664ZM95.2,0H92.938V-8.453H95.2ZM92.8-10.641a1.112,1.112,0,0,1,.34-.836,1.277,1.277,0,0,1,.926-.328,1.28,1.28,0,0,1,.922.328,1.105,1.105,0,0,1,.344.836,1.108,1.108,0,0,1-.348.844,1.283,1.283,0,0,1-.918.328,1.283,1.283,0,0,1-.918-.328A1.108,1.108,0,0,1,92.8-10.641Zm8.148,10.8A4.15,4.15,0,0,1,97.926-.984a4.054,4.054,0,0,1-1.168-3.039v-.219A5.106,5.106,0,0,1,97.25-6.52a3.612,3.612,0,0,1,1.395-1.547,3.914,3.914,0,0,1,2.059-.543,3.508,3.508,0,0,1,2.73,1.094,4.444,4.444,0,0,1,1,3.1v.922H99.047a2.1,2.1,0,0,0,.66,1.328,2,2,0,0,0,1.395.5,2.437,2.437,0,0,0,2.039-.945l1.109,1.242a3.389,3.389,0,0,1-1.375,1.121A4.511,4.511,0,0,1,100.953.156ZM100.7-6.781a1.414,1.414,0,0,0-1.09.453,2.341,2.341,0,0,0-.535,1.3h3.141v-.18a1.669,1.669,0,0,0-.406-1.16A1.459,1.459,0,0,0,100.7-6.781Zm9.766.445a6.134,6.134,0,0,0-.812-.062,1.654,1.654,0,0,0-1.68.867V0h-2.258V-8.453h2.133l.063,1.008a2.092,2.092,0,0,1,1.883-1.164,2.366,2.366,0,0,1,.7.1Zm.453,2.031a5.013,5.013,0,0,1,.484-2.242,3.546,3.546,0,0,1,1.395-1.523,4.069,4.069,0,0,1,2.113-.539A3.849,3.849,0,0,1,117.7-7.562a4.2,4.2,0,0,1,1.207,2.844l.016.578a4.418,4.418,0,0,1-1.086,3.121A3.775,3.775,0,0,1,114.922.156,3.793,3.793,0,0,1,112-1.016a4.5,4.5,0,0,1-1.09-3.187Zm2.258.164a3.151,3.151,0,0,0,.453,1.84,1.5,1.5,0,0,0,1.3.637,1.5,1.5,0,0,0,1.281-.629,3.448,3.448,0,0,0,.461-2.012,3.12,3.12,0,0,0-.461-1.828,1.5,1.5,0,0,0-1.3-.648,1.475,1.475,0,0,0-1.281.645A3.506,3.506,0,0,0,113.172-4.141Zm11.719,1.8a.727.727,0,0,0-.41-.652,4.659,4.659,0,0,0-1.316-.426q-3.016-.633-3.016-2.562a2.323,2.323,0,0,1,.934-1.879,3.766,3.766,0,0,1,2.441-.754,4.053,4.053,0,0,1,2.574.758,2.388,2.388,0,0,1,.965,1.969H124.8a1.092,1.092,0,0,0-.312-.8A1.322,1.322,0,0,0,123.516-7a1.351,1.351,0,0,0-.883.258.814.814,0,0,0-.312.656.7.7,0,0,0,.355.605,3.657,3.657,0,0,0,1.2.4A9.8,9.8,0,0,1,125.3-4.7a2.336,2.336,0,0,1,1.789,2.273,2.2,2.2,0,0,1-.992,1.871,4.28,4.28,0,0,1-2.562.715,4.47,4.47,0,0,1-1.887-.379,3.166,3.166,0,0,1-1.293-1.039,2.414,2.414,0,0,1-.469-1.426h2.141a1.179,1.179,0,0,0,.445.922,1.766,1.766,0,0,0,1.109.32,1.635,1.635,0,0,0,.98-.246A.766.766,0,0,0,124.891-2.336Z" transform="translate(736 2962.183)" fill="#12263f"/>
    <path id="Trazado_570927" data-name="Trazado 570927" d="M7.859-4.648h-4.5V0H1.016V-11.375H8.422v1.9H3.359v2.938h4.5ZM12.016,0H9.75V-12h2.266Zm6.922-.859A2.831,2.831,0,0,1,16.625.156a2.67,2.67,0,0,1-2.074-.781,3.335,3.335,0,0,1-.73-2.289V-8.453h2.258v5.461q0,1.32,1.2,1.32a1.631,1.631,0,0,0,1.578-.8V-8.453h2.266V0H19Zm6.281-7.594V.461a3.024,3.024,0,0,1-.742,2.176,2.821,2.821,0,0,1-2.141.777,4.591,4.591,0,0,1-1.117-.133V1.492a4.238,4.238,0,0,0,.711.07q1.023,0,1.023-1.086v-8.93Zm-2.445-2.187a1.112,1.112,0,0,1,.34-.836,1.277,1.277,0,0,1,.926-.328,1.277,1.277,0,0,1,.926.328,1.112,1.112,0,0,1,.34.836,1.108,1.108,0,0,1-.348.844,1.283,1.283,0,0,1-.918.328,1.283,1.283,0,0,1-.918-.328A1.108,1.108,0,0,1,22.773-10.641ZM26.633-4.3a5.013,5.013,0,0,1,.484-2.242A3.546,3.546,0,0,1,28.512-8.07a4.069,4.069,0,0,1,2.113-.539,3.849,3.849,0,0,1,2.793,1.047,4.2,4.2,0,0,1,1.207,2.844l.016.578A4.418,4.418,0,0,1,33.555-1.02,3.775,3.775,0,0,1,30.641.156a3.793,3.793,0,0,1-2.918-1.172A4.5,4.5,0,0,1,26.633-4.2Zm2.258.164a3.151,3.151,0,0,0,.453,1.84,1.5,1.5,0,0,0,1.3.637,1.5,1.5,0,0,0,1.281-.629A3.448,3.448,0,0,0,32.383-4.3a3.12,3.12,0,0,0-.461-1.828,1.5,1.5,0,0,0-1.3-.648,1.475,1.475,0,0,0-1.281.645A3.506,3.506,0,0,0,28.891-4.141Zm11.719,1.8a.727.727,0,0,0-.41-.652,4.659,4.659,0,0,0-1.316-.426q-3.016-.633-3.016-2.562A2.323,2.323,0,0,1,36.8-7.855a3.766,3.766,0,0,1,2.441-.754,4.053,4.053,0,0,1,2.574.758,2.388,2.388,0,0,1,.965,1.969H40.523a1.092,1.092,0,0,0-.312-.8A1.322,1.322,0,0,0,39.234-7a1.351,1.351,0,0,0-.883.258.814.814,0,0,0-.312.656.7.7,0,0,0,.355.605,3.657,3.657,0,0,0,1.2.4,9.8,9.8,0,0,1,1.422.379A2.336,2.336,0,0,1,42.8-2.43a2.2,2.2,0,0,1-.992,1.871A4.28,4.28,0,0,1,39.25.156a4.47,4.47,0,0,1-1.887-.379A3.166,3.166,0,0,1,36.07-1.262,2.414,2.414,0,0,1,35.6-2.687h2.141a1.179,1.179,0,0,0,.445.922,1.766,1.766,0,0,0,1.109.32,1.635,1.635,0,0,0,.98-.246A.766.766,0,0,0,40.609-2.336ZM52.133.156A4.15,4.15,0,0,1,49.105-.984a4.054,4.054,0,0,1-1.168-3.039v-.219A5.106,5.106,0,0,1,48.43-6.52a3.612,3.612,0,0,1,1.395-1.547,3.914,3.914,0,0,1,2.059-.543,3.508,3.508,0,0,1,2.73,1.094,4.444,4.444,0,0,1,1,3.1v.922H50.227a2.1,2.1,0,0,0,.66,1.328,2,2,0,0,0,1.395.5,2.437,2.437,0,0,0,2.039-.945L55.43-1.367A3.389,3.389,0,0,1,54.055-.246,4.511,4.511,0,0,1,52.133.156Zm-.258-6.937a1.414,1.414,0,0,0-1.09.453,2.341,2.341,0,0,0-.535,1.3h3.141v-.18a1.669,1.669,0,0,0-.406-1.16A1.459,1.459,0,0,0,51.875-6.781Zm7.094-1.672.07.977a2.951,2.951,0,0,1,2.43-1.133,2.453,2.453,0,0,1,2,.789,3.682,3.682,0,0,1,.672,2.359V0H61.883V-5.406a1.465,1.465,0,0,0-.312-1.043,1.4,1.4,0,0,0-1.039-.324,1.553,1.553,0,0,0-1.43.813V0H56.844V-8.453ZM73.727.156A4.15,4.15,0,0,1,70.7-.984a4.054,4.054,0,0,1-1.168-3.039v-.219a5.106,5.106,0,0,1,.492-2.277,3.612,3.612,0,0,1,1.395-1.547,3.914,3.914,0,0,1,2.059-.543,3.508,3.508,0,0,1,2.73,1.094,4.444,4.444,0,0,1,1,3.1v.922H71.82a2.1,2.1,0,0,0,.66,1.328,2,2,0,0,0,1.395.5,2.437,2.437,0,0,0,2.039-.945l1.109,1.242A3.389,3.389,0,0,1,75.648-.246,4.511,4.511,0,0,1,73.727.156Zm-.258-6.937a1.414,1.414,0,0,0-1.09.453,2.341,2.341,0,0,0-.535,1.3h3.141v-.18a1.669,1.669,0,0,0-.406-1.16A1.459,1.459,0,0,0,73.469-6.781Zm9.594,4.445a.727.727,0,0,0-.41-.652,4.659,4.659,0,0,0-1.316-.426Q78.32-4.047,78.32-5.977a2.323,2.323,0,0,1,.934-1.879A3.766,3.766,0,0,1,81.7-8.609a4.053,4.053,0,0,1,2.574.758,2.388,2.388,0,0,1,.965,1.969H82.977a1.092,1.092,0,0,0-.312-.8A1.322,1.322,0,0,0,81.688-7a1.351,1.351,0,0,0-.883.258.814.814,0,0,0-.312.656.7.7,0,0,0,.355.605,3.657,3.657,0,0,0,1.2.4,9.8,9.8,0,0,1,1.422.379A2.336,2.336,0,0,1,85.258-2.43a2.2,2.2,0,0,1-.992,1.871A4.28,4.28,0,0,1,81.7.156a4.47,4.47,0,0,1-1.887-.379,3.166,3.166,0,0,1-1.293-1.039,2.414,2.414,0,0,1-.469-1.426H80.2a1.179,1.179,0,0,0,.445.922,1.766,1.766,0,0,0,1.109.32,1.635,1.635,0,0,0,.98-.246A.766.766,0,0,0,83.063-2.336ZM94.32-4.148a5.07,5.07,0,0,1-.887,3.129A2.843,2.843,0,0,1,91.039.156a2.633,2.633,0,0,1-2.07-.891V3.25H86.711v-11.7H88.8l.078.828a2.654,2.654,0,0,1,2.141-.984,2.862,2.862,0,0,1,2.43,1.156,5.207,5.207,0,0,1,.867,3.188Zm-2.258-.164a3.327,3.327,0,0,0-.418-1.82,1.361,1.361,0,0,0-1.215-.641,1.478,1.478,0,0,0-1.461.813V-2.5a1.5,1.5,0,0,0,1.477.836Q92.063-1.664,92.063-4.312ZM99.609.156A4.15,4.15,0,0,1,96.582-.984a4.054,4.054,0,0,1-1.168-3.039v-.219a5.106,5.106,0,0,1,.492-2.277A3.612,3.612,0,0,1,97.3-8.066a3.914,3.914,0,0,1,2.059-.543,3.508,3.508,0,0,1,2.73,1.094,4.444,4.444,0,0,1,1,3.1v.922H97.7a2.1,2.1,0,0,0,.66,1.328,2,2,0,0,0,1.395.5,2.437,2.437,0,0,0,2.039-.945l1.109,1.242a3.389,3.389,0,0,1-1.375,1.121A4.511,4.511,0,0,1,99.609.156Zm-.258-6.937a1.414,1.414,0,0,0-1.09.453,2.341,2.341,0,0,0-.535,1.3h3.141v-.18a1.669,1.669,0,0,0-.406-1.16A1.459,1.459,0,0,0,99.352-6.781Zm8.531,5.117a1.481,1.481,0,0,0,1.016-.344,1.2,1.2,0,0,0,.406-.914h2.117a2.9,2.9,0,0,1-.469,1.574,3.093,3.093,0,0,1-1.262,1.109,3.949,3.949,0,0,1-1.77.395A3.67,3.67,0,0,1,105.063-1a4.56,4.56,0,0,1-1.047-3.184v-.148a4.508,4.508,0,0,1,1.039-3.117,3.627,3.627,0,0,1,2.852-1.164,3.555,3.555,0,0,1,2.543.9,3.2,3.2,0,0,1,.973,2.4H109.3a1.539,1.539,0,0,0-.406-1.066,1.358,1.358,0,0,0-1.031-.41,1.361,1.361,0,0,0-1.191.574,3.324,3.324,0,0,0-.4,1.863v.234a3.366,3.366,0,0,0,.4,1.875A1.378,1.378,0,0,0,107.883-1.664ZM115.094,0h-2.266V-8.453h2.266Zm-2.4-10.641a1.112,1.112,0,0,1,.34-.836,1.277,1.277,0,0,1,.926-.328,1.28,1.28,0,0,1,.922.328,1.105,1.105,0,0,1,.344.836,1.108,1.108,0,0,1-.348.844,1.283,1.283,0,0,1-.918.328,1.283,1.283,0,0,1-.918-.328A1.108,1.108,0,0,1,112.7-10.641Zm8.148,10.8a4.15,4.15,0,0,1-3.027-1.141,4.054,4.054,0,0,1-1.168-3.039v-.219a5.106,5.106,0,0,1,.492-2.277,3.612,3.612,0,0,1,1.395-1.547,3.914,3.914,0,0,1,2.059-.543,3.508,3.508,0,0,1,2.73,1.094,4.444,4.444,0,0,1,1,3.1v.922h-5.383a2.1,2.1,0,0,0,.66,1.328,2,2,0,0,0,1.395.5,2.437,2.437,0,0,0,2.039-.945l1.109,1.242a3.389,3.389,0,0,1-1.375,1.121A4.511,4.511,0,0,1,120.844.156Zm-.258-6.937a1.414,1.414,0,0,0-1.09.453,2.341,2.341,0,0,0-.535,1.3H122.1v-.18a1.669,1.669,0,0,0-.406-1.16A1.459,1.459,0,0,0,120.586-6.781Z" transform="translate(887.487 2787.306) rotate(60)" fill="#12263f"/>
  </g>
</svg>
