<svg xmlns="http://www.w3.org/2000/svg" width="736.172" height="445.281" viewBox="0 0 736.172 445.281"><g transform="translate(-420.098 -1083.875)"><g transform="translate(122.088 -45)"><path d="M250.949,24.55V234.273l-2.234,1.834-.041.028-3.047,1.724L49.941,302.186a211.007,211.007,0,0,1-10.535-66.079C39.406,119.269,134.112,24.55,250.949,24.55Z" transform="translate(426.507 1104.825)" fill="#ff854e" stroke="#006c62" stroke-miterlimit="10" stroke-width="1"/><path d="M355.7,101.109,192.816,234.273V24.55A211.079,211.079,0,0,1,355.7,101.109Z" transform="translate(484.641 1104.825)" fill="#79be60" stroke="#006c62" stroke-miterlimit="10" stroke-width="1"/><path d="M404.359,215.068a214.471,214.471,0,0,1-1.765,27.441L192.816,215.068v-1.834L355.7,80.07A210.725,210.725,0,0,1,404.359,215.068Z" transform="translate(484.641 1125.864)" fill="#ffd63d" stroke="#006c62" stroke-miterlimit="10" stroke-width="1"/><path d="M343.132,327.378a211.719,211.719,0,0,1-81.178,50.773L191.366,178.632l2-.662Z" transform="translate(484.091 1162.963)" fill="#ebf5e7" stroke="#006c62" stroke-miterlimit="10" stroke-width="1"/><path d="M267.21,377.969a211.393,211.393,0,0,1-68.589,11.362q-10.694,0-21.125-1.048l18.643-207.765.179-1.972.3-.1Z" transform="translate(478.835 1163.145)" fill="#a8f7f0" stroke="#006c62" stroke-miterlimit="10" stroke-width="1"/><path d="M239.908,178.84,81.5,313.618a210.662,210.662,0,0,1-22.559-32.626l179.29-101.6,1.572-.51Z" transform="translate(433.908 1163.292)" fill="#47b5ab" stroke="#006c62" stroke-miterlimit="10" stroke-width="1"/><path d="M242.732,179.24,63.442,280.84a208.975,208.975,0,0,1-16.4-37.273Z" transform="translate(429.402 1163.443)" fill="#ffce7e" stroke="#006c62" stroke-miterlimit="10" stroke-width="1"/><path d="M402.594,205.411a210.979,210.979,0,0,1-60.012,121.967L192.816,177.97Z" transform="translate(484.641 1162.963)" fill="#e38686" stroke="#006c62" stroke-miterlimit="10" stroke-width="1"/><path d="M213.036,179.95,194.393,387.715a210.177,210.177,0,0,1-61.487-15.679Z" transform="translate(461.938 1163.713)" fill="#f5b3b3" stroke="#006c62" stroke-miterlimit="10" stroke-width="1"/><path d="M225.53,179.95,145.4,372.036A212.015,212.015,0,0,1,99.936,345.6Z" transform="translate(449.444 1163.713)" fill="#d9f5d9" stroke="#006c62" stroke-miterlimit="10" stroke-width="1"/><path d="M235.046,178.52l-.179,1.972L109.273,346.144A212.323,212.323,0,0,1,75.3,313.739L233.709,178.961Z" transform="translate(440.107 1163.171)" fill="#e2f4f6" stroke="#006c62" stroke-miterlimit="10" stroke-width="1"/></g><path d="M-23.781,0V-11.375h3.359a5.269,5.269,0,0,1,2.676.672A4.581,4.581,0,0,1-15.937-8.8,6.051,6.051,0,0,1-15.3-5.969v.57a6.026,6.026,0,0,1-.645,2.844A4.526,4.526,0,0,1-17.777-.664,5.513,5.513,0,0,1-20.508,0ZM-21.8-9.781v8.2h1.289a2.968,2.968,0,0,0,2.387-.973,4.237,4.237,0,0,0,.848-2.793v-.633a4.347,4.347,0,0,0-.8-2.828,2.853,2.853,0,0,0-2.336-.977ZM-9.789.156A3.928,3.928,0,0,1-12.715-.98a4.124,4.124,0,0,1-1.121-3.027v-.234A5.072,5.072,0,0,1-13.348-6.5a3.716,3.716,0,0,1,1.371-1.551,3.625,3.625,0,0,1,1.969-.555,3.318,3.318,0,0,1,2.668,1.1A4.658,4.658,0,0,1-6.4-4.391v.766h-5.523a2.539,2.539,0,0,0,.7,1.656,2.1,2.1,0,0,0,1.543.609A2.571,2.571,0,0,0-7.555-2.414l1.023.977A3.418,3.418,0,0,1-7.887-.262,4.244,4.244,0,0,1-9.789.156Zm-.227-7.242a1.6,1.6,0,0,0-1.262.547,2.835,2.835,0,0,0-.613,1.523h3.617v-.141A2.307,2.307,0,0,0-8.781-6.6,1.586,1.586,0,0,0-10.016-7.086Zm6.875-1.367.055.883A3.042,3.042,0,0,1-.648-8.609a2.337,2.337,0,0,1,2.32,1.3,3,3,0,0,1,2.594-1.3,2.636,2.636,0,0,1,2.082.773,3.405,3.405,0,0,1,.7,2.281V0h-1.9V-5.5A1.681,1.681,0,0,0,4.8-6.68a1.539,1.539,0,0,0-1.164-.375,1.581,1.581,0,0,0-1.059.348A1.833,1.833,0,0,0,2-5.8L2.008,0H.109V-5.562A1.354,1.354,0,0,0-1.414-7.055a1.671,1.671,0,0,0-1.617.93V0h-1.9V-8.453ZM14.047,0a2.93,2.93,0,0,1-.219-.789,2.955,2.955,0,0,1-2.219.945A2.982,2.982,0,0,1,9.531-.57a2.325,2.325,0,0,1-.8-1.8,2.4,2.4,0,0,1,1-2.074A4.865,4.865,0,0,1,12.6-5.164h1.164v-.555A1.481,1.481,0,0,0,13.4-6.77a1.456,1.456,0,0,0-1.117-.395,1.672,1.672,0,0,0-1.062.324,1,1,0,0,0-.414.824h-1.9a2.107,2.107,0,0,1,.461-1.3,3.071,3.071,0,0,1,1.254-.949,4.4,4.4,0,0,1,1.77-.344,3.547,3.547,0,0,1,2.367.746,2.661,2.661,0,0,1,.906,2.1v3.813a4.321,4.321,0,0,0,.32,1.82V0ZM11.961-1.367a2.159,2.159,0,0,0,1.059-.273,1.827,1.827,0,0,0,.746-.734V-3.969H12.742a2.8,2.8,0,0,0-1.586.367,1.189,1.189,0,0,0-.531,1.039,1.109,1.109,0,0,0,.363.871A1.407,1.407,0,0,0,11.961-1.367ZM13.016-12H15.18L13.016-9.633H11.492Zm9.375,9.7a.861.861,0,0,0-.418-.773,4.445,4.445,0,0,0-1.387-.469,7.129,7.129,0,0,1-1.617-.516,2.158,2.158,0,0,1-1.422-1.992,2.25,2.25,0,0,1,.922-1.828,3.644,3.644,0,0,1,2.344-.734,3.792,3.792,0,0,1,2.449.75A2.38,2.38,0,0,1,24.2-5.914H22.3a1.17,1.17,0,0,0-.406-.91,1.557,1.557,0,0,0-1.078-.363,1.682,1.682,0,0,0-1.02.289.911.911,0,0,0-.395.773.769.769,0,0,0,.367.68,5.049,5.049,0,0,0,1.484.488A7.027,7.027,0,0,1,23-4.371a2.484,2.484,0,0,1,.945.816A2.082,2.082,0,0,1,24.258-2.4a2.2,2.2,0,0,1-.945,1.848,4.031,4.031,0,0,1-2.477.707,4.371,4.371,0,0,1-1.852-.375A3.047,3.047,0,0,1,17.719-1.25a2.441,2.441,0,0,1-.453-1.414h1.844a1.338,1.338,0,0,0,.508,1.035,1.973,1.973,0,0,0,1.242.363A1.92,1.92,0,0,0,22-1.551.883.883,0,0,0,22.391-2.3ZM-11.922,17.445h1.156a2.069,2.069,0,0,0,1.387-.453A1.617,1.617,0,0,0-8.867,15.7a1.762,1.762,0,0,0-.426-1.262,1.714,1.714,0,0,0-1.3-.449,1.813,1.813,0,0,0-1.258.441,1.475,1.475,0,0,0-.492,1.152h-1.9a2.874,2.874,0,0,1,.465-1.594,3.123,3.123,0,0,1,1.3-1.121,4.225,4.225,0,0,1,1.863-.4,3.912,3.912,0,0,1,2.676.855A3,3,0,0,1-6.969,15.7a2.417,2.417,0,0,1-.488,1.441,3.062,3.062,0,0,1-1.262,1.02,2.791,2.791,0,0,1,1.426,1.008A2.759,2.759,0,0,1-6.8,20.813,3.055,3.055,0,0,1-7.855,23.25a4.08,4.08,0,0,1-2.762.906,4.049,4.049,0,0,1-2.687-.875,2.882,2.882,0,0,1-1.047-2.328h1.9a1.588,1.588,0,0,0,.5,1.219,1.911,1.911,0,0,0,1.355.469A1.971,1.971,0,0,0-9.2,22.172,1.758,1.758,0,0,0-8.7,20.813a1.776,1.776,0,0,0-.531-1.383,2.271,2.271,0,0,0-1.578-.484h-1.117ZM2.391,19.211a6.2,6.2,0,0,1-.918,3.7A3.242,3.242,0,0,1-1.32,24.156,3.285,3.285,0,0,1-4.1,22.941a5.94,5.94,0,0,1-.957-3.6V17.375a6.11,6.11,0,0,1,.918-3.68,3.272,3.272,0,0,1,2.8-1.227,3.291,3.291,0,0,1,2.785,1.2,5.924,5.924,0,0,1,.941,3.578Zm-1.9-2.125a4.813,4.813,0,0,0-.437-2.348,1.493,1.493,0,0,0-1.391-.746A1.492,1.492,0,0,0-2.7,14.7a4.448,4.448,0,0,0-.461,2.207v2.578a4.937,4.937,0,0,0,.445,2.375,1.5,1.5,0,0,0,1.4.781,1.469,1.469,0,0,0,1.352-.723,4.645,4.645,0,0,0,.461-2.262Zm3.5-2.273a2.283,2.283,0,0,1,.664-1.691,2.363,2.363,0,0,1,1.742-.66,2.371,2.371,0,0,1,1.754.66,2.34,2.34,0,0,1,.66,1.73v.563a2.267,2.267,0,0,1-.66,1.68,2.358,2.358,0,0,1-1.738.656,2.433,2.433,0,0,1-1.738-.645,2.275,2.275,0,0,1-.684-1.738Zm1.328.6a1.248,1.248,0,0,0,.3.871,1.019,1.019,0,0,0,.793.332,1,1,0,0,0,.781-.332,1.3,1.3,0,0,0,.3-.9v-.57a1.262,1.262,0,0,0-.3-.875A1.013,1.013,0,0,0,6.4,13.6a.984.984,0,0,0-.785.34,1.322,1.322,0,0,0-.293.895Zm4.141,5.8a2.236,2.236,0,0,1,.68-1.7,2.411,2.411,0,0,1,1.734-.648,2.407,2.407,0,0,1,1.738.648,2.312,2.312,0,0,1,.676,1.75v.555a2.285,2.285,0,0,1-.652,1.676,2.344,2.344,0,0,1-1.746.66,2.413,2.413,0,0,1-1.762-.652,2.3,2.3,0,0,1-.668-1.723Zm1.328.609a1.246,1.246,0,0,0,.309.871,1.023,1.023,0,0,0,.793.34.991.991,0,0,0,.785-.324,1.333,1.333,0,0,0,.285-.91v-.586a1.235,1.235,0,0,0-.3-.875,1.1,1.1,0,0,0-1.566,0,1.291,1.291,0,0,0-.3.906ZM6.8,23.148l-.977-.562L11.383,13.7l.977.563Z" transform="translate(558 1206)" fill="#12263f"/><path d="M-44.02,0V-11.375h3.9a4.76,4.76,0,0,1,2.938.773,2.724,2.724,0,0,1,1.008,2.3A2.456,2.456,0,0,1-36.6-6.891a2.715,2.715,0,0,1-1.234.969,2.511,2.511,0,0,1,1.426.941,2.742,2.742,0,0,1,.5,1.66A3.028,3.028,0,0,1-36.93-.859,4.467,4.467,0,0,1-39.871,0Zm1.977-5.133v3.555h2.2a2.124,2.124,0,0,0,1.453-.461,1.618,1.618,0,0,0,.523-1.281,1.623,1.623,0,0,0-1.812-1.812Zm0-1.453h1.938A2.241,2.241,0,0,0-38.664-7a1.432,1.432,0,0,0,.52-1.184,1.452,1.452,0,0,0-.48-1.219,2.426,2.426,0,0,0-1.5-.375h-1.922ZM-34.465-4.3a4.984,4.984,0,0,1,.492-2.238A3.6,3.6,0,0,1-32.59-8.074a3.9,3.9,0,0,1,2.047-.535,3.692,3.692,0,0,1,2.777,1.1,4.333,4.333,0,0,1,1.152,2.922l.008.445a5.029,5.029,0,0,1-.48,2.234A3.551,3.551,0,0,1-28.461-.383a3.925,3.925,0,0,1-2.066.539,3.667,3.667,0,0,1-2.863-1.191,4.563,4.563,0,0,1-1.074-3.176Zm1.9.164A3.406,3.406,0,0,0-32.027-2.1a1.752,1.752,0,0,0,1.5.738,1.733,1.733,0,0,0,1.5-.75A3.762,3.762,0,0,0-28.5-4.3a3.362,3.362,0,0,0-.551-2.031,1.759,1.759,0,0,0-1.5-.75,1.743,1.743,0,0,0-1.477.738A3.691,3.691,0,0,0-32.566-4.141ZM-22.16-2.719l1.719-5.734h2.023l-3.359,9.734A2.73,2.73,0,0,1-24.4,3.414a3.4,3.4,0,0,1-.914-.141V1.8l.359.023a1.847,1.847,0,0,0,1.082-.262A1.735,1.735,0,0,0-23.3.688l.273-.727L-26-8.453h2.047ZM-12.395,0a2.93,2.93,0,0,1-.219-.789,2.955,2.955,0,0,1-2.219.945A2.982,2.982,0,0,1-16.91-.57a2.325,2.325,0,0,1-.8-1.8,2.4,2.4,0,0,1,1-2.074,4.865,4.865,0,0,1,2.871-.723h1.164v-.555a1.481,1.481,0,0,0-.367-1.051,1.456,1.456,0,0,0-1.117-.395,1.672,1.672,0,0,0-1.062.324,1,1,0,0,0-.414.824h-1.9a2.107,2.107,0,0,1,.461-1.3,3.071,3.071,0,0,1,1.254-.949,4.4,4.4,0,0,1,1.77-.344,3.547,3.547,0,0,1,2.367.746,2.661,2.661,0,0,1,.906,2.1v3.813a4.321,4.321,0,0,0,.32,1.82V0ZM-14.48-1.367a2.159,2.159,0,0,0,1.059-.273,1.827,1.827,0,0,0,.746-.734V-3.969H-13.7a2.8,2.8,0,0,0-1.586.367,1.189,1.189,0,0,0-.531,1.039,1.109,1.109,0,0,0,.363.871A1.407,1.407,0,0,0-14.48-1.367Zm9.164.008a1.716,1.716,0,0,0,1.18-.414,1.415,1.415,0,0,0,.5-1.023h1.789A2.789,2.789,0,0,1-2.34-1.324,3.228,3.228,0,0,1-3.59-.242a3.725,3.725,0,0,1-1.7.4A3.6,3.6,0,0,1-8.105-.992,4.555,4.555,0,0,1-9.145-4.164v-.2a4.479,4.479,0,0,1,1.031-3.09A3.571,3.571,0,0,1-5.3-8.609a3.473,3.473,0,0,1,2.457.879,3.148,3.148,0,0,1,1,2.309H-3.637a1.738,1.738,0,0,0-.5-1.2,1.6,1.6,0,0,0-1.184-.469,1.671,1.671,0,0,0-1.422.668,3.408,3.408,0,0,0-.508,2.027v.3a3.465,3.465,0,0,0,.5,2.051A1.669,1.669,0,0,0-5.316-1.359ZM4.637,0a2.93,2.93,0,0,1-.219-.789A2.955,2.955,0,0,1,2.2.156,2.982,2.982,0,0,1,.121-.57a2.325,2.325,0,0,1-.8-1.8,2.4,2.4,0,0,1,1-2.074,4.865,4.865,0,0,1,2.871-.723H4.355v-.555A1.481,1.481,0,0,0,3.988-6.77a1.456,1.456,0,0,0-1.117-.395,1.672,1.672,0,0,0-1.062.324,1,1,0,0,0-.414.824H-.5a2.107,2.107,0,0,1,.461-1.3,3.071,3.071,0,0,1,1.254-.949,4.4,4.4,0,0,1,1.77-.344,3.547,3.547,0,0,1,2.367.746,2.661,2.661,0,0,1,.906,2.1v3.813a4.321,4.321,0,0,0,.32,1.82V0ZM2.551-1.367a2.159,2.159,0,0,0,1.059-.273,1.827,1.827,0,0,0,.746-.734V-3.969H3.332A2.8,2.8,0,0,0,1.746-3.6a1.189,1.189,0,0,0-.531,1.039,1.109,1.109,0,0,0,.363.871A1.407,1.407,0,0,0,2.551-1.367ZM3.605-12H5.77L3.605-9.633H2.082ZM17.246,0H15.355V-9.133l-2.789.953v-1.6L17-11.414h.242ZM27.621-4.055h1.414v1.523H27.621V0h-1.9V-2.531H20.809l-.055-1.156,4.906-7.687h1.961Zm-4.875,0h2.977V-8.8l-.141.25ZM34.2-9.187a2.283,2.283,0,0,1,.664-1.691,2.363,2.363,0,0,1,1.742-.66,2.371,2.371,0,0,1,1.754.66,2.34,2.34,0,0,1,.66,1.73v.563a2.267,2.267,0,0,1-.66,1.68,2.358,2.358,0,0,1-1.738.656,2.433,2.433,0,0,1-1.738-.645A2.275,2.275,0,0,1,34.2-8.633Zm1.328.6a1.248,1.248,0,0,0,.3.871,1.019,1.019,0,0,0,.793.332,1,1,0,0,0,.781-.332,1.3,1.3,0,0,0,.3-.9v-.57a1.262,1.262,0,0,0-.3-.875,1.013,1.013,0,0,0-.793-.336.984.984,0,0,0-.785.34,1.322,1.322,0,0,0-.293.895Zm4.141,5.8a2.236,2.236,0,0,1,.68-1.7,2.411,2.411,0,0,1,1.734-.648,2.407,2.407,0,0,1,1.738.648,2.312,2.312,0,0,1,.676,1.75v.555A2.285,2.285,0,0,1,43.844-.5,2.344,2.344,0,0,1,42.1.156,2.413,2.413,0,0,1,40.336-.5a2.3,2.3,0,0,1-.668-1.723ZM41-2.18a1.246,1.246,0,0,0,.309.871,1.023,1.023,0,0,0,.793.34.991.991,0,0,0,.785-.324,1.333,1.333,0,0,0,.285-.91v-.586a1.235,1.235,0,0,0-.3-.875,1.019,1.019,0,0,0-.781-.328,1.015,1.015,0,0,0-.785.328,1.291,1.291,0,0,0-.3.906ZM37.012-.852l-.977-.562L41.59-10.3l.977.563Z" transform="translate(971 1117)" fill="#12263f"/><path d="M-61.113-3.7a4.107,4.107,0,0,1-1.344,2.84A4.581,4.581,0,0,1-65.574.156a4.436,4.436,0,0,1-2.395-.645,4.231,4.231,0,0,1-1.6-1.832,6.611,6.611,0,0,1-.586-2.758V-6.141a6.659,6.659,0,0,1,.57-2.836,4.3,4.3,0,0,1,1.637-1.891,4.566,4.566,0,0,1,2.465-.664,4.386,4.386,0,0,1,3.031,1.023,4.276,4.276,0,0,1,1.336,2.891h-1.969a2.81,2.81,0,0,0-.715-1.77A2.363,2.363,0,0,0-65.48-9.93a2.309,2.309,0,0,0-1.98.941,4.7,4.7,0,0,0-.707,2.762v1.008a4.988,4.988,0,0,0,.66,2.813,2.191,2.191,0,0,0,1.934.969,2.555,2.555,0,0,0,1.75-.523A2.729,2.729,0,0,0-63.082-3.7Zm6.7,2.875a2.944,2.944,0,0,1-2.375.984,2.624,2.624,0,0,1-2.082-.8,3.423,3.423,0,0,1-.707-2.328V-8.453h1.9V-3q0,1.609,1.336,1.609a1.876,1.876,0,0,0,1.867-.992v-6.07h1.9V0h-1.789Zm5.531-7.625.055.977a3.039,3.039,0,0,1,2.461-1.133q2.641,0,2.688,3.023V0h-1.9V-5.477a1.741,1.741,0,0,0-.348-1.191,1.462,1.462,0,0,0-1.137-.387A1.829,1.829,0,0,0-48.77-6.016V0h-1.9V-8.453ZM-42.1-4.289a5.026,5.026,0,0,1,.906-3.137,2.9,2.9,0,0,1,2.43-1.184,2.759,2.759,0,0,1,2.172.938V-12h1.9V0H-36.41L-36.5-.875A2.8,2.8,0,0,1-38.777.156a2.887,2.887,0,0,1-2.4-1.2A5.21,5.21,0,0,1-42.1-4.289Zm1.9.164a3.519,3.519,0,0,0,.5,2.012,1.61,1.61,0,0,0,1.41.723,1.793,1.793,0,0,0,1.7-1.039V-6.039a1.766,1.766,0,0,0-1.687-1.016,1.622,1.622,0,0,0-1.422.73A3.919,3.919,0,0,0-40.2-4.125ZM-30.691,0h-1.9V-8.453h1.9Zm-2.016-10.648a1.008,1.008,0,0,1,.277-.727,1.048,1.048,0,0,1,.793-.289,1.061,1.061,0,0,1,.8.289,1,1,0,0,1,.281.727.977.977,0,0,1-.281.715,1.069,1.069,0,0,1-.8.285,1.056,1.056,0,0,1-.793-.285A.984.984,0,0,1-32.707-10.648Zm5.844,2.2.055.977a3.039,3.039,0,0,1,2.461-1.133q2.641,0,2.688,3.023V0h-1.9V-5.477a1.741,1.741,0,0,0-.348-1.191,1.462,1.462,0,0,0-1.137-.387,1.829,1.829,0,0,0-1.711,1.039V0h-1.9V-8.453ZM-14.676,0a2.93,2.93,0,0,1-.219-.789,2.955,2.955,0,0,1-2.219.945A2.982,2.982,0,0,1-19.191-.57a2.325,2.325,0,0,1-.8-1.8,2.4,2.4,0,0,1,1-2.074,4.865,4.865,0,0,1,2.871-.723h1.164v-.555a1.481,1.481,0,0,0-.367-1.051,1.456,1.456,0,0,0-1.117-.395A1.672,1.672,0,0,0-17.5-6.84a1,1,0,0,0-.414.824h-1.9a2.107,2.107,0,0,1,.461-1.3A3.071,3.071,0,0,1-18.1-8.266a4.4,4.4,0,0,1,1.77-.344,3.547,3.547,0,0,1,2.367.746,2.661,2.661,0,0,1,.906,2.1v3.813a4.321,4.321,0,0,0,.32,1.82V0Zm-2.086-1.367A2.159,2.159,0,0,0-15.7-1.641a1.827,1.827,0,0,0,.746-.734V-3.969H-15.98a2.8,2.8,0,0,0-1.586.367A1.189,1.189,0,0,0-18.1-2.562a1.109,1.109,0,0,0,.363.871A1.407,1.407,0,0,0-16.762-1.367Zm7.477-7.086.055.883A3.042,3.042,0,0,1-6.793-8.609a2.337,2.337,0,0,1,2.32,1.3,3,3,0,0,1,2.594-1.3A2.636,2.636,0,0,1,.2-7.836,3.405,3.405,0,0,1,.9-5.555V0H-1V-5.5a1.681,1.681,0,0,0-.352-1.18,1.539,1.539,0,0,0-1.164-.375,1.581,1.581,0,0,0-1.059.348,1.833,1.833,0,0,0-.574.91L-4.137,0h-1.9V-5.562A1.354,1.354,0,0,0-7.559-7.055a1.671,1.671,0,0,0-1.617.93V0h-1.9V-8.453ZM7.9,0a2.93,2.93,0,0,1-.219-.789A2.955,2.955,0,0,1,5.465.156,2.982,2.982,0,0,1,3.387-.57a2.325,2.325,0,0,1-.8-1.8,2.4,2.4,0,0,1,1-2.074,4.865,4.865,0,0,1,2.871-.723H7.621v-.555A1.481,1.481,0,0,0,7.254-6.77a1.456,1.456,0,0,0-1.117-.395,1.672,1.672,0,0,0-1.062.324,1,1,0,0,0-.414.824h-1.9a2.107,2.107,0,0,1,.461-1.3,3.071,3.071,0,0,1,1.254-.949,4.4,4.4,0,0,1,1.77-.344,3.547,3.547,0,0,1,2.367.746,2.661,2.661,0,0,1,.906,2.1v3.813a4.321,4.321,0,0,0,.32,1.82V0ZM5.816-1.367a2.159,2.159,0,0,0,1.059-.273,1.827,1.827,0,0,0,.746-.734V-3.969H6.6A2.8,2.8,0,0,0,5.012-3.6,1.189,1.189,0,0,0,4.48-2.562a1.109,1.109,0,0,0,.363.871A1.407,1.407,0,0,0,5.816-1.367ZM15.934-6.719a4.7,4.7,0,0,0-.773-.062,1.741,1.741,0,0,0-1.758,1V0H11.5V-8.453h1.813l.047.945a2.139,2.139,0,0,1,1.906-1.1,1.777,1.777,0,0,1,.672.109Zm4.523,5.359a1.716,1.716,0,0,0,1.18-.414,1.415,1.415,0,0,0,.5-1.023h1.789a2.789,2.789,0,0,1-.492,1.473,3.228,3.228,0,0,1-1.25,1.082,3.725,3.725,0,0,1-1.7.4A3.6,3.6,0,0,1,17.668-.992a4.555,4.555,0,0,1-1.039-3.172v-.2a4.479,4.479,0,0,1,1.031-3.09,3.571,3.571,0,0,1,2.813-1.16,3.473,3.473,0,0,1,2.457.879,3.148,3.148,0,0,1,1,2.309H22.137a1.738,1.738,0,0,0-.5-1.2,1.6,1.6,0,0,0-1.184-.469,1.671,1.671,0,0,0-1.422.668,3.408,3.408,0,0,0-.508,2.027v.3a3.465,3.465,0,0,0,.5,2.051A1.669,1.669,0,0,0,20.457-1.359ZM30.41,0a2.93,2.93,0,0,1-.219-.789,2.955,2.955,0,0,1-2.219.945A2.982,2.982,0,0,1,25.895-.57a2.325,2.325,0,0,1-.8-1.8,2.4,2.4,0,0,1,1-2.074,4.865,4.865,0,0,1,2.871-.723h1.164v-.555a1.481,1.481,0,0,0-.367-1.051,1.456,1.456,0,0,0-1.117-.395,1.672,1.672,0,0,0-1.062.324,1,1,0,0,0-.414.824h-1.9a2.107,2.107,0,0,1,.461-1.3,3.071,3.071,0,0,1,1.254-.949,4.4,4.4,0,0,1,1.77-.344,3.547,3.547,0,0,1,2.367.746,2.661,2.661,0,0,1,.906,2.1v3.813a4.321,4.321,0,0,0,.32,1.82V0ZM28.324-1.367a2.159,2.159,0,0,0,1.059-.273,1.827,1.827,0,0,0,.746-.734V-3.969H29.105A2.8,2.8,0,0,0,27.52-3.6a1.189,1.189,0,0,0-.531,1.039,1.109,1.109,0,0,0,.363.871A1.407,1.407,0,0,0,28.324-1.367ZM43.02,0H41.129V-9.133L38.34-8.18v-1.6l4.438-1.633h.242Zm6.148-6.555h1.156a2.069,2.069,0,0,0,1.387-.453A1.617,1.617,0,0,0,52.223-8.3,1.762,1.762,0,0,0,51.8-9.559a1.714,1.714,0,0,0-1.3-.449,1.813,1.813,0,0,0-1.258.441,1.475,1.475,0,0,0-.492,1.152h-1.9a2.874,2.874,0,0,1,.465-1.594,3.123,3.123,0,0,1,1.3-1.121,4.225,4.225,0,0,1,1.863-.4,3.912,3.912,0,0,1,2.676.855A3,3,0,0,1,54.121-8.3a2.417,2.417,0,0,1-.488,1.441,3.062,3.062,0,0,1-1.262,1.02A2.791,2.791,0,0,1,53.8-4.828a2.759,2.759,0,0,1,.488,1.641A3.055,3.055,0,0,1,53.234-.75a4.08,4.08,0,0,1-2.762.906,4.049,4.049,0,0,1-2.687-.875,2.882,2.882,0,0,1-1.047-2.328h1.9a1.588,1.588,0,0,0,.5,1.219,1.911,1.911,0,0,0,1.355.469,1.971,1.971,0,0,0,1.391-.469,1.758,1.758,0,0,0,.508-1.359,1.776,1.776,0,0,0-.531-1.383,2.271,2.271,0,0,0-1.578-.484H49.168Zm10.8-2.633a2.283,2.283,0,0,1,.664-1.691,2.363,2.363,0,0,1,1.742-.66,2.371,2.371,0,0,1,1.754.66,2.34,2.34,0,0,1,.66,1.73v.563a2.267,2.267,0,0,1-.66,1.68,2.358,2.358,0,0,1-1.738.656,2.433,2.433,0,0,1-1.738-.645,2.275,2.275,0,0,1-.684-1.738Zm1.328.6a1.248,1.248,0,0,0,.3.871,1.019,1.019,0,0,0,.793.332,1,1,0,0,0,.781-.332,1.3,1.3,0,0,0,.3-.9v-.57a1.262,1.262,0,0,0-.3-.875,1.013,1.013,0,0,0-.793-.336.984.984,0,0,0-.785.34,1.322,1.322,0,0,0-.293.895Zm4.141,5.8a2.236,2.236,0,0,1,.68-1.7,2.411,2.411,0,0,1,1.734-.648,2.407,2.407,0,0,1,1.738.648,2.312,2.312,0,0,1,.676,1.75v.555A2.285,2.285,0,0,1,69.617-.5a2.344,2.344,0,0,1-1.746.66A2.413,2.413,0,0,1,66.109-.5a2.3,2.3,0,0,1-.668-1.723Zm1.328.609a1.246,1.246,0,0,0,.309.871,1.023,1.023,0,0,0,.793.34.991.991,0,0,0,.785-.324,1.333,1.333,0,0,0,.285-.91v-.586a1.235,1.235,0,0,0-.3-.875,1.019,1.019,0,0,0-.781-.328,1.015,1.015,0,0,0-.785.328,1.291,1.291,0,0,0-.3.906ZM62.785-.852l-.977-.562L67.363-10.3l.977.563Z" transform="translate(1086 1248)" fill="#12263f"/><path d="M-45.691-2.648H-50.1L-51.02,0h-2.055l4.3-11.375H-47L-42.7,0h-2.062Zm-3.852-1.594h3.3l-1.648-4.719Zm9.336-4.211.055.977a3.039,3.039,0,0,1,2.461-1.133q2.641,0,2.688,3.023V0h-1.9V-5.477a1.741,1.741,0,0,0-.348-1.191,1.462,1.462,0,0,0-1.137-.387A1.829,1.829,0,0,0-40.1-6.016V0H-42V-8.453Zm9.516-2.055v2.055H-29.2v1.406h-1.492v4.719a1.039,1.039,0,0,0,.191.7.888.888,0,0,0,.684.215,2.924,2.924,0,0,0,.664-.078V-.023a4.676,4.676,0,0,1-1.25.18q-2.188,0-2.187-2.414V-7.047H-33.98V-8.453h1.391v-2.055ZM-25.73,0h-1.9V-8.453h1.9Zm-2.016-10.648a1.008,1.008,0,0,1,.277-.727,1.048,1.048,0,0,1,.793-.289,1.061,1.061,0,0,1,.8.289,1,1,0,0,1,.281.727.977.977,0,0,1-.281.715,1.069,1.069,0,0,1-.8.285,1.056,1.056,0,0,1-.793-.285A.984.984,0,0,1-27.746-10.648ZM-24.02-4.3a4.984,4.984,0,0,1,.492-2.238,3.6,3.6,0,0,1,1.383-1.531A3.9,3.9,0,0,1-20.1-8.609a3.692,3.692,0,0,1,2.777,1.1,4.333,4.333,0,0,1,1.152,2.922l.008.445a5.029,5.029,0,0,1-.48,2.234A3.551,3.551,0,0,1-18.016-.383a3.925,3.925,0,0,1-2.066.539,3.667,3.667,0,0,1-2.863-1.191A4.563,4.563,0,0,1-24.02-4.211Zm1.9.164A3.406,3.406,0,0,0-21.582-2.1a1.752,1.752,0,0,0,1.5.738,1.733,1.733,0,0,0,1.5-.75,3.762,3.762,0,0,0,.535-2.2A3.362,3.362,0,0,0-18.6-6.336a1.759,1.759,0,0,0-1.5-.75,1.743,1.743,0,0,0-1.477.738A3.691,3.691,0,0,0-22.121-4.141ZM-14.91-4.3A5,5,0,0,1-14-7.445a2.945,2.945,0,0,1,2.453-1.164,2.768,2.768,0,0,1,2.242.992l.109-.836h1.688V3.25h-1.9V-.719a2.834,2.834,0,0,1-2.156.875A2.917,2.917,0,0,1-14-1.027,5.23,5.23,0,0,1-14.91-4.3Zm1.9.164A3.528,3.528,0,0,0-12.5-2.1a1.631,1.631,0,0,0,1.418.738A1.8,1.8,0,0,0-9.41-2.32V-6.164a1.8,1.8,0,0,0-1.656-.922,1.659,1.659,0,0,0-1.426.727A3.849,3.849,0,0,0-13.012-4.133ZM-.348-.828A2.944,2.944,0,0,1-2.723.156,2.624,2.624,0,0,1-4.8-.648a3.423,3.423,0,0,1-.707-2.328V-8.453h1.9V-3q0,1.609,1.336,1.609A1.876,1.876,0,0,0-.41-2.383v-6.07h1.9V0H-.3ZM5.465,0h-1.9V-8.453h1.9ZM5.105-11.945H7.27L5.105-9.578H3.582ZM12.676,0a2.93,2.93,0,0,1-.219-.789,2.955,2.955,0,0,1-2.219.945A2.982,2.982,0,0,1,8.16-.57a2.325,2.325,0,0,1-.8-1.8,2.4,2.4,0,0,1,1-2.074,4.865,4.865,0,0,1,2.871-.723h1.164v-.555a1.481,1.481,0,0,0-.367-1.051,1.456,1.456,0,0,0-1.117-.395,1.672,1.672,0,0,0-1.062.324,1,1,0,0,0-.414.824h-1.9A2.107,2.107,0,0,1,8-7.316,3.071,3.071,0,0,1,9.25-8.266a4.4,4.4,0,0,1,1.77-.344,3.547,3.547,0,0,1,2.367.746,2.661,2.661,0,0,1,.906,2.1v3.813a4.321,4.321,0,0,0,.32,1.82V0ZM10.59-1.367a2.159,2.159,0,0,0,1.059-.273,1.827,1.827,0,0,0,.746-.734V-3.969H11.371A2.8,2.8,0,0,0,9.785-3.6a1.189,1.189,0,0,0-.531,1.039,1.109,1.109,0,0,0,.363.871A1.407,1.407,0,0,0,10.59-1.367ZM25.285,0H23.395V-9.133l-2.789.953v-1.6l4.438-1.633h.242ZM36.652-4.789a6.2,6.2,0,0,1-.918,3.7A3.242,3.242,0,0,1,32.941.156a3.285,3.285,0,0,1-2.777-1.215,5.94,5.94,0,0,1-.957-3.6V-6.625a6.11,6.11,0,0,1,.918-3.68,3.272,3.272,0,0,1,2.8-1.227,3.291,3.291,0,0,1,2.785,1.2,5.923,5.923,0,0,1,.941,3.578Zm-1.9-2.125a4.813,4.813,0,0,0-.437-2.348,1.493,1.493,0,0,0-1.391-.746,1.492,1.492,0,0,0-1.367.707A4.448,4.448,0,0,0,31.1-7.094v2.578a4.937,4.937,0,0,0,.445,2.375,1.5,1.5,0,0,0,1.4.781,1.469,1.469,0,0,0,1.352-.723,4.645,4.645,0,0,0,.461-2.262Zm7.484-2.273a2.283,2.283,0,0,1,.664-1.691,2.363,2.363,0,0,1,1.742-.66,2.371,2.371,0,0,1,1.754.66,2.34,2.34,0,0,1,.66,1.73v.563a2.267,2.267,0,0,1-.66,1.68,2.358,2.358,0,0,1-1.738.656,2.433,2.433,0,0,1-1.738-.645,2.275,2.275,0,0,1-.684-1.738Zm1.328.6a1.248,1.248,0,0,0,.3.871,1.019,1.019,0,0,0,.793.332,1,1,0,0,0,.781-.332,1.3,1.3,0,0,0,.3-.9v-.57a1.262,1.262,0,0,0-.3-.875,1.013,1.013,0,0,0-.793-.336.984.984,0,0,0-.785.34,1.322,1.322,0,0,0-.293.895Zm4.141,5.8a2.236,2.236,0,0,1,.68-1.7,2.411,2.411,0,0,1,1.734-.648,2.407,2.407,0,0,1,1.738.648,2.312,2.312,0,0,1,.676,1.75v.555A2.285,2.285,0,0,1,51.883-.5a2.344,2.344,0,0,1-1.746.66A2.413,2.413,0,0,1,48.375-.5a2.3,2.3,0,0,1-.668-1.723Zm1.328.609a1.246,1.246,0,0,0,.309.871,1.023,1.023,0,0,0,.793.34.991.991,0,0,0,.785-.324,1.333,1.333,0,0,0,.285-.91v-.586a1.235,1.235,0,0,0-.3-.875,1.019,1.019,0,0,0-.781-.328,1.015,1.015,0,0,0-.785.328,1.291,1.291,0,0,0-.3.906ZM45.051-.852l-.977-.562L49.629-10.3l.977.563Z" transform="translate(1063 1392)" fill="#12263f"/><path d="M-28.094,0H-30.07l-5.07-8.07V0h-1.977V-11.375h1.977l5.086,8.1v-8.1h1.961Zm7.2,0a2.93,2.93,0,0,1-.219-.789,2.955,2.955,0,0,1-2.219.945A2.982,2.982,0,0,1-25.406-.57a2.325,2.325,0,0,1-.8-1.8,2.4,2.4,0,0,1,1-2.074,4.865,4.865,0,0,1,2.871-.723h1.164v-.555a1.481,1.481,0,0,0-.367-1.051,1.456,1.456,0,0,0-1.117-.395,1.672,1.672,0,0,0-1.062.324,1,1,0,0,0-.414.824h-1.9a2.107,2.107,0,0,1,.461-1.3,3.071,3.071,0,0,1,1.254-.949,4.4,4.4,0,0,1,1.77-.344,3.547,3.547,0,0,1,2.367.746,2.661,2.661,0,0,1,.906,2.1v3.813a4.321,4.321,0,0,0,.32,1.82V0Zm-2.086-1.367a2.159,2.159,0,0,0,1.059-.273,1.827,1.827,0,0,0,.746-.734V-3.969H-22.2a2.8,2.8,0,0,0-1.586.367,1.189,1.189,0,0,0-.531,1.039,1.109,1.109,0,0,0,.363.871A1.407,1.407,0,0,0-22.977-1.367Zm10.117-5.352a4.7,4.7,0,0,0-.773-.062,1.741,1.741,0,0,0-1.758,1V0h-1.9V-8.453h1.813l.047.945a2.139,2.139,0,0,1,1.906-1.1,1.777,1.777,0,0,1,.672.109ZM-9.641,0h-1.9V-8.453h1.9Zm-2.016-10.648a1.008,1.008,0,0,1,.277-.727,1.048,1.048,0,0,1,.793-.289,1.061,1.061,0,0,1,.8.289,1,1,0,0,1,.281.727.977.977,0,0,1-.281.715,1.069,1.069,0,0,1-.8.285,1.056,1.056,0,0,1-.793-.285A.984.984,0,0,1-11.656-10.648Zm5.844,2.2.055.977A3.039,3.039,0,0,1-3.3-8.609q2.641,0,2.688,3.023V0h-1.9V-5.477a1.741,1.741,0,0,0-.348-1.191,1.462,1.462,0,0,0-1.137-.387A1.829,1.829,0,0,0-5.7-6.016V0H-7.6V-8.453ZM-1.2-11.828a2.1,2.1,0,0,1-.5,1.43,1.582,1.582,0,0,1-1.246.57,1.856,1.856,0,0,1-.527-.066,3.354,3.354,0,0,1-.633-.3,3.128,3.128,0,0,0-.578-.281,1.378,1.378,0,0,0-.371-.047.662.662,0,0,0-.5.223.821.821,0,0,0-.207.582L-6.93-9.781a2.16,2.16,0,0,1,.5-1.445A1.557,1.557,0,0,1-5.2-11.812a2.305,2.305,0,0,1,1.074.352,2.271,2.271,0,0,0,1.035.352.674.674,0,0,0,.508-.223.822.822,0,0,0,.211-.59ZM.969-4.3a4.984,4.984,0,0,1,.492-2.238A3.6,3.6,0,0,1,2.844-8.074a3.9,3.9,0,0,1,2.047-.535,3.692,3.692,0,0,1,2.777,1.1A4.333,4.333,0,0,1,8.82-4.586l.008.445a5.029,5.029,0,0,1-.48,2.234A3.551,3.551,0,0,1,6.973-.383,3.925,3.925,0,0,1,4.906.156,3.667,3.667,0,0,1,2.043-1.035,4.563,4.563,0,0,1,.969-4.211Zm1.9.164A3.406,3.406,0,0,0,3.406-2.1a1.752,1.752,0,0,0,1.5.738,1.733,1.733,0,0,0,1.5-.75,3.762,3.762,0,0,0,.535-2.2,3.362,3.362,0,0,0-.551-2.031,1.759,1.759,0,0,0-1.5-.75,1.743,1.743,0,0,0-1.477.738A3.691,3.691,0,0,0,2.867-4.141Zm19-6.18L17.32,0H15.328l4.539-9.852H13.984v-1.523h7.883ZM27.3-9.187a2.283,2.283,0,0,1,.664-1.691,2.363,2.363,0,0,1,1.742-.66,2.371,2.371,0,0,1,1.754.66,2.34,2.34,0,0,1,.66,1.73v.563a2.267,2.267,0,0,1-.66,1.68,2.358,2.358,0,0,1-1.738.656,2.433,2.433,0,0,1-1.738-.645A2.275,2.275,0,0,1,27.3-8.633Zm1.328.6a1.248,1.248,0,0,0,.3.871,1.019,1.019,0,0,0,.793.332,1,1,0,0,0,.781-.332,1.3,1.3,0,0,0,.3-.9v-.57a1.262,1.262,0,0,0-.3-.875A1.013,1.013,0,0,0,29.7-10.4a.984.984,0,0,0-.785.34,1.322,1.322,0,0,0-.293.895Zm4.141,5.8a2.236,2.236,0,0,1,.68-1.7,2.411,2.411,0,0,1,1.734-.648,2.407,2.407,0,0,1,1.738.648,2.312,2.312,0,0,1,.676,1.75v.555A2.285,2.285,0,0,1,36.941-.5,2.344,2.344,0,0,1,35.2.156,2.413,2.413,0,0,1,33.434-.5a2.3,2.3,0,0,1-.668-1.723Zm1.328.609a1.246,1.246,0,0,0,.309.871,1.023,1.023,0,0,0,.793.34.991.991,0,0,0,.785-.324,1.333,1.333,0,0,0,.285-.91v-.586a1.235,1.235,0,0,0-.3-.875,1.019,1.019,0,0,0-.781-.328,1.015,1.015,0,0,0-.785.328,1.291,1.291,0,0,0-.3.906ZM30.109-.852l-.977-.562L34.688-10.3l.977.563Z" transform="translate(962 1492)" fill="#12263f"/><path d="M-43.969-2.93A1.374,1.374,0,0,0-44.5-4.086a6.345,6.345,0,0,0-1.9-.82,9.186,9.186,0,0,1-2.187-.922,2.919,2.919,0,0,1-1.555-2.547,2.772,2.772,0,0,1,1.121-2.266,4.538,4.538,0,0,1,2.91-.891,4.916,4.916,0,0,1,2.117.438,3.475,3.475,0,0,1,1.461,1.246A3.2,3.2,0,0,1-42-8.055h-1.969a1.782,1.782,0,0,0-.559-1.395,2.305,2.305,0,0,0-1.6-.5,2.408,2.408,0,0,0-1.5.414,1.379,1.379,0,0,0-.535,1.156,1.247,1.247,0,0,0,.578,1.043,6.66,6.66,0,0,0,1.906.813,8.768,8.768,0,0,1,2.133.9,3.392,3.392,0,0,1,1.18,1.156,3.011,3.011,0,0,1,.375,1.527,2.707,2.707,0,0,1-1.09,2.262,4.727,4.727,0,0,1-2.957.84A5.557,5.557,0,0,1-48.309-.3a3.812,3.812,0,0,1-1.609-1.262,3.144,3.144,0,0,1-.574-1.875h1.977a1.84,1.84,0,0,0,.641,1.5,2.805,2.805,0,0,0,1.836.531,2.437,2.437,0,0,0,1.551-.418A1.349,1.349,0,0,0-43.969-2.93ZM-35.391,0a2.93,2.93,0,0,1-.219-.789,2.955,2.955,0,0,1-2.219.945A2.982,2.982,0,0,1-39.906-.57a2.325,2.325,0,0,1-.8-1.8,2.4,2.4,0,0,1,1-2.074,4.865,4.865,0,0,1,2.871-.723h1.164v-.555a1.481,1.481,0,0,0-.367-1.051,1.456,1.456,0,0,0-1.117-.395,1.672,1.672,0,0,0-1.062.324,1,1,0,0,0-.414.824h-1.9a2.107,2.107,0,0,1,.461-1.3,3.071,3.071,0,0,1,1.254-.949,4.4,4.4,0,0,1,1.77-.344,3.547,3.547,0,0,1,2.367.746,2.661,2.661,0,0,1,.906,2.1v3.813a4.321,4.321,0,0,0,.32,1.82V0Zm-2.086-1.367a2.16,2.16,0,0,0,1.059-.273,1.827,1.827,0,0,0,.746-.734V-3.969H-36.7a2.8,2.8,0,0,0-1.586.367,1.189,1.189,0,0,0-.531,1.039,1.109,1.109,0,0,0,.363.871A1.407,1.407,0,0,0-37.477-1.367Zm7.453-7.086.055.977a3.039,3.039,0,0,1,2.461-1.133q2.641,0,2.688,3.023V0h-1.9V-5.477a1.741,1.741,0,0,0-.348-1.191A1.462,1.462,0,0,0-28.2-7.055a1.829,1.829,0,0,0-1.711,1.039V0h-1.9V-8.453Zm9.516-2.055v2.055h1.492v1.406h-1.492v4.719a1.039,1.039,0,0,0,.191.7.888.888,0,0,0,.684.215,2.924,2.924,0,0,0,.664-.078V-.023a4.676,4.676,0,0,1-1.25.18q-2.188,0-2.187-2.414V-7.047H-23.8V-8.453h1.391v-2.055ZM-12.516,0a2.93,2.93,0,0,1-.219-.789,2.955,2.955,0,0,1-2.219.945A2.982,2.982,0,0,1-17.031-.57a2.325,2.325,0,0,1-.8-1.8,2.4,2.4,0,0,1,1-2.074,4.865,4.865,0,0,1,2.871-.723H-12.8v-.555a1.481,1.481,0,0,0-.367-1.051,1.456,1.456,0,0,0-1.117-.395,1.672,1.672,0,0,0-1.062.324,1,1,0,0,0-.414.824h-1.9a2.107,2.107,0,0,1,.461-1.3,3.071,3.071,0,0,1,1.254-.949,4.4,4.4,0,0,1,1.77-.344,3.547,3.547,0,0,1,2.367.746,2.661,2.661,0,0,1,.906,2.1v3.813a4.321,4.321,0,0,0,.32,1.82V0ZM-14.6-1.367a2.159,2.159,0,0,0,1.059-.273,1.827,1.827,0,0,0,.746-.734V-3.969H-13.82a2.8,2.8,0,0,0-1.586.367,1.189,1.189,0,0,0-.531,1.039,1.109,1.109,0,0,0,.363.871A1.407,1.407,0,0,0-14.6-1.367Zm7.453-7.086.055.977A3.039,3.039,0,0,1-4.633-8.609q2.641,0,2.688,3.023V0h-1.9V-5.477a1.741,1.741,0,0,0-.348-1.191,1.462,1.462,0,0,0-1.137-.387A1.829,1.829,0,0,0-7.039-6.016V0h-1.9V-8.453ZM-.367-4.289A5.026,5.026,0,0,1,.539-7.426a2.9,2.9,0,0,1,2.43-1.184,2.759,2.759,0,0,1,2.172.938V-12h1.9V0H5.32L5.227-.875A2.8,2.8,0,0,1,2.953.156a2.887,2.887,0,0,1-2.4-1.2A5.21,5.21,0,0,1-.367-4.289Zm1.9.164a3.519,3.519,0,0,0,.5,2.012,1.61,1.61,0,0,0,1.41.723,1.793,1.793,0,0,0,1.7-1.039V-6.039A1.766,1.766,0,0,0,3.453-7.055a1.622,1.622,0,0,0-1.422.73A3.918,3.918,0,0,0,1.531-4.125ZM12.742.156A3.928,3.928,0,0,1,9.816-.98,4.124,4.124,0,0,1,8.7-4.008v-.234A5.072,5.072,0,0,1,9.184-6.5a3.716,3.716,0,0,1,1.371-1.551,3.625,3.625,0,0,1,1.969-.555,3.318,3.318,0,0,1,2.668,1.1,4.658,4.658,0,0,1,.941,3.117v.766H10.609a2.539,2.539,0,0,0,.7,1.656,2.1,2.1,0,0,0,1.543.609,2.571,2.571,0,0,0,2.125-1.055L16-1.437A3.418,3.418,0,0,1,14.645-.262,4.244,4.244,0,0,1,12.742.156Zm-.227-7.242a1.6,1.6,0,0,0-1.262.547,2.835,2.835,0,0,0-.613,1.523h3.617v-.141A2.307,2.307,0,0,0,13.75-6.6,1.586,1.586,0,0,0,12.516-7.086Zm9.516.367a4.7,4.7,0,0,0-.773-.062,1.741,1.741,0,0,0-1.758,1V0H17.6V-8.453h1.813l.047.945a2.139,2.139,0,0,1,1.906-1.1,1.777,1.777,0,0,1,.672.109Zm12.633-3.6L30.117,0H28.125l4.539-9.852H26.781v-1.523h7.883Zm5.43,1.133a2.283,2.283,0,0,1,.664-1.691,2.363,2.363,0,0,1,1.742-.66,2.371,2.371,0,0,1,1.754.66,2.34,2.34,0,0,1,.66,1.73v.563a2.267,2.267,0,0,1-.66,1.68,2.358,2.358,0,0,1-1.738.656,2.433,2.433,0,0,1-1.738-.645,2.275,2.275,0,0,1-.684-1.738Zm1.328.6a1.248,1.248,0,0,0,.3.871,1.019,1.019,0,0,0,.793.332,1,1,0,0,0,.781-.332,1.3,1.3,0,0,0,.3-.9v-.57a1.262,1.262,0,0,0-.3-.875A1.013,1.013,0,0,0,42.5-10.4a.984.984,0,0,0-.785.34,1.322,1.322,0,0,0-.293.895Zm4.141,5.8a2.236,2.236,0,0,1,.68-1.7,2.411,2.411,0,0,1,1.734-.648,2.407,2.407,0,0,1,1.738.648,2.312,2.312,0,0,1,.676,1.75v.555A2.285,2.285,0,0,1,49.738-.5a2.344,2.344,0,0,1-1.746.66A2.413,2.413,0,0,1,46.23-.5a2.3,2.3,0,0,1-.668-1.723Zm1.328.609a1.246,1.246,0,0,0,.309.871,1.023,1.023,0,0,0,.793.34.991.991,0,0,0,.785-.324,1.333,1.333,0,0,0,.285-.91v-.586a1.235,1.235,0,0,0-.3-.875,1.019,1.019,0,0,0-.781-.328,1.015,1.015,0,0,0-.785.328,1.291,1.291,0,0,0-.3.906ZM42.906-.852l-.977-.562L47.484-10.3l.977.563Z" transform="translate(851 1529)" fill="#12263f"/><path d="M-34.988-3.7a4.107,4.107,0,0,1-1.344,2.84A4.581,4.581,0,0,1-39.449.156a4.436,4.436,0,0,1-2.395-.645,4.231,4.231,0,0,1-1.6-1.832,6.611,6.611,0,0,1-.586-2.758V-6.141a6.659,6.659,0,0,1,.57-2.836,4.3,4.3,0,0,1,1.637-1.891,4.566,4.566,0,0,1,2.465-.664,4.386,4.386,0,0,1,3.031,1.023,4.276,4.276,0,0,1,1.336,2.891h-1.969a2.81,2.81,0,0,0-.715-1.77,2.363,2.363,0,0,0-1.684-.543,2.309,2.309,0,0,0-1.98.941,4.7,4.7,0,0,0-.707,2.762v1.008a4.988,4.988,0,0,0,.66,2.813,2.191,2.191,0,0,0,1.934.969,2.555,2.555,0,0,0,1.75-.523A2.729,2.729,0,0,0-36.957-3.7Zm1.227-.6a4.984,4.984,0,0,1,.492-2.238,3.6,3.6,0,0,1,1.383-1.531,3.9,3.9,0,0,1,2.047-.535,3.692,3.692,0,0,1,2.777,1.1A4.333,4.333,0,0,1-25.91-4.586l.008.445a5.029,5.029,0,0,1-.48,2.234A3.551,3.551,0,0,1-27.758-.383a3.925,3.925,0,0,1-2.066.539,3.667,3.667,0,0,1-2.863-1.191,4.563,4.563,0,0,1-1.074-3.176Zm1.9.164A3.406,3.406,0,0,0-31.324-2.1a1.752,1.752,0,0,0,1.5.738,1.733,1.733,0,0,0,1.5-.75,3.762,3.762,0,0,0,.535-2.2,3.362,3.362,0,0,0-.551-2.031,1.759,1.759,0,0,0-1.5-.75,1.743,1.743,0,0,0-1.477.738A3.691,3.691,0,0,0-31.863-4.141ZM-29.316-12h2.164l-2.164,2.367H-30.84Zm9.445,5.281a4.7,4.7,0,0,0-.773-.062,1.741,1.741,0,0,0-1.758,1V0h-1.9V-8.453h1.813l.047.945a2.139,2.139,0,0,1,1.906-1.1,1.777,1.777,0,0,1,.672.109Zm.7,2.43a5.026,5.026,0,0,1,.906-3.137,2.9,2.9,0,0,1,2.43-1.184,2.759,2.759,0,0,1,2.172.938V-12h1.9V0h-1.719l-.094-.875A2.8,2.8,0,0,1-15.855.156a2.887,2.887,0,0,1-2.4-1.2A5.21,5.21,0,0,1-19.176-4.289Zm1.9.164a3.519,3.519,0,0,0,.5,2.012,1.61,1.61,0,0,0,1.41.723,1.793,1.793,0,0,0,1.7-1.039V-6.039a1.766,1.766,0,0,0-1.687-1.016,1.622,1.622,0,0,0-1.422.73A3.918,3.918,0,0,0-17.277-4.125Zm7.133-.18a4.984,4.984,0,0,1,.492-2.238A3.6,3.6,0,0,1-8.27-8.074a3.9,3.9,0,0,1,2.047-.535,3.692,3.692,0,0,1,2.777,1.1A4.333,4.333,0,0,1-2.293-4.586l.008.445a5.029,5.029,0,0,1-.48,2.234A3.551,3.551,0,0,1-4.141-.383,3.925,3.925,0,0,1-6.207.156,3.667,3.667,0,0,1-9.07-1.035a4.563,4.563,0,0,1-1.074-3.176Zm1.9.164A3.406,3.406,0,0,0-7.707-2.1a1.752,1.752,0,0,0,1.5.738,1.733,1.733,0,0,0,1.5-.75,3.762,3.762,0,0,0,.535-2.2,3.362,3.362,0,0,0-.551-2.031,1.759,1.759,0,0,0-1.5-.75A1.743,1.743,0,0,0-7.7-6.348,3.691,3.691,0,0,0-8.246-4.141Zm14.984,0a5.078,5.078,0,0,1-.879,3.133A2.863,2.863,0,0,1,3.441.156,2.758,2.758,0,0,1,1.129-.914L1.035,0H-.684V-12h1.9v4.359a2.748,2.748,0,0,1,2.211-.969,2.9,2.9,0,0,1,2.43,1.148A5.162,5.162,0,0,1,6.738-4.25ZM4.84-4.3a3.589,3.589,0,0,0-.484-2.062,1.613,1.613,0,0,0-1.406-.687A1.763,1.763,0,0,0,1.215-5.977v3.484a1.781,1.781,0,0,0,1.75,1.1A1.6,1.6,0,0,0,4.34-2.055a3.477,3.477,0,0,0,.5-2.008ZM13.379,0a2.93,2.93,0,0,1-.219-.789,2.955,2.955,0,0,1-2.219.945A2.982,2.982,0,0,1,8.863-.57a2.325,2.325,0,0,1-.8-1.8,2.4,2.4,0,0,1,1-2.074,4.865,4.865,0,0,1,2.871-.723H13.1v-.555A1.481,1.481,0,0,0,12.73-6.77a1.456,1.456,0,0,0-1.117-.395,1.672,1.672,0,0,0-1.062.324,1,1,0,0,0-.414.824h-1.9a2.107,2.107,0,0,1,.461-1.3,3.071,3.071,0,0,1,1.254-.949,4.4,4.4,0,0,1,1.77-.344,3.547,3.547,0,0,1,2.367.746A2.661,2.661,0,0,1,15-5.766v3.813a4.321,4.321,0,0,0,.32,1.82V0ZM11.293-1.367a2.159,2.159,0,0,0,1.059-.273,1.827,1.827,0,0,0,.746-.734V-3.969H12.074a2.8,2.8,0,0,0-1.586.367,1.189,1.189,0,0,0-.531,1.039,1.109,1.109,0,0,0,.363.871A1.407,1.407,0,0,0,11.293-1.367ZM21.355-5.641l.617-5.734h6.109v1.641H23.551l-.312,2.719a3.512,3.512,0,0,1,1.781-.453A3.169,3.169,0,0,1,27.547-6.43a4.118,4.118,0,0,1,.9,2.8,3.79,3.79,0,0,1-1,2.762A3.65,3.65,0,0,1,24.707.156a3.822,3.822,0,0,1-2.59-.887A3.206,3.206,0,0,1,21-3.07H22.84a2,2,0,0,0,.594,1.27,1.806,1.806,0,0,0,1.266.441,1.632,1.632,0,0,0,1.363-.625,2.7,2.7,0,0,0,.488-1.7,2.384,2.384,0,0,0-.539-1.645,1.885,1.885,0,0,0-1.484-.605,2.469,2.469,0,0,0-.875.137,2.478,2.478,0,0,0-.781.535ZM33.848-9.187a2.283,2.283,0,0,1,.664-1.691,2.363,2.363,0,0,1,1.742-.66,2.371,2.371,0,0,1,1.754.66,2.34,2.34,0,0,1,.66,1.73v.563a2.267,2.267,0,0,1-.66,1.68,2.358,2.358,0,0,1-1.738.656,2.433,2.433,0,0,1-1.738-.645,2.275,2.275,0,0,1-.684-1.738Zm1.328.6a1.248,1.248,0,0,0,.3.871,1.019,1.019,0,0,0,.793.332,1,1,0,0,0,.781-.332,1.3,1.3,0,0,0,.3-.9v-.57a1.262,1.262,0,0,0-.3-.875,1.013,1.013,0,0,0-.793-.336.984.984,0,0,0-.785.34,1.322,1.322,0,0,0-.293.895Zm4.141,5.8a2.236,2.236,0,0,1,.68-1.7,2.411,2.411,0,0,1,1.734-.648,2.407,2.407,0,0,1,1.738.648,2.312,2.312,0,0,1,.676,1.75v.555A2.285,2.285,0,0,1,43.492-.5a2.344,2.344,0,0,1-1.746.66A2.413,2.413,0,0,1,39.984-.5a2.3,2.3,0,0,1-.668-1.723Zm1.328.609a1.246,1.246,0,0,0,.309.871,1.023,1.023,0,0,0,.793.34.991.991,0,0,0,.785-.324,1.333,1.333,0,0,0,.285-.91v-.586a1.235,1.235,0,0,0-.3-.875,1.019,1.019,0,0,0-.781-.328,1.015,1.015,0,0,0-.785.328,1.291,1.291,0,0,0-.3.906ZM36.66-.852l-.977-.562L41.238-10.3l.977.563Z" transform="translate(702 1527)" fill="#12263f"/><path d="M-29-9.781h-3.547V0h-1.961V-9.781h-3.516v-1.594H-29ZM-29.676-4.3a4.984,4.984,0,0,1,.492-2.238A3.6,3.6,0,0,1-27.8-8.074a3.9,3.9,0,0,1,2.047-.535,3.692,3.692,0,0,1,2.777,1.1,4.333,4.333,0,0,1,1.152,2.922l.008.445a5.029,5.029,0,0,1-.48,2.234A3.551,3.551,0,0,1-23.672-.383a3.925,3.925,0,0,1-2.066.539A3.667,3.667,0,0,1-28.6-1.035a4.563,4.563,0,0,1-1.074-3.176Zm1.9.164A3.406,3.406,0,0,0-27.238-2.1a1.752,1.752,0,0,0,1.5.738,1.733,1.733,0,0,0,1.5-.75,3.762,3.762,0,0,0,.535-2.2,3.362,3.362,0,0,0-.551-2.031,1.759,1.759,0,0,0-1.5-.75,1.743,1.743,0,0,0-1.477.738A3.691,3.691,0,0,0-27.777-4.141ZM-18.191,0h-1.9V-12h1.9Zm4.086,0H-16V-8.453h1.9Zm-2.016-10.648a1.008,1.008,0,0,1,.277-.727,1.048,1.048,0,0,1,.793-.289,1.061,1.061,0,0,1,.8.289,1,1,0,0,1,.281.727.977.977,0,0,1-.281.715,1.069,1.069,0,0,1-.8.285,1.056,1.056,0,0,1-.793-.285A.984.984,0,0,1-16.121-10.648Zm5.867,2.2.055.883A3.042,3.042,0,0,1-7.762-8.609a2.337,2.337,0,0,1,2.32,1.3,3,3,0,0,1,2.594-1.3,2.636,2.636,0,0,1,2.082.773,3.405,3.405,0,0,1,.7,2.281V0h-1.9V-5.5a1.681,1.681,0,0,0-.352-1.18A1.539,1.539,0,0,0-3.48-7.055a1.581,1.581,0,0,0-1.059.348,1.833,1.833,0,0,0-.574.91L-5.105,0H-7V-5.562A1.354,1.354,0,0,0-8.527-7.055a1.671,1.671,0,0,0-1.617.93V0h-1.9V-8.453ZM6.934,0a2.93,2.93,0,0,1-.219-.789A2.955,2.955,0,0,1,4.5.156,2.982,2.982,0,0,1,2.418-.57a2.325,2.325,0,0,1-.8-1.8,2.4,2.4,0,0,1,1-2.074,4.865,4.865,0,0,1,2.871-.723H6.652v-.555A1.481,1.481,0,0,0,6.285-6.77a1.456,1.456,0,0,0-1.117-.395,1.672,1.672,0,0,0-1.062.324,1,1,0,0,0-.414.824h-1.9a2.107,2.107,0,0,1,.461-1.3,3.071,3.071,0,0,1,1.254-.949,4.4,4.4,0,0,1,1.77-.344,3.547,3.547,0,0,1,2.367.746,2.661,2.661,0,0,1,.906,2.1v3.813a4.321,4.321,0,0,0,.32,1.82V0ZM4.848-1.367a2.159,2.159,0,0,0,1.059-.273,1.827,1.827,0,0,0,.746-.734V-3.969H5.629A2.8,2.8,0,0,0,4.043-3.6a1.189,1.189,0,0,0-.531,1.039,1.109,1.109,0,0,0,.363.871A1.407,1.407,0,0,0,4.848-1.367ZM20.824-4.055h1.414v1.523H20.824V0h-1.9V-2.531H14.012l-.055-1.156,4.906-7.687h1.961Zm-4.875,0h2.977V-8.8l-.141.25ZM27.4-9.187a2.283,2.283,0,0,1,.664-1.691,2.363,2.363,0,0,1,1.742-.66,2.371,2.371,0,0,1,1.754.66,2.34,2.34,0,0,1,.66,1.73v.563a2.267,2.267,0,0,1-.66,1.68,2.358,2.358,0,0,1-1.738.656,2.433,2.433,0,0,1-1.738-.645A2.275,2.275,0,0,1,27.4-8.633Zm1.328.6a1.248,1.248,0,0,0,.3.871,1.019,1.019,0,0,0,.793.332,1,1,0,0,0,.781-.332,1.3,1.3,0,0,0,.3-.9v-.57a1.262,1.262,0,0,0-.3-.875,1.013,1.013,0,0,0-.793-.336.984.984,0,0,0-.785.34,1.322,1.322,0,0,0-.293.895Zm4.141,5.8a2.236,2.236,0,0,1,.68-1.7,2.411,2.411,0,0,1,1.734-.648,2.407,2.407,0,0,1,1.738.648,2.312,2.312,0,0,1,.676,1.75v.555A2.285,2.285,0,0,1,37.047-.5,2.344,2.344,0,0,1,35.3.156,2.413,2.413,0,0,1,33.539-.5a2.3,2.3,0,0,1-.668-1.723ZM34.2-2.18a1.246,1.246,0,0,0,.309.871,1.023,1.023,0,0,0,.793.34.991.991,0,0,0,.785-.324,1.333,1.333,0,0,0,.285-.91v-.586a1.235,1.235,0,0,0-.3-.875,1.019,1.019,0,0,0-.781-.328,1.015,1.015,0,0,0-.785.328,1.291,1.291,0,0,0-.3.906ZM30.215-.852l-.977-.562L34.793-10.3l.977.563Z" transform="translate(643 1497)" fill="#12263f"/><path d="M-27.082-3.7a4.107,4.107,0,0,1-1.344,2.84A4.581,4.581,0,0,1-31.543.156a4.436,4.436,0,0,1-2.395-.645,4.231,4.231,0,0,1-1.6-1.832,6.611,6.611,0,0,1-.586-2.758V-6.141a6.659,6.659,0,0,1,.57-2.836,4.3,4.3,0,0,1,1.637-1.891,4.566,4.566,0,0,1,2.465-.664,4.386,4.386,0,0,1,3.031,1.023,4.276,4.276,0,0,1,1.336,2.891h-1.969a2.81,2.81,0,0,0-.715-1.77,2.363,2.363,0,0,0-1.684-.543,2.309,2.309,0,0,0-1.98.941,4.7,4.7,0,0,0-.707,2.762v1.008a4.988,4.988,0,0,0,.66,2.813,2.191,2.191,0,0,0,1.934.969,2.555,2.555,0,0,0,1.75-.523A2.729,2.729,0,0,0-29.051-3.7ZM-20.449,0a2.93,2.93,0,0,1-.219-.789,2.955,2.955,0,0,1-2.219.945A2.982,2.982,0,0,1-24.965-.57a2.325,2.325,0,0,1-.8-1.8,2.4,2.4,0,0,1,1-2.074,4.865,4.865,0,0,1,2.871-.723h1.164v-.555A1.481,1.481,0,0,0-21.1-6.77a1.456,1.456,0,0,0-1.117-.395,1.672,1.672,0,0,0-1.062.324,1,1,0,0,0-.414.824h-1.9a2.107,2.107,0,0,1,.461-1.3,3.071,3.071,0,0,1,1.254-.949,4.4,4.4,0,0,1,1.77-.344,3.547,3.547,0,0,1,2.367.746,2.661,2.661,0,0,1,.906,2.1v3.813a4.321,4.321,0,0,0,.32,1.82V0Zm-2.086-1.367a2.159,2.159,0,0,0,1.059-.273,1.827,1.827,0,0,0,.746-.734V-3.969h-1.023A2.8,2.8,0,0,0-23.34-3.6a1.189,1.189,0,0,0-.531,1.039,1.109,1.109,0,0,0,.363.871A1.407,1.407,0,0,0-22.535-1.367Zm10.813.539A2.944,2.944,0,0,1-14.1.156a2.624,2.624,0,0,1-2.082-.8,3.423,3.423,0,0,1-.707-2.328V-8.453h1.9V-3q0,1.609,1.336,1.609a1.876,1.876,0,0,0,1.867-.992v-6.07h1.9V0h-1.789Zm7.242-.531A1.716,1.716,0,0,0-3.3-1.773,1.415,1.415,0,0,0-2.8-2.8h1.789A2.789,2.789,0,0,1-1.5-1.324,3.228,3.228,0,0,1-2.754-.242a3.725,3.725,0,0,1-1.7.4A3.6,3.6,0,0,1-7.27-.992,4.555,4.555,0,0,1-8.309-4.164v-.2a4.479,4.479,0,0,1,1.031-3.09,3.571,3.571,0,0,1,2.813-1.16,3.473,3.473,0,0,1,2.457.879,3.148,3.148,0,0,1,1,2.309H-2.8a1.738,1.738,0,0,0-.5-1.2A1.6,1.6,0,0,0-4.48-7.086,1.671,1.671,0,0,0-5.9-6.418,3.408,3.408,0,0,0-6.41-4.391v.3a3.465,3.465,0,0,0,.5,2.051A1.669,1.669,0,0,0-4.48-1.359ZM5.473,0a2.93,2.93,0,0,1-.219-.789A2.955,2.955,0,0,1,3.035.156,2.982,2.982,0,0,1,.957-.57a2.325,2.325,0,0,1-.8-1.8,2.4,2.4,0,0,1,1-2.074,4.865,4.865,0,0,1,2.871-.723H5.191v-.555A1.481,1.481,0,0,0,4.824-6.77a1.456,1.456,0,0,0-1.117-.395,1.672,1.672,0,0,0-1.062.324,1,1,0,0,0-.414.824H.332a2.107,2.107,0,0,1,.461-1.3,3.071,3.071,0,0,1,1.254-.949,4.4,4.4,0,0,1,1.77-.344,3.547,3.547,0,0,1,2.367.746,2.661,2.661,0,0,1,.906,2.1v3.813a4.321,4.321,0,0,0,.32,1.82V0ZM3.387-1.367a2.159,2.159,0,0,0,1.059-.273,1.827,1.827,0,0,0,.746-.734V-3.969H4.168A2.8,2.8,0,0,0,2.582-3.6a1.189,1.189,0,0,0-.531,1.039,1.109,1.109,0,0,0,.363.871A1.407,1.407,0,0,0,3.387-1.367ZM19.363-4.055h1.414v1.523H19.363V0h-1.9V-2.531H12.551L12.5-3.687,17.4-11.375h1.961Zm-4.875,0h2.977V-8.8l-.141.25ZM25.941-9.187a2.283,2.283,0,0,1,.664-1.691,2.363,2.363,0,0,1,1.742-.66,2.371,2.371,0,0,1,1.754.66,2.34,2.34,0,0,1,.66,1.73v.563a2.267,2.267,0,0,1-.66,1.68,2.358,2.358,0,0,1-1.738.656,2.433,2.433,0,0,1-1.738-.645,2.275,2.275,0,0,1-.684-1.738Zm1.328.6a1.248,1.248,0,0,0,.3.871,1.019,1.019,0,0,0,.793.332,1,1,0,0,0,.781-.332,1.3,1.3,0,0,0,.3-.9v-.57a1.262,1.262,0,0,0-.3-.875,1.013,1.013,0,0,0-.793-.336.984.984,0,0,0-.785.34,1.322,1.322,0,0,0-.293.895Zm4.141,5.8a2.236,2.236,0,0,1,.68-1.7,2.411,2.411,0,0,1,1.734-.648,2.407,2.407,0,0,1,1.738.648,2.312,2.312,0,0,1,.676,1.75v.555A2.285,2.285,0,0,1,35.586-.5a2.344,2.344,0,0,1-1.746.66A2.413,2.413,0,0,1,32.078-.5a2.3,2.3,0,0,1-.668-1.723Zm1.328.609a1.246,1.246,0,0,0,.309.871,1.023,1.023,0,0,0,.793.34.991.991,0,0,0,.785-.324,1.333,1.333,0,0,0,.285-.91v-.586a1.235,1.235,0,0,0-.3-.875,1.019,1.019,0,0,0-.781-.328,1.015,1.015,0,0,0-.785.328,1.291,1.291,0,0,0-.3.906ZM28.754-.852l-.977-.562L33.332-10.3l.977.563Z" transform="translate(609 1468)" fill="#12263f"/><path d="M-37.977,0V-11.375h3.9a4.76,4.76,0,0,1,2.938.773,2.724,2.724,0,0,1,1.008,2.3,2.456,2.456,0,0,1-.422,1.406,2.715,2.715,0,0,1-1.234.969,2.511,2.511,0,0,1,1.426.941,2.742,2.742,0,0,1,.5,1.66A3.028,3.028,0,0,1-30.887-.859,4.467,4.467,0,0,1-33.828,0ZM-36-5.133v3.555h2.2a2.124,2.124,0,0,0,1.453-.461,1.618,1.618,0,0,0,.523-1.281,1.623,1.623,0,0,0-1.812-1.812Zm0-1.453h1.938A2.241,2.241,0,0,0-32.621-7a1.432,1.432,0,0,0,.52-1.184,1.452,1.452,0,0,0-.48-1.219,2.426,2.426,0,0,0-1.5-.375H-36ZM-28.422-4.3a4.984,4.984,0,0,1,.492-2.238,3.6,3.6,0,0,1,1.383-1.531A3.9,3.9,0,0,1-24.5-8.609a3.692,3.692,0,0,1,2.777,1.1A4.333,4.333,0,0,1-20.57-4.586l.008.445a5.029,5.029,0,0,1-.48,2.234A3.551,3.551,0,0,1-22.418-.383a3.925,3.925,0,0,1-2.066.539,3.667,3.667,0,0,1-2.863-1.191,4.563,4.563,0,0,1-1.074-3.176Zm1.9.164A3.406,3.406,0,0,0-25.984-2.1a1.752,1.752,0,0,0,1.5.738,1.733,1.733,0,0,0,1.5-.75,3.762,3.762,0,0,0,.535-2.2A3.362,3.362,0,0,0-23-6.336a1.759,1.759,0,0,0-1.5-.75,1.743,1.743,0,0,0-1.477.738A3.691,3.691,0,0,0-26.523-4.141ZM-16.937,0h-1.9V-12h1.9Zm4.086,0h-1.9V-8.453h1.9Zm-2.016-10.648a1.008,1.008,0,0,1,.277-.727,1.048,1.048,0,0,1,.793-.289,1.061,1.061,0,0,1,.8.289,1,1,0,0,1,.281.727A.977.977,0,0,1-13-9.934a1.069,1.069,0,0,1-.8.285,1.056,1.056,0,0,1-.793-.285A.984.984,0,0,1-14.867-10.648ZM-7.8-2.406l1.789-6.047h1.961L-6.984,0H-8.633l-2.953-8.453h1.969ZM2.063,0a2.93,2.93,0,0,1-.219-.789A2.955,2.955,0,0,1-.375.156,2.982,2.982,0,0,1-2.453-.57a2.325,2.325,0,0,1-.8-1.8,2.4,2.4,0,0,1,1-2.074A4.865,4.865,0,0,1,.617-5.164H1.781v-.555A1.481,1.481,0,0,0,1.414-6.77,1.456,1.456,0,0,0,.3-7.164,1.672,1.672,0,0,0-.766-6.84a1,1,0,0,0-.414.824h-1.9a2.107,2.107,0,0,1,.461-1.3,3.071,3.071,0,0,1,1.254-.949,4.4,4.4,0,0,1,1.77-.344,3.547,3.547,0,0,1,2.367.746,2.661,2.661,0,0,1,.906,2.1v3.813A4.321,4.321,0,0,0,4-.133V0ZM-.023-1.367a2.159,2.159,0,0,0,1.059-.273,1.827,1.827,0,0,0,.746-.734V-3.969H.758A2.8,2.8,0,0,0-.828-3.6a1.189,1.189,0,0,0-.531,1.039A1.109,1.109,0,0,0-1-1.691,1.407,1.407,0,0,0-.023-1.367ZM10.094-6.719a4.7,4.7,0,0,0-.773-.062,1.741,1.741,0,0,0-1.758,1V0h-1.9V-8.453H7.477l.047.945a2.139,2.139,0,0,1,1.906-1.1A1.777,1.777,0,0,1,10.1-8.5Zm7.258.164h1.156a2.069,2.069,0,0,0,1.387-.453A1.617,1.617,0,0,0,20.406-8.3a1.762,1.762,0,0,0-.426-1.262,1.714,1.714,0,0,0-1.3-.449,1.813,1.813,0,0,0-1.258.441,1.475,1.475,0,0,0-.492,1.152h-1.9a2.874,2.874,0,0,1,.465-1.594,3.123,3.123,0,0,1,1.3-1.121,4.225,4.225,0,0,1,1.863-.4,3.912,3.912,0,0,1,2.676.855A3,3,0,0,1,22.3-8.3a2.417,2.417,0,0,1-.488,1.441,3.062,3.062,0,0,1-1.262,1.02A2.791,2.791,0,0,1,21.98-4.828a2.759,2.759,0,0,1,.488,1.641A3.055,3.055,0,0,1,21.418-.75a4.08,4.08,0,0,1-2.762.906,4.049,4.049,0,0,1-2.687-.875,2.882,2.882,0,0,1-1.047-2.328h1.9a1.588,1.588,0,0,0,.5,1.219,1.911,1.911,0,0,0,1.355.469,1.971,1.971,0,0,0,1.391-.469,1.758,1.758,0,0,0,.508-1.359,1.776,1.776,0,0,0-.531-1.383,2.271,2.271,0,0,0-1.578-.484H17.352Zm10.8-2.633a2.283,2.283,0,0,1,.664-1.691,2.363,2.363,0,0,1,1.742-.66,2.371,2.371,0,0,1,1.754.66,2.34,2.34,0,0,1,.66,1.73v.563a2.267,2.267,0,0,1-.66,1.68,2.358,2.358,0,0,1-1.738.656,2.433,2.433,0,0,1-1.738-.645,2.275,2.275,0,0,1-.684-1.738Zm1.328.6a1.248,1.248,0,0,0,.3.871,1.019,1.019,0,0,0,.793.332,1,1,0,0,0,.781-.332,1.3,1.3,0,0,0,.3-.9v-.57a1.262,1.262,0,0,0-.3-.875,1.013,1.013,0,0,0-.793-.336.984.984,0,0,0-.785.34,1.322,1.322,0,0,0-.293.895Zm4.141,5.8a2.236,2.236,0,0,1,.68-1.7,2.411,2.411,0,0,1,1.734-.648,2.407,2.407,0,0,1,1.738.648,2.312,2.312,0,0,1,.676,1.75v.555A2.285,2.285,0,0,1,37.8-.5a2.344,2.344,0,0,1-1.746.66A2.413,2.413,0,0,1,34.293-.5a2.3,2.3,0,0,1-.668-1.723Zm1.328.609a1.246,1.246,0,0,0,.309.871,1.023,1.023,0,0,0,.793.34.991.991,0,0,0,.785-.324,1.333,1.333,0,0,0,.285-.91v-.586a1.235,1.235,0,0,0-.3-.875,1.019,1.019,0,0,0-.781-.328,1.015,1.015,0,0,0-.785.328,1.291,1.291,0,0,0-.3.906ZM30.969-.852l-.977-.562L35.547-10.3l.977.563Z" transform="translate(570 1438)" fill="#12263f"/><path d="M-73.879,0h-1.977l-5.07-8.07V0H-82.9V-11.375h1.977l5.086,8.1v-8.1h1.961Zm1.8-4.3a4.984,4.984,0,0,1,.492-2.238,3.6,3.6,0,0,1,1.383-1.531,3.9,3.9,0,0,1,2.047-.535,3.692,3.692,0,0,1,2.777,1.1A4.333,4.333,0,0,1-64.23-4.586l.008.445a5.029,5.029,0,0,1-.48,2.234A3.551,3.551,0,0,1-66.078-.383a3.925,3.925,0,0,1-2.066.539,3.667,3.667,0,0,1-2.863-1.191,4.563,4.563,0,0,1-1.074-3.176Zm1.9.164A3.406,3.406,0,0,0-69.645-2.1a1.752,1.752,0,0,0,1.5.738,1.733,1.733,0,0,0,1.5-.75,3.762,3.762,0,0,0,.535-2.2,3.362,3.362,0,0,0-.551-2.031,1.759,1.759,0,0,0-1.5-.75,1.743,1.743,0,0,0-1.477.738A3.691,3.691,0,0,0-70.184-4.141Zm11.992-2.578a4.7,4.7,0,0,0-.773-.062,1.741,1.741,0,0,0-1.758,1V0h-1.9V-8.453h1.813l.047.945a2.139,2.139,0,0,1,1.906-1.1,1.777,1.777,0,0,1,.672.109Zm3.969-3.789v2.055h1.492v1.406h-1.492v4.719a1.039,1.039,0,0,0,.191.7.888.888,0,0,0,.684.215,2.924,2.924,0,0,0,.664-.078V-.023a4.676,4.676,0,0,1-1.25.18q-2.187,0-2.187-2.414V-7.047h-1.391V-8.453h1.391v-2.055ZM-47.559.156A3.928,3.928,0,0,1-50.484-.98a4.124,4.124,0,0,1-1.121-3.027v-.234A5.072,5.072,0,0,1-51.117-6.5a3.716,3.716,0,0,1,1.371-1.551,3.625,3.625,0,0,1,1.969-.555,3.318,3.318,0,0,1,2.668,1.1,4.658,4.658,0,0,1,.941,3.117v.766h-5.523a2.539,2.539,0,0,0,.7,1.656,2.1,2.1,0,0,0,1.543.609,2.571,2.571,0,0,0,2.125-1.055l1.023.977A3.418,3.418,0,0,1-45.656-.262,4.244,4.244,0,0,1-47.559.156Zm-.227-7.242a1.6,1.6,0,0,0-1.262.547,2.835,2.835,0,0,0-.613,1.523h3.617v-.141A2.307,2.307,0,0,0-46.551-6.6,1.586,1.586,0,0,0-47.785-7.086Zm8.719,2.8a5.026,5.026,0,0,1,.906-3.137,2.9,2.9,0,0,1,2.43-1.184,2.759,2.759,0,0,1,2.172.938V-12h1.9V0h-1.719l-.094-.875A2.8,2.8,0,0,1-35.746.156a2.887,2.887,0,0,1-2.4-1.2A5.21,5.21,0,0,1-39.066-4.289Zm1.9.164a3.519,3.519,0,0,0,.5,2.012,1.61,1.61,0,0,0,1.41.723,1.793,1.793,0,0,0,1.7-1.039V-6.039a1.766,1.766,0,0,0-1.687-1.016,1.622,1.622,0,0,0-1.422.73A3.919,3.919,0,0,0-37.168-4.125ZM-25.957.156A3.928,3.928,0,0,1-28.883-.98,4.124,4.124,0,0,1-30-4.008v-.234A5.072,5.072,0,0,1-29.516-6.5a3.716,3.716,0,0,1,1.371-1.551,3.625,3.625,0,0,1,1.969-.555,3.318,3.318,0,0,1,2.668,1.1,4.658,4.658,0,0,1,.941,3.117v.766H-28.09a2.539,2.539,0,0,0,.7,1.656,2.1,2.1,0,0,0,1.543.609,2.571,2.571,0,0,0,2.125-1.055l1.023.977A3.418,3.418,0,0,1-24.055-.262,4.244,4.244,0,0,1-25.957.156Zm-.227-7.242a1.6,1.6,0,0,0-1.262.547,2.835,2.835,0,0,0-.613,1.523h3.617v-.141A2.307,2.307,0,0,0-24.949-6.6,1.586,1.586,0,0,0-26.184-7.086Zm15.2,4.156a1.374,1.374,0,0,0-.527-1.156,6.345,6.345,0,0,0-1.9-.82A9.186,9.186,0,0,1-15.6-5.828a2.919,2.919,0,0,1-1.555-2.547,2.772,2.772,0,0,1,1.121-2.266,4.538,4.538,0,0,1,2.91-.891A4.916,4.916,0,0,1-11-11.094,3.475,3.475,0,0,1-9.543-9.848a3.2,3.2,0,0,1,.531,1.793H-10.98a1.782,1.782,0,0,0-.559-1.395,2.305,2.305,0,0,0-1.6-.5,2.408,2.408,0,0,0-1.5.414,1.379,1.379,0,0,0-.535,1.156A1.247,1.247,0,0,0-14.6-7.34a6.66,6.66,0,0,0,1.906.813,8.768,8.768,0,0,1,2.133.9,3.392,3.392,0,0,1,1.18,1.156A3.011,3.011,0,0,1-9-2.945a2.707,2.707,0,0,1-1.09,2.262,4.727,4.727,0,0,1-2.957.84A5.557,5.557,0,0,1-15.32-.3,3.812,3.812,0,0,1-16.93-1.562,3.144,3.144,0,0,1-17.5-3.437h1.977a1.84,1.84,0,0,0,.641,1.5,2.805,2.805,0,0,0,1.836.531A2.437,2.437,0,0,0-11.5-1.824,1.349,1.349,0,0,0-10.98-2.93ZM-2.4,0a2.93,2.93,0,0,1-.219-.789A2.955,2.955,0,0,1-4.84.156,2.982,2.982,0,0,1-6.918-.57a2.325,2.325,0,0,1-.8-1.8,2.4,2.4,0,0,1,1-2.074,4.865,4.865,0,0,1,2.871-.723h1.164v-.555A1.481,1.481,0,0,0-3.051-6.77a1.456,1.456,0,0,0-1.117-.395A1.672,1.672,0,0,0-5.23-6.84a1,1,0,0,0-.414.824h-1.9a2.107,2.107,0,0,1,.461-1.3,3.071,3.071,0,0,1,1.254-.949,4.4,4.4,0,0,1,1.77-.344,3.547,3.547,0,0,1,2.367.746,2.661,2.661,0,0,1,.906,2.1v3.813a4.321,4.321,0,0,0,.32,1.82V0ZM-4.488-1.367A2.159,2.159,0,0,0-3.43-1.641a1.827,1.827,0,0,0,.746-.734V-3.969H-3.707A2.8,2.8,0,0,0-5.293-3.6a1.189,1.189,0,0,0-.531,1.039,1.109,1.109,0,0,0,.363.871A1.407,1.407,0,0,0-4.488-1.367ZM2.965-8.453l.055.977A3.039,3.039,0,0,1,5.48-8.609q2.641,0,2.688,3.023V0H6.27V-5.477a1.741,1.741,0,0,0-.348-1.191,1.462,1.462,0,0,0-1.137-.387A1.829,1.829,0,0,0,3.074-6.016V0h-1.9V-8.453Zm9.516-2.055v2.055h1.492v1.406H12.48v4.719a1.039,1.039,0,0,0,.191.7.888.888,0,0,0,.684.215,2.924,2.924,0,0,0,.664-.078V-.023a4.676,4.676,0,0,1-1.25.18q-2.187,0-2.187-2.414V-7.047H9.191V-8.453h1.391v-2.055ZM20.473,0a2.93,2.93,0,0,1-.219-.789,2.955,2.955,0,0,1-2.219.945A2.982,2.982,0,0,1,15.957-.57a2.325,2.325,0,0,1-.8-1.8,2.4,2.4,0,0,1,1-2.074,4.865,4.865,0,0,1,2.871-.723h1.164v-.555a1.481,1.481,0,0,0-.367-1.051,1.456,1.456,0,0,0-1.117-.395,1.672,1.672,0,0,0-1.062.324,1,1,0,0,0-.414.824h-1.9a2.107,2.107,0,0,1,.461-1.3,3.071,3.071,0,0,1,1.254-.949,4.4,4.4,0,0,1,1.77-.344,3.547,3.547,0,0,1,2.367.746,2.661,2.661,0,0,1,.906,2.1v3.813a4.321,4.321,0,0,0,.32,1.82V0ZM18.387-1.367a2.159,2.159,0,0,0,1.059-.273,1.827,1.827,0,0,0,.746-.734V-3.969H19.168a2.8,2.8,0,0,0-1.586.367,1.189,1.189,0,0,0-.531,1.039,1.109,1.109,0,0,0,.363.871A1.407,1.407,0,0,0,18.387-1.367ZM25.84-8.453l.055.977a3.039,3.039,0,0,1,2.461-1.133q2.641,0,2.688,3.023V0h-1.9V-5.477A1.741,1.741,0,0,0,28.8-6.668a1.462,1.462,0,0,0-1.137-.387,1.829,1.829,0,0,0-1.711,1.039V0h-1.9V-8.453Zm6.781,4.164a5.026,5.026,0,0,1,.906-3.137,2.9,2.9,0,0,1,2.43-1.184,2.759,2.759,0,0,1,2.172.938V-12h1.9V0H38.309l-.094-.875A2.8,2.8,0,0,1,35.941.156a2.887,2.887,0,0,1-2.4-1.2A5.21,5.21,0,0,1,32.621-4.289Zm1.9.164a3.519,3.519,0,0,0,.5,2.012,1.61,1.61,0,0,0,1.41.723,1.793,1.793,0,0,0,1.7-1.039V-6.039a1.766,1.766,0,0,0-1.687-1.016,1.622,1.622,0,0,0-1.422.73A3.919,3.919,0,0,0,34.52-4.125ZM45.73.156A3.928,3.928,0,0,1,42.8-.98a4.124,4.124,0,0,1-1.121-3.027v-.234A5.072,5.072,0,0,1,42.172-6.5a3.716,3.716,0,0,1,1.371-1.551,3.625,3.625,0,0,1,1.969-.555,3.318,3.318,0,0,1,2.668,1.1,4.658,4.658,0,0,1,.941,3.117v.766H43.6a2.539,2.539,0,0,0,.7,1.656,2.1,2.1,0,0,0,1.543.609,2.571,2.571,0,0,0,2.125-1.055l1.023.977A3.418,3.418,0,0,1,47.633-.262,4.244,4.244,0,0,1,45.73.156ZM45.5-7.086a1.6,1.6,0,0,0-1.262.547,2.835,2.835,0,0,0-.613,1.523h3.617v-.141A2.307,2.307,0,0,0,46.738-6.6,1.586,1.586,0,0,0,45.5-7.086Zm9.516.367a4.7,4.7,0,0,0-.773-.062,1.741,1.741,0,0,0-1.758,1V0h-1.9V-8.453H52.4l.047.945a2.139,2.139,0,0,1,1.906-1.1,1.777,1.777,0,0,1,.672.109Zm7.258.164h1.156a2.069,2.069,0,0,0,1.387-.453A1.617,1.617,0,0,0,65.332-8.3a1.762,1.762,0,0,0-.426-1.262,1.714,1.714,0,0,0-1.3-.449,1.813,1.813,0,0,0-1.258.441,1.475,1.475,0,0,0-.492,1.152h-1.9a2.874,2.874,0,0,1,.465-1.594,3.123,3.123,0,0,1,1.3-1.121,4.225,4.225,0,0,1,1.863-.4,3.912,3.912,0,0,1,2.676.855A3,3,0,0,1,67.23-8.3a2.417,2.417,0,0,1-.488,1.441,3.062,3.062,0,0,1-1.262,1.02,2.791,2.791,0,0,1,1.426,1.008,2.759,2.759,0,0,1,.488,1.641A3.055,3.055,0,0,1,66.344-.75a4.08,4.08,0,0,1-2.762.906,4.049,4.049,0,0,1-2.687-.875,2.882,2.882,0,0,1-1.047-2.328h1.9a1.588,1.588,0,0,0,.5,1.219,1.911,1.911,0,0,0,1.355.469A1.971,1.971,0,0,0,65-1.828,1.758,1.758,0,0,0,65.5-3.187a1.776,1.776,0,0,0-.531-1.383,2.271,2.271,0,0,0-1.578-.484H62.277Zm10.8-2.633a2.283,2.283,0,0,1,.664-1.691,2.363,2.363,0,0,1,1.742-.66,2.371,2.371,0,0,1,1.754.66,2.34,2.34,0,0,1,.66,1.73v.563a2.267,2.267,0,0,1-.66,1.68A2.358,2.358,0,0,1,75.5-6.25a2.433,2.433,0,0,1-1.738-.645,2.275,2.275,0,0,1-.684-1.738Zm1.328.6a1.248,1.248,0,0,0,.3.871,1.019,1.019,0,0,0,.793.332,1,1,0,0,0,.781-.332,1.3,1.3,0,0,0,.3-.9v-.57a1.262,1.262,0,0,0-.3-.875,1.013,1.013,0,0,0-.793-.336.984.984,0,0,0-.785.34,1.322,1.322,0,0,0-.293.895Zm4.141,5.8a2.236,2.236,0,0,1,.68-1.7,2.411,2.411,0,0,1,1.734-.648,2.407,2.407,0,0,1,1.738.648,2.312,2.312,0,0,1,.676,1.75v.555A2.285,2.285,0,0,1,82.727-.5a2.344,2.344,0,0,1-1.746.66A2.413,2.413,0,0,1,79.219-.5a2.3,2.3,0,0,1-.668-1.723Zm1.328.609a1.246,1.246,0,0,0,.309.871,1.023,1.023,0,0,0,.793.34.991.991,0,0,0,.785-.324,1.333,1.333,0,0,0,.285-.91v-.586a1.235,1.235,0,0,0-.3-.875,1.019,1.019,0,0,0-.781-.328,1.015,1.015,0,0,0-.785.328,1.291,1.291,0,0,0-.3.906ZM75.895-.852l-.977-.562L80.473-10.3l.977.563Z" transform="translate(503 1392)" fill="#12263f"/></g></svg>