<svg xmlns="http://www.w3.org/2000/svg" width="708" height="449" viewBox="0 0 708 449"><g transform="translate(-446 -3364)"><path d="M12,0H696a12,12,0,0,1,12,12V437a12,12,0,0,1-12,12H12A12,12,0,0,1,0,437V12A12,12,0,0,1,12,0Z" transform="translate(446 3364)" fill="#f5faff"/><path d="M6,0H184a6,6,0,0,1,6,6V76a6,6,0,0,1-6,6H6a6,6,0,0,1-6-6V6A6,6,0,0,1,6,0Z" transform="translate(705 3400)" fill="#bbdeaf"/><path d="M-25.685-5.3a5.712,5.712,0,0,1-.881,2.884A5.316,5.316,0,0,1-28.827-.473a7.7,7.7,0,0,1-3.325.688,6.142,6.142,0,0,1-4.855-2.009,8.294,8.294,0,0,1-1.772-5.672v-.773a9.467,9.467,0,0,1,.8-4.023,6.064,6.064,0,0,1,2.3-2.664,6.429,6.429,0,0,1,3.48-.94,6.741,6.741,0,0,1,4.576,1.5,5.921,5.921,0,0,1,1.966,4.13h-3.76a2.8,2.8,0,0,0-.72-2.052,2.96,2.96,0,0,0-2.062-.623,2.252,2.252,0,0,0-2.062,1.053A6.766,6.766,0,0,0-34.944-8.5v1.106a7.487,7.487,0,0,0,.628,3.577,2.3,2.3,0,0,0,2.165,1.074,2.9,2.9,0,0,0,1.987-.612,2.6,2.6,0,0,0,.73-1.944ZM-17.521,0a4.087,4.087,0,0,1-.344-1.042A3.366,3.366,0,0,1-20.657.215,4.124,4.124,0,0,1-23.45-.779a3.163,3.163,0,0,1-1.149-2.5,3.251,3.251,0,0,1,1.4-2.857A7.114,7.114,0,0,1-19.143-7.1h1.117v-.612q0-1.6-1.386-1.6A1.13,1.13,0,0,0-20.7-8.046h-3.62a3.25,3.25,0,0,1,1.434-2.739,6.022,6.022,0,0,1,3.658-1.053,5.284,5.284,0,0,1,3.513,1.085,3.772,3.772,0,0,1,1.321,2.976v5.146A5.269,5.269,0,0,0-13.9-.183V0Zm-2.267-2.363a2.019,2.019,0,0,0,1.123-.29,1.818,1.818,0,0,0,.639-.655V-5.167h-1.053q-1.891,0-1.891,1.7a1.036,1.036,0,0,0,.333.8A1.205,1.205,0,0,0-19.787-2.363Zm11.29-9.26V.4a4.219,4.219,0,0,1-1.182,3.18,4.539,4.539,0,0,1-3.266,1.117,7.71,7.71,0,0,1-1.708-.183V1.772a6.926,6.926,0,0,0,1.021.1,1.325,1.325,0,0,0,1.5-1.493v-12Zm-3.9-3a1.616,1.616,0,0,1,.559-1.268,2.108,2.108,0,0,1,1.45-.494,2.108,2.108,0,0,1,1.45.494,1.616,1.616,0,0,1,.559,1.268,1.616,1.616,0,0,1-.559,1.268,2.108,2.108,0,0,1-1.45.494,2.108,2.108,0,0,1-1.45-.494A1.616,1.616,0,0,1-12.4-14.62ZM.1,0A4.087,4.087,0,0,1-.247-1.042,3.366,3.366,0,0,1-3.04.215,4.124,4.124,0,0,1-5.833-.779a3.163,3.163,0,0,1-1.149-2.5,3.251,3.251,0,0,1,1.4-2.857A7.114,7.114,0,0,1-1.525-7.1H-.408v-.612q0-1.6-1.386-1.6A1.13,1.13,0,0,0-3.083-8.046H-6.7a3.25,3.25,0,0,1,1.434-2.739,6.022,6.022,0,0,1,3.658-1.053A5.284,5.284,0,0,1,1.9-10.753,3.772,3.772,0,0,1,3.223-7.777v5.146A5.269,5.269,0,0,0,3.717-.183V0ZM-2.17-2.363a2.019,2.019,0,0,0,1.123-.29,1.818,1.818,0,0,0,.639-.655V-5.167H-1.461q-1.891,0-1.891,1.7a1.036,1.036,0,0,0,.333.8A1.205,1.205,0,0,0-2.17-2.363ZM10.248-5.9a7.1,7.1,0,0,1,1.192-4.351,3.925,3.925,0,0,1,3.33-1.59,3.338,3.338,0,0,1,2.621,1.225V-16.5h3.631V0H17.768l-.183-1.246A3.428,3.428,0,0,1,14.749.215a3.918,3.918,0,0,1-3.287-1.59A7.325,7.325,0,0,1,10.248-5.9Zm3.62.226q0,3.094,1.8,3.094a1.782,1.782,0,0,0,1.719-1.01V-8.014a1.734,1.734,0,0,0-1.7-1.031q-1.676,0-1.815,2.707ZM28.7.215a5.975,5.975,0,0,1-4.329-1.6A5.509,5.509,0,0,1,22.72-5.532v-.3A7.138,7.138,0,0,1,23.38-8.98a4.834,4.834,0,0,1,1.928-2.111,5.821,5.821,0,0,1,3.008-.747,5.031,5.031,0,0,1,3.867,1.52A5.973,5.973,0,0,1,33.6-6.08v1.407H26.4a2.609,2.609,0,0,0,.849,1.536,2.525,2.525,0,0,0,1.7.559,3.254,3.254,0,0,0,2.686-1.2L33.29-1.826A4.624,4.624,0,0,1,31.373-.338,6.48,6.48,0,0,1,28.7.215Zm-.408-9.26q-1.59,0-1.891,2.105h3.652v-.279a1.793,1.793,0,0,0-.44-1.348A1.753,1.753,0,0,0,28.295-9.045ZM-47.062,23.372h-5.93V27.1h7V30H-56.762V14.359h10.8v2.911h-7.025v3.3h5.93Zm7.154-1.794,1.687-3.2h3.76l-3.062,5.661L-34.311,30h-3.781l-1.826-3.437L-41.712,30h-3.8l3.223-5.962-3.051-5.661h3.8Zm17.4,2.7A7.009,7.009,0,0,1-23.724,28.6a3.909,3.909,0,0,1-3.292,1.617,3.351,3.351,0,0,1-2.632-1.171v5.425h-3.62V18.377h3.384l.107,1.074a3.351,3.351,0,0,1,2.739-1.289A3.941,3.941,0,0,1-23.7,19.747,7.1,7.1,0,0,1-22.5,24.1Zm-3.62-.226q0-3.094-1.8-3.094a1.7,1.7,0,0,0-1.719.924v4.576a1.759,1.759,0,0,0,1.74.967q1.729,0,1.783-2.986ZM-17.091,30h-3.631V13.5h3.631Zm1.772-5.919a6.86,6.86,0,0,1,.677-3.1A4.84,4.84,0,0,1-12.7,18.893a5.856,5.856,0,0,1,2.976-.73,5.344,5.344,0,0,1,4.114,1.617,6.2,6.2,0,0,1,1.5,4.4v.129A6.019,6.019,0,0,1-5.613,28.62a5.359,5.359,0,0,1-4.087,1.6,5.42,5.42,0,0,1-3.985-1.488,5.819,5.819,0,0,1-1.622-4.034Zm3.62.226a4.325,4.325,0,0,0,.5,2.363,1.682,1.682,0,0,0,1.493.752q1.934,0,1.977-2.976v-.365q0-3.126-2-3.126-1.815,0-1.966,2.7ZM1.708,15.487v2.89H3.62v2.514H1.708v5.317a1.358,1.358,0,0,0,.236.913,1.268,1.268,0,0,0,.935.258,5.311,5.311,0,0,0,.9-.064V29.9a6.681,6.681,0,0,1-2.041.312,3.792,3.792,0,0,1-2.761-.881,3.61,3.61,0,0,1-.892-2.675V20.891H-3.395V18.377h1.482v-2.89ZM11.591,30a4.087,4.087,0,0,1-.344-1.042,3.366,3.366,0,0,1-2.793,1.257,4.124,4.124,0,0,1-2.793-.994,3.163,3.163,0,0,1-1.149-2.5,3.251,3.251,0,0,1,1.4-2.857A7.114,7.114,0,0,1,9.969,22.9h1.117v-.612q0-1.6-1.386-1.6a1.13,1.13,0,0,0-1.289,1.268H4.791a3.25,3.25,0,0,1,1.434-2.739,6.022,6.022,0,0,1,3.658-1.053A5.284,5.284,0,0,1,13.4,19.247a3.772,3.772,0,0,1,1.321,2.976v5.146a5.269,5.269,0,0,0,.494,2.449V30ZM9.324,27.637a2.019,2.019,0,0,0,1.123-.29,1.818,1.818,0,0,0,.639-.655V24.833H10.033q-1.891,0-1.891,1.7a1.036,1.036,0,0,0,.333.8A1.205,1.205,0,0,0,9.324,27.637Zm12.311-.215a1.61,1.61,0,0,0,1.182-.414,1.517,1.517,0,0,0,.408-1.155h3.395a4.018,4.018,0,0,1-1.37,3.137,5.1,5.1,0,0,1-3.529,1.225,5.158,5.158,0,0,1-4-1.59,6.264,6.264,0,0,1-1.461-4.4v-.15a7.08,7.08,0,0,1,.65-3.11,4.732,4.732,0,0,1,1.875-2.073,5.589,5.589,0,0,1,2.9-.725,5.03,5.03,0,0,1,3.6,1.257,4.458,4.458,0,0,1,1.332,3.405H23.225a1.987,1.987,0,0,0-.44-1.386,1.52,1.52,0,0,0-1.182-.483q-1.407,0-1.644,1.794a12.658,12.658,0,0,0-.075,1.568,4.972,4.972,0,0,0,.419,2.428A1.45,1.45,0,0,0,21.635,27.422ZM31.969,30H28.338V18.377h3.631ZM28.123,15.38a1.616,1.616,0,0,1,.559-1.268,2.375,2.375,0,0,1,2.9,0,1.718,1.718,0,0,1,0,2.535,2.375,2.375,0,0,1-2.9,0A1.616,1.616,0,0,1,28.123,15.38Zm5.618,8.7a6.86,6.86,0,0,1,.677-3.1,4.84,4.84,0,0,1,1.944-2.089,5.856,5.856,0,0,1,2.976-.73,5.344,5.344,0,0,1,4.114,1.617,6.2,6.2,0,0,1,1.5,4.4v.129a6.019,6.019,0,0,1-1.509,4.313,5.359,5.359,0,0,1-4.087,1.6,5.42,5.42,0,0,1-3.985-1.488,5.819,5.819,0,0,1-1.622-4.034Zm3.62.226a4.325,4.325,0,0,0,.5,2.363,1.682,1.682,0,0,0,1.493.752q1.934,0,1.977-2.976v-.365q0-3.126-2-3.126-1.815,0-1.966,2.7ZM39.832,13.5h3.824L40.67,16.873H37.716Zm10.044,4.877.118,1.364a3.942,3.942,0,0,1,3.319-1.579,3.316,3.316,0,0,1,2.712,1.085,5.165,5.165,0,0,1,.929,3.266V30H53.324V22.663a1.961,1.961,0,0,0-.354-1.294,1.64,1.64,0,0,0-1.289-.414,1.726,1.726,0,0,0-1.579.838V30h-3.62V18.377Z" transform="translate(802 3434)" fill="#12263f"/><path d="M6,0H184a6,6,0,0,1,6,6V76a6,6,0,0,1-6,6H6a6,6,0,0,1-6-6V6A6,6,0,0,1,6,0Z" transform="translate(495 3688)" fill="#ff854e"/><path d="M-54.323-5.307V0h-3.771V-15.641h6.241a7.269,7.269,0,0,1,3.174.661,4.979,4.979,0,0,1,2.138,1.88,5.134,5.134,0,0,1,.757,2.766,4.526,4.526,0,0,1-1.638,3.658,6.8,6.8,0,0,1-4.5,1.37Zm0-2.911h2.471a2.33,2.33,0,0,0,1.67-.548,2.035,2.035,0,0,0,.575-1.547,2.516,2.516,0,0,0-.591-1.751,2.092,2.092,0,0,0-1.611-.666h-2.514Zm17.413-.129L-38.1-8.433a2.142,2.142,0,0,0-2.191,1.074V0h-3.62V-11.623h3.395l.118,1.493a2.8,2.8,0,0,1,2.546-1.708,3.53,3.53,0,0,1,1.01.129Zm.462,2.428a6.86,6.86,0,0,1,.677-3.1,4.84,4.84,0,0,1,1.944-2.089,5.856,5.856,0,0,1,2.976-.73,5.344,5.344,0,0,1,4.114,1.617,6.2,6.2,0,0,1,1.5,4.4v.129A6.019,6.019,0,0,1-26.743-1.38,5.359,5.359,0,0,1-30.83.215a5.42,5.42,0,0,1-3.985-1.488,5.819,5.819,0,0,1-1.622-4.034Zm3.62.226a4.325,4.325,0,0,0,.5,2.363,1.682,1.682,0,0,0,1.493.752q1.934,0,1.977-2.976v-.365q0-3.126-2-3.126-1.815,0-1.966,2.7Zm8.733-.2A7.1,7.1,0,0,1-22.9-10.248a3.925,3.925,0,0,1,3.33-1.59,3.338,3.338,0,0,1,2.621,1.225V-16.5h3.631V0h-3.255l-.183-1.246A3.428,3.428,0,0,1-19.594.215a3.918,3.918,0,0,1-3.287-1.59A7.325,7.325,0,0,1-24.095-5.9Zm3.62.226q0,3.094,1.8,3.094a1.782,1.782,0,0,0,1.719-1.01V-8.014a1.734,1.734,0,0,0-1.7-1.031q-1.676,0-1.815,2.707ZM-4.34-1.257A3.732,3.732,0,0,1-7.444.215,3.661,3.661,0,0,1-10.339-.9a4.676,4.676,0,0,1-.983-3.2v-7.53H-7.7v7.552a1.3,1.3,0,0,0,1.45,1.493A1.892,1.892,0,0,0-4.479-3.47v-8.153H-.838V0H-4.232Zm10.4-1.321A1.61,1.61,0,0,0,7.24-2.992a1.517,1.517,0,0,0,.408-1.155h3.395A4.018,4.018,0,0,1,9.673-1.01,5.1,5.1,0,0,1,6.145.215a5.158,5.158,0,0,1-4-1.59,6.264,6.264,0,0,1-1.461-4.4v-.15a7.08,7.08,0,0,1,.65-3.11,4.732,4.732,0,0,1,1.875-2.073,5.589,5.589,0,0,1,2.9-.725,5.03,5.03,0,0,1,3.6,1.257,4.458,4.458,0,0,1,1.332,3.405H7.648a1.987,1.987,0,0,0-.44-1.386,1.52,1.52,0,0,0-1.182-.483q-1.407,0-1.644,1.794a12.658,12.658,0,0,0-.075,1.568,4.972,4.972,0,0,0,.419,2.428A1.45,1.45,0,0,0,6.059-2.578Zm11.43,0a1.61,1.61,0,0,0,1.182-.414,1.517,1.517,0,0,0,.408-1.155h3.395A4.018,4.018,0,0,1,21.1-1.01,5.1,5.1,0,0,1,17.574.215a5.158,5.158,0,0,1-4-1.59,6.264,6.264,0,0,1-1.461-4.4v-.15a7.08,7.08,0,0,1,.65-3.11,4.732,4.732,0,0,1,1.875-2.073,5.589,5.589,0,0,1,2.9-.725,5.03,5.03,0,0,1,3.6,1.257,4.458,4.458,0,0,1,1.332,3.405H19.078a1.987,1.987,0,0,0-.44-1.386,1.52,1.52,0,0,0-1.182-.483q-1.407,0-1.644,1.794a12.659,12.659,0,0,0-.075,1.568,4.972,4.972,0,0,0,.419,2.428A1.45,1.45,0,0,0,17.488-2.578ZM27.822,0H24.191V-11.623h3.631ZM23.977-14.62a1.616,1.616,0,0,1,.559-1.268,2.108,2.108,0,0,1,1.45-.494,2.108,2.108,0,0,1,1.45.494,1.616,1.616,0,0,1,.559,1.268,1.616,1.616,0,0,1-.559,1.268,2.108,2.108,0,0,1-1.45.494,2.108,2.108,0,0,1-1.45-.494A1.616,1.616,0,0,1,23.977-14.62Zm5.618,8.7a6.86,6.86,0,0,1,.677-3.1,4.84,4.84,0,0,1,1.944-2.089,5.856,5.856,0,0,1,2.976-.73,5.344,5.344,0,0,1,4.114,1.617,6.2,6.2,0,0,1,1.5,4.4v.129A6.019,6.019,0,0,1,39.3-1.38a5.359,5.359,0,0,1-4.087,1.6,5.42,5.42,0,0,1-3.985-1.488,5.819,5.819,0,0,1-1.622-4.034Zm3.62.226a4.325,4.325,0,0,0,.5,2.363,1.682,1.682,0,0,0,1.493.752q1.934,0,1.977-2.976v-.365q0-3.126-2-3.126-1.815,0-1.966,2.7ZM35.686-16.5H39.51l-2.986,3.373H33.569Zm10.044,4.877.118,1.364a3.942,3.942,0,0,1,3.319-1.579,3.316,3.316,0,0,1,2.712,1.085,5.165,5.165,0,0,1,.929,3.266V0H49.178V-7.337a1.961,1.961,0,0,0-.354-1.294,1.64,1.64,0,0,0-1.289-.414,1.726,1.726,0,0,0-1.579.838V0h-3.62V-11.623ZM-36.69,24.7a5.712,5.712,0,0,1-.881,2.884,5.316,5.316,0,0,1-2.261,1.939,7.7,7.7,0,0,1-3.325.688,6.142,6.142,0,0,1-4.855-2.009,8.294,8.294,0,0,1-1.772-5.672v-.773a9.467,9.467,0,0,1,.8-4.023,6.064,6.064,0,0,1,2.3-2.664,6.429,6.429,0,0,1,3.48-.94,6.741,6.741,0,0,1,4.576,1.5,5.921,5.921,0,0,1,1.966,4.13h-3.76a2.8,2.8,0,0,0-.72-2.052,2.96,2.96,0,0,0-2.062-.623,2.252,2.252,0,0,0-2.062,1.053A6.766,6.766,0,0,0-45.95,21.5v1.106a7.487,7.487,0,0,0,.628,3.577,2.3,2.3,0,0,0,2.165,1.074,2.9,2.9,0,0,0,1.987-.612,2.6,2.6,0,0,0,.73-1.944Zm1.16-.623a6.86,6.86,0,0,1,.677-3.1,4.84,4.84,0,0,1,1.944-2.089,5.856,5.856,0,0,1,2.976-.73,5.344,5.344,0,0,1,4.114,1.617,6.2,6.2,0,0,1,1.5,4.4v.129a6.019,6.019,0,0,1-1.509,4.313,5.359,5.359,0,0,1-4.087,1.6A5.42,5.42,0,0,1-33.9,28.727a5.819,5.819,0,0,1-1.622-4.034Zm3.62.226a4.325,4.325,0,0,0,.5,2.363,1.682,1.682,0,0,0,1.493.752q1.934,0,1.977-2.976v-.365q0-3.126-2-3.126-1.815,0-1.966,2.7Zm12.611-5.93.118,1.364a4,4,0,0,1,3.319-1.579,2.942,2.942,0,0,1,2.976,1.751,3.868,3.868,0,0,1,3.416-1.751q3.534,0,3.631,4.275V30H-9.469V22.663a2.216,2.216,0,0,0-.3-1.3,1.28,1.28,0,0,0-1.1-.408,1.715,1.715,0,0,0-1.6.956l.011.15V30h-3.631V22.685a2.329,2.329,0,0,0-.29-1.321,1.277,1.277,0,0,0-1.106-.408,1.736,1.736,0,0,0-1.59.956V30h-3.62V18.377ZM1.853,30.215a5.975,5.975,0,0,1-4.329-1.6A5.509,5.509,0,0,1-4.13,24.468v-.3A7.138,7.138,0,0,1-3.47,21.02a4.834,4.834,0,0,1,1.928-2.111,5.821,5.821,0,0,1,3.008-.747,5.031,5.031,0,0,1,3.867,1.52A5.973,5.973,0,0,1,6.751,23.92v1.407h-7.2A2.609,2.609,0,0,0,.4,26.863a2.525,2.525,0,0,0,1.7.559,3.254,3.254,0,0,0,2.686-1.2L6.44,28.174a4.624,4.624,0,0,1-1.917,1.488A6.48,6.48,0,0,1,1.853,30.215Zm-.408-9.26q-1.59,0-1.891,2.105H3.207v-.279a1.793,1.793,0,0,0-.44-1.348A1.753,1.753,0,0,0,1.445,20.955Zm13.793.7-1.192-.086a2.142,2.142,0,0,0-2.191,1.074V30H8.234V18.377h3.395l.118,1.493a2.8,2.8,0,0,1,2.546-1.708,3.53,3.53,0,0,1,1.01.129Zm6.016,5.769a1.61,1.61,0,0,0,1.182-.414,1.517,1.517,0,0,0,.408-1.155h3.395a4.018,4.018,0,0,1-1.37,3.137,5.1,5.1,0,0,1-3.529,1.225,5.158,5.158,0,0,1-4-1.59,6.264,6.264,0,0,1-1.461-4.4v-.15a7.08,7.08,0,0,1,.65-3.11,4.732,4.732,0,0,1,1.875-2.073,5.589,5.589,0,0,1,2.9-.725,5.03,5.03,0,0,1,3.6,1.257,4.458,4.458,0,0,1,1.332,3.405H22.843a1.987,1.987,0,0,0-.44-1.386,1.52,1.52,0,0,0-1.182-.483q-1.407,0-1.644,1.794a12.658,12.658,0,0,0-.075,1.568,4.972,4.972,0,0,0,.419,2.428A1.45,1.45,0,0,0,21.253,27.422ZM31.587,30H27.957V18.377h3.631ZM27.742,15.38a1.616,1.616,0,0,1,.559-1.268,2.375,2.375,0,0,1,2.9,0,1.718,1.718,0,0,1,0,2.535,2.375,2.375,0,0,1-2.9,0A1.616,1.616,0,0,1,27.742,15.38ZM40.364,30a4.088,4.088,0,0,1-.344-1.042,3.366,3.366,0,0,1-2.793,1.257,4.124,4.124,0,0,1-2.793-.994,3.163,3.163,0,0,1-1.149-2.5,3.251,3.251,0,0,1,1.4-2.857,7.114,7.114,0,0,1,4.061-.967h1.117v-.612q0-1.6-1.386-1.6a1.13,1.13,0,0,0-1.289,1.268h-3.62A3.25,3.25,0,0,1,35,19.215a6.022,6.022,0,0,1,3.658-1.053,5.284,5.284,0,0,1,3.513,1.085,3.772,3.772,0,0,1,1.321,2.976v5.146a5.269,5.269,0,0,0,.494,2.449V30ZM38.1,27.637a2.019,2.019,0,0,0,1.123-.29,1.818,1.818,0,0,0,.639-.655V24.833H38.806q-1.891,0-1.891,1.7a1.036,1.036,0,0,0,.333.8A1.205,1.205,0,0,0,38.1,27.637ZM49.312,30H45.681V13.5h3.631Z" transform="translate(590 3723)" fill="#12263f"/><path d="M6,0H184a6,6,0,0,1,6,6V76a6,6,0,0,1-6,6H6a6,6,0,0,1-6-6V6A6,6,0,0,1,6,0Z" transform="translate(915 3688)" fill="#ffd63d"/><path d="M10.065-2.922H4.9L4,0H-.032L5.7-15.641H9.249L15.028,0h-4.05ZM5.8-5.833H9.163L7.477-11.258ZM20.915-2.578A1.61,1.61,0,0,0,22.1-2.992,1.517,1.517,0,0,0,22.5-4.146H25.9A4.018,4.018,0,0,1,24.53-1.01,5.1,5.1,0,0,1,21,.215a5.158,5.158,0,0,1-4-1.59,6.264,6.264,0,0,1-1.461-4.4v-.15a7.08,7.08,0,0,1,.65-3.11,4.732,4.732,0,0,1,1.875-2.073,5.589,5.589,0,0,1,2.9-.725,5.03,5.03,0,0,1,3.6,1.257A4.458,4.458,0,0,1,25.9-7.176H22.5a1.987,1.987,0,0,0-.44-1.386,1.52,1.52,0,0,0-1.182-.483q-1.407,0-1.644,1.794a12.658,12.658,0,0,0-.075,1.568,4.972,4.972,0,0,0,.419,2.428A1.45,1.45,0,0,0,20.915-2.578Zm11.43,0a1.61,1.61,0,0,0,1.182-.414,1.517,1.517,0,0,0,.408-1.155h3.395a4.018,4.018,0,0,1-1.37,3.137A5.1,5.1,0,0,1,32.431.215a5.158,5.158,0,0,1-4-1.59,6.264,6.264,0,0,1-1.461-4.4v-.15a7.08,7.08,0,0,1,.65-3.11A4.732,4.732,0,0,1,29.5-11.113a5.589,5.589,0,0,1,2.9-.725A5.03,5.03,0,0,1,36-10.581a4.458,4.458,0,0,1,1.332,3.405H33.935a1.987,1.987,0,0,0-.44-1.386,1.52,1.52,0,0,0-1.182-.483q-1.407,0-1.644,1.794a12.658,12.658,0,0,0-.075,1.568,4.972,4.972,0,0,0,.419,2.428A1.45,1.45,0,0,0,32.345-2.578ZM42.679,0H39.048V-11.623h3.631ZM38.833-14.62a1.616,1.616,0,0,1,.559-1.268,2.108,2.108,0,0,1,1.45-.494,2.108,2.108,0,0,1,1.45.494,1.616,1.616,0,0,1,.559,1.268,1.616,1.616,0,0,1-.559,1.268,2.108,2.108,0,0,1-1.45.494,2.108,2.108,0,0,1-1.45-.494A1.616,1.616,0,0,1,38.833-14.62Zm5.618,8.7a6.86,6.86,0,0,1,.677-3.1,4.84,4.84,0,0,1,1.944-2.089,5.856,5.856,0,0,1,2.976-.73,5.344,5.344,0,0,1,4.114,1.617,6.2,6.2,0,0,1,1.5,4.4v.129A6.019,6.019,0,0,1,54.157-1.38a5.359,5.359,0,0,1-4.087,1.6,5.42,5.42,0,0,1-3.985-1.488,5.819,5.819,0,0,1-1.622-4.034Zm3.62.226a4.325,4.325,0,0,0,.5,2.363,1.682,1.682,0,0,0,1.493.752q1.934,0,1.977-2.976v-.365q0-3.126-2-3.126-1.815,0-1.966,2.7Zm12.515-5.93.118,1.364a3.942,3.942,0,0,1,3.319-1.579,3.316,3.316,0,0,1,2.712,1.085,5.165,5.165,0,0,1,.929,3.266V0H64.034V-7.337a1.961,1.961,0,0,0-.354-1.294,1.64,1.64,0,0,0-1.289-.414,1.726,1.726,0,0,0-1.579.838V0h-3.62V-11.623ZM73.487,0H69.856V-11.623h3.631ZM69.642-14.62a1.616,1.616,0,0,1,.559-1.268,2.108,2.108,0,0,1,1.45-.494,2.108,2.108,0,0,1,1.45.494,1.616,1.616,0,0,1,.559,1.268,1.616,1.616,0,0,1-.559,1.268,2.108,2.108,0,0,1-1.45.494,2.108,2.108,0,0,1-1.45-.494A1.616,1.616,0,0,1,69.642-14.62ZM81.8-3.266a.836.836,0,0,0-.483-.741,7.353,7.353,0,0,0-1.837-.58,8.376,8.376,0,0,1-2.234-.79A3.743,3.743,0,0,1,75.9-6.563a2.834,2.834,0,0,1-.462-1.6A3.212,3.212,0,0,1,76.764-10.8a5.443,5.443,0,0,1,3.459-1.037,6.03,6.03,0,0,1,3.7,1.042,3.258,3.258,0,0,1,1.4,2.739H81.684q0-1.4-1.472-1.4a1.459,1.459,0,0,0-.956.317.981.981,0,0,0-.387.79.9.9,0,0,0,.473.784,4.466,4.466,0,0,0,1.509.494,13.043,13.043,0,0,1,1.821.462q2.621.9,2.621,3.233A3.044,3.044,0,0,1,83.88-.784a6.2,6.2,0,0,1-3.658,1,6.322,6.322,0,0,1-2.664-.537,4.455,4.455,0,0,1-1.826-1.461,3.308,3.308,0,0,1-.655-1.944h3.384A1.4,1.4,0,0,0,79-2.551a2.209,2.209,0,0,0,1.321.371,1.738,1.738,0,0,0,1.112-.3A.962.962,0,0,0,81.8-3.266Zm9.4-11.247v2.89h1.912v2.514H91.2v5.317a1.358,1.358,0,0,0,.236.913,1.268,1.268,0,0,0,.935.258,5.311,5.311,0,0,0,.9-.064V-.1a6.681,6.681,0,0,1-2.041.312,3.792,3.792,0,0,1-2.761-.881,3.61,3.61,0,0,1-.892-2.675V-9.109H86.1v-2.514h1.482v-2.89ZM101.084,0a4.087,4.087,0,0,1-.344-1.042A3.366,3.366,0,0,1,97.947.215a4.124,4.124,0,0,1-2.793-.994A3.163,3.163,0,0,1,94-3.276a3.251,3.251,0,0,1,1.4-2.857A7.114,7.114,0,0,1,99.462-7.1h1.117v-.612q0-1.6-1.386-1.6A1.13,1.13,0,0,0,97.9-8.046h-3.62a3.25,3.25,0,0,1,1.434-2.739,6.022,6.022,0,0,1,3.658-1.053,5.284,5.284,0,0,1,3.513,1.085,3.772,3.772,0,0,1,1.321,2.976v5.146A5.269,5.269,0,0,0,104.7-.183V0ZM98.817-2.363a2.019,2.019,0,0,0,1.123-.29,1.818,1.818,0,0,0,.639-.655V-5.167H99.526q-1.891,0-1.891,1.7a1.036,1.036,0,0,0,.333.8A1.205,1.205,0,0,0,98.817-2.363Zm13.481-.9a.836.836,0,0,0-.483-.741,7.353,7.353,0,0,0-1.837-.58,8.376,8.376,0,0,1-2.234-.79A3.743,3.743,0,0,1,106.4-6.563a2.834,2.834,0,0,1-.462-1.6,3.212,3.212,0,0,1,1.321-2.637,5.443,5.443,0,0,1,3.459-1.037,6.03,6.03,0,0,1,3.7,1.042,3.258,3.258,0,0,1,1.4,2.739h-3.631q0-1.4-1.472-1.4a1.459,1.459,0,0,0-.956.317.981.981,0,0,0-.387.79.9.9,0,0,0,.473.784,4.466,4.466,0,0,0,1.509.494,13.043,13.043,0,0,1,1.821.462q2.621.9,2.621,3.233a3.044,3.044,0,0,1-1.413,2.589,6.2,6.2,0,0,1-3.658,1,6.322,6.322,0,0,1-2.664-.537,4.455,4.455,0,0,1-1.826-1.461,3.308,3.308,0,0,1-.655-1.944h3.384a1.4,1.4,0,0,0,.537,1.176,2.209,2.209,0,0,0,1.321.371,1.738,1.738,0,0,0,1.112-.3A.962.962,0,0,0,112.3-3.266Z" transform="translate(959 3737)" fill="#12263f"/><path d="M-7828-8872.817l-95,160.067" transform="translate(8580.5 12378)" fill="none" stroke="#bbdeaf" stroke-width="3"/><path d="M-7923-8872.817l95,160.067" transform="translate(8774 12378)" fill="none" stroke="#ff854e" stroke-width="3"/><path d="M10.5,0,21,18H0Z" transform="translate(752.17 3486.955) rotate(30)" fill="#bbdeaf"/><path d="M10.5,0,21,18H0Z" transform="matrix(-0.809, -0.588, 0.588, -0.809, 660.705, 3676.906)" fill="#bbdeaf"/><path d="M10.5,0,21,18H0Z" transform="translate(834.407 3497.455) rotate(-30)" fill="#ff854e"/><path d="M10.5,0,21,18H0Z" transform="translate(958.636 3665.76) rotate(149)" fill="#ff854e"/><path d="M8.023-4.531H3.6V0H.859V-11.375H8.469v2.117H3.6v2.617H8.023ZM12.266,0H9.625V-12h2.641Zm6.656-.914A2.714,2.714,0,0,1,16.664.156a2.662,2.662,0,0,1-2.105-.809,3.4,3.4,0,0,1-.715-2.324V-8.453h2.633v5.492a.946.946,0,0,0,1.055,1.086,1.376,1.376,0,0,0,1.289-.648v-5.93h2.648V0H19Zm6.82-7.539V.289A3.068,3.068,0,0,1,24.883,2.6a3.3,3.3,0,0,1-2.375.813,5.607,5.607,0,0,1-1.242-.133V1.289a5.037,5.037,0,0,0,.742.07A.963.963,0,0,0,23.1.273V-8.453Zm-2.836-2.18a1.175,1.175,0,0,1,.406-.922,1.533,1.533,0,0,1,1.055-.359,1.533,1.533,0,0,1,1.055.359,1.175,1.175,0,0,1,.406.922,1.175,1.175,0,0,1-.406.922,1.533,1.533,0,0,1-1.055.359,1.533,1.533,0,0,1-1.055-.359A1.175,1.175,0,0,1,22.906-10.633ZM26.9-4.3a4.989,4.989,0,0,1,.492-2.254A3.52,3.52,0,0,1,28.8-8.078a4.259,4.259,0,0,1,2.164-.531,3.887,3.887,0,0,1,2.992,1.176,4.512,4.512,0,0,1,1.094,3.2v.094A4.378,4.378,0,0,1,33.957-1,3.9,3.9,0,0,1,30.984.156a3.942,3.942,0,0,1-2.9-1.082,4.232,4.232,0,0,1-1.18-2.934Zm2.633.164A3.145,3.145,0,0,0,29.9-2.422a1.223,1.223,0,0,0,1.086.547q1.406,0,1.438-2.164V-4.3q0-2.273-1.453-2.273-1.32,0-1.43,1.961ZM40.641-2.375a.608.608,0,0,0-.352-.539,5.348,5.348,0,0,0-1.336-.422,6.092,6.092,0,0,1-1.625-.574,2.722,2.722,0,0,1-.977-.863,2.061,2.061,0,0,1-.336-1.164,2.336,2.336,0,0,1,.961-1.918,3.958,3.958,0,0,1,2.516-.754,4.386,4.386,0,0,1,2.688.758A2.37,2.37,0,0,1,43.2-5.859H40.555q0-1.016-1.07-1.016a1.061,1.061,0,0,0-.7.23.714.714,0,0,0-.281.574.655.655,0,0,0,.344.57,3.248,3.248,0,0,0,1.1.359,9.485,9.485,0,0,1,1.324.336A2.406,2.406,0,0,1,43.18-2.453,2.214,2.214,0,0,1,42.152-.57a4.505,4.505,0,0,1-2.66.727,4.6,4.6,0,0,1-1.937-.391A3.24,3.24,0,0,1,36.227-1.3a2.406,2.406,0,0,1-.477-1.414h2.461a1.017,1.017,0,0,0,.391.855,1.607,1.607,0,0,0,.961.27,1.264,1.264,0,0,0,.809-.219A.7.7,0,0,0,40.641-2.375ZM55.68-4.531H51.258V0H48.516V-11.375h7.609v2.117H51.258v2.617H55.68ZM59.922,0H57.281V-8.453h2.641Zm-2.8-10.633a1.175,1.175,0,0,1,.406-.922,1.533,1.533,0,0,1,1.055-.359,1.533,1.533,0,0,1,1.055.359,1.175,1.175,0,0,1,.406.922,1.175,1.175,0,0,1-.406.922,1.533,1.533,0,0,1-1.055.359,1.533,1.533,0,0,1-1.055-.359A1.175,1.175,0,0,1,57.125-10.633Zm6.836,2.18.086.992a2.867,2.867,0,0,1,2.414-1.148,2.412,2.412,0,0,1,1.973.789,3.757,3.757,0,0,1,.676,2.375V0H66.469V-5.336a1.426,1.426,0,0,0-.258-.941,1.193,1.193,0,0,0-.937-.3,1.256,1.256,0,0,0-1.148.609V0H61.492V-8.453ZM75.328,0a2.973,2.973,0,0,1-.25-.758,2.448,2.448,0,0,1-2.031.914,3,3,0,0,1-2.031-.723,2.3,2.3,0,0,1-.836-1.816A2.364,2.364,0,0,1,71.2-4.461a5.174,5.174,0,0,1,2.953-.7h.813v-.445q0-1.164-1.008-1.164a.822.822,0,0,0-.937.922H70.383a2.364,2.364,0,0,1,1.043-1.992,4.379,4.379,0,0,1,2.66-.766,3.843,3.843,0,0,1,2.555.789A2.743,2.743,0,0,1,77.6-5.656v3.742a3.832,3.832,0,0,0,.359,1.781V0ZM73.68-1.719A1.469,1.469,0,0,0,74.5-1.93a1.322,1.322,0,0,0,.465-.477V-3.758H74.2q-1.375,0-1.375,1.234a.754.754,0,0,0,.242.582A.876.876,0,0,0,73.68-1.719Zm7.8-6.734.086.992a2.867,2.867,0,0,1,2.414-1.148,2.412,2.412,0,0,1,1.973.789,3.757,3.757,0,0,1,.676,2.375V0H83.984V-5.336a1.426,1.426,0,0,0-.258-.941,1.193,1.193,0,0,0-.937-.3,1.256,1.256,0,0,0-1.148.609V0H79.008V-8.453Zm10.18,6.578a1.171,1.171,0,0,0,.859-.3,1.1,1.1,0,0,0,.3-.84h2.469a2.922,2.922,0,0,1-1,2.281,3.705,3.705,0,0,1-2.566.891A3.751,3.751,0,0,1,88.813-1,4.556,4.556,0,0,1,87.75-4.2v-.109a5.149,5.149,0,0,1,.473-2.262,3.441,3.441,0,0,1,1.363-1.508A4.065,4.065,0,0,1,91.7-8.609a3.658,3.658,0,0,1,2.617.914,3.242,3.242,0,0,1,.969,2.477H92.813a1.445,1.445,0,0,0-.32-1.008,1.106,1.106,0,0,0-.859-.352q-1.023,0-1.2,1.3a9.206,9.206,0,0,0-.055,1.141,3.616,3.616,0,0,0,.3,1.766A1.055,1.055,0,0,0,91.656-1.875ZM99.172,0H96.531V-8.453h2.641Zm-2.8-10.633a1.175,1.175,0,0,1,.406-.922,1.533,1.533,0,0,1,1.055-.359,1.533,1.533,0,0,1,1.055.359,1.175,1.175,0,0,1,.406.922,1.175,1.175,0,0,1-.406.922,1.533,1.533,0,0,1-1.055.359,1.533,1.533,0,0,1-1.055-.359A1.175,1.175,0,0,1,96.375-10.633ZM104.883.156A4.345,4.345,0,0,1,101.734-1a4.006,4.006,0,0,1-1.2-3.02v-.219a5.191,5.191,0,0,1,.48-2.289,3.516,3.516,0,0,1,1.4-1.535,4.233,4.233,0,0,1,2.188-.543A3.659,3.659,0,0,1,107.414-7.5a4.344,4.344,0,0,1,1.031,3.082V-3.4h-5.234a1.9,1.9,0,0,0,.617,1.117,1.836,1.836,0,0,0,1.234.406,2.366,2.366,0,0,0,1.953-.875l1.2,1.422a3.363,3.363,0,0,1-1.395,1.082A4.713,4.713,0,0,1,104.883.156Zm-.3-6.734q-1.156,0-1.375,1.531h2.656v-.2a1.3,1.3,0,0,0-.32-.98A1.275,1.275,0,0,0,104.586-6.578Zm10.031.508-.867-.062a1.558,1.558,0,0,0-1.594.781V0h-2.633V-8.453h2.469l.086,1.086a2.039,2.039,0,0,1,1.852-1.242,2.567,2.567,0,0,1,.734.094Zm.336,1.766a4.989,4.989,0,0,1,.492-2.254,3.52,3.52,0,0,1,1.414-1.52,4.259,4.259,0,0,1,2.164-.531,3.887,3.887,0,0,1,2.992,1.176,4.512,4.512,0,0,1,1.094,3.2v.094A4.378,4.378,0,0,1,122.012-1a3.9,3.9,0,0,1-2.973,1.16,3.942,3.942,0,0,1-2.9-1.082,4.232,4.232,0,0,1-1.18-2.934Zm2.633.164a3.145,3.145,0,0,0,.367,1.719,1.223,1.223,0,0,0,1.086.547q1.406,0,1.438-2.164V-4.3q0-2.273-1.453-2.273-1.32,0-1.43,1.961ZM128.7-2.375a.608.608,0,0,0-.352-.539,5.348,5.348,0,0,0-1.336-.422,6.092,6.092,0,0,1-1.625-.574,2.722,2.722,0,0,1-.977-.863,2.061,2.061,0,0,1-.336-1.164,2.336,2.336,0,0,1,.961-1.918,3.958,3.958,0,0,1,2.516-.754,4.386,4.386,0,0,1,2.688.758,2.37,2.37,0,0,1,1.016,1.992h-2.641q0-1.016-1.07-1.016a1.061,1.061,0,0,0-.7.23.714.714,0,0,0-.281.574.655.655,0,0,0,.344.57,3.248,3.248,0,0,0,1.1.359,9.485,9.485,0,0,1,1.324.336,2.406,2.406,0,0,1,1.906,2.352A2.214,2.214,0,0,1,130.207-.57a4.505,4.505,0,0,1-2.66.727,4.6,4.6,0,0,1-1.937-.391A3.24,3.24,0,0,1,124.281-1.3a2.406,2.406,0,0,1-.477-1.414h2.461a1.017,1.017,0,0,0,.391.855,1.607,1.607,0,0,0,.961.27,1.264,1.264,0,0,0,.809-.219A.7.7,0,0,0,128.7-2.375Z" transform="translate(653.504 3630.434) rotate(-59)" fill="#12263f"/><path d="M8.023-4.531H3.6V0H.859V-11.375H8.469v2.117H3.6v2.617H8.023ZM12.266,0H9.625V-12h2.641Zm6.656-.914A2.714,2.714,0,0,1,16.664.156a2.662,2.662,0,0,1-2.105-.809,3.4,3.4,0,0,1-.715-2.324V-8.453h2.633v5.492a.946.946,0,0,0,1.055,1.086,1.376,1.376,0,0,0,1.289-.648v-5.93h2.648V0H19Zm6.82-7.539V.289A3.068,3.068,0,0,1,24.883,2.6a3.3,3.3,0,0,1-2.375.813,5.607,5.607,0,0,1-1.242-.133V1.289a5.037,5.037,0,0,0,.742.07A.963.963,0,0,0,23.1.273V-8.453Zm-2.836-2.18a1.175,1.175,0,0,1,.406-.922,1.533,1.533,0,0,1,1.055-.359,1.533,1.533,0,0,1,1.055.359,1.175,1.175,0,0,1,.406.922,1.175,1.175,0,0,1-.406.922,1.533,1.533,0,0,1-1.055.359,1.533,1.533,0,0,1-1.055-.359A1.175,1.175,0,0,1,22.906-10.633ZM26.9-4.3a4.989,4.989,0,0,1,.492-2.254A3.52,3.52,0,0,1,28.8-8.078a4.259,4.259,0,0,1,2.164-.531,3.887,3.887,0,0,1,2.992,1.176,4.512,4.512,0,0,1,1.094,3.2v.094A4.378,4.378,0,0,1,33.957-1,3.9,3.9,0,0,1,30.984.156a3.942,3.942,0,0,1-2.9-1.082,4.232,4.232,0,0,1-1.18-2.934Zm2.633.164A3.145,3.145,0,0,0,29.9-2.422a1.223,1.223,0,0,0,1.086.547q1.406,0,1.438-2.164V-4.3q0-2.273-1.453-2.273-1.32,0-1.43,1.961ZM40.641-2.375a.608.608,0,0,0-.352-.539,5.348,5.348,0,0,0-1.336-.422,6.092,6.092,0,0,1-1.625-.574,2.722,2.722,0,0,1-.977-.863,2.061,2.061,0,0,1-.336-1.164,2.336,2.336,0,0,1,.961-1.918,3.958,3.958,0,0,1,2.516-.754,4.386,4.386,0,0,1,2.688.758A2.37,2.37,0,0,1,43.2-5.859H40.555q0-1.016-1.07-1.016a1.061,1.061,0,0,0-.7.23.714.714,0,0,0-.281.574.655.655,0,0,0,.344.57,3.248,3.248,0,0,0,1.1.359,9.485,9.485,0,0,1,1.324.336A2.406,2.406,0,0,1,43.18-2.453,2.214,2.214,0,0,1,42.152-.57a4.505,4.505,0,0,1-2.66.727,4.6,4.6,0,0,1-1.937-.391A3.24,3.24,0,0,1,36.227-1.3a2.406,2.406,0,0,1-.477-1.414h2.461a1.017,1.017,0,0,0,.391.855,1.607,1.607,0,0,0,.961.27,1.264,1.264,0,0,0,.809-.219A.7.7,0,0,0,40.641-2.375ZM55.68-4.531H51.258V0H48.516V-11.375h7.609v2.117H51.258v2.617H55.68ZM59.922,0H57.281V-8.453h2.641Zm-2.8-10.633a1.175,1.175,0,0,1,.406-.922,1.533,1.533,0,0,1,1.055-.359,1.533,1.533,0,0,1,1.055.359,1.175,1.175,0,0,1,.406.922,1.175,1.175,0,0,1-.406.922,1.533,1.533,0,0,1-1.055.359,1.533,1.533,0,0,1-1.055-.359A1.175,1.175,0,0,1,57.125-10.633Zm6.836,2.18.086.992a2.867,2.867,0,0,1,2.414-1.148,2.412,2.412,0,0,1,1.973.789,3.757,3.757,0,0,1,.676,2.375V0H66.469V-5.336a1.426,1.426,0,0,0-.258-.941,1.193,1.193,0,0,0-.937-.3,1.256,1.256,0,0,0-1.148.609V0H61.492V-8.453ZM75.328,0a2.973,2.973,0,0,1-.25-.758,2.448,2.448,0,0,1-2.031.914,3,3,0,0,1-2.031-.723,2.3,2.3,0,0,1-.836-1.816A2.364,2.364,0,0,1,71.2-4.461a5.174,5.174,0,0,1,2.953-.7h.813v-.445q0-1.164-1.008-1.164a.822.822,0,0,0-.937.922H70.383a2.364,2.364,0,0,1,1.043-1.992,4.379,4.379,0,0,1,2.66-.766,3.843,3.843,0,0,1,2.555.789A2.743,2.743,0,0,1,77.6-5.656v3.742a3.832,3.832,0,0,0,.359,1.781V0ZM73.68-1.719A1.469,1.469,0,0,0,74.5-1.93a1.322,1.322,0,0,0,.465-.477V-3.758H74.2q-1.375,0-1.375,1.234a.754.754,0,0,0,.242.582A.876.876,0,0,0,73.68-1.719Zm7.8-6.734.086.992a2.867,2.867,0,0,1,2.414-1.148,2.412,2.412,0,0,1,1.973.789,3.757,3.757,0,0,1,.676,2.375V0H83.984V-5.336a1.426,1.426,0,0,0-.258-.941,1.193,1.193,0,0,0-.937-.3,1.256,1.256,0,0,0-1.148.609V0H79.008V-8.453Zm10.18,6.578a1.171,1.171,0,0,0,.859-.3,1.1,1.1,0,0,0,.3-.84h2.469a2.922,2.922,0,0,1-1,2.281,3.705,3.705,0,0,1-2.566.891A3.751,3.751,0,0,1,88.813-1,4.556,4.556,0,0,1,87.75-4.2v-.109a5.149,5.149,0,0,1,.473-2.262,3.441,3.441,0,0,1,1.363-1.508A4.065,4.065,0,0,1,91.7-8.609a3.658,3.658,0,0,1,2.617.914,3.242,3.242,0,0,1,.969,2.477H92.813a1.445,1.445,0,0,0-.32-1.008,1.106,1.106,0,0,0-.859-.352q-1.023,0-1.2,1.3a9.206,9.206,0,0,0-.055,1.141,3.616,3.616,0,0,0,.3,1.766A1.055,1.055,0,0,0,91.656-1.875ZM99.172,0H96.531V-8.453h2.641Zm-2.8-10.633a1.175,1.175,0,0,1,.406-.922,1.533,1.533,0,0,1,1.055-.359,1.533,1.533,0,0,1,1.055.359,1.175,1.175,0,0,1,.406.922,1.175,1.175,0,0,1-.406.922,1.533,1.533,0,0,1-1.055.359,1.533,1.533,0,0,1-1.055-.359A1.175,1.175,0,0,1,96.375-10.633ZM104.883.156A4.345,4.345,0,0,1,101.734-1a4.006,4.006,0,0,1-1.2-3.02v-.219a5.191,5.191,0,0,1,.48-2.289,3.516,3.516,0,0,1,1.4-1.535,4.233,4.233,0,0,1,2.188-.543A3.659,3.659,0,0,1,107.414-7.5a4.344,4.344,0,0,1,1.031,3.082V-3.4h-5.234a1.9,1.9,0,0,0,.617,1.117,1.836,1.836,0,0,0,1.234.406,2.366,2.366,0,0,0,1.953-.875l1.2,1.422a3.363,3.363,0,0,1-1.395,1.082A4.713,4.713,0,0,1,104.883.156Zm-.3-6.734q-1.156,0-1.375,1.531h2.656v-.2a1.3,1.3,0,0,0-.32-.98A1.275,1.275,0,0,0,104.586-6.578Zm10.031.508-.867-.062a1.558,1.558,0,0,0-1.594.781V0h-2.633V-8.453h2.469l.086,1.086a2.039,2.039,0,0,1,1.852-1.242,2.567,2.567,0,0,1,.734.094Zm.336,1.766a4.989,4.989,0,0,1,.492-2.254,3.52,3.52,0,0,1,1.414-1.52,4.259,4.259,0,0,1,2.164-.531,3.887,3.887,0,0,1,2.992,1.176,4.512,4.512,0,0,1,1.094,3.2v.094A4.378,4.378,0,0,1,122.012-1a3.9,3.9,0,0,1-2.973,1.16,3.942,3.942,0,0,1-2.9-1.082,4.232,4.232,0,0,1-1.18-2.934Zm2.633.164a3.145,3.145,0,0,0,.367,1.719,1.223,1.223,0,0,0,1.086.547q1.406,0,1.438-2.164V-4.3q0-2.273-1.453-2.273-1.32,0-1.43,1.961ZM128.7-2.375a.608.608,0,0,0-.352-.539,5.348,5.348,0,0,0-1.336-.422,6.092,6.092,0,0,1-1.625-.574,2.722,2.722,0,0,1-.977-.863,2.061,2.061,0,0,1-.336-1.164,2.336,2.336,0,0,1,.961-1.918,3.958,3.958,0,0,1,2.516-.754,4.386,4.386,0,0,1,2.688.758,2.37,2.37,0,0,1,1.016,1.992h-2.641q0-1.016-1.07-1.016a1.061,1.061,0,0,0-.7.23.714.714,0,0,0-.281.574.655.655,0,0,0,.344.57,3.248,3.248,0,0,0,1.1.359,9.485,9.485,0,0,1,1.324.336,2.406,2.406,0,0,1,1.906,2.352A2.214,2.214,0,0,1,130.207-.57a4.505,4.505,0,0,1-2.66.727,4.6,4.6,0,0,1-1.937-.391A3.24,3.24,0,0,1,124.281-1.3a2.406,2.406,0,0,1-.477-1.414h2.461a1.017,1.017,0,0,0,.391.855,1.607,1.607,0,0,0,.961.27,1.264,1.264,0,0,0,.809-.219A.7.7,0,0,0,128.7-2.375Z" transform="translate(883.146 3522.241) rotate(60)" fill="#12263f"/></g></svg>