<svg xmlns="http://www.w3.org/2000/svg" width="107" height="107" viewBox="0 0 107 107"><g transform="translate(-319 -1682)"><g transform="translate(10)"><g transform="translate(69 395.258)"><rect width="107" height="107" transform="translate(240 1286.742)" fill="none"/></g><g transform="translate(250.018 1688)"><g transform="translate(88.795 1.453)"><path d="M170.875,48.719V40H144.719v8.719L136,66.156v49.406h43.594V66.156Z" transform="translate(-134.547 -34.188)" fill="#e2dbd5"/><path d="M136,261.95v16.384h43.594V238.9A42.479,42.479,0,0,1,136,261.95Z" transform="translate(-134.547 -196.959)" fill="#d9d1cc"/><circle cx="15.984" cy="15.984" r="15.984" transform="translate(7.266 37.781)" fill="#e08261"/><path d="M203.2,218.877a15.627,15.627,0,0,0,3.34,6.275l-3.491,5.03c-1.907,2.695,2.406,6.739,4.828,3.237l2.144-3.089a2.48,2.48,0,0,1,4.451.967l.959,5.315c.614,3.615,6.423,2.664,5.72-1.032l-.981-5.436A15.663,15.663,0,0,0,227.453,227,16.016,16.016,0,0,0,203.2,218.877Z" transform="translate(-189.029 -178.269)" fill="#f09b73"/><path d="M207.913,301.022a21.818,21.818,0,0,1-5.331-.661c-.271,2.491,3.207,5.053,5.287,2.045l.976-1.406C208.536,301.013,208.226,301.022,207.913,301.022Z" transform="translate(-189.022 -247.256)" fill="#e58b6c"/><path d="M267.76,262.646a2.541,2.541,0,0,1,.057.249l.959,5.315c.614,3.615,6.423,2.664,5.72-1.032l-.981-5.436A15.663,15.663,0,0,0,280.8,258.6a16.029,16.029,0,0,0-1.919-3.926A21.835,21.835,0,0,1,267.76,262.646Z" transform="translate(-242.374 -209.867)" fill="#e58b6c"/><circle cx="2.906" cy="2.906" r="2.906" transform="translate(18.891 39.507)" fill="#f2bba5"/><circle cx="1.453" cy="1.453" r="1.453" transform="translate(25.248 46.046)" fill="#f2bba5"/><path d="M192.719,353.687c0,3.009-1.952,4.844-4.359,4.844S184,356.7,184,353.687,188.359,344,188.359,344,192.719,350.678,192.719,353.687Z" transform="translate(-173.828 -282.969)" fill="#fff"/><path d="M128,456h46.5v8.719H128Z" transform="translate(-128 -374.625)" fill="#efebe8"/><path d="M199.969,13.812H168A7.674,7.674,0,0,1,175.445,8h17.08a7.674,7.674,0,0,1,7.445,5.813Z" transform="translate(-160.734 -8)" fill="#e2dbd5"/><path d="M278.5,8h-.511a13.731,13.731,0,0,1-4.929,5.812h12.885A7.674,7.674,0,0,0,278.5,8Z" transform="translate(-246.714 -8)" fill="#c4bcb7"/><path d="M315.787,464.719V456H306.8a17.34,17.34,0,0,1-6.154,8.719Z" transform="translate(-269.287 -374.625)" fill="#e2dbd5"/><g transform="translate(11.191 15.984)"><path d="M197.031,388.446a10.9,10.9,0,0,1-7.421,4.863,4.161,4.161,0,0,0,3.34,1.595c2.408,0,4.359-1.835,4.359-4.844A5.993,5.993,0,0,0,197.031,388.446Z" transform="translate(-189.61 -335.326)" fill="#efebe8"/><circle cx="3.633" cy="3.633" r="3.633" transform="translate(0.434)" fill="#efebe8"/><circle cx="2.18" cy="2.18" r="2.18" transform="translate(9.153 5.812)" fill="#efebe8"/></g></g><g transform="translate(80.094 0)"><path d="M189.725,213.174a17.441,17.441,0,0,0-28.472,18.939,1.454,1.454,0,0,0,2.69-1.1,14.515,14.515,0,0,1,3.653-16.237,17.191,17.191,0,0,0,2.239,3.92l-2.858,4.117c-2.979,4.183,3.771,9.985,7.208,4.906,2.845-4.1,1.991-2.861,2.156-3.106a1.011,1.011,0,0,1,1.816.413l.957,5.3c.8,5.31,9.68,3.949,8.583-1.534l-.727-4.026a17.452,17.452,0,0,0,4.7-1.923,14.523,14.523,0,0,1-6.7,15.065,1.453,1.453,0,0,0,1.513,2.481,17.463,17.463,0,0,0,3.24-27.215Zm-5.618,9.59a1.453,1.453,0,0,0-.252,1.108c.808,5.312,1.445,5.94.63,6.633-.731.622-2.286.627-2.508-.682l-.957-5.3a3.932,3.932,0,0,0-7.083-1.544c-1.919,2.554-2.314,3.9-3.307,3.814-.92-.078-1.921-1.4-1.273-2.314l3.491-5.029a1.453,1.453,0,0,0-.106-1.792,14.313,14.313,0,0,1-2.718-4.681,14.547,14.547,0,0,1,20.794,6.968C186.912,222.559,184.925,221.629,184.107,222.763Z" transform="translate(-145.442 -170.286)"/><path d="M180.6,336.658c-.47.721-4.6,7.137-4.6,10.482,0,8.382,11.625,8.41,11.625,0,0-3.345-4.125-9.761-4.6-10.482a1.453,1.453,0,0,0-2.434,0Zm-1.689,10.482c0-1.439,1.492-4.473,2.906-6.91,1.414,2.436,2.906,5.467,2.906,6.91C184.719,351.685,178.906,351.686,178.906,347.139Z" transform="translate(-158.58 -274.968)"/><path d="M140.906,23.639c-3.038-1.259-5,.776-9.208,2.245l-5.121-10.242V8.719c1-.089,1.944.279,2.6-.559a1.453,1.453,0,0,0,.264-1.247A9.113,9.113,0,0,0,120.585,0h-17.08a9.113,9.113,0,0,0-8.854,6.913,1.453,1.453,0,0,0,1.41,1.806h1.453v6.922L92.393,25.884c-4.2-1.465-6.17-3.5-9.208-2.245a5.006,5.006,0,0,0,.563,9.445L88.8,34.519V81.375a1.453,1.453,0,0,0-1.453,1.453v8.719A1.453,1.453,0,0,0,88.8,93h46.5a1.453,1.453,0,0,0,1.453-1.453V82.828a1.453,1.453,0,0,0-1.453-1.453V34.519c3.6-1.32,6.713-1.012,8.21-4.067a5,5,0,0,0-2.6-6.813Zm-37.4-20.733h17.08a6.211,6.211,0,0,1,5.266,2.906H98.239A6.212,6.212,0,0,1,103.506,2.906ZM84.541,30.287a2.094,2.094,0,0,1-.243-3.964c1.417-.587,2.191.4,6.793,2.164l-1.6,3.206Zm49.3,59.806H90.249V84.281h27.609a1.453,1.453,0,1,0,0-2.906H91.7v-46.5h4.359a1.453,1.453,0,0,0,0-2.906H92.6l7.266-14.531h2.008a1.453,1.453,0,0,0,0-2.906H100.42V8.719h23.25v5.812H113.5a1.453,1.453,0,1,0,0,2.906h10.727l7.266,14.531H107.686a1.453,1.453,0,0,0,0,2.906h24.7v46.5h-2.906a1.453,1.453,0,1,0,0,2.906h4.359Zm5.7-59.805L134.6,31.694,133,28.488c4.726-1.809,5.384-2.748,6.793-2.164a2.094,2.094,0,0,1-.246,3.964Z" transform="translate(-80.094 0)"/><circle cx="1.453" cy="1.453" r="1.453" transform="translate(26.139 14.531)"/><circle cx="1.453" cy="1.453" r="1.453" transform="translate(20.327 31.969)"/><circle cx="1.453" cy="1.453" r="1.453" transform="translate(42.123 81.375)"/><circle cx="1.453" cy="1.453" r="1.453" transform="translate(31.952 69.75)"/></g></g></g></g></svg>