<svg xmlns="http://www.w3.org/2000/svg" width="231.533" height="231.533" viewBox="0 0 231.533 231.533">
  <g id="Grupo_848031" data-name="Grupo 848031" transform="translate(-1051.725 -1205.061)">
    <circle id="Elipse_6718" data-name="Elipse 6718" cx="115.766" cy="115.766" r="115.766" transform="translate(1051.725 1205.061)" fill="#f5ead9"/>
    <g id="alta-calidad" transform="translate(1108.774 1247.594)">
      <path id="Trazado_565888" data-name="Trazado 565888" d="M66.734,45V71.179a3.547,3.547,0,0,1-5.607,2.888l-9.26-6.624-9.26,6.624A3.547,3.547,0,0,1,37,71.179V45Z" transform="translate(41.583 50.547)" fill="#ff854e"/>
      <path id="Trazado_565889" data-name="Trazado 565889" d="M81.691,40.494A40.35,40.35,0,1,0,1,41.663l.006,50.973a31.858,31.858,0,0,0,63.716,0,38.866,38.866,0,0,1,.573-6.626Z" transform="translate(1.118 0.788)" fill="#ede0b4"/>
      <path id="Trazado_565890" data-name="Trazado 565890" d="M68.4,40.617a21.9,21.9,0,0,0,.319-3.759A31.858,31.858,0,1,0,5,36.858V87.831a23.363,23.363,0,0,0,46.725,0,49.953,49.953,0,0,1,4.63-20.75Z" transform="translate(5.619 5.593)" fill="#ffce7e"/>
      <path id="Trazado_565891" data-name="Trazado 565891" d="M91.147,54.919a8.995,8.995,0,0,0-1.519,5.717c.021.232.021.444.021.675a8.92,8.92,0,0,1-5.082,8.056,9.024,9.024,0,0,0-4.2,4.2,8.92,8.92,0,0,1-8.056,5.082c-.452,0-.9-.042-1.351-.042A8.92,8.92,0,0,0,65.9,80.168a8.965,8.965,0,0,1-10.105-.021,8.988,8.988,0,0,0-5.715-1.519c-.232.021-.442.021-.675.021a8.92,8.92,0,0,1-8.056-5.082,9.024,9.024,0,0,0-4.2-4.2,8.92,8.92,0,0,1-5.082-8.056c0-.452.042-.9.042-1.351A8.92,8.92,0,0,0,30.548,54.9a8.963,8.963,0,0,1,.021-10.1,8.995,8.995,0,0,0,1.519-5.717c-.021-.231-.021-.442-.021-.675a8.92,8.92,0,0,1,5.082-8.056,9.024,9.024,0,0,0,4.2-4.2A8.92,8.92,0,0,1,49.4,21.067c.452,0,.9.042,1.351.042a8.92,8.92,0,0,0,5.061-1.561,8.965,8.965,0,0,1,10.105.021,8.988,8.988,0,0,0,5.715,1.519c.231-.021.442-.021.675-.021a8.92,8.92,0,0,1,8.056,5.082,9.024,9.024,0,0,0,4.2,4.2A8.92,8.92,0,0,1,89.649,38.4c0,.452-.042.9-.042,1.351a8.92,8.92,0,0,0,1.561,5.061,8.963,8.963,0,0,1-.021,10.1Z" transform="translate(32.592 20.203)" fill="#bbdeaf"/>
      <circle id="Elipse_6716" data-name="Elipse 6716" cx="21.239" cy="21.239" r="21.239" transform="translate(72.211 48.822)" fill="#ffd666"/>
      <circle id="Elipse_6717" data-name="Elipse 6717" cx="12.743" cy="12.743" r="12.743" transform="translate(29.734 25.46)" fill="#fbeec2"/>
      <g id="Grupo_841755" data-name="Grupo 841755" transform="translate(0 0.024)">
        <path id="Trazado_565892" data-name="Trazado 565892" d="M124.323,59.958a5.727,5.727,0,0,1,.019-.573c.013-.257.025-.518.025-.777a11,11,0,0,0-4.095-8.589,2.124,2.124,0,0,0-2.672,3.3,6.869,6.869,0,0,1,2.519,5.288c0,.191-.011.38-.019.571-.013.259-.025.518-.025.779A10.983,10.983,0,0,0,122,66.212a6.813,6.813,0,0,1-.015,7.71,11.163,11.163,0,0,0-1.882,7.126,4.288,4.288,0,0,1,.013.467,6.818,6.818,0,0,1-3.882,6.144,11.2,11.2,0,0,0-5.2,5.2,6.99,6.99,0,0,1-6.707,3.851A11.392,11.392,0,0,0,97.3,98.623a6.809,6.809,0,0,1-7.712-.015,11.208,11.208,0,0,0-7.123-1.882c-.161.015-.3.013-.467.013a6.818,6.818,0,0,1-6.144-3.882,11.2,11.2,0,0,0-5.2-5.2,6.8,6.8,0,0,1-3.87-6.136,5.7,5.7,0,0,1,.019-.571c.013-.259.025-.518.025-.779A10.982,10.982,0,0,0,64.9,73.918a6.813,6.813,0,0,1,.015-7.71,11.165,11.165,0,0,0,1.882-7.128,4.221,4.221,0,0,1-.013-.465,6.818,6.818,0,0,1,3.882-6.144,11.2,11.2,0,0,0,5.2-5.2A6.8,6.8,0,0,1,82,43.4a5.706,5.706,0,0,1,.571.019A11.433,11.433,0,0,0,89.6,41.508a6.813,6.813,0,0,1,7.71.015,11.138,11.138,0,0,0,7.126,1.882c.161-.015.3-.011.467-.013a6.8,6.8,0,0,1,6.136,3.87,2.125,2.125,0,1,0,3.842-1.818,11.076,11.076,0,0,0-9.982-6.3,7.194,7.194,0,0,0-.828.03A6.879,6.879,0,0,1,99.7,38.016,11.044,11.044,0,0,0,87.2,38a6.584,6.584,0,0,1-2.44,1A42.45,42.45,0,0,0,0,42.451V93.423a33.982,33.982,0,0,0,67.964,0c0-.792.051-1.578.1-2.366.248.144.491.3.752.425a6.875,6.875,0,0,1,3.2,3.186,10.972,10.972,0,0,0,4.441,4.791v22.267a5.664,5.664,0,0,0,8.967,4.617l8.024-5.734,8.022,5.734a5.671,5.671,0,0,0,8.969-4.617V99.462a10.944,10.944,0,0,0,4.433-4.764,6.875,6.875,0,0,1,3.186-3.2,11.076,11.076,0,0,0,6.3-9.982,7.193,7.193,0,0,0-.03-.828,6.869,6.869,0,0,1,1.158-4.367,11.044,11.044,0,0,0,.015-12.505,6.76,6.76,0,0,1-1.179-3.857ZM68.832,48.629a11.076,11.076,0,0,0-6.3,9.982,8.282,8.282,0,0,0,.03.828,6.869,6.869,0,0,1-1.158,4.367,11.029,11.029,0,0,0-1.65,8.674,51.4,51.4,0,0,0-4.534,20.943,21.239,21.239,0,0,1-42.477,0V42.451a29.734,29.734,0,0,1,59.468,0,19.687,19.687,0,0,1-.248,3.086,6.883,6.883,0,0,1-3.131,3.092ZM33.982,123.158A29.766,29.766,0,0,1,4.248,93.423V42.451a38.2,38.2,0,0,1,76.277-3.2,11.106,11.106,0,0,0-4.154,1.457A33.959,33.959,0,0,0,8.5,42.451V93.423a25.486,25.486,0,1,0,50.973,0A45.805,45.805,0,0,1,62.185,77.9a6.841,6.841,0,0,1,.393,2.26,5.707,5.707,0,0,1-.019.573c-.013.257-.025.518-.025.777A11.063,11.063,0,0,0,64.2,87.336a40.635,40.635,0,0,0-.486,6.087,29.766,29.766,0,0,1-29.734,29.734Zm72.211-1.431a1.4,1.4,0,0,1-.775,1.274,1.378,1.378,0,0,1-1.472-.108l-9.26-6.624a2.124,2.124,0,0,0-2.472,0l-9.262,6.626a1.383,1.383,0,0,1-1.47.106,1.4,1.4,0,0,1-.775-1.274V100.885a10.833,10.833,0,0,0,1.289.093,7.194,7.194,0,0,0,.828-.03,6.913,6.913,0,0,1,4.367,1.158,11.044,11.044,0,0,0,12.505.015,7.206,7.206,0,0,1,4.43-1.168c.257.013.518.025.777.025a10.834,10.834,0,0,0,1.289-.093Z" transform="translate(0 -0.024)" fill="#373737"/>
        <path id="Trazado_565893" data-name="Trazado 565893" d="M56.363,22A23.363,23.363,0,1,0,79.725,45.363,23.363,23.363,0,0,0,56.363,22Zm0,42.477A19.115,19.115,0,1,1,75.477,45.363,19.115,19.115,0,0,1,56.363,64.477Z" transform="translate(37.088 24.675)" fill="#373737"/>
        <path id="Trazado_565894" data-name="Trazado 565894" d="M27.867,11A14.867,14.867,0,1,0,42.734,25.867,14.867,14.867,0,0,0,27.867,11Zm0,25.486A10.619,10.619,0,1,1,38.486,25.867,10.619,10.619,0,0,1,27.867,36.486Z" transform="translate(14.61 12.312)" fill="#373737"/>
        <path id="Trazado_565895" data-name="Trazado 565895" d="M56.416,28.85,45.142,43.882l-2.517-2.517a2.124,2.124,0,1,0-3,3l4.248,4.248a2.124,2.124,0,0,0,1.5.622h.151a2.124,2.124,0,0,0,1.548-.85L59.814,31.4a2.124,2.124,0,1,0-3.4-2.549Z" transform="translate(43.831 31.418)" fill="#373737"/>
        <path id="Trazado_565896" data-name="Trazado 565896" d="M12.3,27.357a2.124,2.124,0,1,0-2.357,3.534L35.432,47.882a2.124,2.124,0,1,0,2.357-3.534Z" transform="translate(10.115 30.294)" fill="#373737"/>
        <path id="Trazado_565897" data-name="Trazado 565897" d="M12.3,33.357a2.124,2.124,0,0,0-2.357,3.534L33.308,52.465a2.124,2.124,0,0,0,2.357-3.534Z" transform="translate(10.115 37.037)" fill="#373737"/>
        <path id="Trazado_565898" data-name="Trazado 565898" d="M12.3,39.357a2.124,2.124,0,1,0-2.357,3.534l21.239,14.16a2.124,2.124,0,1,0,2.357-3.534Z" transform="translate(10.115 43.78)" fill="#373737"/>
      </g>
    </g>
  </g>
</svg>
