<svg xmlns="http://www.w3.org/2000/svg" xmlns:xlink="http://www.w3.org/1999/xlink" width="294.983" height="287.593" viewBox="0 0 294.983 287.593">
  <defs>
    <clipPath id="clip-path">
      <rect id="Rectángulo_279186" data-name="Rectángulo 279186" width="257.236" height="271.528" fill="none"/>
    </clipPath>
    <clipPath id="clip-path-3">
      <rect id="Rectángulo_279182" data-name="Rectángulo 279182" width="0.216" height="0.024" fill="none"/>
    </clipPath>
    <clipPath id="clip-path-4">
      <rect id="Rectángulo_279183" data-name="Rectángulo 279183" width="0.123" height="0.158" fill="none"/>
    </clipPath>
    <clipPath id="clip-path-5">
      <rect id="Rectángulo_279184" data-name="Rectángulo 279184" width="0.082" height="0.108" fill="none"/>
    </clipPath>
  </defs>
  <g id="Grupo_848034" data-name="Grupo 848034" transform="translate(-1003 -819)">
    <circle id="Elipse_6715" data-name="Elipse 6715" cx="131.766" cy="131.766" r="131.766" transform="translate(1034.45 843.061)" fill="#f5ead9"/>
    <g id="Grupo_841754" data-name="Grupo 841754" transform="translate(1003 819)">
      <g id="Grupo_841753" data-name="Grupo 841753" clip-path="url(#clip-path)">
        <g id="Grupo_841752" data-name="Grupo 841752">
          <g id="Grupo_841751" data-name="Grupo 841751" clip-path="url(#clip-path)">
            <path id="Trazado_565814" data-name="Trazado 565814" d="M160.932,227.617c8.344-13.127,32.048-6.108,22.519,2.787-12.865,12.008-52.644,10.984-77.06,7.329-6.326-.947-8.146-12-8.814-17.52-2.691-22.27,1.4-41.237,2.24-63.652-14.615,19.2-23.932,38.617-40.545,33.716C46.339,186.463,32.88,162.229,26.8,114.744c5.412-1.131,10.448-8.577,17.43-17.153,8.079,11.959,16.144,34.694,23.158,50.869,8.222-9.454,21.975-40.846,44.212-48.505,15.59-5.369,67.8-.234,76.868,2.011,32.986,8.162,54.5,66.455,60.886,85.149,18.715,54.8-40.676,48.283-76.361,38.977-2.19-5.47-6.87,4.485-12.065,1.524" transform="translate(3.733 13.593)" fill="#fff"/>
            <path id="Trazado_565815" data-name="Trazado 565815" d="M139.978,240.851a238.833,238.833,0,0,1-33.6-2.46c-4.821-.722-7.955-6.79-9.315-18.036-1.8-14.87-.595-28.123.678-42.155.575-6.342,1.168-12.883,1.48-19.691-2.224,2.974-4.326,5.936-6.369,8.814-5.276,7.436-10.26,14.46-15.532,18.962-5.929,5.064-11.694,6.535-18.141,4.633C52.227,188.868,45.595,181.36,40,169.207c-6.215-13.5-10.828-31.775-13.712-54.316a.6.6,0,0,1,.467-.656c4.32-.9,8.514-6.183,13.823-12.867,1.047-1.318,2.129-2.681,3.267-4.08a.594.594,0,0,1,.952.043c5.939,8.792,11.737,23.046,17.345,36.831,1.909,4.694,3.721,9.145,5.486,13.251,2-2.481,4.349-6.172,7.025-10.381C83.2,123.589,94.9,105.179,111.484,99.467c15.567-5.361,68.031-.273,77.2,2,30.5,7.547,51.5,56.829,61.3,85.533,5.51,16.133,4.663,28.234-2.516,35.966-6.374,6.863-17.643,10.238-33.5,10.025a159.284,159.284,0,0,1-28.834-3.41,10.228,10.228,0,0,1-1.211,1.333c-8.156,7.613-26.216,9.941-43.95,9.941M99.89,156.039a.586.586,0,0,1,.2.035.593.593,0,0,1,.392.58c-.28,7.526-.932,14.708-1.562,21.653-1.267,13.968-2.463,27.159-.681,41.905,1.287,10.651,4.084,16.373,8.312,17.005a224.943,224.943,0,0,0,42.742,2.2c16.509-.89,28.206-4.133,33.827-9.379a9.707,9.707,0,0,0,.712-.736c-4-.839-7.7-1.729-10.912-2.568a.593.593,0,0,1-.4-.353c-.289-.725-.627-1.15-1-1.263-.725-.22-1.89.58-3.123,1.425-2.142,1.469-4.807,3.3-7.684,1.657a.592.592,0,0,1-.206-.833c4.149-6.528,11.826-8.051,17.136-7.371,4.411.564,7.666,2.51,8.495,5.078a4.437,4.437,0,0,1-.322,3.412c19.729,3.939,48.588,6.808,60.795-6.336,6.858-7.387,7.62-19.087,2.261-34.774-6.077-17.793-12.947-33.412-20.421-46.421-12.635-21.994-26.108-34.9-40.046-38.344-9.107-2.254-61.142-7.328-76.532-2.026-16.192,5.577-27.764,23.785-36.215,37.079a105.941,105.941,0,0,1-7.743,11.253.594.594,0,0,1-.992-.153c-1.89-4.359-3.827-9.12-5.878-14.159C55.6,121.227,49.977,107.4,44.259,98.664c-.95,1.175-1.863,2.324-2.75,3.442-5.252,6.614-9.442,11.89-13.976,13.161,2.836,21.875,7.516,40.348,13.546,53.444,5.447,11.834,11.821,19.12,18.435,21.07,13.185,3.891,21.651-8.04,32.369-23.143,2.395-3.375,4.872-6.864,7.535-10.363a.593.593,0,0,1,.472-.235M173.5,225.665c3.045.79,6.837,1.7,11.1,2.578a3.41,3.41,0,0,0,.409-2.8c-.674-2.094-3.625-3.769-7.516-4.266-4.81-.615-11.682.685-15.609,6.27,2.022.745,3.961-.587,5.843-1.878,1.539-1.055,2.864-1.968,4.138-1.581a2.773,2.773,0,0,1,1.638,1.677" transform="translate(3.661 13.521)" fill="#006c62"/>
            <path id="Trazado_565816" data-name="Trazado 565816" d="M123.937,73.024a191.974,191.974,0,0,1-1.212,33.1,5.669,5.669,0,0,0,.1,2.735,5.118,5.118,0,0,0,1.859,2.094c5.22,3.92,9.725,14.6,16.172,13.575s14.625-14.112,15.9-21.029c-1.768-9.2-4.97-22.1-6.978-36.777a212.672,212.672,0,0,1-25.845,6.3" transform="translate(17.078 9.293)" fill="#fff"/>
            <path id="Trazado_565817" data-name="Trazado 565817" d="M140.051,125.263c-4.059,0-7.281-4.081-10.4-8.039A32.527,32.527,0,0,0,124.4,111.5a5.679,5.679,0,0,1-2.055-2.355,6.148,6.148,0,0,1-.14-3.021,191.939,191.939,0,0,0,1.209-33,.6.6,0,0,1,.477-.612,209.638,209.638,0,0,0,25.773-6.284.592.592,0,0,1,.774.483c1.42,10.377,3.475,20.034,5.125,27.794.685,3.222,1.333,6.265,1.848,8.951a.6.6,0,0,1,0,.22c-1.348,7.321-9.785,20.454-16.387,21.507a6.249,6.249,0,0,1-.976.077M124.626,73.579a193.128,193.128,0,0,1-1.24,32.69,5.189,5.189,0,0,0,.068,2.448,4.666,4.666,0,0,0,1.661,1.834,33.2,33.2,0,0,1,5.462,5.938c3.157,4,6.421,8.135,10.263,7.524,6.026-.962,14.062-13.571,15.388-20.441-.51-2.649-1.15-5.647-1.824-8.819-1.617-7.6-3.621-17.023-5.041-27.175a212.43,212.43,0,0,1-24.737,6" transform="translate(17.005 9.221)"/>
            <path id="Trazado_565818" data-name="Trazado 565818" d="M136.937,181.064a.2.2,0,0,1-.167-.092c-3.312-5.261-6.846-10.477-10.5-15.5a.2.2,0,1,1,.32-.232c3.663,5.031,7.2,10.254,10.519,15.523a.2.2,0,0,1-.063.272.185.185,0,0,1-.1.031" transform="translate(17.582 23.004)"/>
            <path id="Trazado_565819" data-name="Trazado 565819" d="M135.3,183.849a.2.2,0,0,1-.158-.079c-3.262-4.361-6.5-8.835-9.611-13.3a.2.2,0,0,1,.325-.227c3.114,4.458,6.345,8.927,9.6,13.284a.2.2,0,0,1-.04.277.193.193,0,0,1-.118.04" transform="translate(17.479 23.702)"/>
            <path id="Trazado_565820" data-name="Trazado 565820" d="M133.362,187.073a.2.2,0,0,1-.165-.09l-5.139-7.906a.2.2,0,0,1,.332-.215l5.138,7.906a.2.2,0,0,1-.165.305" transform="translate(17.832 24.901)"/>
            <path id="Trazado_565821" data-name="Trazado 565821" d="M200.99,229.087l-26.118-79.07-60.145,19.789L140.5,250.038Z" transform="translate(15.98 20.895)" fill="#ffd63d"/>
            <path id="Trazado_565822" data-name="Trazado 565822" d="M140.574,250.7a.582.582,0,0,1-.264-.063.593.593,0,0,1-.3-.349L114.235,170.06a.592.592,0,0,1,.378-.744l60.146-19.791a.6.6,0,0,1,.749.377l26.117,79.07a.591.591,0,0,1-.368.746l-60.488,20.953a.6.6,0,0,1-.195.033m-25.03-80.446,25.41,79.094,59.363-20.562-25.749-77.952Z" transform="translate(15.907 20.823)" fill="#006c62"/>
            <path id="Trazado_565823" data-name="Trazado 565823" d="M147.9,186.171c-11.748-1-18.477-3.061-28.241-2.1-2.485.244-6.7.565-6.521,4.5.1,2.227,3.786,1.924,6.682,2.541-1.653.173-2.991,2.355-2.71,4.419s2.118,3.558,3.722,3.024a4.121,4.121,0,0,0-.643,4.179,2.539,2.539,0,0,0,3.121,1.61,3.632,3.632,0,0,0,1.053,3.794,6.181,6.181,0,0,0,3.3,1.2c8.393,1.262,13.919-1.99,25.012-1.99,1.159,0,2.027-1.175,2.891-2.053,2.248-2.283,3.288-5.916,4.228-9.362a23.727,23.727,0,0,0,1.167-7.06c-.13-3.559-10.544-2.49-13.064-2.706" transform="translate(15.758 25.604)" fill="#fff"/>
            <path id="Trazado_565824" data-name="Trazado 565824" d="M131.652,210.3a26.613,26.613,0,0,1-4-.3,6.726,6.726,0,0,1-3.6-1.338,4.434,4.434,0,0,1-1.432-3.512,3.3,3.3,0,0,1-2.9-2.107,4.906,4.906,0,0,1,.058-3.746,3.273,3.273,0,0,1-1.213-.466,4.406,4.406,0,0,1-1.966-3.144,5.08,5.08,0,0,1,1.02-3.753,4.334,4.334,0,0,1,.4-.445l-.494-.062c-2.364-.292-4.809-.594-4.906-2.754-.2-4.414,4.412-4.864,6.888-5.105l.169-.016c6.554-.644,11.831.066,17.941.891,3.184.43,6.479.873,10.407,1.209.5.042,1.371.031,2.382.018,4.422-.055,11.1-.139,11.224,3.257a24.352,24.352,0,0,1-1.188,7.238c-.869,3.188-1.95,7.157-4.376,9.621-.139.14-.277.288-.417.439-.784.84-1.672,1.791-2.9,1.791a68.057,68.057,0,0,0-12.427,1.289,49.574,49.574,0,0,1-8.672.995m-8.27-6.473a.594.594,0,0,1,.553.81,3.034,3.034,0,0,0,.889,3.128,5.6,5.6,0,0,0,3,1.063c4.461.67,8.092.039,12.3-.692a69.068,69.068,0,0,1,12.63-1.306c.71,0,1.381-.719,2.03-1.414.147-.158.293-.314.437-.461,2.208-2.244,3.246-6.046,4.079-9.1a23.137,23.137,0,0,0,1.146-6.882c-.081-2.239-6.8-2.156-10.022-2.115-1.088.015-1.946.025-2.5-.023-3.958-.338-7.415-.8-10.465-1.216-6.035-.813-11.247-1.516-17.666-.884l-.17.016c-3.143.306-5.954.834-5.818,3.87.049,1.081,1.494,1.338,3.867,1.63.778.1,1.584.195,2.347.358a.593.593,0,0,1-.062,1.17,2.151,2.151,0,0,0-1.407.89,3.926,3.926,0,0,0-.778,2.86,3.26,3.26,0,0,0,1.42,2.3,1.8,1.8,0,0,0,1.528.244.594.594,0,0,1,.616.973,3.523,3.523,0,0,0-.526,3.535,1.972,1.972,0,0,0,2.359,1.291.587.587,0,0,1,.215-.041" transform="translate(15.685 25.532)" fill="#006c62"/>
            <path id="Trazado_565825" data-name="Trazado 565825" d="M212.19,220.243s-6.373,4.87-38.965-3.067c-24.838-6.05-31.431-6.107-31.431-6.107a72.332,72.332,0,0,0,2.108-12.945,96.621,96.621,0,0,0-.327-13.209s40.775.076,53.57-3,15.2-4.719,15.2-4.719Z" transform="translate(19.75 24.681)" fill="#fff"/>
            <path id="Trazado_565826" data-name="Trazado 565826" d="M201.292,221.807c-6.7,0-16.514-.922-29.691-4.4-12.209-3.218-29.648-5.9-29.822-5.925a.593.593,0,0,1-.467-.792c.01-.027,1.069-3,1.982-11.845s-.211-13.921-.222-13.971a.592.592,0,0,1,.578-.725h.01c.5.009,49.873.818,61.81-5.655a.593.593,0,0,1,.565,1.042c-11.544,6.262-55.224,5.9-61.667,5.81a52.542,52.542,0,0,1,.107,13.621,73.858,73.858,0,0,1-1.839,11.448c3.346.529,18.369,2.971,29.268,5.846,27.072,7.138,40.055,3.281,40.183,3.241a.593.593,0,0,1,.354,1.132c-.277.087-3.886,1.169-11.149,1.169" transform="translate(19.678 24.852)" fill="#006c62"/>
            <path id="Trazado_565827" data-name="Trazado 565827" d="M176.83,181.671a.592.592,0,0,1-.594-.587l-.374-35.493a.591.591,0,0,1,.587-.6.6.6,0,0,1,.6.587l.374,35.493a.592.592,0,0,1-.587.6Z" transform="translate(24.496 20.196)" fill="#006c62"/>
            <path id="Trazado_565828" data-name="Trazado 565828" d="M189.638,185.462a.593.593,0,0,1-.556-.386,135.119,135.119,0,0,0-12.8-25.911.593.593,0,1,1,1-.633,136.339,136.339,0,0,1,12.908,26.13.592.592,0,0,1-.349.763.574.574,0,0,1-.207.038" transform="translate(24.541 22.043)" fill="#006c62"/>
            <path id="Trazado_565829" data-name="Trazado 565829" d="M90.919,153.143h-.026a.594.594,0,0,1-.567-.619,89.685,89.685,0,0,1,2.732-18.365.593.593,0,1,1,1.15.3,88.361,88.361,0,0,0-2.7,18.122.593.593,0,0,1-.592.567" transform="translate(12.581 18.625)" fill="#006c62"/>
            <path id="Trazado_565830" data-name="Trazado 565830" d="M176.707,32.855a244.656,244.656,0,0,1-7.958,26.565,66.612,66.612,0,0,1-7.918,15.264,9.516,9.516,0,0,1-5.358,4.13c.057-2.29-2.214-3.63-2.38-5.927-.2-2.825,1.8-5.12.346-7.736A40.892,40.892,0,0,1,148.4,49.444c-.452-4.417-.076-8.989,2.326-12.816a14.622,14.622,0,0,1,12.465-6.659c4.056.084,10.583.058,13.52,2.886" transform="translate(20.647 4.174)" fill="#12263f"/>
            <path id="Trazado_565831" data-name="Trazado 565831" d="M155.545,79.48a.594.594,0,0,1-.594-.608,4.935,4.935,0,0,0-1.08-2.732,6.612,6.612,0,0,1-1.3-3.138,10.162,10.162,0,0,1,.467-3.369c.383-1.478.713-2.754-.049-4.12a41.275,41.275,0,0,1-5.114-15.936c-.554-5.408.236-9.723,2.414-13.192a15.225,15.225,0,0,1,12.98-6.937l.638.013c4.112.077,10.325.195,13.281,3.04a.593.593,0,0,1,.164.567,244.115,244.115,0,0,1-7.975,26.624A67.061,67.061,0,0,1,161.388,75.1a10.086,10.086,0,0,1-5.641,4.345.584.584,0,0,1-.2.036m7.428-48.848A13.994,13.994,0,0,0,151.3,37.015c-2.032,3.238-2.764,7.306-2.239,12.44a40.1,40.1,0,0,0,4.971,15.481c.992,1.781.57,3.414.161,4.995a9.266,9.266,0,0,0-.433,2.986,5.628,5.628,0,0,0,1.114,2.583,7.307,7.307,0,0,1,1.2,2.549,8.761,8.761,0,0,0,4.35-3.634,65.826,65.826,0,0,0,7.845-15.121,242.852,242.852,0,0,0,7.855-26.163c-2.731-2.3-8.424-2.412-12.231-2.484l-.64-.013-.273,0" transform="translate(20.574 4.101)"/>
            <path id="Trazado_565832" data-name="Trazado 565832" d="M116.773,41.606c-.689,7.493-3.26,14.7-4.381,22.136s-.623,15.526,4.261,22.037c4.3,5.732,11.887,9.667,19.726,10.23s15.715-2.263,20.479-7.344c4.48-4.778,6.84-16.276,8.25-22,3.373,1.032,7.361.517,9.791-1.556a5.87,5.87,0,0,0,.869-8.209c-2.071-2.511-5.062-3.289-9-.565a54.463,54.463,0,0,0,.733-11.732c-.149-5.969.993-14.63-2.7-17.7-2.093-1.739-6.758-3.669-9.368-4.768-4.51-1.9-11.46.125-16.365-.6s-10.262.888-14.571,2.759c-5.156,2.241-7.2,11.7-7.721,17.308" transform="translate(15.585 2.967)" fill="#fff"/>
            <path id="Trazado_565833" data-name="Trazado 565833" d="M138.44,96.746q-1.015,0-2.032-.073c-8.023-.575-15.747-4.586-20.157-10.465-4.288-5.716-5.759-13.28-4.373-22.48.492-3.266,1.271-6.527,2.025-9.682a89.22,89.22,0,0,0,2.351-12.422c.229-2.485,1.692-15.024,8.075-17.8,5.7-2.478,10.716-3.42,14.9-2.8a32.212,32.212,0,0,0,6.625-.039c3.485-.244,7.091-.5,9.882.68l.292.122c2.672,1.124,7.142,3,9.227,4.736,3.147,2.614,3.034,8.753,2.935,14.17-.026,1.41-.05,2.742-.019,3.97l0,.148a57.513,57.513,0,0,1-.515,10.4c3.342-1.83,6.377-1.356,8.643,1.39a6.433,6.433,0,0,1-.942,9.039c-2.361,2.014-6.209,2.724-9.743,1.84-.1.422-.21.869-.321,1.339-1.514,6.341-3.8,15.926-7.927,20.327-4.481,4.779-11.591,7.6-18.922,7.6m-1.807-74.719A30.343,30.343,0,0,0,124.8,24.915c-4.474,1.944-6.765,10.274-7.366,16.818a90.237,90.237,0,0,1-2.38,12.588c-.747,3.13-1.521,6.366-2.005,9.583-1.339,8.875.057,16.139,4.148,21.592,4.21,5.613,11.6,9.442,19.294,9.994s15.347-2.191,20-7.157c3.911-4.172,6.244-13.949,7.639-19.792.166-.7.322-1.35.468-1.94a.592.592,0,0,1,.749-.426c3.322,1.016,7.032.437,9.232-1.44a5.254,5.254,0,0,0,.8-7.38c-2.137-2.59-4.9-2.743-8.2-.455a.593.593,0,0,1-.919-.6,53.374,53.374,0,0,0,.725-11.454l0-.148c-.032-1.253-.007-2.6.019-4.022.093-5.15.2-10.987-2.508-13.236-1.948-1.619-6.317-3.457-8.927-4.555l-.293-.123c-2.531-1.065-5.993-.824-9.339-.589a33.524,33.524,0,0,1-6.881.028,16.59,16.59,0,0,0-2.418-.171M116.845,41.679h0Z" transform="translate(15.513 2.895)" fill="#006c62"/>
            <path id="Trazado_565834" data-name="Trazado 565834" d="M141.838,35.564c-1.026,3.248-6.586,7.47-9.848,7.512s-4.342-1.557-5.366-4.778c-3.1,2.291-5.478,4.7-8.5,5.552-4.627,1.306-9.913-1.99-10.975-6.843s2.3-10.325,6.987-11.364c-3.123.461-5.9-2.91-5.671-6.194s2.791-6.05,5.741-7.239,6.219-1.068,9.428-1.244c-.911-3.286.94-6.977,3.756-8.782A12.776,12.776,0,0,1,136.941.889,11.485,11.485,0,0,1,142.7,3.711a7.584,7.584,0,0,1,2.2,6.262c3.155-3.329,7.948-5.332,12.173-3.913s7.015,6.99,7.017,10.655c2.331-2.4,5.267-4.276,8.488-3.815,6.39.916,7.353,6.51,3.838,13.288a7.432,7.432,0,0,1,9.716,5.659c.881,3.811-1,9.585-3.833,12.254s-12.137,4.337-18.09-.777a17.17,17.17,0,0,1-5.413-9.769c-2.168,3.069-3.743,5.172-8.591,6.3-3.536.825-7.5-.907-8.368-4.292" transform="translate(14.896 0.072)" fill="#12263f"/>
            <path id="Trazado_565835" data-name="Trazado 565835" d="M173.88,47.307a15.18,15.18,0,0,1-9.984-3.461,17.152,17.152,0,0,1-5.3-8.822,12.339,12.339,0,0,1-8.187,5.482,7.679,7.679,0,0,1-8.545-3.365c-1.882,3.195-6.678,6.561-9.8,6.6h-.132c-3.2,0-4.52-1.546-5.541-4.4-.526.4-1.033.807-1.529,1.2-2.122,1.687-4.125,3.28-6.516,3.953a9.163,9.163,0,0,1-7.147-1.086,9.761,9.761,0,0,1-4.567-6.2,10.64,10.64,0,0,1,5.184-11.219,5.71,5.71,0,0,1-1.7-1.1,6.9,6.9,0,0,1-2.183-5.406c.263-3.755,3.259-6.6,6.111-7.748a23.02,23.02,0,0,1,7.838-1.208c.361-.014.722-.027,1.082-.043a9.1,9.1,0,0,1,4.165-8.722,13.307,13.307,0,0,1,10-1.375,12,12,0,0,1,6.051,2.979,8.181,8.181,0,0,1,2.416,5.251c3.524-3.1,7.994-4.3,11.73-3.043,3.923,1.316,6.781,5.982,7.327,9.911,2.688-2.438,5.4-3.479,8.073-3.1s4.626,1.6,5.612,3.52c1.216,2.363.942,5.68-.753,9.437a7.883,7.883,0,0,1,4.992.819,8.334,8.334,0,0,1,4.2,5.624c.914,3.958-.957,9.948-4,12.819-1.571,1.481-5.045,2.7-8.9,2.7M158.87,33.032a.574.574,0,0,1,.116.011.594.594,0,0,1,.463.453,16.74,16.74,0,0,0,5.221,9.448c5.576,4.792,14.553,3.38,17.3.8s4.479-8.148,3.661-11.689a7.169,7.169,0,0,0-3.6-4.842,6.517,6.517,0,0,0-5.327-.4.594.594,0,0,1-.742-.826c2.019-3.892,2.492-7.279,1.33-9.538-.816-1.585-2.405-2.557-4.726-2.888-2.58-.37-5.268.854-7.977,3.641a.593.593,0,0,1-1.019-.412c0-3.29-2.52-8.721-6.612-10.094-3.686-1.236-8.22.239-11.555,3.76a.593.593,0,0,1-1.019-.483,7.024,7.024,0,0,0-2.029-5.764,10.845,10.845,0,0,0-5.465-2.665,12.151,12.151,0,0,0-9.113,1.213c-2.787,1.785-4.294,5.278-3.506,8.124a.592.592,0,0,1-.539.751c-.6.033-1.2.055-1.8.077a21.8,21.8,0,0,0-7.441,1.123c-2.509,1.013-5.144,3.486-5.371,6.731a5.686,5.686,0,0,0,1.806,4.452,3.85,3.85,0,0,0,3.187,1.113.594.594,0,0,1,.215,1.167c-4.349.964-7.525,6.144-6.536,10.659a8.569,8.569,0,0,0,4.019,5.436,7.976,7.976,0,0,0,6.215.962c2.16-.61,3.985-2.06,6.1-3.74.705-.561,1.436-1.142,2.214-1.717a.593.593,0,0,1,.918.3c.957,3.008,1.868,4.366,4.677,4.366h.117c3.041-.039,8.337-4.087,9.29-7.1a.575.575,0,0,1,.582-.415.594.594,0,0,1,.558.447c.815,3.187,4.618,4.571,7.658,3.861,4.736-1.1,6.207-3.185,8.242-6.068a.592.592,0,0,1,.484-.251" transform="translate(14.824 0)"/>
            <path id="Trazado_565836" data-name="Trazado 565836" d="M119.866,49.784a1.781,1.781,0,1,1,1.818,1.643,1.734,1.734,0,0,1-1.818-1.643" transform="translate(16.696 6.693)" fill="#006c62"/>
            <path id="Trazado_565837" data-name="Trazado 565837" d="M142.433,53.525a1.781,1.781,0,1,1,1.818,1.643,1.735,1.735,0,0,1-1.818-1.643" transform="translate(19.839 7.214)" fill="#006c62"/>
            <path id="Trazado_565838" data-name="Trazado 565838" d="M135.422,77.613a9.011,9.011,0,0,1-3.06-.527.594.594,0,0,1,.4-1.117,8.18,8.18,0,0,0,8.352-1.815.593.593,0,1,1,.829.848,9.385,9.385,0,0,1-6.525,2.611" transform="translate(18.382 10.305)" fill="#006c62"/>
            <path id="Trazado_565839" data-name="Trazado 565839" d="M132.818,71.512a10.537,10.537,0,0,1-4.4-1.065,4.715,4.715,0,0,1-1.922-1.416,3.884,3.884,0,0,1-.4-3.435,10.968,10.968,0,0,1,1.234-2.478l.212-.349a32.13,32.13,0,0,0,4.467-13.812.593.593,0,1,1,1.181.1,33.326,33.326,0,0,1-4.631,14.325l-.216.355a9.845,9.845,0,0,0-1.112,2.2,2.757,2.757,0,0,0,.228,2.393,3.644,3.644,0,0,0,1.458,1.036,8.987,8.987,0,0,0,4.337.941,5.284,5.284,0,0,0,3.76-1.8.593.593,0,1,1,.923.746,6.406,6.406,0,0,1-4.606,2.239c-.169.01-.338.017-.51.017" transform="translate(17.533 6.743)" fill="#006c62"/>
            <path id="Trazado_565840" data-name="Trazado 565840" d="M159.3,56.666a.619.619,0,0,1-.15-.019.593.593,0,0,1-.424-.725c.422-1.61.619-2.48.975-4.059a.593.593,0,1,1,1.158.262c-.36,1.592-.558,2.469-.985,4.1a.593.593,0,0,1-.573.443" transform="translate(22.105 7.159)"/>
            <path id="Trazado_565841" data-name="Trazado 565841" d="M152.6,69.107a13.659,13.659,0,0,1-6.317-1.559,10.856,10.856,0,0,1-5.592-6.6,20.4,20.4,0,0,1-.572-3.972,21.868,21.868,0,0,0-.427-3.345c-.514-2.183-2.143-4.383-4.243-4.343s-3.624,2.2-4.368,4.213c-.2.551-.388,1.137-.567,1.7a12.607,12.607,0,0,1-2.43,4.993c-1.874,2.029-4.723,2.576-6.786,2.676a11.174,11.174,0,0,1-6.975-1.674c-3.707-2.578-4.473-7.492-4.9-11.9-.164-1.687-.388-4,.656-5.868.939-1.682,3.065-2.336,6.5-2a436.284,436.284,0,0,1,46.563,7.126c1.725.361,3.42.9,4.14,2.426a4.892,4.892,0,0,1,.257,2.743c-.843,6.857-5.253,12.777-10.972,14.732a12.325,12.325,0,0,1-3.969.64m-17.1-21c2.824,0,4.75,2.716,5.347,5.259a23.062,23.062,0,0,1,.456,3.525,19.331,19.331,0,0,0,.531,3.743,9.683,9.683,0,0,0,5,5.868,12.083,12.083,0,0,0,9.35.845c5.3-1.81,9.39-7.337,10.18-13.753a3.879,3.879,0,0,0-.153-2.091c-.5-1.054-1.886-1.474-3.311-1.773a435.408,435.408,0,0,0-46.436-7.107c-2.874-.283-4.676.188-5.35,1.4-.8,1.429-.7,3.189-.512,5.176.4,4.139,1.105,8.747,4.4,11.036a10.034,10.034,0,0,0,6.24,1.464c1.841-.091,4.37-.563,5.972-2.3a11.553,11.553,0,0,0,2.17-4.546c.182-.58.371-1.179.586-1.758.427-1.158,2.084-4.937,5.463-4.989h.068" transform="translate(15.221 5.76)" fill="#006c62"/>
            <path id="Trazado_565842" data-name="Trazado 565842" d="M117.144,97.665c5.229,21.406,13.593,49.2,17.485,58.9,0,0,29.979-56.019,29.17-56.433-2.43,0-4.483-.61-6.264-.5-8.878,9.6-15.974,14.174-21.076,14.06-4.947-.112-9.768-7.034-12.752-16.095-2.645,0-4.589.074-6.563.074" transform="translate(16.317 13.593)" fill="#bbdeaf"/>
            <path id="Trazado_565843" data-name="Trazado 565843" d="M134.7,157.227h-.032a.593.593,0,0,1-.518-.371c-3.744-9.331-12.029-36.535-17.511-58.975a.593.593,0,0,1,.576-.734c.911,0,1.817-.016,2.788-.033,1.155-.021,2.351-.042,3.776-.042a.594.594,0,0,1,.564.408c3.1,9.433,7.894,15.59,12.2,15.687l.172,0c4.989,0,12.056-4.791,20.455-13.872a.6.6,0,0,1,.4-.189,16.2,16.2,0,0,1,3.053.221,24.053,24.053,0,0,0,3.246.279.589.589,0,0,1,.271.066.64.64,0,0,1,.308.368c.13.414.306.98-14.493,29.108-7.258,13.8-14.658,27.628-14.732,27.766a.593.593,0,0,1-.523.313m-16.729-58.9c5.25,21.355,12.941,46.755,16.814,56.891,10.874-20.337,26.359-49.691,28.311-54.447-.943-.044-1.829-.163-2.629-.27a17.833,17.833,0,0,0-2.591-.222c-8.673,9.339-15.789,14.072-21.157,14.072-.067,0-.134,0-.2,0-4.823-.108-9.848-6.263-13.164-16.094-1.23,0-2.295.023-3.328.041-.71.013-1.385.024-2.053.03" transform="translate(16.244 13.521)" fill="#006c62"/>
            <path id="Trazado_565844" data-name="Trazado 565844" d="M131.444,163.93a.552.552,0,0,1-.074,0,.592.592,0,0,1-.515-.662l.235-1.876a108.968,108.968,0,0,0,1.037-11.986.593.593,0,1,1,1.186.046,110.239,110.239,0,0,1-1.046,12.089l-.235,1.875a.593.593,0,0,1-.588.52" transform="translate(18.226 20.73)"/>
            <path id="Trazado_565845" data-name="Trazado 565845" d="M126.254,91.215c-6.824,2.448-16.146,5.5-21.3,10.6,3.755,1.1,10.144,2.641,13.663,4.473a60.133,60.133,0,0,0-9.171,10.017,2.861,2.861,0,0,0-.007,4.371c4.927,5.94,9.965,10.806,14.083,17.335,5.446,8.635,11.092,11.915,12.807,19.44,0-10.828-6.113-21.579-7.778-28.884-5.879-25.812-3.072-31.81-2.295-37.348" transform="translate(14.619 12.705)" fill="#fff"/>
            <path id="Trazado_565846" data-name="Trazado 565846" d="M136.4,158.115a.594.594,0,0,1-.579-.463c-1.022-4.485-3.454-7.38-6.534-11.044a71.975,71.975,0,0,1-6.2-8.211,92.206,92.206,0,0,0-9.486-12.013c-1.49-1.686-3.033-3.429-4.551-5.26a4.276,4.276,0,0,1-1.114-2.086,4.388,4.388,0,0,1,1.1-3.013,60.856,60.856,0,0,1,8.591-9.523,75.076,75.076,0,0,0-10.086-3.291c-.978-.271-1.89-.524-2.684-.756a.594.594,0,0,1-.251-.991c4.865-4.808,13.228-7.782,19.948-10.173q.8-.285,1.571-.561a.594.594,0,0,1,.788.641c-.107.763-.252,1.535-.406,2.351-.941,5.013-2.364,12.588,2.692,34.782a71.48,71.48,0,0,0,2.8,8.426c2.341,6.249,4.995,13.332,4.995,20.59a.592.592,0,0,1-.527.589.43.43,0,0,1-.066,0m-30.2-56.512c.524.148,1.082.3,1.665.464,3.684,1.021,8.271,2.29,11.1,3.765a.594.594,0,0,1,.116.974,59.5,59.5,0,0,0-9.08,9.916,2.311,2.311,0,0,0-.031,3.645c1.506,1.816,3.042,3.552,4.526,5.232a93.324,93.324,0,0,1,9.6,12.165,70.877,70.877,0,0,0,6.1,8.081,38.018,38.018,0,0,1,5.317,7.433c-.746-5.578-2.783-11.016-4.624-15.931a72.423,72.423,0,0,1-2.844-8.579c-5.111-22.435-3.661-30.156-2.7-35.264.084-.453.167-.892.242-1.32l-.632.226c-6.267,2.228-13.988,4.975-18.758,9.194" transform="translate(14.546 12.633)" fill="#006c62"/>
            <path id="Trazado_565847" data-name="Trazado 565847" d="M153.552,91.215c6.824,2.448,13.939,5.938,19.1,11.035a59.951,59.951,0,0,0-11.029,4.034c11.086,9.647,9.081,8.128,2.309,14.9-2.723,2.723-29.722,28.739-31.436,36.264,0-10.828,9.507-20.687,14.8-36.264,6.225-18.308,9.895-24.288,6.258-29.969" transform="translate(18.454 12.705)" fill="#fff"/>
            <path id="Trazado_565848" data-name="Trazado 565848" d="M132.565,158.113a.661.661,0,0,1-.067,0,.592.592,0,0,1-.526-.589c0-6.423,3.233-12.45,6.977-19.427a111.421,111.421,0,0,0,7.858-17.028c1.3-3.836,2.487-7.107,3.532-9.994,3.893-10.764,5.505-15.22,2.788-19.465a.593.593,0,0,1,.7-.878c8.343,2.994,14.84,6.753,19.312,11.172a.593.593,0,0,1-.25.991,64.637,64.637,0,0,0-10.141,3.6c5.455,4.757,7.366,6.577,7.389,8.407.018,1.445-1.162,2.526-3.117,4.317-.762.7-1.627,1.49-2.6,2.462-.224.224-.612.606-1.136,1.121-23.644,23.239-29.441,31.782-30.142,34.855a.593.593,0,0,1-.578.461m22.321-65.728c1.9,4.355.1,9.334-3.433,19.091-1.042,2.88-2.224,6.146-3.524,9.971a112.253,112.253,0,0,1-7.936,17.207c-2.988,5.57-5.645,10.521-6.526,15.477,3.59-5.98,13.3-16.768,28.986-32.181.521-.512.906-.891,1.129-1.113.99-.99,1.865-1.792,2.636-2.5,1.711-1.567,2.743-2.513,2.731-3.427-.017-1.408-2.357-3.5-7.648-8.107a.592.592,0,0,1,.116-.973,55.934,55.934,0,0,1,10.152-3.789c-4.041-3.74-9.643-6.983-16.684-9.657" transform="translate(18.382 12.633)" fill="#006c62"/>
            <path id="Trazado_565849" data-name="Trazado 565849" d="M110.14,33.244a.2.2,0,0,1-.191-.147,7.582,7.582,0,0,1,1.228-6.4.2.2,0,1,1,.317.235A7.282,7.282,0,0,0,110.332,33a.2.2,0,0,1-.191.248" transform="translate(15.28 3.707)"/>
            <path id="Trazado_565850" data-name="Trazado 565850" d="M112.866,32.821a.2.2,0,0,1-.179-.116,3.968,3.968,0,0,1,0-3.218.2.2,0,0,1,.361.163,3.577,3.577,0,0,0,0,2.893.2.2,0,0,1-.1.262.2.2,0,0,1-.081.017" transform="translate(15.648 4.091)"/>
            <path id="Trazado_565851" data-name="Trazado 565851" d="M111.461,19.813a.2.2,0,0,1-.145-.063,3.466,3.466,0,0,1,.875-5.2.2.2,0,1,1,.185.35,3.074,3.074,0,0,0-.77,4.583.2.2,0,0,1-.009.279.2.2,0,0,1-.136.054" transform="translate(15.392 2.023)"/>
            <path id="Trazado_565852" data-name="Trazado 565852" d="M163.295,59.388A.2.2,0,0,1,163.23,59a4.352,4.352,0,0,0,1.67-.89,2.757,2.757,0,0,0,.557-.882,3.156,3.156,0,0,0,.206-1.924,2.053,2.053,0,0,0-1.156-1.424.2.2,0,0,1,.148-.367,2.444,2.444,0,0,1,1.391,1.7,3.523,3.523,0,0,1-.226,2.169,3.128,3.128,0,0,1-.64,1.007,4.614,4.614,0,0,1-1.819.984.188.188,0,0,1-.066.011" transform="translate(22.718 7.452)"/>
            <path id="Trazado_565853" data-name="Trazado 565853" d="M170.825,37.641a.2.2,0,0,1-.147-.065.2.2,0,0,1,.015-.279,7.31,7.31,0,0,0,2.332-6.018.2.2,0,0,1,.178-.216.2.2,0,0,1,.216.178,7.712,7.712,0,0,1-2.462,6.349.2.2,0,0,1-.132.051" transform="translate(23.766 4.327)"/>
            <path id="Trazado_565854" data-name="Trazado 565854" d="M145.952,206.611a.238.238,0,0,1-.049-.006.2.2,0,0,1-.142-.242,62,62,0,0,0,1.78-10.929.2.2,0,0,1,.394.028,62.343,62.343,0,0,1-1.791,11,.2.2,0,0,1-.191.149" transform="translate(20.302 27.196)"/>
            <path id="Trazado_565855" data-name="Trazado 565855" d="M148.5,206.838a.177.177,0,0,1-.042,0,.2.2,0,0,1-.152-.236l1.069-4.864a.2.2,0,0,1,.236-.15.2.2,0,0,1,.15.235l-1.069,4.865a.2.2,0,0,1-.193.155" transform="translate(20.657 28.077)"/>
            <path id="Trazado_565856" data-name="Trazado 565856" d="M130.96,167.557a.2.2,0,0,1-.066-.385l27.808-9.637a.2.2,0,0,1,.13.374l-27.807,9.638a.226.226,0,0,1-.065.01" transform="translate(18.213 21.941)"/>
            <path id="Trazado_565857" data-name="Trazado 565857" d="M137.031,118.14a13.788,13.788,0,0,1-7.863-2.774c-2.664-1.9-4.284-4.7-6.707-9.111a.2.2,0,0,1,.079-.269.2.2,0,0,1,.268.079c2.627,4.785,4.133,7.231,6.59,8.98a12.811,12.811,0,0,0,8.7,2.641c3.63-.409,6.459-2.709,9.453-5.145a40.21,40.21,0,0,1,4.842-3.552.2.2,0,0,1,.2.342,39.726,39.726,0,0,0-4.793,3.518c-2.906,2.364-5.913,4.808-9.658,5.23a9.956,9.956,0,0,1-1.11.062" transform="translate(17.054 14.759)"/>
            <path id="Trazado_565858" data-name="Trazado 565858" d="M18.684,101.084c-.03-1.6,2.115-2.76,2.056-4.36q-.152-4.178-.44-8.35c.162-.1.308-.261.473-.261.157-1.458.1-4.166,1.431-5.063,1.211.042,3.512,1.077,4.775.911a11.357,11.357,0,0,0,1.439-.234c.306-.08.613-.147.918-.208h.022a.738.738,0,0,0,.284-.059c.076-.014.154-.031.23-.044,1.024-.187,2.046-.33,3.07-.516a.835.835,0,0,0,.6-.4c.006,0,.213.234.22.234.684.382,2.446,2.827,4.9,7.249a61.833,61.833,0,0,1,4.918,11c-2.51,3.221-3.879,4.791-6.7,8.16a32.5,32.5,0,0,1-6.063,5.824c-1.38-5.292-7.547-7.487-11.338-10.5-.01-.8-.77-2.585-.785-3.383" transform="translate(2.602 11.491)" fill="#fff"/>
            <path id="Trazado_565859" data-name="Trazado 565859" d="M30.11,87.675a7.71,7.71,0,0,0-4.671-2.69,19.7,19.7,0,0,1-3.409-.49,2.552,2.552,0,0,1-1.88-2.587,2.7,2.7,0,0,1,1.316-1.694,9.684,9.684,0,0,1,5.543-1.078,10.454,10.454,0,0,1,3.5.546,9,9,0,0,1,2.649,1.725,3.953,3.953,0,0,1,1.2,1.547,4.139,4.139,0,0,1-.24,2.706,4.6,4.6,0,0,1-1.524,2.388,1.865,1.865,0,0,1-2.478-.373" transform="translate(2.803 11.021)" fill="#fff"/>
            <g id="Grupo_841744" data-name="Grupo 841744" transform="translate(23.094 106.533)" opacity="0.129">
              <g id="Grupo_841743" data-name="Grupo 841743">
                <g id="Grupo_841742" data-name="Grupo 841742" clip-path="url(#clip-path-3)">
                  <path id="Trazado_565860" data-name="Trazado 565860" d="M20.485,93.508h-.008c-.229.025-.325.035.008,0" transform="translate(-20.27 -93.508)"/>
                </g>
              </g>
            </g>
            <g id="Grupo_841747" data-name="Grupo 841747" transform="translate(32.115 103.175)" opacity="0.129">
              <g id="Grupo_841746" data-name="Grupo 841746">
                <g id="Grupo_841745" data-name="Grupo 841745" clip-path="url(#clip-path-4)">
                  <path id="Trazado_565861" data-name="Trazado 565861" d="M28.189,90.719c.046-.062.1-.131.123-.158l-.123.158" transform="translate(-28.189 -90.561)"/>
                </g>
              </g>
            </g>
            <g id="Grupo_841750" data-name="Grupo 841750" transform="translate(32.033 103.333)" opacity="0.129">
              <g id="Grupo_841749" data-name="Grupo 841749">
                <g id="Grupo_841748" data-name="Grupo 841748" clip-path="url(#clip-path-5)">
                  <path id="Trazado_565862" data-name="Trazado 565862" d="M28.122,90.8l.077-.1c-.054.072-.1.132-.077.1" transform="translate(-28.117 -90.7)"/>
                </g>
              </g>
            </g>
            <path id="Trazado_565863" data-name="Trazado 565863" d="M19.81,102.523c-.9-.261-.394.329-1.2-.142a4.113,4.113,0,0,1-1.85-2.056,2.623,2.623,0,0,1,.455-2.669c.8-.839,3.9-6.264,5.039-6.2A8.937,8.937,0,0,1,27.73,94.4c.521.512,0,4.011.011,4.751a1.557,1.557,0,0,1-.493,1.036,3.808,3.808,0,0,1-3.013,1.2c-.483-.034-.956-.164-1.44-.169a4.147,4.147,0,0,1-1.61-.15c-1.246-.611-1.848-1.268-1.374,1.463" transform="translate(2.31 12.739)" fill="#fff"/>
            <path id="Trazado_565864" data-name="Trazado 565864" d="M19.493,97.858a11.443,11.443,0,0,1-2.609-1.006,4.123,4.123,0,0,1-1.85-2.056,2.625,2.625,0,0,1,.455-2.669,4.037,4.037,0,0,1,3.241-.794,24.436,24.436,0,0,1,5.781.906c.694.214,1.494.64,1.506,1.381a1.555,1.555,0,0,1-.493,1.036c-.768.824-1.269,1.793-2.378,1.713-.482-.035-4.779.123-3.653,1.49" transform="translate(2.07 12.718)" fill="#fff"/>
            <path id="Trazado_565865" data-name="Trazado 565865" d="M15.055,93.354a7.987,7.987,0,0,1-2.6-2.885,3.72,3.72,0,0,1,.914-3.125c.8-.84,3.484-.949,4.627-.882a24.432,24.432,0,0,1,5.678,1.429c.695.214,1.811.025,2.734,1.4.219.325,1.572,1.685.974,2.984-.472,1.023-4.86-.51-5.97-.565-4.983-.246-5.554,2.12-6.362,1.649" transform="translate(1.722 12.041)" fill="#fff"/>
            <path id="Trazado_565866" data-name="Trazado 565866" d="M15,88.55c-.677.663-3.711-1.964-4.231-2.755-1.013-1.532-1.056-3-.4-3.689.8-.839,4.3-1.265,5.445-1.2,1.95.115,4.107,1.146,5.977,1.723.693.214,1.912.612,1.925,1.352.006.392,3.293,2.388,3.025,2.674-.768.824,1,2.8-3.819,1.577-.469-.12-6.125-1.442-7.92.316" transform="translate(1.383 11.269)" fill="#fff"/>
            <path id="Trazado_565867" data-name="Trazado 565867" d="M24.9,84.3c-2.153-1.069-7.561-1.544-6.894-3.744.34-1.118,2.9-1.939,4.047-1.871,1.953.115,4.834-.807,6.7-.23.694.214,4.191,1.916,4.2,2.656.007.393,2.555,2.734,2.289,3.02-.768.824-3.192,4.972-4.3,4.892-.483-.035-2.771-3.1-6.048-4.723" transform="translate(2.5 10.901)" fill="#fff"/>
            <path id="Trazado_565868" data-name="Trazado 565868" d="M31.186,114.115a.593.593,0,0,1-.594-.594c0-4.054-6.6-7.79-8.918-8.779-1.3-.557-4.706-2.989-5.429-4.386a3.212,3.212,0,0,1,.741-4.047c1.377-1.061,3.168-1,4.738-.86,1.393.124,6.01.68,6.913,2.62a1.937,1.937,0,0,1-.291,2.017c-1.384,1.978-5.508,1.064-7.724.573-.2-.043-.375-.083-.531-.116a.593.593,0,1,1,.244-1.161c.16.034.342.074.543.12,1.666.368,5.565,1.233,6.5-.1.346-.494.231-.743.188-.836-.45-.965-3.33-1.707-5.943-1.939-1.408-.126-2.871-.182-3.91.619a2.071,2.071,0,0,0-.411,2.561c.53,1.023,3.631,3.322,4.843,3.841.1.041,9.638,4.188,9.638,9.871a.593.593,0,0,1-.594.594" transform="translate(2.207 13.284)" fill="#006c62"/>
            <path id="Trazado_565869" data-name="Trazado 565869" d="M15.471,94.16a.607.607,0,0,1-.234-.048,5.428,5.428,0,0,1-3.458-4.564,3.281,3.281,0,0,1,2.085-3.072c2.207-1,7.762-.1,10.429,1,2.547,1.049,4.082,3.108,4.062,4.121a1.549,1.549,0,0,1-.788,1.259,3.734,3.734,0,0,1-3.059.341.593.593,0,0,1,.468-1.09,2.6,2.6,0,0,0,1.948-.247c.073-.048.243-.169.245-.286a5.644,5.644,0,0,0-3.328-3c-2.684-1.106-7.767-1.8-9.486-1.015a2.092,2.092,0,0,0-1.39,1.978A4.284,4.284,0,0,0,15.7,93.021a.593.593,0,0,1-.234,1.138" transform="translate(1.641 11.984)" fill="#006c62"/>
            <path id="Trazado_565870" data-name="Trazado 565870" d="M27.006,98.512a.593.593,0,0,1-.028-1.186c.226-.035,1.194-.565,1.207-1.168a1.973,1.973,0,0,0-.576-1.243,9.06,9.06,0,0,0-3.586-2.4,10.248,10.248,0,0,0-6.338-.608,3.345,3.345,0,0,0-2.241,2.228c-.293,1.312.769,2.49,1.712,3.248a.594.594,0,0,1-.744.925c-2.183-1.755-2.361-3.379-2.126-4.432A4.533,4.533,0,0,1,17.4,90.753a11.431,11.431,0,0,1,7.07.664,10.183,10.183,0,0,1,4.041,2.734,3.06,3.06,0,0,1,.856,2.03c-.028,1.358-1.655,2.3-2.336,2.329h-.028" transform="translate(1.979 12.601)" fill="#006c62"/>
            <path id="Trazado_565871" data-name="Trazado 565871" d="M43.894,102.646a.593.593,0,0,1-.558-.393,86.373,86.373,0,0,0-6.7-15l-.218-.4c-1.5-2.759-2.658-4.209-5.535-5.5-6.7-3-8.506-2.435-9.96-1.981-.122.038-.24.075-.36.109-1.217.355-1.78.96-1.891,1.372a.563.563,0,0,0,.161.573A7.24,7.24,0,0,0,22.7,83.1a8.551,8.551,0,0,1,4.224,1.79c.557.526,1.009.949,1.383,1.3a11.852,11.852,0,0,1,2.914,3.433l.252.4a.593.593,0,1,1-1,.633l-.253-.4a10.919,10.919,0,0,0-2.721-3.2c-.375-.35-.828-.774-1.388-1.3a7.582,7.582,0,0,0-3.67-1.495,8.205,8.205,0,0,1-4.473-2.014,1.735,1.735,0,0,1-.443-1.7,3.66,3.66,0,0,1,2.7-2.2c.112-.033.224-.068.338-.1,1.645-.513,3.691-1.151,10.8,2.031,3.168,1.418,4.489,3.069,6.092,6.011l.216.4a87.333,87.333,0,0,1,6.774,15.167.593.593,0,0,1-.358.759.586.586,0,0,1-.2.035" transform="translate(2.432 10.839)" fill="#006c62"/>
            <path id="Trazado_565872" data-name="Trazado 565872" d="M23.064,88.9a3.194,3.194,0,0,1-1.171-.245.593.593,0,0,1,.436-1.1,1.508,1.508,0,0,0,1.16.076,1.4,1.4,0,0,0,.665-.78c.387-1.023-1-2.084-1.874-2.549l-.5-.268a23.24,23.24,0,0,0-5.561-2.371c-1.554-.355-4.778-.343-5.552,1.285-.628,1.322.473,2.5,1.863,3.789a10.675,10.675,0,0,1,.9.9.593.593,0,1,1-.913.758,10.148,10.148,0,0,0-.792-.785c-1.266-1.176-3.179-2.953-2.126-5.168,1.095-2.3,4.807-2.407,6.887-1.932a24.126,24.126,0,0,1,5.854,2.48l.5.265c1.518.8,3.064,2.339,2.428,4.018a2.543,2.543,0,0,1-1.3,1.445,2.225,2.225,0,0,1-.9.187" transform="translate(1.294 11.182)" fill="#006c62"/>
            <path id="Trazado_565873" data-name="Trazado 565873" d="M28.783,115.011a.2.2,0,0,1-.022-.394,8.05,8.05,0,0,0,4.54-2.092.2.2,0,0,1,.269.291,8.458,8.458,0,0,1-4.764,2.194h-.023" transform="translate(3.982 15.666)"/>
            <path id="Trazado_565874" data-name="Trazado 565874" d="M29.334,117.614a.2.2,0,0,1-.01-.4,4.5,4.5,0,0,0,2.126-.668.2.2,0,0,1,.272.064.2.2,0,0,1-.064.272,4.892,4.892,0,0,1-2.314.727h-.01" transform="translate(4.058 16.23)"/>
            <path id="Trazado_565875" data-name="Trazado 565875" d="M8.113,43.857a.6.6,0,0,1-.579-.464c-.508-2.276-1.477-6.533-2.446-10.788S3.149,24.091,2.641,21.813A.593.593,0,1,1,3.8,21.555c.508,2.276,1.478,6.532,2.446,10.788s1.939,8.515,2.448,10.792a.593.593,0,0,1-.45.708.561.561,0,0,1-.13.015" transform="translate(0.366 2.938)" fill="#006c62"/>
            <path id="Trazado_565876" data-name="Trazado 565876" d="M5.19,48.45c-.5-2.339-1.136-5.325-1.633-7.664-.027-.13,7.846-1.922,8.4-1.691.264.111,1.3,4.524,1.59,7.839A19.631,19.631,0,0,1,5.19,48.45" transform="translate(0.495 5.443)" fill="#ffd63d"/>
            <path id="Trazado_565877" data-name="Trazado 565877" d="M5.847,49.12q-.3,0-.6-.007a.592.592,0,0,1-.567-.469L3.049,40.979a.611.611,0,0,1,.205-.587c.287-.238,8.163-2.125,9-1.774.273.114.509.212,1.136,3.141a45.479,45.479,0,0,1,.818,5.193.592.592,0,0,1-.365.6,20.088,20.088,0,0,1-8,1.568m-.1-1.187a18.813,18.813,0,0,0,7.246-1.314,41.344,41.344,0,0,0-1.327-6.876c-1.226.1-5.849,1.1-7.343,1.5Zm5.83-8.406Z" transform="translate(0.423 5.373)" fill="#006c62"/>
            <path id="Trazado_565878" data-name="Trazado 565878" d="M18.987,43.811C20.6,51.141,22.268,60.25,24.266,68.4q1.622,6.617,3.246,13.233a127.048,127.048,0,0,1-18.935,4C6.286,73.023,3.033,59.245.521,47.837c6.334-1.691,10.927-2.611,18.466-4.026" transform="translate(0.073 6.102)" fill="#fff"/>
            <path id="Trazado_565879" data-name="Trazado 565879" d="M8.648,86.291a.593.593,0,0,1-.582-.488C6.3,76.119,3.937,65.57,1.849,56.263c-.637-2.839-1.255-5.6-1.834-8.226a.593.593,0,0,1,.426-.7C6.555,45.705,10.905,44.81,18.95,43.3a.592.592,0,0,1,.689.456c.6,2.718,1.2,5.646,1.831,8.745,1.077,5.265,2.19,10.708,3.445,15.827l3.246,13.233a.593.593,0,0,1-.409.71,127.563,127.563,0,0,1-19.02,4.015.666.666,0,0,1-.083.006M1.3,48.337C1.839,50.8,2.414,53.365,3.006,56,5.057,65.142,7.377,75.476,9.13,85.03a126.007,126.007,0,0,0,17.743-3.738L23.762,68.611c-1.261-5.14-2.377-10.6-3.454-15.871-.59-2.882-1.148-5.616-1.7-8.166-7.418,1.4-11.655,2.271-17.308,3.764" transform="translate(0 6.03)" fill="#006c62"/>
            <path id="Trazado_565880" data-name="Trazado 565880" d="M6.207,53.084a.2.2,0,0,1-.042-.391c1.634-.36,3.663-.752,5.71-1.1a.2.2,0,1,1,.067.39c-2.043.351-4.064.742-5.693,1.1a.177.177,0,0,1-.042,0" transform="translate(0.837 7.185)"/>
            <path id="Trazado_565881" data-name="Trazado 565881" d="M7.314,58.108a.2.2,0,0,1-.042-.391c1.635-.36,3.663-.752,5.71-1.1a.2.2,0,1,1,.067.39c-2.042.351-4.064.742-5.693,1.1a.177.177,0,0,1-.042,0" transform="translate(0.991 7.885)"/>
            <path id="Trazado_565882" data-name="Trazado 565882" d="M8.42,63.132a.2.2,0,0,1-.042-.391c1.639-.361,3.667-.753,5.71-1.1a.2.2,0,1,1,.067.39c-2.037.35-4.058.741-5.693,1.1a.177.177,0,0,1-.042,0" transform="translate(1.145 8.585)"/>
            <path id="Trazado_565883" data-name="Trazado 565883" d="M9.58,68.4a.2.2,0,0,1-.042-.391c1.635-.36,3.663-.752,5.71-1.1a.2.2,0,1,1,.067.39c-2.042.351-4.064.742-5.693,1.1a.177.177,0,0,1-.042,0" transform="translate(1.307 9.319)"/>
            <path id="Trazado_565884" data-name="Trazado 565884" d="M10.74,73.67a.2.2,0,0,1-.042-.391c1.635-.36,3.663-.752,5.71-1.1a.2.2,0,1,1,.067.39c-2.042.351-4.064.742-5.693,1.1a.177.177,0,0,1-.042,0" transform="translate(1.468 10.053)"/>
            <path id="Trazado_565885" data-name="Trazado 565885" d="M16.962,82.043a.594.594,0,0,1-.572-.436l-.629-2.287a.593.593,0,1,1,1.144-.314l.629,2.287a.594.594,0,0,1-.572.751" transform="translate(2.192 10.944)"/>
            <path id="Trazado_565886" data-name="Trazado 565886" d="M24.025,106.2a.593.593,0,0,1-.571-.433l-1.541-5.474a.594.594,0,0,1,1.143-.321l1.539,5.474a.591.591,0,0,1-.409.731.558.558,0,0,1-.161.023" transform="translate(3.049 13.865)" fill="#006c62"/>
            <path id="Trazado_565887" data-name="Trazado 565887" d="M17.883,107.87a.593.593,0,0,1-.159-1.164c4.483-1.258,9.053-2.472,13.581-3.612a.593.593,0,1,1,.289,1.151c-4.518,1.136-9.078,2.348-13.551,3.6a.6.6,0,0,1-.161.022" transform="translate(2.408 14.357)" fill="#006c62"/>
          </g>
        </g>
      </g>
    </g>
  </g>
</svg>
