<svg xmlns="http://www.w3.org/2000/svg" width="107" height="107" viewBox="0 0 107 107"><g transform="translate(-215 -3175)"><g transform="translate(-104 106)"><g transform="translate(79 1782.258)"><rect width="107" height="107" transform="translate(240 1286.742)" fill="none"/></g><g transform="translate(327.551 3074.472)"><g transform="translate(1.317 5.056)"><g transform="translate(47.305)"><path d="M291.507,12.523l-1.429,2.157a10.306,10.306,0,0,1-3.154,3.063l-10.006,6.213,11.917,6.061,5.469-6.836a10.733,10.733,0,0,0,2.352-6.7v-2.4a2.808,2.808,0,0,0-5.149-1.551Z" transform="translate(-276.918 -11.26)" fill="#ffd15b"/></g><g transform="translate(20.221 0)"><path d="M132.4,17.744a10.3,10.3,0,0,1-3.155-3.063l-1.429-2.157a2.808,2.808,0,0,0-5.149,1.551v2.4a10.733,10.733,0,0,0,2.352,6.7l12.858-2.037Z" transform="translate(-122.663 -11.261)" fill="#ffd15b"/></g><g transform="translate(47.305 7.128)"><path d="M288.836,63.486l5.459-6.823a20.994,20.994,0,0,0-8.41-4.805l-8.966,5.568Z" transform="translate(-276.919 -51.858)" fill="#ffc344"/></g><g transform="translate(22.583 7.128)"><path d="M153.494,57.426l-8.966-5.568a20.994,20.994,0,0,0-8.41,4.805l5.459,6.823Z" transform="translate(-136.118 -51.858)" fill="#ffc344"/></g><g transform="translate(62.333 14.465)"><path d="M362.51,105.1l10.638,3.761a10.786,10.786,0,0,0,10.55-1.926l2.049-1.729a4.769,4.769,0,0,0,0-7.289L383.7,96.187a10.786,10.786,0,0,0-10.55-1.926L362.51,98.022Z" transform="translate(-362.51 -93.645)" fill="#f4aa73"/></g><g transform="translate(62.333 14.465)"><path d="M383.964,100.905l3.477.656a4.746,4.746,0,0,0-1.694-3.645L383.7,96.188a10.786,10.786,0,0,0-10.55-1.926L362.51,98.023v5.029l6.457-1.659A34.52,34.52,0,0,1,383.964,100.905Z" transform="translate(-362.51 -93.646)" fill="#919090"/></g><g transform="translate(62.333 14.466)"><path d="M373.74,96.348l5.9-2.085q.174-.062.349-.117a10.781,10.781,0,0,0-6.839.117l-10.638,3.761v5.029l6.457-1.659c.081-.021.164-.039.245-.06A7.111,7.111,0,0,1,373.74,96.348Z" transform="translate(-362.509 -93.647)" fill="#848383"/></g><g transform="translate(0 14.465)"><path d="M32.431,105.1,21.793,108.86a10.786,10.786,0,0,1-10.55-1.926l-2.049-1.729a4.769,4.769,0,0,1,0-7.289l2.049-1.729a10.786,10.786,0,0,1,10.55-1.926l10.638,3.761Z" transform="translate(-7.5 -93.645)" fill="#f4aa73"/></g><g transform="translate(0 14.465)"><path d="M10.977,100.905l-3.477.656a4.746,4.746,0,0,1,1.693-3.645l2.049-1.729a10.786,10.786,0,0,1,10.55-1.926l10.638,3.761v5.029l-6.457-1.659A34.52,34.52,0,0,0,10.977,100.905Z" transform="translate(-7.5 -93.646)" fill="#919090"/></g><g transform="translate(0 14.466)"><path d="M15.6,97.92l2.049-1.729A10.774,10.774,0,0,1,21.4,94.136a10.786,10.786,0,0,0-10.157,2.056L9.194,97.92A4.746,4.746,0,0,0,7.5,101.565l3.477-.656q1.518-.287,3.052-.434A4.733,4.733,0,0,1,15.6,97.92Z" transform="translate(-7.501 -93.649)" fill="#848383"/></g><g transform="translate(17.091 10.218)"><path d="M151.946,133.405a28.37,28.37,0,0,1,1.223-14.9l2.695-7.416a34.214,34.214,0,0,0,.961-20.273l-2.23-8.6A17.035,17.035,0,0,0,138.1,69.455H124.653a17.035,17.035,0,0,0-16.49,12.759l-2.23,8.6a34.215,34.215,0,0,0,.961,20.273l2.695,7.416a28.372,28.372,0,0,1,1.223,14.9,9.951,9.951,0,0,0,9.782,11.78h21.571A9.952,9.952,0,0,0,151.946,133.405Z" transform="translate(-104.837 -69.455)" fill="#f7f5f5"/></g><g transform="translate(17.091 10.218)"><path d="M116.449,133.405a28.37,28.37,0,0,0-1.223-14.9l-2.695-7.416a34.215,34.215,0,0,1-.961-20.273l2.23-8.6a17.035,17.035,0,0,1,16.49-12.759h-5.638a17.035,17.035,0,0,0-16.49,12.759l-2.23,8.6a34.215,34.215,0,0,0,.961,20.273l2.695,7.416a28.372,28.372,0,0,1,1.223,14.9,9.951,9.951,0,0,0,9.782,11.78h5.638A9.951,9.951,0,0,1,116.449,133.405Z" transform="translate(-104.837 -69.455)" fill="#f0e9e9"/></g><g transform="translate(22.892 64.253)"><path d="M179.186,387.118l-.018-.1A11.908,11.908,0,0,0,167.48,377.2H149.757a11.908,11.908,0,0,0-11.688,9.817l-.018.1a9.951,9.951,0,0,0,9.782,11.78H169.4A9.952,9.952,0,0,0,179.186,387.118Z" transform="translate(-137.879 -377.203)" fill="#f4aa73"/></g><g transform="translate(22.892 64.253)"><path d="M142.85,387.118l.018-.1a11.908,11.908,0,0,1,11.688-9.817h-4.8a11.908,11.908,0,0,0-11.688,9.817l-.018.1a9.951,9.951,0,0,0,9.782,11.78h4.8A9.951,9.951,0,0,1,142.85,387.118Z" transform="translate(-137.879 -377.203)" fill="#ea9f6c"/></g><g transform="translate(49.27 11.61)"><path d="M307.919,97.349l-2.23-8.6a17.031,17.031,0,0,0-9.748-11.367L290.175,91.31a27.142,27.142,0,0,0-2.064,10.381v2.6a16.451,16.451,0,0,0,8.306,14.293l8.442,4.811,2.1-5.778A34.216,34.216,0,0,0,307.919,97.349Z" transform="translate(-288.111 -77.382)" fill="#919090"/></g><g transform="translate(17.091 11.61)"><path d="M123.677,91.309l-5.766-13.928a17.032,17.032,0,0,0-9.748,11.367l-2.23,8.6a34.215,34.215,0,0,0,.961,20.273l2.1,5.777,8.442-4.811a16.452,16.452,0,0,0,8.306-14.293v-2.6a27.14,27.14,0,0,0-2.064-10.381Z" transform="translate(-104.837 -77.381)" fill="#919090"/></g><g transform="translate(17.091 11.61)"><path d="M108.162,88.749l-2.23,8.6a34.215,34.215,0,0,0,.961,20.273l2.1,5.777,4.671-2.662-1.132-3.115a34.214,34.214,0,0,1-.961-20.273l2.23-8.6a17,17,0,0,1,5.278-8.545l-1.168-2.822a17.032,17.032,0,0,0-9.748,11.367Z" transform="translate(-104.836 -77.382)" fill="#848383"/></g><g transform="translate(31.549 71.983)"><path d="M190.826,421.228a3.642,3.642,0,1,0,3.642,3.642A3.642,3.642,0,0,0,190.826,421.228Z" transform="translate(-187.184 -421.228)" fill="#ea9f6c"/></g><g transform="translate(48.431 71.983)"><path d="M286.97,421.228a3.642,3.642,0,1,0,3.642,3.642A3.642,3.642,0,0,0,286.97,421.228Z" transform="translate(-283.328 -421.228)" fill="#ea9f6c"/></g><g transform="translate(55.174 32.816)"><path d="M325.423,198.161a3.69,3.69,0,1,0,3.689,3.689A3.69,3.69,0,0,0,325.423,198.161Z" transform="translate(-321.733 -198.161)" fill="#777272"/></g><g transform="translate(24.712 32.816)"><path d="M151.931,198.161a3.69,3.69,0,1,0,3.69,3.689A3.69,3.69,0,0,0,151.931,198.161Z" transform="translate(-148.241 -198.161)" fill="#777272"/></g></g><g transform="translate(0 3.735)"><path d="M87.737,22.787l-2.049-1.729A12.148,12.148,0,0,0,73.849,18.9l-7.347,2.6A18.3,18.3,0,0,0,65.279,20l1.757-2.2a12.094,12.094,0,0,0,2.641-7.528V7.87a4.125,4.125,0,0,0-7.564-2.278L60.684,7.749a8.922,8.922,0,0,1-2.751,2.671,1.317,1.317,0,0,0,1.389,2.237A11.542,11.542,0,0,0,62.88,9.2l1.429-2.157a1.491,1.491,0,0,1,2.735.823v2.4a9.45,9.45,0,0,1-2.063,5.882l-1.611,2.014a18.386,18.386,0,0,0-4.442-2.716l-.007,0-.006,0a18.307,18.307,0,0,0-7.239-1.49H38.223c-.2,0-.391.006-.587.012a1.329,1.329,0,0,0-.194-.148l-5.477-3.4a8.925,8.925,0,0,1-2.751-2.672L27.785,5.592A4.125,4.125,0,0,0,20.221,7.87v2.4A12.094,12.094,0,0,0,22.861,17.8L24.619,20a18.363,18.363,0,0,0-1.223,1.5l-7.347-2.6A12.147,12.147,0,0,0,4.21,21.058L2.161,22.787a6.085,6.085,0,0,0,0,9.3L4.21,33.818a12.14,12.14,0,0,0,11.839,2.161l2.492-.881L18.228,36.3a35.382,35.382,0,0,0,1,21.053l2.695,7.416a27.074,27.074,0,0,1,1.166,14.21h0v0a.006.006,0,0,0,0,0A11.268,11.268,0,0,0,34.164,92.321H55.735A11.268,11.268,0,0,0,66.811,78.983v-.006a27.076,27.076,0,0,1,1.167-14.2l2.695-7.416a35.382,35.382,0,0,0,1-21.053l-1.964-7.571.729-.187a33.427,33.427,0,0,1,14.425-.469L87.1,28.5a3.446,3.446,0,0,1-1.058,1.578L83.989,31.8a9.425,9.425,0,0,1-8.927,1.8,1.317,1.317,0,1,0-.785,2.514,12.053,12.053,0,0,0,11.41-2.3l2.049-1.729a6.086,6.086,0,0,0,0-9.3ZM22.854,10.272V7.87a1.491,1.491,0,0,1,2.735-.823L27.018,9.2a11.54,11.54,0,0,0,3.558,3.455l3.039,1.887a18.306,18.306,0,0,0-2.63.9l-.007,0-.007,0a18.388,18.388,0,0,0-4.441,2.716l-1.611-2.014a9.451,9.451,0,0,1-2.063-5.883ZM3.859,24.8l2.049-1.729a9.5,9.5,0,0,1,9.262-1.691l6.8,2.4A18.293,18.293,0,0,0,20.918,26.2l-.8-.206a36.077,36.077,0,0,0-15.569-.506l-1.484.28a3.454,3.454,0,0,1,.795-.968Zm15.476,7.223L15.171,33.5A9.5,9.5,0,0,1,5.909,31.8L3.86,30.076A3.445,3.445,0,0,1,2.8,28.5l2.237-.422a33.429,33.429,0,0,1,14.425.469l.729.187-.853,3.291h0Zm1.442,4.941,2.23-8.6A15.71,15.71,0,0,1,30.8,18.457L36.03,31.1a25.7,25.7,0,0,1,1.964,9.878v2.6a15.165,15.165,0,0,1-7.641,13.149l-7.085,4.038L21.7,56.457a32.759,32.759,0,0,1-.925-19.493Zm41.6,49.605a8.61,8.61,0,0,1-6.643,3.118H34.163a8.634,8.634,0,0,1-8.487-10.221,0,0,0,0,0,0,0h0l.019-.1a10.6,10.6,0,0,1,10.393-8.737h5.772a1.317,1.317,0,1,0,0-2.634H36.087a13.146,13.146,0,0,0-9.943,4.558A29.7,29.7,0,0,0,24.4,63.873l-.216-.595,7.477-4.261a17.8,17.8,0,0,0,8.97-15.437v-2.6A28.316,28.316,0,0,0,38.463,30.09L33.215,17.411a15.689,15.689,0,0,1,5.008-.82H51.675a15.69,15.69,0,0,1,5.008.82L51.434,30.09A28.315,28.315,0,0,0,49.27,40.975v2.6A17.8,17.8,0,0,0,58.24,59.017l7.477,4.261-.216.595a29.694,29.694,0,0,0-1.748,8.678,13.145,13.145,0,0,0-9.943-4.558H48.2a1.317,1.317,0,1,0,0,2.634H53.81A10.6,10.6,0,0,1,64.2,79.362l.019.106h0A8.609,8.609,0,0,1,62.378,86.569ZM68.2,56.457l-1.566,4.31-7.085-4.038A15.165,15.165,0,0,1,51.9,43.58v-2.6A25.694,25.694,0,0,1,53.868,31.1L59.1,18.457a15.709,15.709,0,0,1,7.789,9.907l2.23,8.6A32.76,32.76,0,0,1,68.2,56.457ZM69.78,25.993l-.8.205a18.292,18.292,0,0,0-1.055-2.414l6.8-2.4a9.5,9.5,0,0,1,9.262,1.691L86.039,24.8a3.45,3.45,0,0,1,.794.968l-1.484-.28A36.079,36.079,0,0,0,69.78,25.993Z" transform="translate(0 -3.735)"/><path d="M184.643,413.728a4.959,4.959,0,1,0,4.959,4.959A4.965,4.965,0,0,0,184.643,413.728Zm0,7.285a2.325,2.325,0,1,1,2.325-2.325A2.328,2.328,0,0,1,184.643,421.013Z" transform="translate(-148.135 -341.741)"/><path d="M280.787,413.728a4.959,4.959,0,1,0,4.959,4.959A4.965,4.965,0,0,0,280.787,413.728Zm0,7.285a2.325,2.325,0,1,1,2.325-2.325A2.328,2.328,0,0,1,280.787,421.013Z" transform="translate(-227.397 -341.741)"/><path d="M319.239,190.661a5.006,5.006,0,1,0,5.006,5.006A5.012,5.012,0,0,0,319.239,190.661Zm0,7.379a2.373,2.373,0,1,1,2.373-2.373A2.375,2.375,0,0,1,319.239,198.04Z" transform="translate(-259.059 -157.84)"/><path d="M145.747,200.673a5.006,5.006,0,1,0-5.006-5.006A5.012,5.012,0,0,0,145.747,200.673Zm0-7.379a2.373,2.373,0,1,1-2.373,2.373A2.375,2.375,0,0,1,145.747,193.294Z" transform="translate(-116.029 -157.839)"/></g></g></g></g></svg>