<svg xmlns="http://www.w3.org/2000/svg" width="107" height="107" viewBox="0 0 107 107">
  <g id="Grupo_847437" data-name="Grupo 847437" transform="translate(-205 -434)">
    <rect id="Rectángulo_38178" data-name="Rectángulo 38178" width="107" height="107" transform="translate(205 434)" fill="none"/>
    <g id="lista-de-verificacion" transform="translate(220.989 437.91)">
      <path id="Trazado_568876" data-name="Trazado 568876" d="M73.953,75.266H13.312A5.812,5.812,0,0,0,7.5,81.078v67.255a5.812,5.812,0,0,0,5.812,5.812h60.64a5.813,5.813,0,0,0,5.813-5.812V81.078A5.813,5.813,0,0,0,73.953,75.266Zm0,0" transform="translate(-6.122 -61.434)" fill="#ff854e"/>
      <path id="Trazado_568877" data-name="Trazado 568877" d="M68.3,75.266v6.717a8.683,8.683,0,0,0,8.672,8.673h32.574a8.683,8.683,0,0,0,8.673-8.673V75.266Zm0,0" transform="translate(-55.749 -61.434)" fill="#79be60"/>
      <path id="Trazado_568878" data-name="Trazado 568878" d="M47.293,109.113h57.64v63.412H47.293Zm0,0" transform="translate(-38.602 -89.062)" fill="#efedee"/>
      <path id="Trazado_568879" data-name="Trazado 568879" d="M68.3,109.113v.5a8.683,8.683,0,0,0,8.672,8.673h32.574a8.683,8.683,0,0,0,8.673-8.673v-.5Zm0,0" transform="translate(-55.749 -89.062)" fill="#d4d2d3"/>
      <path id="Trazado_568880" data-name="Trazado 568880" d="M134.031,15.23h-9c.009-.143.014-.286.014-.43a7.3,7.3,0,0,0-14.6,0c0,.144.006.287.014.429h-9a3.16,3.16,0,0,0-3.16,3.16v8.28a3.16,3.16,0,0,0,3.16,3.16h32.574a3.16,3.16,0,0,0,3.16-3.16V18.39A3.16,3.16,0,0,0,134.031,15.23Zm0,0" transform="translate(-80.233 -6.122)" fill="#bab8b9"/>
      <path id="Trazado_568881" data-name="Trazado 568881" d="M195.887,36.6a2.393,2.393,0,1,1-2.393-2.393A2.393,2.393,0,0,1,195.887,36.6Zm0,0" transform="translate(-155.983 -27.921)"/>
      <path id="Trazado_568882" data-name="Trazado 568882" d="M134.8,77.241a1.378,1.378,0,0,0,1.378-1.378v-2.1a1.378,1.378,0,1,0-2.757,0v2.1A1.378,1.378,0,0,0,134.8,77.241Zm0,0" transform="translate(-108.9 -59.081)"/>
      <path id="Trazado_568883" data-name="Trazado 568883" d="M261.2,77.241a1.378,1.378,0,0,0,1.378-1.378v-2.1a1.378,1.378,0,1,0-2.757,0v2.1A1.378,1.378,0,0,0,261.2,77.241Zm0,0" transform="translate(-212.073 -59.081)"/>
      <path id="Trazado_568884" data-name="Trazado 568884" d="M185.266,87.049a5.171,5.171,0,0,0,3.9-1.739,1.378,1.378,0,1,0-2.075-1.814,2.5,2.5,0,0,1-3.658,0,1.378,1.378,0,1,0-2.075,1.814A5.169,5.169,0,0,0,185.266,87.049Zm0,0" transform="translate(-147.755 -67.767)"/>
      <path id="Trazado_568885" data-name="Trazado 568885" d="M104.243,180.2a1.377,1.377,0,0,0-1.743-.871,27.216,27.216,0,0,0-8.615,4.7v-1.8a1.378,1.378,0,0,0-2.757,0v2.336a2.525,2.525,0,0,0,4.135,1.9,24.294,24.294,0,0,1,8.108-4.527A1.377,1.377,0,0,0,104.243,180.2Zm0,0" transform="translate(-74.382 -146.318)"/>
      <path id="Trazado_568886" data-name="Trazado 568886" d="M205.339,195.792h18.037a1.378,1.378,0,0,0,0-2.757H205.339a1.378,1.378,0,0,0,0,2.757Zm0,0" transform="translate(-166.479 -157.561)"/>
      <path id="Trazado_568887" data-name="Trazado 568887" d="M104.243,241.784a1.378,1.378,0,0,0-1.743-.872,27.229,27.229,0,0,0-8.615,4.7v-1.8a1.378,1.378,0,1,0-2.757,0v2.336a2.526,2.526,0,0,0,4.135,1.9,24.281,24.281,0,0,1,8.108-4.527A1.377,1.377,0,0,0,104.243,241.784Zm0,0" transform="translate(-74.382 -196.581)"/>
      <path id="Trazado_568888" data-name="Trazado 568888" d="M205.339,257.374h18.037a1.378,1.378,0,0,0,0-2.757H205.339a1.378,1.378,0,0,0,0,2.757Zm0,0" transform="translate(-166.479 -207.826)"/>
      <path id="Trazado_568889" data-name="Trazado 568889" d="M104.243,303.366a1.378,1.378,0,0,0-1.743-.872,27.229,27.229,0,0,0-8.615,4.7v-1.8a1.378,1.378,0,0,0-2.757,0v2.336a2.526,2.526,0,0,0,4.135,1.9,24.289,24.289,0,0,1,8.108-4.527A1.377,1.377,0,0,0,104.243,303.366Zm0,0" transform="translate(-74.382 -246.847)"/>
      <path id="Trazado_568890" data-name="Trazado 568890" d="M205.339,318.956h18.037a1.378,1.378,0,1,0,0-2.757H205.339a1.378,1.378,0,1,0,0,2.757Zm0,0" transform="translate(-166.479 -258.092)"/>
      <path id="Trazado_568891" data-name="Trazado 568891" d="M92.507,365.6a1.379,1.379,0,0,0-1.378,1.378v2.336a2.525,2.525,0,0,0,4.135,1.9,24.289,24.289,0,0,1,8.108-4.527,1.378,1.378,0,1,0-.871-2.615,27.238,27.238,0,0,0-8.615,4.7v-1.8A1.378,1.378,0,0,0,92.507,365.6Zm0,0" transform="translate(-74.382 -297.111)"/>
      <path id="Trazado_568892" data-name="Trazado 568892" d="M205.339,380.534h18.037a1.378,1.378,0,1,0,0-2.757H205.339a1.378,1.378,0,1,0,0,2.757Zm0,0" transform="translate(-166.479 -308.354)"/>
      <path id="Trazado_568893" data-name="Trazado 568893" d="M67.831,12.453H58.336v-.185A4.543,4.543,0,0,0,53.8,7.73h-7.66a8.679,8.679,0,0,0-17.253,0H21.225a4.543,4.543,0,0,0-4.538,4.538v.185h-9.5A7.2,7.2,0,0,0,0,19.644V28.63a1.378,1.378,0,0,0,2.757,0V19.644A4.439,4.439,0,0,1,7.191,15.21h9.5v3.464h-8a1.378,1.378,0,0,0-1.378,1.378V83.464a1.378,1.378,0,0,0,1.378,1.378H51.839a1.378,1.378,0,0,0,0-2.757H10.069V21.43h6.7l0,.011c0,.007,0,.014,0,.021a4.592,4.592,0,0,0,4.446,3.625H53.8a4.615,4.615,0,0,0,4.446-3.625l0-.021,0-.011h6.7V82.086h-7.6a1.378,1.378,0,0,0,0,2.757h8.979a1.379,1.379,0,0,0,1.378-1.378V20.052a1.379,1.379,0,0,0-1.378-1.378h-8V15.21h9.5a4.439,4.439,0,0,1,4.434,4.434V86.9a4.439,4.439,0,0,1-4.434,4.434H7.191A4.439,4.439,0,0,1,2.757,86.9V34.142a1.378,1.378,0,0,0-2.757,0V86.9A7.2,7.2,0,0,0,7.191,94.09h60.64A7.2,7.2,0,0,0,75.021,86.9V19.644A7.2,7.2,0,0,0,67.831,12.453Zm-48.388-.185a1.783,1.783,0,0,1,1.782-1.782h9c1.065,0,1.365-.922,1.365-1.808a5.922,5.922,0,0,1,11.844,0c0,.884.311,1.808,1.365,1.808h9a1.783,1.783,0,0,1,1.782,1.782v7.784a3.391,3.391,0,0,1-.08,1.026,1.784,1.784,0,0,1-1.7,1.253H21.225a1.786,1.786,0,0,1-1.7-1.253,3.436,3.436,0,0,1-.08-1.026Zm0,0"/>
    </g>
  </g>
</svg>
