<svg xmlns="http://www.w3.org/2000/svg" width="169" height="180" viewBox="0 0 169 180">
  <g id="Grupo_847990" data-name="Grupo 847990" transform="translate(-871 -1130)">
    <path id="Trazado_570780" data-name="Trazado 570780" d="M72,0A72,72,0,1,1,0,72,72,72,0,0,1,72,0Z" transform="translate(894 1130)" fill="#f5d664"/>
    <g id="Trazado_570779" data-name="Trazado 570779" transform="translate(871 1181)" fill="#ff854e">
      <path d="M 26.5 51.5 C 23.12435913085938 51.5 19.85049057006836 50.83921051025391 16.76932907104492 49.53599166870117 C 13.79253005981445 48.27690887451172 11.11876964569092 46.4741096496582 8.822330474853516 44.17766952514648 C 6.525889873504639 41.88122940063477 4.723090171813965 39.20746994018555 3.464010000228882 36.23067092895508 C 2.160789966583252 33.14950942993164 1.5 29.87564086914062 1.5 26.5 C 1.5 23.12435913085938 2.160789966583252 19.85049057006836 3.464010000228882 16.76932907104492 C 4.723090171813965 13.79253005981445 6.525889873504639 11.11876964569092 8.822330474853516 8.822330474853516 C 11.11876964569092 6.525889873504639 13.79253005981445 4.723090171813965 16.76932907104492 3.464010000228882 C 19.85049057006836 2.160789966583252 23.12435913085938 1.5 26.5 1.5 C 29.87564086914062 1.5 33.14950942993164 2.160789966583252 36.23067092895508 3.464010000228882 C 39.20746994018555 4.723090171813965 41.88122940063477 6.525889873504639 44.17766952514648 8.822330474853516 C 46.4741096496582 11.11876964569092 48.27690887451172 13.79253005981445 49.53599166870117 16.76932907104492 C 50.83921051025391 19.85049057006836 51.5 23.12435913085938 51.5 26.5 C 51.5 29.87564086914062 50.83921051025391 33.14950942993164 49.53599166870117 36.23067092895508 C 48.27690887451172 39.20746994018555 46.4741096496582 41.88122940063477 44.17766952514648 44.17766952514648 C 41.88122940063477 46.4741096496582 39.20746994018555 48.27690887451172 36.23067092895508 49.53599166870117 C 33.14950942993164 50.83921051025391 29.87564086914062 51.5 26.5 51.5 Z" stroke="none"/>
      <path d="M 26.5 3 C 23.32620048522949 3 20.24893188476562 3.620918273925781 17.35366058349609 4.84552001953125 C 14.55566024780273 6.028968811035156 12.04216003417969 7.723819732666016 9.882991790771484 9.882991790771484 C 7.723819732666016 12.04216003417969 6.028968811035156 14.55566024780273 4.84552001953125 17.35366058349609 C 3.620918273925781 20.24893188476562 3 23.32620048522949 3 26.5 C 3 29.67379951477051 3.620918273925781 32.75106811523438 4.84552001953125 35.64633941650391 C 6.028968811035156 38.44433975219727 7.723819732666016 40.95783996582031 9.882991790771484 43.11701202392578 C 12.04216003417969 45.27618026733398 14.55566024780273 46.97103118896484 17.35366058349609 48.15447998046875 C 20.24893188476562 49.37908172607422 23.32620048522949 50 26.5 50 C 29.67379951477051 50 32.75106811523438 49.37908172607422 35.64633941650391 48.15447998046875 C 38.44433975219727 46.97103118896484 40.95783996582031 45.27618026733398 43.11701202392578 43.11701202392578 C 45.27618026733398 40.95783996582031 46.97103118896484 38.44433975219727 48.15447998046875 35.64633941650391 C 49.37908172607422 32.75106811523438 50 29.67379951477051 50 26.5 C 50 23.32620048522949 49.37908172607422 20.24893188476562 48.15447998046875 17.35366058349609 C 46.97103118896484 14.55566024780273 45.27618026733398 12.04216003417969 43.11701202392578 9.882991790771484 C 40.95783996582031 7.723819732666016 38.44433975219727 6.028968811035156 35.64633941650391 4.84552001953125 C 32.75106811523438 3.620918273925781 29.67379951477051 3 26.5 3 M 26.5 0 C 41.13554000854492 0 53 11.86445999145508 53 26.5 C 53 41.13554000854492 41.13554000854492 53 26.5 53 C 11.86445999145508 53 0 41.13554000854492 0 26.5 C 0 11.86445999145508 11.86445999145508 0 26.5 0 Z" stroke="none" fill="#fff"/>
    </g>
    <path id="Trazado_570778" data-name="Trazado 570778" d="M4.652-10.184H6.516A1.937,1.937,0,0,0,8.73-12.352,1.875,1.875,0,0,0,8.2-13.729a2,2,0,0,0-1.488-.533A2.141,2.141,0,0,0,5.35-13.8a1.394,1.394,0,0,0-.58,1.137H.82a4.043,4.043,0,0,1,.75-2.4,4.953,4.953,0,0,1,2.08-1.646,7.112,7.112,0,0,1,2.924-.592,6.988,6.988,0,0,1,4.477,1.3,4.324,4.324,0,0,1,1.629,3.574,3.6,3.6,0,0,1-.674,2.08,4.8,4.8,0,0,1-1.963,1.588,4.587,4.587,0,0,1,2.133,1.494,3.935,3.935,0,0,1,.773,2.479,4.4,4.4,0,0,1-1.758,3.656A7.3,7.3,0,0,1,6.574.234,7.567,7.567,0,0,1,3.463-.4a4.875,4.875,0,0,1-2.174-1.77A4.6,4.6,0,0,1,.551-4.746H4.523a1.778,1.778,0,0,0,.633,1.359,2.234,2.234,0,0,0,1.559.574,2.34,2.34,0,0,0,1.664-.58A1.939,1.939,0,0,0,9-4.875,2.267,2.267,0,0,0,8.355-6.7a2.694,2.694,0,0,0-1.781-.539H4.652Z" transform="translate(890 1213)" fill="#fff"/>
    <g id="fabrica-de-leche" transform="translate(932 1148.389)">
      <path id="Trazado_568945" data-name="Trazado 568945" d="M28.029,178.45H43.394v46.107H28.029Z" transform="translate(-23.43 -139.467)" fill="#e2dfe2"/>
      <path id="Trazado_568946" data-name="Trazado 568946" d="M0,0H26.617V46.107H0Z" transform="translate(46.58 85.09) rotate(180)" fill="#efecef"/>
      <path id="Trazado_568947" data-name="Trazado 568947" d="M262.586,178.45h3.5v46.107h-3.5Z" transform="translate(-219.505 -139.467)" fill="#e2dfe2"/>
      <path id="Trazado_568948" data-name="Trazado 568948" d="M28.029,125.746H43.394L35.711,115.4Z" transform="translate(-23.43 -86.763)" fill="#4073c8"/>
      <path id="Trazado_568949" data-name="Trazado 568949" d="M82.537,125.746h26.617L101.472,115.4H74.855Z" transform="translate(-62.574 -86.763)" fill="#698ed5"/>
      <path id="Trazado_568950" data-name="Trazado 568950" d="M219.26,115.4h-3.5l7.682,10.344h3.5Z" transform="translate(-180.362 -86.763)" fill="#4073c8"/>
      <path id="Trazado_568951" data-name="Trazado 568951" d="M7.5,459.48H56.218v5.481H7.5Z" transform="translate(-6.27 -374.391)" fill="#a0aab7"/>
      <path id="Trazado_568952" data-name="Trazado 568952" d="M283.919,459.48h3.368v5.481h-3.368Z" transform="translate(-237.339 -374.391)" fill="#909ba5"/>
      <path id="Trazado_568953" data-name="Trazado 568953" d="M7.5,459.48H18.55v5.481H7.5Z" transform="translate(-6.27 -374.391)" fill="#909ba5"/>
      <path id="Trazado_568954" data-name="Trazado 568954" d="M74.855,58.315h26.617V48.82a1.709,1.709,0,0,0-1.709-1.709h-23.2a1.709,1.709,0,0,0-1.709,1.709v9.495Z" transform="translate(-62.574 -29.676)" fill="#efecef"/>
      <path id="Trazado_568955" data-name="Trazado 568955" d="M208.841,47.111h-3.5a1.709,1.709,0,0,1,1.709,1.709v9.495h3.5V48.82A1.709,1.709,0,0,0,208.841,47.111Z" transform="translate(-171.652 -29.676)" fill="#e2dfe2"/>
      <path id="Trazado_568956" data-name="Trazado 568956" d="M360.531,299.833H337.939a2.579,2.579,0,0,1-2.579-2.579V264.523a2.579,2.579,0,0,1,2.579-2.579h22.592a2.579,2.579,0,0,1,2.579,2.579v32.732A2.579,2.579,0,0,1,360.531,299.833Z" transform="translate(-280.34 -209.263)" fill="#efecef"/>
      <path id="Trazado_568957" data-name="Trazado 568957" d="M471.227,261.944h-3.445a2.579,2.579,0,0,1,2.579,2.579v32.732a2.579,2.579,0,0,1-2.579,2.579h3.445a2.579,2.579,0,0,0,2.579-2.579V264.523A2.579,2.579,0,0,0,471.227,261.944Z" transform="translate(-391.037 -209.263)" fill="#e2dfe2"/>
      <path id="Trazado_568958" data-name="Trazado 568958" d="M347.782,421.789H335.36v-5.213h12.422a1.453,1.453,0,0,1,1.453,1.453v2.307A1.453,1.453,0,0,1,347.782,421.789Z" transform="translate(-280.34 -338.525)" fill="#698ed5"/>
      <path id="Trazado_568959" data-name="Trazado 568959" d="M283.919,332.944h8.44v4.84h-8.44Z" transform="translate(-237.339 -268.614)" fill="#909ba5"/>
      <path id="Trazado_568960" data-name="Trazado 568960" d="M387.233,237.841H371.264v-3.3a1.43,1.43,0,0,1,1.43-1.43H385.8a1.43,1.43,0,0,1,1.43,1.43Z" transform="translate(-310.354 -185.16)" fill="#a0aab7"/>
      <path id="Trazado_568961" data-name="Trazado 568961" d="M444.278,233.111h-3.063a1.43,1.43,0,0,1,1.43,1.43v3.3h3.063v-3.3A1.43,1.43,0,0,0,444.278,233.111Z" transform="translate(-368.828 -185.16)" fill="#909ba5"/>
      <path id="Trazado_568962" data-name="Trazado 568962" d="M177.143,395.64H164.614V385.213a2.1,2.1,0,0,1,2.1-2.1h8.325a2.1,2.1,0,0,1,2.1,2.1V395.64Z" transform="translate(-137.607 -310.551)" fill="#d3effb"/>
      <path id="Trazado_568963" data-name="Trazado 568963" d="M211.648,383.111h-3.243a2.1,2.1,0,0,1,2.1,2.1V395.64h3.243V385.213A2.1,2.1,0,0,0,211.648,383.111Z" transform="translate(-174.214 -310.551)" fill="#bed8fb"/>
      <g id="Grupo_847460" data-name="Grupo 847460" transform="translate(0 11.611)">
        <path id="Trazado_568964" data-name="Trazado 568964" d="M388.189,308.123a1.23,1.23,0,0,0-1.23-1.23H373.917a1.23,1.23,0,0,0,0,2.461h13.041A1.23,1.23,0,0,0,388.189,308.123Z" transform="translate(-311.543 -258.448)"/>
        <path id="Trazado_568965" data-name="Trazado 568965" d="M389.888,342.88a1.23,1.23,0,0,0,0,2.461h7.8a1.23,1.23,0,0,0,0-2.461Z" transform="translate(-324.893 -288.531)"/>
        <path id="Trazado_568966" data-name="Trazado 568966" d="M154.663,323.446a1.23,1.23,0,0,0-1.23,1.23v3.189a1.23,1.23,0,0,0,2.461,0v-3.189A1.23,1.23,0,0,0,154.663,323.446Z" transform="translate(-128.26 -272.286)"/>
        <path id="Trazado_568967" data-name="Trazado 568967" d="M196.529,323.446a1.23,1.23,0,0,0-1.23,1.23v3.189a1.23,1.23,0,0,0,2.461,0v-3.189A1.23,1.23,0,0,0,196.529,323.446Z" transform="translate(-163.258 -272.286)"/>
        <path id="Trazado_568968" data-name="Trazado 568968" d="M238.4,323.446a1.23,1.23,0,0,0-1.23,1.23v3.189a1.23,1.23,0,1,0,2.461,0v-3.189A1.23,1.23,0,0,0,238.4,323.446Z" transform="translate(-198.256 -272.286)"/>
        <path id="Trazado_568969" data-name="Trazado 568969" d="M154.663,267.528a1.23,1.23,0,0,0-1.23,1.23v3.189a1.23,1.23,0,0,0,2.461,0v-3.189A1.23,1.23,0,0,0,154.663,267.528Z" transform="translate(-128.26 -225.542)"/>
        <path id="Trazado_568970" data-name="Trazado 568970" d="M196.529,267.528a1.23,1.23,0,0,0-1.23,1.23v3.189a1.23,1.23,0,0,0,2.461,0v-3.189A1.23,1.23,0,0,0,196.529,267.528Z" transform="translate(-163.258 -225.542)"/>
        <path id="Trazado_568971" data-name="Trazado 568971" d="M238.4,267.528a1.23,1.23,0,0,0-1.23,1.23v3.189a1.23,1.23,0,0,0,2.461,0v-3.189A1.23,1.23,0,0,0,238.4,267.528Z" transform="translate(-198.256 -225.542)"/>
        <path id="Trazado_568972" data-name="Trazado 568972" d="M154.663,211.611a1.23,1.23,0,0,0-1.23,1.23v3.189a1.23,1.23,0,0,0,2.461,0v-3.189A1.231,1.231,0,0,0,154.663,211.611Z" transform="translate(-128.26 -178.799)"/>
        <path id="Trazado_568973" data-name="Trazado 568973" d="M196.529,211.611a1.231,1.231,0,0,0-1.23,1.23v3.189a1.23,1.23,0,1,0,2.461,0v-3.189A1.23,1.23,0,0,0,196.529,211.611Z" transform="translate(-163.258 -178.799)"/>
        <path id="Trazado_568974" data-name="Trazado 568974" d="M238.4,211.611a1.23,1.23,0,0,0-1.23,1.23v3.189a1.23,1.23,0,1,0,2.461,0v-3.189A1.23,1.23,0,0,0,238.4,211.611Z" transform="translate(-198.256 -178.799)"/>
        <path id="Trazado_568975" data-name="Trazado 568975" d="M52.318,217.26a1.23,1.23,0,0,0,1.23-1.23v-3.189a1.23,1.23,0,1,0-2.461,0v3.189A1.23,1.23,0,0,0,52.318,217.26Z" transform="translate(-42.706 -178.799)"/>
        <path id="Trazado_568976" data-name="Trazado 568976" d="M84.851,217.26a1.23,1.23,0,0,0,1.23-1.23v-3.189a1.23,1.23,0,0,0-2.461,0v3.189A1.23,1.23,0,0,0,84.851,217.26Z" transform="translate(-69.902 -178.799)"/>
        <path id="Trazado_568977" data-name="Trazado 568977" d="M51.088,271.946a1.23,1.23,0,1,0,2.461,0v-3.189a1.23,1.23,0,1,0-2.461,0Z" transform="translate(-42.706 -225.541)"/>
        <path id="Trazado_568978" data-name="Trazado 568978" d="M83.621,271.946a1.23,1.23,0,0,0,2.461,0v-3.189a1.23,1.23,0,0,0-2.461,0Z" transform="translate(-69.902 -225.541)"/>
        <path id="Trazado_568979" data-name="Trazado 568979" d="M51.088,327.864a1.23,1.23,0,1,0,2.461,0v-3.189a1.23,1.23,0,1,0-2.461,0Z" transform="translate(-42.706 -272.285)"/>
        <path id="Trazado_568980" data-name="Trazado 568980" d="M83.621,327.864a1.23,1.23,0,0,0,2.461,0v-3.189a1.23,1.23,0,0,0-2.461,0Z" transform="translate(-69.902 -272.285)"/>
        <path id="Trazado_568981" data-name="Trazado 568981" d="M51.088,383.781a1.23,1.23,0,1,0,2.461,0v-3.189a1.23,1.23,0,1,0-2.461,0Z" transform="translate(-42.706 -319.028)"/>
        <path id="Trazado_568982" data-name="Trazado 568982" d="M83.621,383.781a1.23,1.23,0,0,0,2.461,0v-3.189a1.23,1.23,0,0,0-2.461,0Z" transform="translate(-69.902 -319.028)"/>
        <path id="Trazado_568983" data-name="Trazado 568983" d="M82.77,60.056A1.23,1.23,0,0,0,84,58.825V55.26a3.813,3.813,0,0,0-3.809-3.809H78.11v-2.07a2.663,2.663,0,0,0-2.66-2.66H70.125V15.185a3.578,3.578,0,0,0-3.574-3.574H31.774A3.578,3.578,0,0,0,28.2,15.185V16.2H22.424a1.23,1.23,0,1,0,0,2.461H28.2v3.141H18.918a1.23,1.23,0,0,0,0,2.461H28.2v3.141H13.511V19.145a.479.479,0,0,1,.479-.479H17.5a1.23,1.23,0,0,0,0-2.461H13.99a2.943,2.943,0,0,0-2.94,2.94v9.088L3.611,38.249a1.257,1.257,0,0,0-.243.734V72.309a1.23,1.23,0,1,0,2.461,0v-32.1h12.9V83.859H5.829V77.231a1.23,1.23,0,0,0-2.461,0v6.628H1.23A1.23,1.23,0,0,0,0,85.09v5.481A1.23,1.23,0,0,0,1.23,91.8H49.949a1.23,1.23,0,0,0,1.23-1.23V85.09a1.23,1.23,0,0,0-1.23-1.23H47.811V70.4H53.79V87.992A3.814,3.814,0,0,0,57.6,91.8H80.191A3.813,3.813,0,0,0,84,87.992V63.747a1.23,1.23,0,1,0-2.461,0V87.992a1.35,1.35,0,0,1-1.348,1.348H57.6a1.35,1.35,0,0,1-1.348-1.348v-3.5H67.442a2.686,2.686,0,0,0,2.683-2.683V79.5a2.686,2.686,0,0,0-2.683-2.683H56.25V55.26A1.35,1.35,0,0,1,57.6,53.912H80.191a1.35,1.35,0,0,1,1.348,1.348v3.565a1.23,1.23,0,0,0,1.23,1.231ZM30.661,24.268h1.6a1.23,1.23,0,1,0,0-2.461h-1.6V18.666h6.528a.479.479,0,0,1,.479.479v8.264H30.661V24.268ZM28.2,29.87v2.711H26.154a1.23,1.23,0,0,0,0,2.461h6.554a1.23,1.23,0,0,0,0-2.461H30.661V29.87h7.618l5.855,7.883H20.582L14.727,29.87ZM7.045,37.753l5.236-7.05,5.236,7.05ZM2.461,89.34V86.32H11.05v3.02Zm46.257,0H13.511V86.32H48.718v3.02ZM38.306,83.859H28.237v-9.2a.872.872,0,0,1,.872-.871h8.325a.872.872,0,0,1,.871.871v9.2Zm2.461,0v-9.2a3.336,3.336,0,0,0-3.332-3.332H29.109a3.336,3.336,0,0,0-3.332,3.332v9.2H21.194V40.213H45.35V83.859Zm7.044-15.92V65.56h5.979v2.379ZM67.442,79.281a.223.223,0,0,1,.222.222V81.81a.223.223,0,0,1-.222.222H56.25V79.281ZM53.79,55.26V63.1H47.811V38.983a1.258,1.258,0,0,0-.243-.734l-7.44-10.017V19.145a2.943,2.943,0,0,0-2.94-2.94H30.661v-1.02a1.114,1.114,0,0,1,1.113-1.113H66.551a1.114,1.114,0,0,1,1.113,1.113V46.72H62.34a2.663,2.663,0,0,0-2.66,2.66v2.07H57.6A3.813,3.813,0,0,0,53.79,55.26Zm8.351-3.809v-2.07a.2.2,0,0,1,.2-.2H75.449a.2.2,0,0,1,.2.2v2.07Z" transform="translate(0 -11.611)"/>
      </g>
    </g>
    <path id="Trazado_570777" data-name="Trazado 570777" d="M8,0H153a8,8,0,0,1,8,8V37a8,8,0,0,1-8,8H8a8,8,0,0,1-8-8V8A8,8,0,0,1,8,0Z" transform="translate(879 1265)" fill="#fff"/>
    <path id="Trazado_570774" data-name="Trazado 570774" d="M6.357-5.02H4.5V0H1.074V-14.219h5.6A6.241,6.241,0,0,1,10.625-13.1a3.807,3.807,0,0,1,1.426,3.174,4.625,4.625,0,0,1-.6,2.461A4.264,4.264,0,0,1,9.57-5.879L12.539-.146V0H8.867ZM4.5-7.666H6.67a1.949,1.949,0,0,0,1.47-.513,1.979,1.979,0,0,0,.493-1.431,2,2,0,0,0-.5-1.44,1.931,1.931,0,0,0-1.465-.522H4.5ZM19.082.2a5.432,5.432,0,0,1-3.936-1.45,5.008,5.008,0,0,1-1.5-3.774V-5.3a6.489,6.489,0,0,1,.6-2.861A4.395,4.395,0,0,1,16-10.083a5.292,5.292,0,0,1,2.734-.679A4.574,4.574,0,0,1,22.246-9.38a5.43,5.43,0,0,1,1.289,3.853v1.279H16.992a2.372,2.372,0,0,0,.771,1.4,2.3,2.3,0,0,0,1.543.508,2.958,2.958,0,0,0,2.441-1.094l1.5,1.777A4.2,4.2,0,0,1,21.509-.308,5.891,5.891,0,0,1,19.082.2Zm-.371-8.418q-1.445,0-1.719,1.914h3.32v-.254a1.63,1.63,0,0,0-.4-1.226A1.593,1.593,0,0,0,18.711-8.223ZM29.326-2.344A1.464,1.464,0,0,0,30.4-2.72a1.379,1.379,0,0,0,.371-1.05h3.086A3.653,3.653,0,0,1,32.612-.918,4.631,4.631,0,0,1,29.4.2,4.689,4.689,0,0,1,25.771-1.25a5.7,5.7,0,0,1-1.328-4v-.137a6.436,6.436,0,0,1,.591-2.827,4.3,4.3,0,0,1,1.7-1.885,5.081,5.081,0,0,1,2.637-.659,4.573,4.573,0,0,1,3.271,1.143,4.053,4.053,0,0,1,1.211,3.1H30.771a1.807,1.807,0,0,0-.4-1.26A1.382,1.382,0,0,0,29.3-8.223q-1.279,0-1.494,1.631a11.508,11.508,0,0,0-.068,1.426,4.52,4.52,0,0,0,.381,2.207A1.319,1.319,0,0,0,29.326-2.344Zm12.217,1.2A3.393,3.393,0,0,1,38.721.2,3.328,3.328,0,0,1,36.089-.815,4.251,4.251,0,0,1,35.2-3.721v-6.846h3.291V-3.7A1.183,1.183,0,0,0,39.8-2.344a1.72,1.72,0,0,0,1.611-.811v-7.412h3.311V0H41.641ZM52.92-7.588l-1.084-.078a1.947,1.947,0,0,0-1.992.977V0H46.553V-10.566h3.086l.107,1.357a2.548,2.548,0,0,1,2.314-1.553,3.209,3.209,0,0,1,.918.117Zm6.719,4.619a.76.76,0,0,0-.439-.674,6.685,6.685,0,0,0-1.67-.527A7.615,7.615,0,0,1,55.5-4.888a3.4,3.4,0,0,1-1.221-1.079,2.577,2.577,0,0,1-.42-1.455,2.92,2.92,0,0,1,1.2-2.4,4.948,4.948,0,0,1,3.145-.942,5.482,5.482,0,0,1,3.359.947,2.962,2.962,0,0,1,1.27,2.49h-3.3q0-1.27-1.338-1.27a1.326,1.326,0,0,0-.869.288.892.892,0,0,0-.352.718.819.819,0,0,0,.43.713,4.06,4.06,0,0,0,1.372.449,11.857,11.857,0,0,1,1.655.42,3.007,3.007,0,0,1,2.383,2.939A2.767,2.767,0,0,1,61.528-.713,5.632,5.632,0,0,1,58.2.2a5.747,5.747,0,0,1-2.422-.488,4.05,4.05,0,0,1-1.66-1.328,3.007,3.007,0,0,1-.6-1.768H56.6a1.272,1.272,0,0,0,.488,1.069,2.009,2.009,0,0,0,1.2.337A1.58,1.58,0,0,0,59.3-2.256.875.875,0,0,0,59.639-2.969Zm4.3-2.412A6.236,6.236,0,0,1,64.551-8.2a4.4,4.4,0,0,1,1.768-1.9,5.323,5.323,0,0,1,2.705-.664,4.858,4.858,0,0,1,3.74,1.47,5.64,5.64,0,0,1,1.367,4v.117a5.472,5.472,0,0,1-1.372,3.921A4.871,4.871,0,0,1,69.043.2,4.927,4.927,0,0,1,65.42-1.157a5.29,5.29,0,0,1-1.475-3.667Zm3.291.205a3.932,3.932,0,0,0,.459,2.148,1.529,1.529,0,0,0,1.357.684q1.758,0,1.8-2.705v-.332q0-2.842-1.816-2.842-1.65,0-1.787,2.451ZM81.113-2.969a.76.76,0,0,0-.439-.674A6.685,6.685,0,0,0,79-4.17a7.615,7.615,0,0,1-2.031-.718,3.4,3.4,0,0,1-1.221-1.079,2.577,2.577,0,0,1-.42-1.455,2.92,2.92,0,0,1,1.2-2.4,4.948,4.948,0,0,1,3.145-.942,5.482,5.482,0,0,1,3.359.947,2.962,2.962,0,0,1,1.27,2.49h-3.3q0-1.27-1.338-1.27a1.326,1.326,0,0,0-.869.288.892.892,0,0,0-.352.718.819.819,0,0,0,.43.713,4.06,4.06,0,0,0,1.372.449,11.857,11.857,0,0,1,1.655.42,3.007,3.007,0,0,1,2.383,2.939A2.767,2.767,0,0,1,83-.713,5.631,5.631,0,0,1,79.678.2a5.747,5.747,0,0,1-2.422-.488A4.05,4.05,0,0,1,75.6-1.621,3.007,3.007,0,0,1,75-3.389h3.076a1.272,1.272,0,0,0,.488,1.069,2.009,2.009,0,0,0,1.2.337,1.58,1.58,0,0,0,1.011-.273A.875.875,0,0,0,81.113-2.969Z" transform="translate(920 1292)" fill="#12263f"/>
  </g>
</svg>
