<svg xmlns="http://www.w3.org/2000/svg" width="180" height="174" viewBox="0 0 180 174">
  <g id="Grupo_847994" data-name="Grupo 847994" transform="translate(-999 -1337)">
    <circle id="Elipse_6746" data-name="Elipse 6746" cx="72" cy="72" r="72" transform="translate(1022 1337)" fill="#f5d664"/>
    <g id="Elipse_6747" data-name="Elipse 6747" transform="translate(999 1388)" fill="#ff854e" stroke="#fff" stroke-width="3">
      <circle cx="26.5" cy="26.5" r="26.5" stroke="none"/>
      <circle cx="26.5" cy="26.5" r="25" fill="none"/>
    </g>
    <text id="_7" data-name="7" transform="translate(1018 1420)" fill="#fff" font-size="24" font-family="Roboto-Black, Roboto" font-weight="800"><tspan x="0" y="0">7</tspan></text>
    <g id="tiempo" transform="translate(1054.859 1364.161)">
      <g id="Grupo_847465" data-name="Grupo 847465" transform="translate(57.19 11.056)">
        <path id="Trazado_569076" data-name="Trazado 569076" d="M331.373,96.651a15.308,15.308,0,1,0-15.35-15.31A15.358,15.358,0,0,0,331.373,96.651Z" transform="translate(-316.023 -66.035)" fill="#99e6fc" fill-rule="evenodd"/>
      </g>
      <g id="Grupo_847466" data-name="Grupo 847466" transform="translate(68.025 11.056)">
        <path id="Trazado_569077" data-name="Trazado 569077" d="M385.251,66.739a15.307,15.307,0,0,1-4.516,29.24,15.316,15.316,0,1,0,4.516-29.942,16.106,16.106,0,0,0-1.665.085A16.588,16.588,0,0,1,385.251,66.739Z" transform="translate(-380.735 -66.037)" fill="#62dbfb" fill-rule="evenodd"/>
      </g>
      <g id="Grupo_847467" data-name="Grupo 847467" transform="translate(12.616 31.041)">
        <path id="Trazado_569078" data-name="Trazado 569078" d="M49.785,193.413c5.734,1.172,12.033,3.488,15.126.313a6.065,6.065,0,0,0,1.37-2.06C68.608,185.43,54.353,180.727,49.785,193.413Z" transform="translate(-49.785 -185.401)" fill="#9be69d" fill-rule="evenodd"/>
      </g>
      <g id="Grupo_847468" data-name="Grupo 847468" transform="translate(17.378 31.039)">
        <path id="Trazado_569079" data-name="Trazado 569079" d="M78.233,186.943c4.425-1.391,9.031.745,9.573,3.854a3.784,3.784,0,0,1-.2,1.979,6,6,0,0,1-1.37,2.055,3.721,3.721,0,0,1-.319.3,5.144,5.144,0,0,0,2.679-1.414,6.064,6.064,0,0,0,1.37-2.06c1.751-4.7-5.9-8.524-11.734-4.713Z" transform="translate(-78.233 -185.389)" fill="#6fd7a3" fill-rule="evenodd"/>
      </g>
      <g id="Grupo_847469" data-name="Grupo 847469" transform="translate(31.089 12.448)">
        <path id="Trazado_569080" data-name="Trazado 569080" d="M170.211,93.76c7.794-.835,7.794-10.394,10-18.765-5.481-1.609-13.266-.228-16.987,4.433-5.339,6.687-3.231,12.354,2.146,13.963a12.285,12.285,0,0,0,4.839.37Z" transform="translate(-160.127 -74.351)" fill="#9be69d" fill-rule="evenodd"/>
      </g>
      <g id="Grupo_847470" data-name="Grupo 847470" transform="translate(34.765 12.461)">
        <path id="Trazado_569081" data-name="Trazado 569081" d="M194.423,74.426c-2.1,8.267-2.232,17.517-9.892,18.343-.267.028-.528.048-.785.062a13.842,13.842,0,0,1-1.665-.014,8.884,8.884,0,0,0,1.57.636,12.284,12.284,0,0,0,4.839.37c7.794-.835,7.794-10.394,10-18.765A16.7,16.7,0,0,0,194.423,74.426Z" transform="translate(-182.08 -74.426)" fill="#6fd7a3" fill-rule="evenodd"/>
      </g>
      <g id="Grupo_847471" data-name="Grupo 847471" transform="translate(44.559 32.278)">
        <path id="Trazado_569082" data-name="Trazado 569082" d="M241.824,203.718a9.568,9.568,0,0,0,2.7,2.221c5.443,3.137,10.934-6.212,17.439-10.033C248.786,187.872,236.581,197.164,241.824,203.718Z" transform="translate(-240.58 -192.792)" fill="#9be69d" fill-rule="evenodd"/>
      </g>
      <g id="Grupo_847472" data-name="Grupo 847472" transform="translate(46.332 33.998)">
        <path id="Trazado_569083" data-name="Trazado 569083" d="M251.169,212.858a10.29,10.29,0,0,0,2.17,1.633c5.443,3.137,10.934-6.212,17.439-10.033a23.468,23.468,0,0,0-2.65-1.4c-1.156.55-3.174,2.762-5.7,4.869C258.787,210.974,255.623,214.823,251.169,212.858Z" transform="translate(-251.169 -203.062)" fill="#6fd7a3" fill-rule="evenodd"/>
      </g>
      <g id="Grupo_847473" data-name="Grupo 847473" transform="translate(16.341 46.567)">
        <path id="Trazado_569084" data-name="Trazado 569084" d="M72.038,287.961c7.033,1.433,14.75,4.276,18.543.38a7.234,7.234,0,0,0,1.68-2.52C95.115,278.175,77.638,272.409,72.038,287.961Z" transform="translate(-72.038 -278.14)" fill="#9be69d" fill-rule="evenodd"/>
      </g>
      <g id="Grupo_847474" data-name="Grupo 847474" transform="translate(22.179 46.566)">
        <path id="Trazado_569085" data-name="Trazado 569085" d="M106.909,280.04c5.429-1.709,11.072.911,11.738,4.722a4.6,4.6,0,0,1-.247,2.425,7.429,7.429,0,0,1-1.68,2.525c-.124.128-.257.251-.39.365a6.291,6.291,0,0,0,3.283-1.742,7.234,7.234,0,0,0,1.68-2.52C123.444,280.059,114.065,275.365,106.909,280.04Z" transform="translate(-106.909 -278.134)" fill="#6fd7a3" fill-rule="evenodd"/>
      </g>
      <g id="Grupo_847475" data-name="Grupo 847475" transform="translate(6.397 65.425)">
        <path id="Trazado_569086" data-name="Trazado 569086" d="M48.437,409.814h35.8c-.809-4.409-5.643-5.79-9.316-5.937a9.244,9.244,0,0,0-9.055-7.342c-5.548,0-5.624-.74-7.423-1.936-3.845-2.553-6.923-3.825-10.006-3.825s-6.157,1.272-10,3.825c-1.8,1.2-1.875,1.936-7.423,1.936a9.244,9.244,0,0,0-9.055,7.342c-3.673.147-8.508,1.528-9.316,5.937Z" transform="translate(-12.641 -390.774)" fill="#aa6a51" fill-rule="evenodd"/>
      </g>
      <g id="Grupo_847476" data-name="Grupo 847476" transform="translate(31.691 65.425)">
        <path id="Trazado_569087" data-name="Trazado 569087" d="M170.16,393.29c3.15,0,6.3,1.277,10.23,3.83,1.842,1.2,3.854,3.175,9.531,3.175,4.135,0,6.062,1.571,7.047,4.983.428,1.49,1.137,1.2,2.75,1.391a7.81,7.81,0,0,1,5.943,3.147h4.363c-.809-4.409-5.643-5.79-9.316-5.937a9.244,9.244,0,0,0-9.055-7.342c-5.548,0-5.624-.74-7.423-1.936-3.845-2.553-6.923-3.825-10.006-3.825s-6.157,1.272-10,3.825c-.181.119-.347.237-.5.346A14.718,14.718,0,0,1,170.16,393.29Z" transform="translate(-163.722 -390.775)" fill="#935b44" fill-rule="evenodd"/>
      </g>
      <g id="Grupo_847477" data-name="Grupo 847477" transform="translate(5.141 0)">
        <path id="Trazado_569088" data-name="Trazado 569088" d="M383.471,118.274a1.251,1.251,0,0,0,.887-.367l3.012-3a1.255,1.255,0,0,0,.369-.889v-7.48a1.256,1.256,0,1,0-2.511,0v6.958l-2.643,2.636a1.255,1.255,0,0,0,.887,2.145Z" transform="translate(-319.084 -87.653)"/>
        <path id="Trazado_569089" data-name="Trazado 569089" d="M218.944,444.386a1.256,1.256,0,1,0,2.511,0v0a1.256,1.256,0,0,0-2.511,0Z" transform="translate(-183.148 -368.938)"/>
        <path id="Trazado_569090" data-name="Trazado 569090" d="M142.784,455.742A1.257,1.257,0,1,0,144.039,457v0A1.254,1.254,0,0,0,142.784,455.742Z" transform="translate(-118.694 -379.44)"/>
        <path id="Trazado_569091" data-name="Trazado 569091" d="M297.644,458.256A1.256,1.256,0,0,0,298.9,457v0a1.256,1.256,0,1,0-1.256,1.26Z" transform="translate(-247.626 -379.44)"/>
        <path id="Trazado_569092" data-name="Trazado 569092" d="M47.874,46.514a5.73,5.73,0,0,0,2.9.81c3.33,0,6.535-2.973,9.657-5.87.685-.636,1.378-1.277,2.078-1.9A16.575,16.575,0,1,0,73.8,9.848V7.927a4.072,4.072,0,1,0-2.511,0V9.848a16.6,16.6,0,0,0-15.35,16.513,16.419,16.419,0,0,0,.683,4.7c-4.874-.275-9.046,1.425-11.388,4.083A6.573,6.573,0,0,0,44.2,43.085a14.414,14.414,0,0,0-2.357,3.509,25.721,25.721,0,0,0-2.636-4.875,14.738,14.738,0,0,1-1.765-8.693,13.407,13.407,0,0,0,2.174.174,15.65,15.65,0,0,0,1.69-.094c7.119-.763,8.553-7.788,9.939-14.581.345-1.692.7-3.441,1.143-5.112a1.256,1.256,0,0,0-.86-1.525,19.982,19.982,0,0,0-12.83.832,1.256,1.256,0,1,0,.979,2.312,17.607,17.607,0,0,1,9.972-1.022c-.32,1.341-.6,2.695-.865,4.013-1.316,6.449-2.453,12.019-7.748,12.587a11.73,11.73,0,0,1-3.265-.075,20.942,20.942,0,0,1,3.582-8.613,1.256,1.256,0,1,0-1.96-1.57,23.775,23.775,0,0,0-4.033,9.4,5.362,5.362,0,0,1-2.772-3.154c-.732-2.341.184-5.284,2.581-8.286a1.256,1.256,0,0,0-1.963-1.567c-2.933,3.674-4,7.44-3.015,10.6a8.075,8.075,0,0,0,4.776,4.988,20.639,20.639,0,0,0,.079,4.863A13.074,13.074,0,0,0,30.582,35.3a5.225,5.225,0,0,0-1.208-2.662c-1.83-2.2-5.308-3.283-8.655-2.693-2.456.432-6.928,2.134-9.285,8.681a1.256,1.256,0,0,0,.93,1.656c.99.2,2.022.445,3.02.68a35.751,35.751,0,0,0,7.756,1.26,7.04,7.04,0,0,0,7.118-4.406,9.415,9.415,0,0,1,4.85,2.746,23.914,23.914,0,0,1,5.838,11.823q.009.056.022.111a35.1,35.1,0,0,1,.476,3.585A14.978,14.978,0,0,0,38.037,53.6a6.054,6.054,0,0,0-2.078-5.632,10.608,10.608,0,0,0-5.765-2.546,12.72,12.72,0,0,0-7.123,1.12,1.256,1.256,0,1,0,1.073,2.271c3.913-1.848,8.051-.894,10.116,1a3.825,3.825,0,0,1,1.36,2.666A26.308,26.308,0,0,0,27.5,50.734a1.256,1.256,0,0,0-.064,2.511,23.06,23.06,0,0,1,7.406,1.607,7.423,7.423,0,0,1-.86,1.041c-2.627,2.7-7.951,1.446-13.588.121-.768-.181-1.552-.365-2.335-.54a15.485,15.485,0,0,1,2.231-3.637,1.256,1.256,0,1,0-1.927-1.611,18.843,18.843,0,0,0-3.206,5.738,1.256,1.256,0,0,0,.931,1.656c1.224.249,2.5.549,3.731.839a43.541,43.541,0,0,0,9.419,1.53,8.679,8.679,0,0,0,6.54-2.341,9.583,9.583,0,0,0,1.341-1.7,9.4,9.4,0,0,1,4.514,5.008c.006,1.069,0,2.146-.014,3.231a16.378,16.378,0,0,0-6.853,2.063,31.618,31.618,0,0,0-4.012,2.477c-1.066.777-1.653,1.205-5.988,1.205a10.545,10.545,0,0,0-10.042,7.4c-5.3.463-8.848,3-9.564,6.906A1.256,1.256,0,0,0,6.4,85.721h71.6a1.256,1.256,0,0,0,1.235-1.482c-.716-3.9-4.263-6.443-9.564-6.906a10.545,10.545,0,0,0-10.042-7.4,22.213,22.213,0,0,1-3.66-.2A7.162,7.162,0,0,1,52.894,68.2a22.386,22.386,0,0,0-8.762-3.88c.012-1.166.022-2.337.014-3.511a1.264,1.264,0,0,0,0-.131,48.686,48.686,0,0,0-.71-8.622c0-.011,0-.022,0-.033a8.956,8.956,0,0,1,2.392-6.987,12.213,12.213,0,0,0,2.05,1.474ZM26.842,38.489c-2.053,2.108-6.342,1.1-10.883.029-.531-.125-1.072-.252-1.614-.375,1.99-4.254,5.059-5.416,6.808-5.723,2.45-.431,5.036.32,6.289,1.826a3.193,3.193,0,0,1,.407.614,43.287,43.287,0,0,0-4.329-.177,1.256,1.256,0,1,0,0,2.511,39.55,39.55,0,0,1,4.175.177A5.524,5.524,0,0,1,26.842,38.489ZM52.154,70.755c1.521,1.109,2.543,1.688,7.468,1.688a8.012,8.012,0,0,1,7.825,6.342,1.255,1.255,0,0,0,1.179,1c1.488.059,5.953.489,7.6,3.427H8.161c1.649-2.938,6.115-3.367,7.6-3.427a1.256,1.256,0,0,0,1.179-1,8.013,8.013,0,0,1,7.825-6.342c4.925,0,5.948-.579,7.468-1.688a29.623,29.623,0,0,1,3.357-2.1c5.666-3.067,9.641-2.519,15.911,1.644.238.158.447.311.65.459ZM66.594,34.32a22.525,22.525,0,0,0-7.2-2.89,13.905,13.905,0,0,1-.892-3.813h1.309a1.256,1.256,0,0,0,0-2.511H58.5a13.961,13.961,0,0,1,3.227-7.749l.918.918A1.256,1.256,0,1,0,64.426,16.5l-.915-.915a14.056,14.056,0,0,1,7.774-3.213v1.3a1.256,1.256,0,0,0,2.511,0v-1.3a14.045,14.045,0,0,1,7.771,3.213l-.916.913a1.256,1.256,0,0,0,1.774,1.778l.921-.918a13.963,13.963,0,0,1,3.225,7.748H85.264a1.256,1.256,0,1,0,0,2.511H86.57a13.973,13.973,0,0,1-3.224,7.751l-.922-.917a1.256,1.256,0,0,0-1.771,1.78l.916.911A14.041,14.041,0,0,1,73.8,40.357v-1.3a1.256,1.256,0,1,0-2.511,0v1.3A14.016,14.016,0,0,1,64.5,37.9a20.187,20.187,0,0,1,2.076-1.423,1.255,1.255,0,0,0,.017-2.155ZM72.54,2.511a1.552,1.552,0,1,1-1.561,1.549A1.555,1.555,0,0,1,72.54,2.511Zm-25.426,34.3c2.073-2.354,5.969-3.744,10.526-3.143a18.044,18.044,0,0,1,3.389.8,20.243,20.243,0,0,1,2.491,1.031c-.332.243-.661.5-.986.757-.65.521-1.287,1.07-1.914,1.631s-1.269,1.155-1.892,1.733c-4.244,3.936-7.008,6.218-9.6,4.726a9.742,9.742,0,0,1-1.545-1.093,22.216,22.216,0,0,1,6.687-4.033,1.256,1.256,0,1,0-.847-2.364,25.557,25.557,0,0,0-7.34,4.4,4.332,4.332,0,0,1,1.028-4.437Z" transform="translate(-5.141 0)"/>
      </g>
    </g>
    <rect id="Rectángulo_281599" data-name="Rectángulo 281599" width="161" height="45" rx="8" transform="translate(1018 1466)" fill="#fff"/>
    <path id="Trazado_570776" data-name="Trazado 570776" d="M12.236-11.572H7.969V0H4.541V-11.572H.352v-2.646H12.236ZM17,0H13.7V-10.566H17Zm-3.5-13.291a1.469,1.469,0,0,1,.508-1.152,1.916,1.916,0,0,1,1.318-.449,1.916,1.916,0,0,1,1.318.449,1.469,1.469,0,0,1,.508,1.152,1.469,1.469,0,0,1-.508,1.152,1.916,1.916,0,0,1-1.318.449,1.916,1.916,0,0,1-1.318-.449A1.469,1.469,0,0,1,13.506-13.291ZM24.141.2a5.432,5.432,0,0,1-3.936-1.45,5.008,5.008,0,0,1-1.5-3.774V-5.3a6.489,6.489,0,0,1,.6-2.861,4.395,4.395,0,0,1,1.753-1.919,5.292,5.292,0,0,1,2.734-.679A4.574,4.574,0,0,1,27.3-9.38a5.43,5.43,0,0,1,1.289,3.853v1.279H22.051a2.372,2.372,0,0,0,.771,1.4,2.3,2.3,0,0,0,1.543.508,2.958,2.958,0,0,0,2.441-1.094l1.5,1.777A4.2,4.2,0,0,1,26.567-.308,5.891,5.891,0,0,1,24.141.2ZM23.77-8.223q-1.445,0-1.719,1.914h3.32v-.254a1.63,1.63,0,0,0-.4-1.226A1.593,1.593,0,0,0,23.77-8.223Zm9.258-2.344.107,1.24a3.633,3.633,0,0,1,3.018-1.436A2.675,2.675,0,0,1,38.857-9.17a3.516,3.516,0,0,1,3.105-1.592q3.213,0,3.3,3.887V0h-3.3V-6.67a2.014,2.014,0,0,0-.273-1.182,1.164,1.164,0,0,0-1-.371,1.559,1.559,0,0,0-1.455.869l.01.137V0h-3.3V-6.65a2.117,2.117,0,0,0-.264-1.2,1.161,1.161,0,0,0-1.006-.371,1.578,1.578,0,0,0-1.445.869V0H29.941V-10.566ZM56.953-5.205a6.372,6.372,0,0,1-1.108,3.931A3.554,3.554,0,0,1,52.852.2,3.046,3.046,0,0,1,50.459-.869V4.063H47.168V-10.566h3.076l.1.977a3.046,3.046,0,0,1,2.49-1.172,3.582,3.582,0,0,1,3.037,1.44,6.45,6.45,0,0,1,1.084,3.96ZM53.662-5.41q0-2.812-1.641-2.812a1.549,1.549,0,0,0-1.562.84v4.16a1.6,1.6,0,0,0,1.582.879q1.572,0,1.621-2.715Zm4.326.029A6.236,6.236,0,0,1,58.6-8.2a4.4,4.4,0,0,1,1.768-1.9,5.323,5.323,0,0,1,2.705-.664,4.858,4.858,0,0,1,3.74,1.47,5.64,5.64,0,0,1,1.367,4v.117a5.472,5.472,0,0,1-1.372,3.921A4.871,4.871,0,0,1,63.1.2a4.927,4.927,0,0,1-3.623-1.353A5.29,5.29,0,0,1,58-4.824Zm3.291.205a3.932,3.932,0,0,0,.459,2.148,1.529,1.529,0,0,0,1.357.684q1.758,0,1.8-2.705v-.332q0-2.842-1.816-2.842-1.65,0-1.787,2.451Z" transform="translate(1064 1494)" fill="#12263f"/>
  </g>
</svg>
