<svg xmlns="http://www.w3.org/2000/svg" width="176" height="180" viewBox="0 0 176 180">
  <g id="Grupo_847991" data-name="Grupo 847991" transform="translate(-1126 -1130)">
    <circle id="Elipse_6740" data-name="Elipse 6740" cx="72" cy="72" r="72" transform="translate(1149 1130)" fill="#f5d664"/>
    <g id="Elipse_6741" data-name="Elipse 6741" transform="translate(1126 1181)" fill="#ff854e" stroke="#fff" stroke-width="3">
      <circle cx="26.5" cy="26.5" r="26.5" stroke="none"/>
      <circle cx="26.5" cy="26.5" r="25" fill="none"/>
    </g>
    <text id="_4" data-name="4" transform="translate(1145 1213)" fill="#fff" font-size="24" font-family="Roboto-Black, Roboto" font-weight="800"><tspan x="0" y="0">4</tspan></text>
    <g id="fabrica" transform="translate(1179 1160)">
      <path id="Trazado_568984" data-name="Trazado 568984" d="M91.078,254.285h9.8v4.868h-9.8Zm0,0" transform="translate(-75.669 -211.265)" fill="#618baa"/>
      <path id="Trazado_568985" data-name="Trazado 568985" d="M80.611,285.506v13.078a1.691,1.691,0,0,1-1.69,1.69H62.131a1.691,1.691,0,0,1-1.69-1.69V285.506a1.679,1.679,0,0,1,.279-.93l3.116-4.725a1.69,1.69,0,0,1,1.412-.761H75.8a1.69,1.69,0,0,1,1.412.761l3.117,4.725a1.735,1.735,0,0,1,.2.423A1.709,1.709,0,0,1,80.611,285.506Zm0,0" transform="translate(-50.216 -231.873)" fill="#bbdeaf"/>
      <path id="Trazado_568986" data-name="Trazado 568986" d="M80.913,285H60.9a1.738,1.738,0,0,1,.2-.423l3.116-4.725a1.69,1.69,0,0,1,1.412-.761H76.184a1.69,1.69,0,0,1,1.412.761l3.117,4.725A1.736,1.736,0,0,1,80.913,285Zm0,0" transform="translate(-50.596 -231.873)" fill="#89b4c9"/>
      <path id="Trazado_568987" data-name="Trazado 568987" d="M93.7,239.114H83.723a1.4,1.4,0,0,1-1.394-1.394,2.571,2.571,0,0,1,2.571-2.571h7.621a2.571,2.571,0,0,1,2.571,2.571A1.4,1.4,0,0,1,93.7,239.114Zm0,0" transform="translate(-68.4 -195.366)" fill="#89b4c9"/>
      <path id="Trazado_568988" data-name="Trazado 568988" d="M245.59,254.285h9.8v4.868h-9.8Zm0,0" transform="translate(-204.041 -211.265)" fill="#618baa"/>
      <path id="Trazado_568989" data-name="Trazado 568989" d="M235.12,285.506v13.078a1.691,1.691,0,0,1-1.69,1.69H216.64a1.691,1.691,0,0,1-1.69-1.69V285.506a1.709,1.709,0,0,1,.078-.507,1.761,1.761,0,0,1,.2-.423l3.117-4.725a1.69,1.69,0,0,1,1.412-.761h10.556a1.69,1.69,0,0,1,1.412.761l3.117,4.725a1.76,1.76,0,0,1,.2.423A1.709,1.709,0,0,1,235.12,285.506Zm0,0" transform="translate(-178.584 -231.873)" fill="#bbdeaf"/>
      <path id="Trazado_568990" data-name="Trazado 568990" d="M235.424,285H215.41a1.761,1.761,0,0,1,.2-.423l3.117-4.725a1.69,1.69,0,0,1,1.412-.761H230.7a1.69,1.69,0,0,1,1.412.761l3.117,4.725A1.736,1.736,0,0,1,235.424,285Zm0,0" transform="translate(-178.967 -231.873)" fill="#89b4c9"/>
      <path id="Trazado_568991" data-name="Trazado 568991" d="M248.209,239.114h-9.974a1.4,1.4,0,0,1-1.394-1.394,2.571,2.571,0,0,1,2.571-2.571h7.622a2.571,2.571,0,0,1,2.571,2.571A1.394,1.394,0,0,1,248.209,239.114Zm0,0" transform="translate(-196.771 -195.366)" fill="#89b4c9"/>
      <path id="Trazado_568992" data-name="Trazado 568992" d="M408.426,254.285h9.8v4.868h-9.8Zm0,0" transform="translate(-339.328 -211.265)" fill="#618baa"/>
      <path id="Trazado_568993" data-name="Trazado 568993" d="M397.959,285.5v13.078a1.691,1.691,0,0,1-1.691,1.69H379.48a1.69,1.69,0,0,1-1.69-1.69V285.5a1.691,1.691,0,0,1,.078-.506,1.717,1.717,0,0,1,.2-.423l3.116-4.725a1.686,1.686,0,0,1,1.411-.761h10.557a1.691,1.691,0,0,1,1.411.761l3.116,4.725a1.715,1.715,0,0,1,.2.423A1.691,1.691,0,0,1,397.959,285.5Zm0,0" transform="translate(-313.874 -231.873)" fill="#618baa"/>
      <path id="Trazado_568994" data-name="Trazado 568994" d="M397.959,314.525v9.586h-20.17v-9.586a1.691,1.691,0,0,1,.078-.506h20.014A1.691,1.691,0,0,1,397.959,314.525Zm0,0" transform="translate(-313.874 -260.893)" fill="#ffeee1"/>
      <path id="Trazado_568995" data-name="Trazado 568995" d="M398.26,285H378.246a1.738,1.738,0,0,1,.2-.423l3.116-4.725a1.69,1.69,0,0,1,1.412-.761h10.557a1.689,1.689,0,0,1,1.411.761l3.117,4.725A1.737,1.737,0,0,1,398.26,285Zm0,0" transform="translate(-314.254 -231.873)" fill="#89b4c9"/>
      <path id="Trazado_568996" data-name="Trazado 568996" d="M411.045,239.114H401.07a1.4,1.4,0,0,1-1.394-1.394,2.571,2.571,0,0,1,2.571-2.571h7.622a2.571,2.571,0,0,1,2.571,2.571A1.394,1.394,0,0,1,411.045,239.114Zm0,0" transform="translate(-332.058 -195.366)" fill="#89b4c9"/>
      <g id="Grupo_847461" data-name="Grupo 847461" transform="translate(11.699 71.983)">
        <path id="Trazado_568997" data-name="Trazado 568997" d="M78.935,430.37a4.893,4.893,0,1,1-4.894-4.893A4.893,4.893,0,0,1,78.935,430.37Zm0,0" transform="translate(-69.148 -425.477)" fill="#e3f4ff"/>
        <path id="Trazado_568998" data-name="Trazado 568998" d="M169.4,430.37a4.894,4.894,0,1,1-4.894-4.893A4.894,4.894,0,0,1,169.4,430.37Zm0,0" transform="translate(-144.308 -425.477)" fill="#e3f4ff"/>
        <path id="Trazado_568999" data-name="Trazado 568999" d="M259.869,430.37a4.893,4.893,0,1,1-4.893-4.893A4.893,4.893,0,0,1,259.869,430.37Zm0,0" transform="translate(-219.471 -425.477)" fill="#e3f4ff"/>
        <path id="Trazado_569000" data-name="Trazado 569000" d="M350.338,430.37a4.893,4.893,0,1,1-4.894-4.893A4.893,4.893,0,0,1,350.338,430.37Zm0,0" transform="translate(-294.634 -425.477)" fill="#e3f4ff"/>
        <path id="Trazado_569001" data-name="Trazado 569001" d="M440.408,430.37a4.893,4.893,0,1,1-4.893-4.893A4.893,4.893,0,0,1,440.408,430.37Zm0,0" transform="translate(-369.467 -425.477)" fill="#e3f4ff"/>
      </g>
      <path id="Trazado_569002" data-name="Trazado 569002" d="M91.583,407.887H15.976a4.893,4.893,0,1,0,0,9.787H91.583v3.582H15.976a8.475,8.475,0,1,1,0-16.951H91.583Zm0,0" transform="translate(-6.231 -335.904)" fill="#fff3c6"/>
      <path id="Trazado_569003" data-name="Trazado 569003" d="M384.8,30.941h20.25v6.146H384.8Zm0,0" transform="translate(-319.703 -25.707)" fill="#fff3c6"/>
      <path id="Trazado_569004" data-name="Trazado 569004" d="M296.274,49.941l-.895-4.845,6.927-1.279.894,4.845Zm0,0" transform="translate(-245.406 -36.403)" fill="#4e7693"/>
      <path id="Trazado_569005" data-name="Trazado 569005" d="M255.253,42.723a5.48,5.48,0,1,1-5.481-5.481A5.481,5.481,0,0,1,255.253,42.723Zm0,0" transform="translate(-202.963 -30.941)" fill="#a7c7d3"/>
      <path id="Trazado_569006" data-name="Trazado 569006" d="M268.559,59.433a2.078,2.078,0,1,1-2.078-2.078A2.078,2.078,0,0,1,268.559,59.433Zm0,0" transform="translate(-219.67 -47.652)" fill="#43a3f9"/>
      <path id="Trazado_569007" data-name="Trazado 569007" d="M339.064,19.59a7.031,7.031,0,1,1,1.5-2.129A7,7,0,0,1,339.064,19.59Zm0,0" transform="translate(-271.78 -6.232)" fill="#a7c7d3"/>
      <path id="Trazado_569008" data-name="Trazado 569008" d="M367.294,47.82a7,7,0,0,1-1.981,1.355l-3.491-3.491a2.464,2.464,0,0,1,3.485-3.484l3.49,3.491A7.014,7.014,0,0,1,367.294,47.82Zm0,0" transform="translate(-300.01 -34.462)" fill="#43a3f9"/>
      <path id="Trazado_569009" data-name="Trazado 569009" d="M100.221,77.428a2.15,2.15,0,0,1-2.15-2.15V61.871h4.3V75.277A2.151,2.151,0,0,1,100.221,77.428Zm0,0" transform="translate(-81.479 -51.404)" fill="#ffd63d"/>
      <path id="Trazado_569010" data-name="Trazado 569010" d="M92.87,18.3H84.019a1.691,1.691,0,0,1-1.69-1.69V7.5H94.561v9.107A1.69,1.69,0,0,1,92.87,18.3Zm0,0" transform="translate(-68.4 -6.231)" fill="#a7c7d3"/>
      <path id="Trazado_569011" data-name="Trazado 569011" d="M405.457,314.016h10.807v10.091H405.457Zm0,0" transform="translate(-336.861 -260.89)" fill="#fff3c6"/>
      <path id="Trazado_569012" data-name="Trazado 569012" d="M91.8,446.9h-.03a1.263,1.263,0,0,0-1.248,1.282,1.276,1.276,0,0,0,1.277,1.256h.013A1.269,1.269,0,0,0,91.8,446.9Zm0,0" transform="translate(-75.208 -371.291)"/>
      <path id="Trazado_569013" data-name="Trazado 569013" d="M182.316,446.9h-.029a1.263,1.263,0,0,0-1.248,1.282,1.275,1.275,0,0,0,1.276,1.256h.014a1.269,1.269,0,0,0-.013-2.538Zm0,0" transform="translate(-150.41 -371.291)"/>
      <path id="Trazado_569014" data-name="Trazado 569014" d="M272.784,446.9h-.029a1.263,1.263,0,0,0-1.248,1.282,1.275,1.275,0,0,0,1.276,1.256h.014a1.269,1.269,0,0,0-.013-2.538Zm0,0" transform="translate(-225.573 -371.291)"/>
      <path id="Trazado_569015" data-name="Trazado 569015" d="M363.249,446.9h-.029a1.263,1.263,0,0,0-1.248,1.282,1.275,1.275,0,0,0,1.276,1.256h.014a1.269,1.269,0,0,0-.013-2.538Zm0,0" transform="translate(-300.733 -371.291)"/>
      <path id="Trazado_569016" data-name="Trazado 569016" d="M453.323,449.436h.014a1.269,1.269,0,0,0-.013-2.538h-.029a1.263,1.263,0,0,0-1.248,1.282A1.275,1.275,0,0,0,453.323,449.436Zm0,0" transform="translate(-375.569 -371.291)"/>
      <path id="Trazado_569017" data-name="Trazado 569017" d="M104.211,419.245a1.268,1.268,0,0,0-1.269-1.269H27.334a6.162,6.162,0,1,0,0,12.324h75.608a1.269,1.269,0,1,0,0-2.538h-2.626a6.144,6.144,0,0,0,0-7.249h2.626A1.269,1.269,0,0,0,104.211,419.245Zm-73.654,4.893a3.625,3.625,0,1,1,3.624,3.625A3.628,3.628,0,0,1,30.557,424.139Zm8.6-3.624h5.347a6.141,6.141,0,0,0,0,7.249H39.161a6.144,6.144,0,0,0,0-7.249Zm6.7,3.624a3.625,3.625,0,1,1,3.625,3.625A3.629,3.629,0,0,1,45.862,424.139Zm8.6-3.624h5.347a6.144,6.144,0,0,0,0,7.249H54.466a6.141,6.141,0,0,0,0-7.249Zm6.7,3.624a3.625,3.625,0,1,1,3.625,3.625A3.628,3.628,0,0,1,61.168,424.139Zm8.6-3.624h5.346a6.144,6.144,0,0,0,0,7.249H69.772a6.144,6.144,0,0,0,0-7.249Zm6.7,3.624a3.625,3.625,0,1,1,3.624,3.625A3.628,3.628,0,0,1,76.474,424.139Zm8.6-3.624h5.28a6.144,6.144,0,0,0,0,7.249h-5.28a6.141,6.141,0,0,0,0-7.249ZM23.71,424.139a3.628,3.628,0,0,1,3.625-3.624H29.2a6.144,6.144,0,0,0,0,7.249H27.334A3.628,3.628,0,0,1,23.71,424.139Zm75.252,0a3.625,3.625,0,1,1-3.624-3.624A3.629,3.629,0,0,1,98.961,424.139Zm0,0" transform="translate(-17.59 -347.263)"/>
      <path id="Trazado_569018" data-name="Trazado 569018" d="M85.352,256.267H85.32a2.975,2.975,0,0,0,.034-.422V242.768a2.966,2.966,0,0,0-.13-.867c-.008-.026-.017-.052-.026-.077a2.958,2.958,0,0,0-.332-.685l-1.436-2.178,1.678-1.679a1.269,1.269,0,0,0-1.794-1.794L82,236.8l-.253-.385a2.953,2.953,0,0,0-1.579-1.193V233.87a2.664,2.664,0,0,0,1.48-2.382,3.844,3.844,0,0,0-3.84-3.84H70.189a3.844,3.844,0,0,0-3.84,3.84,2.664,2.664,0,0,0,1.48,2.382v1.349a2.953,2.953,0,0,0-1.579,1.193L66,236.8l-1.31-1.31a1.269,1.269,0,0,0-1.794,1.794l1.678,1.679-1.436,2.178a2.953,2.953,0,0,0-.334.691c-.009.022-.017.046-.024.069a2.958,2.958,0,0,0-.13.869v13.077a2.867,2.867,0,0,0,.034.422H57.771a2.975,2.975,0,0,0,.034-.422V242.768a2.971,2.971,0,0,0-.13-.868c-.008-.025-.017-.05-.025-.074a2.976,2.976,0,0,0-.334-.687L55.88,238.96l1.679-1.679a1.269,1.269,0,1,0-1.795-1.794l-1.31,1.31-.253-.385a2.955,2.955,0,0,0-1.579-1.193V233.87a2.663,2.663,0,0,0,1.48-2.382,3.844,3.844,0,0,0-3.84-3.84H42.64a3.844,3.844,0,0,0-3.84,3.84,2.663,2.663,0,0,0,1.48,2.382v1.349a2.951,2.951,0,0,0-1.579,1.193l-.254.385-1.31-1.31a1.269,1.269,0,0,0-1.795,1.794l1.679,1.679-1.436,2.178a2.952,2.952,0,0,0-.333.686c-.009.025-.018.05-.026.076a2.963,2.963,0,0,0-.13.867v13.077a2.96,2.96,0,0,0,.034.422h-3.5a2.976,2.976,0,0,0,.034-.422V242.768a2.955,2.955,0,0,0-.131-.869c-.007-.023-.015-.046-.023-.069a2.964,2.964,0,0,0-.335-.691L29.74,238.96l1.679-1.679a1.269,1.269,0,0,0-1.795-1.794l-1.31,1.31-.254-.385a2.953,2.953,0,0,0-1.579-1.193V233.87a2.663,2.663,0,0,0,1.48-2.382,3.844,3.844,0,0,0-3.84-3.84H16.5a3.844,3.844,0,0,0-3.84,3.84,2.664,2.664,0,0,0,1.48,2.382v1.349a2.95,2.95,0,0,0-1.579,1.193l-.254.385L11,235.487A1.269,1.269,0,0,0,9.2,237.282l1.679,1.679-1.437,2.178a2.943,2.943,0,0,0-.334.69c-.009.023-.017.046-.024.07a2.953,2.953,0,0,0-.13.868v1.674a1.269,1.269,0,0,0,2.538,0v-.913H29.126v7.554H11.494v-.858a1.269,1.269,0,1,0-2.538,0v5.621a3.011,3.011,0,0,0,.038.453,9.743,9.743,0,0,0,.75,19.457H49.729a1.269,1.269,0,1,0,0-2.538H9.744a7.207,7.207,0,1,1,0-14.413H85.352a1.269,1.269,0,1,0,0-2.537Zm-15.487-5.184v-7.554h8.269v7.554Zm-4.682,0v-7.554h2.144v7.554Zm3.186-13.273a.42.42,0,0,1,.352-.189H79.278a.42.42,0,0,1,.352.189l2.1,3.181H66.272Zm9.263-3.659v.932H70.367v-.932Zm3.04,9.378h2.144v7.554H80.672ZM70.189,230.186H77.81a1.3,1.3,0,0,1,1.3,1.3.125.125,0,0,1-.125.125H69.012a.125.125,0,0,1-.126-.125A1.3,1.3,0,0,1,70.189,230.186ZM65.6,256.266a.422.422,0,0,1-.422-.422V253.62H82.816v2.224a.422.422,0,0,1-.422.422H65.6Zm-27.97-12.737H55.267v7.554H37.634Zm3.186-5.719a.42.42,0,0,1,.352-.189H51.729a.42.42,0,0,1,.352.189l2.1,3.181H38.723Zm9.263-3.659v.932H42.818v-.932Zm-7.443-3.965h7.622a1.3,1.3,0,0,1,1.3,1.3.125.125,0,0,1-.126.125H41.463a.125.125,0,0,1-.126-.125A1.3,1.3,0,0,1,42.64,230.186Zm-4.584,26.08a.422.422,0,0,1-.422-.422V253.62H55.267v2.224a.422.422,0,0,1-.422.422H38.056ZM14.68,237.81a.42.42,0,0,1,.352-.189H25.589a.42.42,0,0,1,.352.189l2.1,3.181H12.582Zm9.263-3.659v.932H16.678v-.932ZM16.5,230.186h7.622a1.3,1.3,0,0,1,1.3,1.3.125.125,0,0,1-.126.125H15.323a.125.125,0,0,1-.126-.125A1.3,1.3,0,0,1,16.5,230.186ZM29.126,253.62v2.224a.422.422,0,0,1-.421.422H11.915a.422.422,0,0,1-.421-.422V253.62Zm0,0" transform="translate(0 -189.134)"/>
      <path id="Trazado_569019" data-name="Trazado 569019" d="M355.933,497H326.949a1.269,1.269,0,1,0,0,2.538h28.984a1.269,1.269,0,0,0,0-2.538Zm0,0" transform="translate(-270.581 -412.913)"/>
      <path id="Trazado_569020" data-name="Trazado 569020" d="M473.234,59.77h-5.1a1.269,1.269,0,0,0,0,2.538h5.1a1.269,1.269,0,0,0,0-2.538Zm0,0" transform="translate(-387.882 -49.658)"/>
      <path id="Trazado_569021" data-name="Trazado 569021" d="M242.018,18.375V19.2a4.44,4.44,0,0,0-3.164,4.247v4.98a1.271,1.271,0,0,0,.371.9l1.519,1.519a1.269,1.269,0,1,0,1.794-1.795L241.392,27.9V23.445a1.892,1.892,0,0,1,.627-1.4v1.065a1.269,1.269,0,1,0,2.538,0V22.041a1.887,1.887,0,0,1,.627,1.4V27.9l-1.211,1.211a1.269,1.269,0,0,0,1.795,1.794l1.582-1.582a1.27,1.27,0,0,0,.371-.9v-4.98a4.44,4.44,0,0,0-3.164-4.247v-.73c.067-.011.134-.02.2-.033a6.748,6.748,0,0,0,4.979-3.986l3.177-.586c.075.084.151.167.23.248a8.309,8.309,0,0,0,13.045-1.445h4.534a1.269,1.269,0,0,0,0-2.538H267.21a8.377,8.377,0,0,0,0-3.608h14.864a1.269,1.269,0,0,0,0-2.538H266.186a8.3,8.3,0,0,0-12.868-1.62,8.243,8.243,0,0,0-2.348,4.267l-2.589.478a6.747,6.747,0,1,0-6.363,11.266Zm20.234-5.213-2.819-2.819a1.194,1.194,0,0,1,1.689-1.689l2.819,2.819a5.807,5.807,0,0,1-1.689,1.69Zm-7.166-8.977a5.729,5.729,0,0,1,4.017-1.63h.088a5.77,5.77,0,0,1,5.683,5.855c0,.13-.009.258-.02.385l-1.937-1.937a3.733,3.733,0,0,0-5.279,5.278l1.938,1.938c-.184.015-.371.021-.558.019a5.77,5.77,0,0,1-3.933-9.91Zm-4.237,5.048a8.232,8.232,0,0,0,.6,2.32l-1.167.215a6.65,6.65,0,0,0-.434-2.35Zm-10.785.178a4.187,4.187,0,0,1,2.7-1.754,4.261,4.261,0,0,1,.766-.07,4.211,4.211,0,1,1-3.471,1.824Zm0,0" transform="translate(-196.722 -0.017)"/>
      <path id="Trazado_569022" data-name="Trazado 569022" d="M260.244,56.546a3.3,3.3,0,0,0,.609-.056,3.344,3.344,0,1,0-.609.056Zm-.665-3.806a.806.806,0,0,1,.667-.35.809.809,0,1,1-.667.35Zm0,0" transform="translate(-213.435 -41.418)"/>
      <path id="Trazado_569023" data-name="Trazado 569023" d="M77.491,13.32V23.874a3.419,3.419,0,0,0,6.838,0V18.029h2.98a6.656,6.656,0,0,0,6.648-6.648V1.269a1.269,1.269,0,0,0-2.538,0V11.381a4.116,4.116,0,0,1-4.111,4.111h-2.98V13.336h2.31A2.963,2.963,0,0,0,89.6,10.376V1.269a1.269,1.269,0,0,0-2.538,0v9.107a.422.422,0,0,1-.422.422H77.787a.422.422,0,0,1-.422-.422V1.269a1.269,1.269,0,0,0-2.538,0v9.107A2.963,2.963,0,0,0,77.491,13.32Zm4.3,10.553a.881.881,0,1,1-1.763,0V13.336h1.763Zm0,0" transform="translate(-62.169)"/>
      <path id="Trazado_569024" data-name="Trazado 569024" d="M122.608,42.143h.014a1.269,1.269,0,0,0-.013-2.538h-.029a1.263,1.263,0,0,0-1.248,1.282A1.275,1.275,0,0,0,122.608,42.143Zm0,0" transform="translate(-100.805 -32.905)"/>
      <path id="Trazado_569025" data-name="Trazado 569025" d="M122.609,21.983a1.269,1.269,0,1,0,0-2.538h-.016a1.262,1.262,0,0,0-1.261,1.269A1.275,1.275,0,0,0,122.609,21.983Zm0,0" transform="translate(-100.805 -16.156)"/>
    </g>
    <rect id="Rectángulo_281597" data-name="Rectángulo 281597" width="161" height="45" rx="8" transform="translate(1141 1265)" fill="#fff"/>
    <path id="Trazado_570775" data-name="Trazado 570775" d="M8.408-3.779a1.408,1.408,0,0,0-.532-1.172,6.615,6.615,0,0,0-1.87-.869,17.942,17.942,0,0,1-2.187-.869Q1.055-8.047,1.055-10.42A3.345,3.345,0,0,1,1.743-12.5a4.453,4.453,0,0,1,1.948-1.406,7.582,7.582,0,0,1,2.832-.5,6.632,6.632,0,0,1,2.749.547,4.352,4.352,0,0,1,1.89,1.558A4.068,4.068,0,0,1,11.836-10H8.418a1.719,1.719,0,0,0-.532-1.348,2.075,2.075,0,0,0-1.44-.479A2.339,2.339,0,0,0,5-11.421a1.243,1.243,0,0,0-.532,1.03,1.252,1.252,0,0,0,.586.991,7.389,7.389,0,0,0,2.061.918A12.623,12.623,0,0,1,9.531-7.461a4.07,4.07,0,0,1,2.3,3.662A3.472,3.472,0,0,1,10.43-.869,6.255,6.255,0,0,1,6.572.2a7.653,7.653,0,0,1-3.13-.62,4.719,4.719,0,0,1-2.109-1.7A4.428,4.428,0,0,1,.625-4.609H4.063a2.181,2.181,0,0,0,.591,1.685,2.793,2.793,0,0,0,1.919.542,2.206,2.206,0,0,0,1.343-.366A1.209,1.209,0,0,0,8.408-3.779ZM16.914,0h-3.3V-10.566h3.3Zm-3.5-13.291a1.469,1.469,0,0,1,.508-1.152,1.916,1.916,0,0,1,1.318-.449,1.916,1.916,0,0,1,1.318.449,1.469,1.469,0,0,1,.508,1.152,1.469,1.469,0,0,1-.508,1.152,1.916,1.916,0,0,1-1.318.449,1.916,1.916,0,0,1-1.318-.449A1.469,1.469,0,0,1,13.418-13.291ZM24.473-2.969a.76.76,0,0,0-.439-.674,6.685,6.685,0,0,0-1.67-.527,7.615,7.615,0,0,1-2.031-.718,3.4,3.4,0,0,1-1.221-1.079,2.577,2.577,0,0,1-.42-1.455,2.92,2.92,0,0,1,1.2-2.4,4.948,4.948,0,0,1,3.145-.942,5.482,5.482,0,0,1,3.359.947,2.962,2.962,0,0,1,1.27,2.49h-3.3q0-1.27-1.338-1.27a1.326,1.326,0,0,0-.869.288.892.892,0,0,0-.352.718.819.819,0,0,0,.43.713,4.06,4.06,0,0,0,1.372.449,11.857,11.857,0,0,1,1.655.42,3.007,3.007,0,0,1,2.383,2.939A2.767,2.767,0,0,1,26.362-.713,5.631,5.631,0,0,1,23.037.2a5.747,5.747,0,0,1-2.422-.488,4.05,4.05,0,0,1-1.66-1.328,3.007,3.007,0,0,1-.6-1.768h3.076a1.272,1.272,0,0,0,.488,1.069,2.009,2.009,0,0,0,1.2.337,1.58,1.58,0,0,0,1.011-.273A.875.875,0,0,0,24.473-2.969Zm8.545-10.225v2.627h1.738v2.285H33.018v4.834a1.234,1.234,0,0,0,.215.83,1.152,1.152,0,0,0,.85.234,4.828,4.828,0,0,0,.82-.059V-.088A6.074,6.074,0,0,1,33.047.2a3.448,3.448,0,0,1-2.51-.8,3.282,3.282,0,0,1-.811-2.432V-8.281H28.379v-2.285h1.348v-2.627ZM41.162.2a5.432,5.432,0,0,1-3.936-1.45,5.008,5.008,0,0,1-1.5-3.774V-5.3a6.489,6.489,0,0,1,.6-2.861,4.395,4.395,0,0,1,1.753-1.919,5.292,5.292,0,0,1,2.734-.679A4.574,4.574,0,0,1,44.326-9.38a5.43,5.43,0,0,1,1.289,3.853v1.279H39.072a2.372,2.372,0,0,0,.771,1.4,2.3,2.3,0,0,0,1.543.508,2.958,2.958,0,0,0,2.441-1.094l1.5,1.777A4.2,4.2,0,0,1,43.589-.308,5.891,5.891,0,0,1,41.162.2Zm-.371-8.418q-1.445,0-1.719,1.914h3.32v-.254a1.63,1.63,0,0,0-.4-1.226A1.593,1.593,0,0,0,40.791-8.223Zm9.258-2.344.107,1.24a3.633,3.633,0,0,1,3.018-1.436A2.675,2.675,0,0,1,55.879-9.17a3.516,3.516,0,0,1,3.105-1.592q3.213,0,3.3,3.887V0h-3.3V-6.67a2.014,2.014,0,0,0-.273-1.182,1.164,1.164,0,0,0-1-.371,1.559,1.559,0,0,0-1.455.869l.01.137V0h-3.3V-6.65a2.117,2.117,0,0,0-.264-1.2A1.161,1.161,0,0,0,51.7-8.223a1.578,1.578,0,0,0-1.445.869V0H46.963V-10.566ZM70.117,0A3.716,3.716,0,0,1,69.8-.947,3.06,3.06,0,0,1,67.266.2a3.749,3.749,0,0,1-2.539-.9,2.875,2.875,0,0,1-1.045-2.271,2.955,2.955,0,0,1,1.27-2.6,6.468,6.468,0,0,1,3.691-.879h1.016v-.557q0-1.455-1.26-1.455a1.027,1.027,0,0,0-1.172,1.152H63.936a2.955,2.955,0,0,1,1.3-2.49,5.474,5.474,0,0,1,3.325-.957,4.8,4.8,0,0,1,3.193.986,3.429,3.429,0,0,1,1.2,2.705v4.678a4.79,4.79,0,0,0,.449,2.227V0ZM68.057-2.148a1.836,1.836,0,0,0,1.021-.264,1.653,1.653,0,0,0,.581-.6V-4.7H68.7q-1.719,0-1.719,1.543a.942.942,0,0,0,.3.728A1.1,1.1,0,0,0,68.057-2.148Zm12.256-.82a.76.76,0,0,0-.439-.674A6.685,6.685,0,0,0,78.2-4.17a7.615,7.615,0,0,1-2.031-.718,3.4,3.4,0,0,1-1.221-1.079,2.577,2.577,0,0,1-.42-1.455,2.92,2.92,0,0,1,1.2-2.4,4.948,4.948,0,0,1,3.145-.942,5.482,5.482,0,0,1,3.359.947,2.962,2.962,0,0,1,1.27,2.49h-3.3q0-1.27-1.338-1.27A1.326,1.326,0,0,0,78-8.306a.892.892,0,0,0-.352.718.819.819,0,0,0,.43.713,4.06,4.06,0,0,0,1.372.449,11.857,11.857,0,0,1,1.655.42,3.007,3.007,0,0,1,2.383,2.939A2.767,2.767,0,0,1,82.2-.713,5.631,5.631,0,0,1,78.877.2a5.747,5.747,0,0,1-2.422-.488,4.05,4.05,0,0,1-1.66-1.328,3.007,3.007,0,0,1-.6-1.768h3.076a1.272,1.272,0,0,0,.488,1.069,2.009,2.009,0,0,0,1.2.337,1.58,1.58,0,0,0,1.011-.273A.875.875,0,0,0,80.313-2.969Z" transform="translate(1180 1292)" fill="#12263f"/>
  </g>
</svg>
