<svg xmlns="http://www.w3.org/2000/svg" width="160.245" height="83.941" viewBox="0 0 160.245 83.941">
  <g id="Grupo_848029" data-name="Grupo 848029" transform="translate(-542 -4326.063)">
    <g id="vaca_6_" data-name="vaca (6)" transform="translate(542 4300.246)">
      <path id="Trazado_569253" data-name="Trazado 569253" d="M93.49,310.358v23.457H100.6V318.624A22.438,22.438,0,0,1,93.49,310.358Z" transform="translate(-77.16 -234.84)" fill="#e2e0e1"/>
      <g id="Grupo_847552" data-name="Grupo 847552" transform="translate(16.33 75.518)" opacity="0.15">
        <path id="Trazado_569254" data-name="Trazado 569254" d="M93.49,310.358v23.457h1.4v4.614h3.044V316.386A20.8,20.8,0,0,1,93.49,310.358Z" transform="translate(-93.49 -310.358)" fill="#231f20"/>
      </g>
      <g id="Grupo_847553" data-name="Grupo 847553" transform="translate(1.427 36.834)">
        <path id="Trazado_569255" data-name="Trazado 569255" d="M13.114,88.888a4.947,4.947,0,0,0-4.946,4.946v9.655h2.989A4.947,4.947,0,0,0,16.1,98.543V88.888Z" transform="translate(-8.168 -88.888)" fill="#d3d3d3"/>
        <path id="Trazado_569256" data-name="Trazado 569256" d="M198.251,88.888a4.947,4.947,0,0,1,4.946,4.946v9.655h-2.989a4.947,4.947,0,0,1-4.946-4.946V88.888Z" transform="translate(-162.582 -88.888)" fill="#d3d3d3"/>
      </g>
      <path id="Trazado_569257" data-name="Trazado 569257" d="M65.968,93.3A23.927,23.927,0,0,1,78.341,96.45V83.774a6.252,6.252,0,0,0-6.251-6.251H59.846a6.252,6.252,0,0,0-6.25,6.251V96.45A23.927,23.927,0,0,1,65.968,93.3Z" transform="translate(-44.234 -42.674)" fill="#efedee"/>
      <g id="Grupo_847554" data-name="Grupo 847554" transform="translate(9.553 34.849)" opacity="0.15">
        <path id="Trazado_569258" data-name="Trazado 569258" d="M58.972,83.774a6.252,6.252,0,0,1,6.25-6.251h-4.28a6.252,6.252,0,0,0-6.25,6.251V96.45a19.557,19.557,0,0,1,4.28-1.933Z" transform="translate(-54.692 -77.523)" fill="#231f20"/>
      </g>
      <path id="Trazado_569259" data-name="Trazado 569259" d="M154.03,165.522c0-12.45-15.43-22.545-34.464-22.545a52.118,52.118,0,0,0-7.168.5v4.653h-2.989a4.871,4.871,0,0,1-1.56-.275,4.663,4.663,0,0,1-3.386-1.912v4.527c3.075,1.9,4.977,4.5,4.977,7.372,0,5.812-7.768,10.524-17.35,10.524a27.215,27.215,0,0,1-6.844-.853c.664,4.957,3.782,9.452,8.55,12.967v15.191H104.6v-9.841a49.794,49.794,0,0,0,14.961,2.238,47.6,47.6,0,0,0,20.023-4.2v11.8H150.4V175.6A16.489,16.489,0,0,0,154.03,165.522Z" transform="translate(-70.356 -96.695)" fill="#efedee"/>
      <path id="Trazado_569260" data-name="Trazado 569260" d="M59.8,178.358c0,5.812-7.768,10.523-17.35,10.523S25.1,184.169,25.1,178.358s7.768-10.523,17.35-10.523S59.8,172.546,59.8,178.358Z" transform="translate(-20.715 -117.21)" fill="#f98080"/>
      <g id="Grupo_847555" data-name="Grupo 847555" transform="translate(4.384 50.624)" opacity="0.15">
        <path id="Trazado_569261" data-name="Trazado 569261" d="M29.582,178.357c0-5.351,6.586-9.77,15.109-10.437q-1.1-.086-2.24-.087c-9.582,0-17.35,4.712-17.35,10.523s7.768,10.523,17.35,10.523q1.139,0,2.24-.087C36.168,188.126,29.582,183.708,29.582,178.357Z" transform="translate(-25.101 -167.833)" fill="#231f20"/>
      </g>
      <path id="Trazado_569262" data-name="Trazado 569262" d="M356.4,379.441a8.4,8.4,0,0,1,.073,1.088,8.313,8.313,0,0,1-.737,3.427v4.919h7.1v-11.8A42.2,42.2,0,0,1,356.4,379.441Z" transform="translate(-293.6 -289.899)" fill="#e2e0e1"/>
      <g id="Grupo_847556" data-name="Grupo 847556" transform="translate(46.21 31.045)">
        <path id="Trazado_569263" data-name="Trazado 569263" d="M415.419,57.061a3.709,3.709,0,1,1-3.98,6.261c-1.729-1.1-4.648-4.922-3.549-6.651S413.69,55.962,415.419,57.061Z" transform="translate(-382.655 -55.744)" fill="#918d8f"/>
        <path id="Trazado_569264" data-name="Trazado 569264" d="M320.585,156.094a8.333,8.333,0,0,0,8.126-6.5,44.478,44.478,0,0,0-15.931-4.752,8.334,8.334,0,0,0,7.8,11.25Z" transform="translate(-303.923 -129.281)" fill="#918d8f"/>
        <circle id="Elipse_6756" data-name="Elipse 6756" cx="4.185" cy="4.185" r="4.185" transform="translate(0 31.265)" fill="#918d8f"/>
      </g>
      <path id="Trazado_569265" data-name="Trazado 569265" d="M267.554,392.474q-1.516,0-3-.085a8.344,8.344,0,1,0,16.59-1.745A50.262,50.262,0,0,1,267.554,392.474Z" transform="translate(-218.344 -301.102)" fill="#f98080"/>
      <path id="Trazado_569266" data-name="Trazado 569266" d="M100.6,450.478v-5.827H93.49v5.827l3.554-.9Z" transform="translate(-77.16 -345.676)" fill="#7c797b"/>
      <path id="Trazado_569267" data-name="Trazado 569267" d="M134.2,450.478v-5.827H145v5.827l-5.4-.9Z" transform="translate(-110.759 -345.676)" fill="#918d8f"/>
      <path id="Trazado_569268" data-name="Trazado 569268" d="M362.847,450.478v-5.827h-7.111v5.827l3.554-.9Z" transform="translate(-293.6 -345.676)" fill="#7c797b"/>
      <path id="Trazado_569269" data-name="Trazado 569269" d="M396.445,450.478v-5.827h10.8v5.827l-5.4-.9Z" transform="translate(-327.198 -345.676)" fill="#918d8f"/>
      <g id="Grupo_847557" data-name="Grupo 847557" transform="translate(0 25.818)">
        <path id="Trazado_569270" data-name="Trazado 569270" d="M82.144,214.212a1.406,1.406,0,1,0,1.407,1.407A1.406,1.406,0,0,0,82.144,214.212Z" transform="translate(-66.635 -181.305)" fill="#231f20"/>
        <path id="Trazado_569271" data-name="Trazado 569271" d="M152.379,217.017a1.406,1.406,0,1,0-1.407-1.405A1.406,1.406,0,0,0,152.379,217.017Z" transform="translate(-124.602 -181.299)" fill="#231f20"/>
        <path id="Trazado_569272" data-name="Trazado 569272" d="M78.094,121.682a1.426,1.426,0,0,0,1.427-1.427.832.832,0,1,1,1.664,0,1.427,1.427,0,0,0,2.853,0,3.685,3.685,0,1,0-7.371,0A1.427,1.427,0,0,0,78.094,121.682Z" transform="translate(-63.276 -100.718)" fill="#231f20"/>
        <path id="Trazado_569273" data-name="Trazado 569273" d="M132.828,121.671a1.426,1.426,0,0,0,1.427-1.427.832.832,0,0,1,1.664,0,1.427,1.427,0,1,0,2.853,0,3.686,3.686,0,0,0-7.371,0A1.427,1.427,0,0,0,132.828,121.671Z" transform="translate(-108.449 -100.709)" fill="#231f20"/>
        <path id="Trazado_569274" data-name="Trazado 569274" d="M89.431,49.608a14.266,14.266,0,0,0-7.555-12.551,5.145,5.145,0,0,0-2.137-5.9,12.267,12.267,0,0,0-5.778-1.54c-2.24,0-3.26.864-3.72,1.589-1.789,2.816,2.031,7.376,3.988,8.62a5.137,5.137,0,0,0,6.046-.389A11.33,11.33,0,0,1,81.854,58.8a26.678,26.678,0,0,0-7.494-7.105c-6.739-4.408-15.671-6.836-25.151-6.836a53.386,53.386,0,0,0-5.742.315V41.78a6.38,6.38,0,0,0-6.373-6.373h-.353a10.825,10.825,0,0,0,4.3-4.057,5.665,5.665,0,0,0,.319-4.574,1.427,1.427,0,1,0-2.695.937,2.767,2.767,0,0,1-.155,2.319c-1.14,2.2-4.809,3.823-6.727,4.475a7.629,7.629,0,0,0-3.93-1.086H15.612a7.628,7.628,0,0,0-4.044,1.156c-1.844-.6-5.744-2.25-6.934-4.542a2.767,2.767,0,0,1-.157-2.322,1.427,1.427,0,0,0-2.7-.937A5.666,5.666,0,0,0,2.1,31.35a10.827,10.827,0,0,0,4.3,4.057h-.03A6.38,6.38,0,0,0,0,41.78v9.655a1.426,1.426,0,0,0,1.427,1.427H4.415A6.335,6.335,0,0,0,7.935,51.8V53c-3.218,2.2-4.978,5.066-4.978,8.15,0,3.329,2.049,6.4,5.769,8.661a21.269,21.269,0,0,0,4.9,2.139c.858,4.468,3.529,8.6,7.789,12.074l.024.02c.188.152.377.3.571.454V97.548H17.756V81.966a1.427,1.427,0,1,0-2.853,0V104.8a1.427,1.427,0,0,0,1.776,1.383l3.205-.81,3.207.81.024,0c.038.009.076.016.115.022l.045.006q.057.007.114.009l.035,0h.017l.032,0a1.471,1.471,0,0,0,.169-.014l.034,0,5.17-.859,5.167.859a1.427,1.427,0,0,0,1.661-1.407V99.045c0-.023,0-.046,0-.07V91.039a50.321,50.321,0,0,0,9.292,1.594,9.762,9.762,0,0,0,15.742,5.558V104.8a1.427,1.427,0,0,0,1.776,1.383l3.205-.81,3.207.81.025,0c.038.009.076.016.115.022l.044.006c.038,0,.076.007.114.009l.035,0h.017l.031,0a1.476,1.476,0,0,0,.169-.014l.033,0,5.17-.859,5.167.859a1.427,1.427,0,0,0,1.661-1.407V98.975a1.429,1.429,0,0,0-.011-.169V79.375a20.387,20.387,0,0,0,1.623-2.612,10.8,10.8,0,0,0,.65-1.383A16.838,16.838,0,0,0,85.1,68.827a17.021,17.021,0,0,0-1.8-7.559A14.31,14.31,0,0,0,89.431,49.608ZM78.91,36.717a2.282,2.282,0,0,1-3.151.7,9.174,9.174,0,0,1-2.339-2.559c-.842-1.334-.821-2.025-.773-2.122.044-.056.4-.267,1.313-.267a9.47,9.47,0,0,1,4.247,1.094A2.285,2.285,0,0,1,78.91,36.717ZM69.285,52.084A6.905,6.905,0,0,1,56.1,48.174,43.382,43.382,0,0,1,69.285,52.084Zm-28.67-10.3v8.229H39.053c-.09,0-.18-.007-.268-.014a3.765,3.765,0,0,1-.837-.188,1.406,1.406,0,0,0-.186-.048,3.523,3.523,0,0,1-2.227-3.271V38.261H37.1A3.524,3.524,0,0,1,40.615,41.78Zm-12.759-5.5A4.83,4.83,0,0,1,32.68,41.1V51.4c-.382-.173-.775-.333-1.174-.487l-.069-.027q-.273-.1-.552-.2l-.131-.045c-.181-.062-.362-.123-.545-.182l-.094-.029q-.552-.173-1.121-.323l-.126-.034c-.143-.037-.289-.071-.433-.106L28.1,49.89c-.132-.03-.265-.058-.4-.086s-.263-.054-.395-.079-.246-.048-.37-.07c-.158-.028-.318-.055-.477-.081-.1-.016-.2-.034-.3-.049q-.386-.058-.777-.107l-.223-.025c-.2-.023-.4-.044-.6-.063l-.3-.026c-.18-.015-.361-.029-.542-.041l-.3-.019q-.285-.016-.572-.026l-.267-.01c-.279-.008-.559-.013-.839-.013s-.561,0-.839.013l-.267.01q-.287.01-.572.026l-.3.019q-.272.018-.542.041l-.3.026c-.2.019-.4.04-.6.063l-.224.025q-.391.048-.777.107c-.1.015-.2.033-.306.05-.159.026-.318.052-.476.08-.124.022-.248.046-.371.07s-.263.052-.393.079-.268.057-.4.087c-.111.025-.222.052-.333.078-.146.035-.292.07-.436.107l-.115.031q-.579.152-1.141.329l-.084.026c-.185.059-.369.121-.551.184l-.124.043q-.281.1-.557.2l-.062.024c-.4.154-.8.315-1.178.488V41.1a4.83,4.83,0,0,1,4.824-4.825H27.856ZM4.415,50.009H2.853V41.78a3.523,3.523,0,0,1,3.52-3.519H7.935v8.229A3.524,3.524,0,0,1,4.415,50.009Zm1.4,11.138c0-4.931,7.292-9.1,15.923-9.1,7,0,13.115,2.739,15.179,6.4l.024.043c.066.119.126.238.183.359.013.028.027.056.039.083.049.108.093.217.136.326.015.038.03.077.044.115.036.1.068.2.1.3.014.046.029.092.041.138.026.1.047.194.067.292.01.05.023.1.031.149.018.1.03.2.042.3.005.046.013.092.017.138.013.147.02.294.02.443,0,4.931-7.292,9.1-15.923,9.1q-.406,0-.808-.012C12.653,69.982,5.811,65.924,5.811,61.147Zm14.073,41.331a1.427,1.427,0,0,0-.35.043l-1.778.449V100.4h4.257v2.569l-1.78-.449A1.418,1.418,0,0,0,19.884,102.478Zm12.934.641-3.74-.622a1.431,1.431,0,0,0-.468,0l-3.743.622V100.4h7.951Zm1.861-15.345a1.427,1.427,0,0,0-1.857,1.361v8.415H24.868V83.785a1.427,1.427,0,0,0-.58-1.148c-.218-.161-.43-.323-.639-.487-.086-.067-.17-.135-.254-.2q-.17-.136-.336-.274c-.115-.1-.229-.191-.342-.288l-.158-.137a19.762,19.762,0,0,1-4.939-6.341,1.431,1.431,0,0,0-.141-.234,14.911,14.911,0,0,1-.741-2l.133.021q.324.054.652.1c.163.024.326.046.49.067l.323.038q.254.029.509.054l.263.025q.383.034.769.058l.153.008q.334.019.671.03l.22.007c.271.007.542.012.814.012a25.419,25.419,0,0,0,13.007-3.289c3.72-2.256,5.769-5.332,5.769-8.661,0-.182-.007-.364-.02-.545,0-.014,0-.028,0-.043-.013-.176-.032-.352-.057-.526,0-.016,0-.032-.006-.047q-.039-.266-.1-.529l-.006-.028A10.8,10.8,0,0,0,35.533,53v-.866a6.073,6.073,0,0,0,1.539.415,6.344,6.344,0,0,0,1.98.316h2.989a1.426,1.426,0,0,0,1.427-1.427v-3.4a50.646,50.646,0,0,1,5.742-.332q2.046,0,4.048.158a9.759,9.759,0,0,0,18.549,5.592q.5.3.992.621c6.093,3.986,9.449,9.223,9.449,14.747a13.846,13.846,0,0,1-1.054,5.279,1.431,1.431,0,0,0-.128.279c0,.007-.053.145-.166.39-.037.078-.075.156-.113.235-.668,1.337-2.69,4.658-7.664,8.3h0q-.363.266-.748.535a1.427,1.427,0,1,0,1.635,2.338q.41-.287.8-.571h0a36.637,36.637,0,0,0,3.806-3.189V97.548H70.658V87.171a1.423,1.423,0,0,0-1.949-1.324c-.027.011-.055.02-.082.032-.306.143-.616.281-.928.417l-.342.147c-.19.081-.381.158-.572.236a42.227,42.227,0,0,1-4.373,1.491,46.39,46.39,0,0,1-4.745,1.068l-.164.028q-.575.1-1.156.178c-.148.021-.3.043-.445.063-.179.024-.358.046-.537.068q-.332.04-.666.076c-.129.014-.258.029-.387.042q-.519.052-1.041.092l-.34.025q-.5.036-1,.063l-.134.008c-.379.019-.76.032-1.142.043l-.28.007c-.388.009-.776.015-1.166.015-.444,0-.891-.007-1.337-.019l-.228-.006c-.453-.014-.9-.032-1.353-.057h-.01A47.278,47.278,0,0,1,34.679,87.774Zm28.884,6.578c.022-.053.04-.106.061-.159.033-.083.066-.167.1-.251s.05-.145.074-.218.052-.152.075-.229.051-.176.075-.264c.018-.064.037-.127.053-.192.026-.1.049-.206.071-.309.011-.052.024-.1.035-.156.023-.114.042-.228.061-.342.007-.044.016-.088.023-.133.018-.119.032-.24.046-.36,0-.041.011-.083.015-.124.012-.124.021-.248.028-.372,0-.04.007-.079.009-.119q.012-.246.013-.494c0-.013,0-.026,0-.039q1.8-.555,3.506-1.243v8.2H63.563v-3.2h0Zm-9.036,3.2-.1,0a8.354,8.354,0,0,1-3.4-4.779q.3-.01.594-.023l.149-.007q.521-.024,1.04-.059l.136-.009q.563-.039,1.123-.089l.186-.018q.437-.041.871-.089l.357-.04q.385-.045.767-.1c.247-.032.493-.068.738-.1l.412-.061q.349-.054.7-.113l.126-.022q1.614-.277,3.182-.653c-.012.108-.026.215-.043.322-.008.053-.019.1-.028.157s-.021.122-.034.182-.024.1-.036.155-.028.122-.045.183-.026.1-.04.144c-.019.065-.038.13-.059.2-.013.042-.027.085-.042.127-.024.072-.05.143-.077.215-.013.035-.026.071-.04.106-.032.08-.066.16-.1.239A6.926,6.926,0,0,1,54.527,97.548Zm11.163,4.93a1.427,1.427,0,0,0-.35.043l-1.778.449V100.4H67.82v2.569l-1.78-.449A1.419,1.419,0,0,0,65.691,102.478Zm12.934.641-3.74-.622a1.431,1.431,0,0,0-.468,0l-3.743.622V100.4h7.951Z" transform="translate(0 -25.818)" fill="#231f20"/>
        <path id="Trazado_569275" data-name="Trazado 569275" d="M262,237.795a5.612,5.612,0,1,0-5.612-5.612A5.618,5.618,0,0,0,262,237.795Zm0-8.37a2.758,2.758,0,1,1-2.758,2.758A2.762,2.762,0,0,1,262,229.425Z" transform="translate(-211.603 -191.506)" fill="#231f20"/>
      </g>
      <g id="Grupo_847558" data-name="Grupo 847558" transform="translate(24.857 98.073)" opacity="0.15">
        <rect id="Rect치ngulo_281607" data-name="Rect치ngulo 281607" width="3.044" height="5.359" fill="#231f20"/>
      </g>
      <g id="Grupo_847559" data-name="Grupo 847559" transform="translate(63.568 88.989)" opacity="0.15">
        <rect id="Rect치ngulo_281608" data-name="Rect치ngulo 281608" width="3.044" height="14.267" fill="#231f20"/>
      </g>
      <g id="Grupo_847560" data-name="Grupo 847560" transform="translate(70.389 84.638)" opacity="0.15">
        <path id="Trazado_569276" data-name="Trazado 569276" d="M406.281,381h-3.3v-16.55l3.3-1.879Z" transform="translate(-402.983 -362.569)" fill="#231f20"/>
      </g>
      <g id="Grupo_847561" data-name="Grupo 847561" transform="translate(14.89 70.818)" opacity="0.15">
        <path id="Trazado_569277" data-name="Trazado 569277" d="M97.45,294.063c-.082-.064-.16-.131-.241-.2l-.023-.014,0,0a20.53,20.53,0,0,1-6.963-9.613,26.623,26.623,0,0,1-4.982-.792c.664,4.957,3.782,9.452,8.55,12.967v15.952H98.2V296.126A2.756,2.756,0,0,0,97.45,294.063Z" transform="translate(-85.245 -283.447)" fill="#231f20"/>
      </g>
    </g>
    <g id="jeringuilla" transform="translate(641.099 4344.026)">
      <g id="Grupo_847565" data-name="Grupo 847565" transform="translate(12.311 10.87)">
        <g id="Grupo_847563" data-name="Grupo 847563">
          <path id="Trazado_569278" data-name="Trazado 569278" d="M235.9,173.378l-4.075,7.059-7.933-4.592-3.61,6.252,4.166,2.405-1.8,3.123a3.614,3.614,0,0,0,1.323,4.936l1.565.9-1.807,3.13a3.614,3.614,0,0,0,1.323,4.936l6.734,3.888a7.227,7.227,0,0,0,2.329.853l8.235,1.073,5.467,3.157h6.629V192.428l-2.613-1.509-5.622-8.729a7.227,7.227,0,0,0-2.274-2.067l-2.687-1.551,2.117-3.667a1.2,1.2,0,0,0-.441-1.645l-2.086-1.2a3.614,3.614,0,0,0-4.936,1.323Z" transform="translate(-206.061 -156.175)" fill="#ff9d87"/>
          <path id="Trazado_569279" data-name="Trazado 569279" d="M336.883,182.191a7.227,7.227,0,0,0-2.274-2.067l-2.687-1.551,2.117-3.667a1.2,1.2,0,0,0-.441-1.645l-2.086-1.2a3.614,3.614,0,0,0-4.936,1.323l-2.715,4.7a3.614,3.614,0,0,0,1.314,4.931l3.535,2.051-1.489,2.579a6.023,6.023,0,0,0,2.2,8.227l15.693,9.047V192.429l-2.613-1.509Z" transform="translate(-296.735 -156.176)" fill="#ffcec4"/>
          <path id="Trazado_569280" data-name="Trazado 569280" d="M342.79,191.089l-4.208,7.289-7.952-4.591a3.618,3.618,0,0,1-1.323-4.936L332,184.19l-5.615-3.257a1.206,1.206,0,0,1-.436-1.643l3.98-6.894a1.2,1.2,0,0,1,1.019-.6,3.614,3.614,0,0,0-4.371,1.587l-2.715,4.7a3.614,3.614,0,0,0,1.314,4.931l3.535,2.051-1.489,2.579a6.023,6.023,0,0,0,2.2,8.227l7.466,6.355,8.228,2.692V192.433Z" transform="translate(-296.735 -156.18)" fill="#ff9d87"/>
          <path id="Trazado_569281" data-name="Trazado 569281" d="M126.326,54.569l-5.411,9.372L102.2,53.138l1.055-5.639,4.356-3.733Z" transform="translate(-102.204 -43.766)" fill="#a7eed4"/>
          <path id="Trazado_569282" data-name="Trazado 569282" d="M124.24,103.468l-4.207,7.286-17.36-10.023-.47,2.511,18.711,10.8,5.411-9.372Z" transform="translate(-102.204 -93.87)" fill="#69bdc6"/>
          <g id="Grupo_847562" data-name="Grupo 847562" transform="translate(11.89 4.175)">
            <path id="Trazado_569283" data-name="Trazado 569283" d="M245.733,287.516a3.606,3.606,0,0,0-1.32-4.926l-6.252-3.61-1.8,3.116a3.614,3.614,0,0,0,1.323,4.936l1.565.9,1.558.9A3.606,3.606,0,0,0,245.733,287.516Z" transform="translate(-231.666 -254.822)" fill="#ffcec4"/>
            <path id="Trazado_569284" data-name="Trazado 569284" d="M253.154,361.082a3.606,3.606,0,0,0-1.32-4.926l-4.7-2.714-1.8,3.117a3.614,3.614,0,0,0,1.323,4.936l1.571.907A3.606,3.606,0,0,0,253.154,361.082Z" transform="translate(-239.557 -320.314)" fill="#ffcec4"/>
            <path id="Trazado_569285" data-name="Trazado 569285" d="M209.231,206.854a3.614,3.614,0,0,1-4.936,1.323l-1.571-.907a3.614,3.614,0,0,1,3.614-6.259l1.571.907A3.614,3.614,0,0,1,209.231,206.854Z" transform="translate(-200.916 -185.818)" fill="#ffcec4"/>
            <path id="Trazado_569286" data-name="Trazado 569286" d="M244.79,87.28a3.614,3.614,0,0,1-4.426-2.555l-.47-1.753a3.614,3.614,0,1,1,6.981-1.871l.47,1.752A3.614,3.614,0,0,1,244.79,87.28Z" transform="translate(-235.09 -78.422)" fill="#ffcec4"/>
          </g>
          <path id="Trazado_569287" data-name="Trazado 569287" d="M0,0H3.7V10.026H0Z" transform="matrix(0.866, 0.5, -0.5, 0.866, 27.575, 13.728)" fill="#a7eed4"/>
          <path id="Trazado_569288" data-name="Trazado 569288" d="M0,0H2.8V3.7H0Z" transform="matrix(0.5, -0.866, 0.866, 0.5, 22.562, 22.412)" fill="#69bdc6"/>
        </g>
        <g id="Grupo_847564" data-name="Grupo 847564" transform="translate(36.017 29.199)">
          <path id="Trazado_569289" data-name="Trazado 569289" d="M453.421,291.041l-3.15-4.872-1.517.981,3.386,5.238,2.8,1.618.9-1.565Z" transform="translate(-443.027 -286.169)"/>
          <path id="Trazado_569290" data-name="Trazado 569290" d="M0,0H1.807V1.807H0Z" transform="matrix(0.5, -0.866, 0.866, 0.5, 0, 13.46)"/>
        </g>
      </g>
      <g id="Grupo_847566" data-name="Grupo 847566" transform="translate(0 6.365)">
        <path id="Trazado_569291" data-name="Trazado 569291" d="M40.5,60.073a6.3,6.3,0,0,1-2.017-.743l-2.04-1.178A4.5,4.5,0,0,0,36.93,50.1l-.03-.017a4.5,4.5,0,0,0,1.078-7.66l1.311-2.27-1.565-.9L36.44,41.476l-4.506-2.61-.764-.441a4.52,4.52,0,0,0,2.7-4.677l4.51,2.6a4.482,4.482,0,0,0,1.925,2.18l2.74,1.561-1.034,1.792a6.934,6.934,0,0,0,2.535,9.461l2.215,1.279.9-1.565-2.215-1.279a5.119,5.119,0,0,1-1.874-6.993l1.943-3.366-4.317-2.46a2.71,2.71,0,0,1-1-3.708l2.731-4.73a2.713,2.713,0,0,1,3.7-.992l2.333,1.339L46.265,33.6l3.469,2a6.282,6.282,0,0,1,1.977,1.791l1.363,2.128,1.521-.975-1.4-2.184a8.077,8.077,0,0,0-2.558-2.325l-1.9-1.1,2.7-4.736-3.9-2.233a4.51,4.51,0,0,0-3.95-.273l-4.035-2.329-2.3,3.988-2.292-1.323,4.862-8.421-1.565-.9-1.1,1.905-.3-1.119a4.514,4.514,0,0,0-8.135-1.311L17.62,9.768,13.264,13.5.9,6.365,0,7.93l12.361,7.136-1.055,5.639,7.569,4.37.9-1.565-6.461-3.73.879-4.7,3.629-3.11,1.736,1L18.22,15.3l1.565.9,1.341-2.322,1.634.944-2.24,3.88,1.565.9,2.24-3.88,1.529.883L24.512,18.93l1.565.9,1.341-2.322.631.364a4.49,4.49,0,0,0,.084,1.953l.47,1.753a4.51,4.51,0,0,0,4.929,3.312l-2.84,4.918-9.362-5.405-.9,1.565,5.616,3.242a4.517,4.517,0,0,0-.484,8.066l3.909,2.248-1.351,2.341a4.517,4.517,0,0,0,1.653,6.171l.782.452L29.2,50.837a4.517,4.517,0,0,0,1.653,6.17L37.582,60.9a8.107,8.107,0,0,0,2.62.96l8.1,1.057,5.311,3.066.9-1.565-5.623-3.247Zm-.285-34.24,1.639.946L37.746,33.9l-1.639-.946Zm-9.87-4.719-.47-1.753a2.71,2.71,0,1,1,5.236-1.4l.47,1.753a2.71,2.71,0,0,1-5.236,1.4Zm3.711,6.48,2.292,1.323-1.808,3.131-2.292-1.323ZM28.2,36.71l-1.741-1a2.71,2.71,0,0,1,2.71-4.695l1.758,1.027A2.709,2.709,0,0,1,28.2,36.71Zm1.478,6.061,1.348-2.334L36.5,43.6a2.7,2.7,0,0,1-2.7,4.681l-3.123-1.8a2.713,2.713,0,0,1-.992-3.7ZM33.324,56.35l-1.571-.907a2.71,2.71,0,0,1-.992-3.7l1.348-2.334,3.918,2.262a2.7,2.7,0,0,1-2.7,4.681Z" transform="translate(0 -6.365)"/>
        <path id="Trazado_569292" data-name="Trazado 569292" d="M453.421,291.041l-3.15-4.872-1.517.981,3.386,5.238,2.8,1.618.9-1.565Z" transform="translate(-394.699 -252.465)"/>
        <path id="Trazado_569293" data-name="Trazado 569293" d="M0,0H1.807V1.807H0Z" transform="matrix(0.5, -0.866, 0.866, 0.5, 48.328, 47.163)"/>
      </g>
    </g>
  </g>
</svg>
