<svg xmlns="http://www.w3.org/2000/svg" xmlns:xlink="http://www.w3.org/1999/xlink" width="518.5" height="361.599" viewBox="0 0 518.5 361.599"><defs><clipPath id="a"><rect width="518.5" height="361.599" fill="none"/></clipPath><clipPath id="c"><rect width="233.026" height="134.816" fill="none"/></clipPath><clipPath id="d"><rect width="12.814" height="9.133" fill="none"/></clipPath><clipPath id="e"><rect width="20.685" height="11.139" fill="none"/></clipPath><clipPath id="f"><rect width="16.891" height="9.915" fill="none"/></clipPath><clipPath id="g"><rect width="69.052" height="133.327" fill="none"/></clipPath><clipPath id="h"><rect width="36.197" height="103.489" fill="none"/></clipPath><clipPath id="i"><rect width="1.368" height="7.972" fill="none"/></clipPath></defs><g clip-path="url(#a)"><path d="M0,160.636,254.557,308.572,518.421,154.1,263.864,6.165Z" transform="translate(0 24.354)" fill="#bbdeaf"/><path d="M.079,66.047,254.636,213.978l-.079-28.677L0,37.369Z" transform="translate(0.001 147.622)" fill="#006c62"/><path d="M51.422,190.519l.079,28.672L315.365,64.726l-.079-28.677Z" transform="translate(203.137 142.405)" fill="#d5ebcd"/><path d="M340.866,83.984,131.456,205.678,15.8,138.908,225.211,17.214Z" transform="translate(62.421 67.999)" fill="#737284"/><path d="M248.594,30.7l-.03,9.628L39.159,162.024l.025-9.628Z" transform="translate(154.693 121.282)" fill="#4f4f5a"/><path d="M131.476,108.567l-.025,9.628L15.8,51.425l.025-9.628Z" transform="translate(62.401 165.112)" fill="#666674"/><g clip-path="url(#a)"><g transform="translate(123.903 115.887)" opacity="0.09" style="mix-blend-mode:multiply;isolation:isolate"><g clip-path="url(#c)"><path d="M96.606,158.228l161.451-93.21L186.48,23.41,25.029,116.625Z" transform="translate(-25.029 -23.411)" fill="#414042"/></g></g><path d="M22.533,214.622a3.66,3.66,0,0,1-3.663-3.658v-85.1c0-9.762,6.158-20.965,14.014-25.5L203.523,2.044c4.242-2.445,8.47-2.708,11.906-.723C219.1,3.44,221.2,7.87,221.2,13.484v85.1a3.663,3.663,0,0,1-7.327,0v-85.1c0-2.881-.787-5.059-2.1-5.822-1.455-.837-3.495.094-4.589.728L36.548,106.7C30.939,109.941,26.2,118.718,26.2,125.862v85.1a3.66,3.66,0,0,1-3.663,3.658" transform="translate(74.543 0.001)" fill="#636470"/><path d="M22.6,124.739a3.665,3.665,0,0,1-1.817-6.846L215.465,6.867a3.663,3.663,0,1,1,3.624,6.366L24.411,124.254a3.645,3.645,0,0,1-1.812.485" transform="translate(74.799 25.222)" fill="#636470"/><path d="M22.6,132.649a3.665,3.665,0,0,1-1.817-6.846L215.465,14.781a3.663,3.663,0,1,1,3.624,6.366L24.411,132.164a3.645,3.645,0,0,1-1.812.485" transform="translate(74.799 56.499)" fill="#636470"/><path d="M104.128,72.636a.687.687,0,0,1-.663-.51c-.757-2.9-3.9-4.015-7.232-5.193-1.02-.366-2.084-.738-3.049-1.168C86.51,62.809,82.9,55.8,80.757,50.795c-4.044-9.46-7.312-23.975-9.94-35.638-.723-3.208-1.391-6.2-2.02-8.812a.683.683,0,1,1,1.327-.322c.629,2.619,1.307,5.619,2.03,8.831,2.614,11.609,5.866,26.059,9.861,35.4,3.252,7.629,6.98,12.163,11.722,14.262.921.406,1.906.757,2.955,1.129,3.515,1.243,7.153,2.53,8.1,6.133a.686.686,0,0,1-.49.837.716.716,0,0,1-.173.02" transform="translate(271.698 21.718)" fill="#ddcac1"/><path d="M53.891,50.85c-4.624,13.43-1,13.98-2.792,20.46C49.8,76,46.846,84.617,48.613,89.156c1.337,3.436,1.653,6.787-.054,10.069-.6,1.148-1.782,1.916-2.475,3.02-1.713,2.693-.223,5.911.683,9.138a12.593,12.593,0,0,1,.559,3.7c-.233,6.168-13.307,5.708-13.757.262a28.1,28.1,0,0,1,.411-4.693,66.064,66.064,0,0,1,1.3-6.866,74.956,74.956,0,0,0,2.9-19.692c.01-1.01-.713-13.678-.728-14.7-.069-5.6-1.995-8.93-1.995-10.188-.015-7.223-12.678-36.667.109-35.242,4.213.46,12.242,14.589,13.91,18.5s5.8,4.381,4.416,8.386" transform="translate(117.916 94.472)" fill="#cdb3a7"/><path d="M76.4,43.3c-1.163,4.228-4.95,14.524-3.351,18.613,0,0-1.163,11.995-1.243,13.158-.223,2.965.49,7.029.683,10.614a15.829,15.829,0,0,1-.342,5.223C71.436,93.347,60.907,93.7,60.372,89.2a20.9,20.9,0,0,1,.752-4.089c.985-4.569,2.173-12.6-1.148-24.1-.257-.876-3.53-7.921-3.544-8.836-.054-5.059,2.134-11.321,2.134-12.46-.01-6.51-4.663-28.212,6.866-26.93,3.8.426,6.881,3.515,8.386,7.029s2.381,5.158,2.584,8.99c.327,6.044,1.614,8.653,0,14.495" transform="translate(222.922 50.308)" fill="#cdb3a7"/><path d="M65.58,50.941A19.293,19.293,0,0,0,66.2,47.9a.485.485,0,0,1,.792-.312,7.2,7.2,0,0,0,3.317,1.03,1.187,1.187,0,0,1,1.04,1.282c-.139,1.545-.386,3.837.441,3.837,1.059,0,1.535-2.6,1.688-4.079a.926.926,0,0,1,.926-.842c.9,0,2.134.01,2.876.01a.556.556,0,0,1,.545.436c.342,1.47-.292,4.218.832,4.218,1.3,0,1.074-2.436.975-3.921a1.038,1.038,0,0,1,.906-1.094c.624-.084,1.183-.173,1.653-.267a1.038,1.038,0,0,1,1.223,1.04c-.01.688-.015,1.411.02,1.629.332,1.881,1.658,3.361,1.837,1.455a31.019,31.019,0,0,0,.332-4.049.967.967,0,0,1,.921-1.03c.2-.01.406-.025.629-.035a1.587,1.587,0,0,1,1.614,1.153,6.678,6.678,0,0,0,.252.634c.282.678-.351,3.47.955,2.941s1.545-2.559,1.247-4.153a.889.889,0,0,1,.663-1.045c.307-.074.713-.188,1.252-.361a.676.676,0,0,1,.881.535c.356,2.441-.054,8.054,1.921,2.683a5.81,5.81,0,0,0-.084-3.421c-.411-1.673,6.807-2.04,6.039-3.45,3.094-.134,6.737-9.114,7.935-11.97a8.406,8.406,0,0,0-1.485-8.678c-2.629-2.911-6.871-3.554-10.762-4.01-7.693-.906-15.574-1.743-23.113.015s-14.811,6.643-17.321,13.97c-.936,2.728-1.114,5.931.475,8.336,1.465,2.223,5.213,2.495,6.257,4.634.574,1.173.347,3.356.03,5.559a.859.859,0,0,0,1.673.366" transform="translate(222.927 67.342)" fill="#8e5b5c"/><path d="M263.784,32.323v.163a80.857,80.857,0,0,1-1.411,12.079v.01a126.241,126.241,0,0,1-4.346,17.292c-11.668,26.108-25.509,13.2-26.494,14.6-1.777,2.5-3.569,4.965-5.4,7.4-31.083,41.276-70.2,71.538-103.7,61.256-.653-.208-1.3-.411-1.941-.644-2.282,2.351-4.337,4.351-6.193,6.02-.426.381-.837.738-1.233,1.079a40.553,40.553,0,0,1-5.539,4.129c-9.109,5.5-12.173-.792-20.569-8.777-18.806-17.945-22.786-27.054-32.905-27.658-4.5-.287-10.232,1.124-19.024,4.2-28.559,9.97-6.742-55.063-6.742-55.063s30.4,9.356,54.949-20.678c11.2-13.708,25.059-21.663,37.42-23.445,4.351-.629,20.5-4.539,24.88-4.074,8.574.891,22.306-6.742,30.92-7.455a74.166,74.166,0,0,0,25.1-6.426c3.8-1.738,7.643-3.614,11.841-4.2,4.5-.629,8.97.366,13.282,1.668,4.554,1.366,9.079,2.856,13.623,4.307,4.47,1.411,9.049,2.653,13.44,4.3a11.388,11.388,0,0,1,4.856,3.1,3.3,3.3,0,0,1,.426.644c.723,1.312.792,2.995,1.856,4.059,2.3,2.3,3.025,6.836,2.9,12.1" transform="translate(80.276 7.691)" fill="#f8eeea"/><path d="M58.529,34.9S63.9,42.266,68.91,41.7s4.436-4.044,9.193-3.381,12.118-.579,12.911-1.371S77.519,17.687,76.623,17.687,58.529,34.9,58.529,34.9" transform="translate(231.21 69.87)" fill="#b1665c"/><path d="M30.7,27.736c-.025.149-.054.3-.079.45l-.045.163c-.9,2.886-6.4,5.678-9.559,5.035-1.5-1.257-2.693-5.609-2.723-5.866a9.648,9.648,0,0,1-.4-2.218v-.025c-.188-2.574.218-7.084,4.089-12.064a.848.848,0,0,1,1.559.426A18.7,18.7,0,0,0,27.9,24.345a17.769,17.769,0,0,0,2.747,2.639,1.926,1.926,0,0,1,.054.752" transform="translate(70.571 50.678)" fill="#8e7459"/><g transform="translate(88.475 75.024)" opacity="0.49" style="mix-blend-mode:multiply;isolation:isolate"><g clip-path="url(#d)"><path d="M30.674,18.546c-.025.149-.054.3-.079.45l-.045.163c-.9,2.886-6.4,5.678-9.559,5.035-1.5-1.257-2.693-5.609-2.723-5.866a9.648,9.648,0,0,1-.4-2.218c1.079,2.243,2.53,4.871,3.5,5,1.52.193,3.421-5.03,6.5-5.96a17.769,17.769,0,0,0,2.747,2.639,1.926,1.926,0,0,1,.054.752" transform="translate(-17.874 -15.156)" fill="#8e7459"/></g></g><path d="M74.093,44.63c-.257,1.931.03,11.158-8.52,17.41-4.762,3.475-22.717,16.495-22.717,21.351,0,5.02-16.985,12.415-25.494-3.584-1.911-3.6,3.2-11.6,4.213-15.316.262-.96.564-2.342.876-3.9h.015c1.025-5.1,2.2-12.213,2.322-13.47-.748-.782-1.46-1.589-2.129-2.436-2.054-2.653-3.584-5.935-2.713-9.341a59.057,59.057,0,0,1,3.995-10.064c2.406-4.747,5.827-9.425,9.9-9.822,1.426-.233,18.039-.3,24.252,2.475,4.5,2.178,16.643,11.227,16,26.7" transform="translate(66.913 60.659)" fill="#414042"/><path d="M43.033,23.426c-.084.47-.193.916-.3,1.366a21.91,21.91,0,0,1-2.351,5.787,13.49,13.49,0,0,1-2.856,3.733c-4.733,1.846-10.356-3.158-11.683-6.836a2.851,2.851,0,0,1,.084-2.668.862.862,0,0,1,.653-.426c3.351-.436,6.881-.871,9.876-2.569,2.45-1.411,4.594-3.772,4.871-6.683.079-.881,1.445-1.223,1.639-.223a22.52,22.52,0,0,1,.069,8.52" transform="translate(100.968 56.478)" fill="#8e7459"/><path d="M40.229,18.318c4.134.822,7.292,4.213,9.807,7.4a19.167,19.167,0,0,1,3.044,5.277c.673,1.871,1.228,4.277-.153,5.965a5.682,5.682,0,0,1-4.51,1.827,14.747,14.747,0,0,1-6.3-2.139q-6.163-3.23-12.307-6.5a20.312,20.312,0,0,0-1.663-8.93c-.134-.307-.272-.614-.421-.916,3.94-1.351,8.3-2.812,12.5-1.98" transform="translate(109.539 71.402)" fill="#414042"/><path d="M87.386,57.824c-.426.381-.837.738-1.238,1.079a41.049,41.049,0,0,1-5.535,4.134c-9.109,5.495-12.173-.8-20.569-8.782C41.244,36.31,37.263,27.2,27.135,26.6c4.48-.916,13.876-2.4,16.8.535,3.886,3.881,18.5,10.213,24.479,12.911C71.4,41.369,79.742,49.74,87.386,57.824" transform="translate(107.193 100.364)" fill="#ddcac1"/><path d="M22.823,26.035c.723-2.837,3.817-4.51,6.44-5.228,2.52-.688,5.455-.559,7.317,1.46-1.95,4.079-5.559,8.322-10.227,8.361a3.513,3.513,0,0,1-3.53-4.594" transform="translate(89.614 80.71)" fill="#fff"/><path d="M62.574,62.763a38.214,38.214,0,0,0,.262,15.123c.708,3.406,3.416,10.559,2.1,13.787a17.176,17.176,0,0,1-1.356,2.475,11.913,11.913,0,0,0-1,1.955c-.738,1.955-.084,4.134-.371,6.2a149.344,149.344,0,0,0-1.45,23.1c0,2.312.3,5.391.6,8.426s.614,6,.614,8.084c0,4.663-13.618,5.153-14.99.545-.985-3.3-.054-6.178.807-9.312a30.481,30.481,0,0,0,.891-3.856c1.45-9.658.792-20.692-.233-34.41-.153-2.109-2.064-3.693-2.436-5.747-.421-2.337.248-6.688.847-8.985a24.012,24.012,0,0,0,.8-6.8c-.262-13.307-10.821-24.6-12.118-39C33.9,15.729,59.881,22.719,69.4,33.674a12.938,12.938,0,0,1,2.158,3.119,4.872,4.872,0,0,1,.386,1.391c.188,1.876-.837,3.629-1.752,5.292-3.653,6.624-6.44,12.792-7.619,19.287" transform="translate(140.138 90.055)" fill="#f8eeea"/><path d="M104.905,20.324v.015c1.421,14.183-9.218,28.281-2.381,41.41,3.8,7.277-2.089,14.47-.752,22.569.96,5.812-1.272,18.613-.653,24.479.49,4.624,2.242,14,2.242,18.4,0,4.648.342,5.906-9.614,5.836-3.188-.025-4.475-1.421-3.025-12.019.426-3.079,1.134-7.356,1.545-10.435,1.148-8.737-2.842-23.524-3.282-26.366-.668-4.3-2.094-6.8-5.609-9.341A58.356,58.356,0,0,1,68.664,59.63a51.9,51.9,0,0,1-6.4-13.539A44.987,44.987,0,0,1,60.54,27.052L93.514,13.389l12.8-5.307h.01l-.01.168Z" transform="translate(237.743 31.927)" fill="#f8eeea"/><path d="M29.361,22.258a3.822,3.822,0,0,1-1.782,3.921c-1.223.545-3.322.015-4.119-.356a.59.59,0,0,1-.347-.569c.035-.881.54-3.089,1.99-3.921,1.337-.762,3.871.069,4.257.926" transform="translate(91.304 83.085)" fill="#231f20"/><path d="M25.765,22.175a1,1,0,1,1-1-1,1.006,1.006,0,0,1,1,1" transform="translate(93.841 83.629)" fill="#fff"/><path d="M37.88,18.555c3.277.648,5.777,3.337,7.767,5.861A15.175,15.175,0,0,1,48.067,28.6c.53,1.485.97,3.391-.129,4.728a4.492,4.492,0,0,1-3.569,1.45,11.684,11.684,0,0,1-4.99-1.7c-3.257-1.7-6.5-3.431-9.757-5.148a16.091,16.091,0,0,0-1.317-7.079c-.1-.248-.218-.49-.332-.728,3.124-1.069,6.574-2.228,9.906-1.569" transform="translate(110.507 72.541)" fill="#333135"/><path d="M65.235,31.719c-11.48-1.243-18,14.608-21.3,25.677-1.733,5.822-1.881,11.208,2.287,13.227,10.708,5.193,34.94,5.193,34.94,13.643S84.547,101.925,93,99.579s19.44-13.965,19.44-23.088-3.059-22.811,6.866-26.925,24.1-18.93,18-25.029-6.807-6.6-8.435-12.584C124.615-3.7,105.318,6.562,104.833,8.759c-3.945,17.717-19.237,25.163-39.6,22.96" transform="translate(169.055 13.532)" fill="#414042"/><path d="M188.731,33.222v.015c1.421,14.183-9.218,28.281-2.381,41.41,3.8,7.277-2.089,14.47-.752,22.569.96,5.812-1.272,18.613-.653,24.479.411,3.911,1.738,11.242,2.119,16.069.079.861.124,1.653.124,2.327,0,4.648.342,5.906-9.614,5.836-2.752-.025-4.089-1.064-3.46-8.163.094-1.119.243-2.406.436-3.856.426-3.079,1.134-7.356,1.545-10.435,1.148-8.737-2.842-23.524-3.282-26.366-.668-4.3-2.094-6.8-5.609-9.341A58.356,58.356,0,0,1,152.49,72.528c-31.088,41.276-70.2,71.542-103.7,61.256a38.236,38.236,0,0,0,.257,15.128c.713,3.406,3.653,10.668,2.109,13.787-5.1,10.312-6.223,3.267-6.718,4.074,1.931-5.975-.218-18.41-4.5-24.331a5.549,5.549,0,0,1-.52-2.2c-1.747-9.792,1.728-27.737,6.158-32.167,2.475-2.475,7.193-1.639,12.2-.257,4.693,1.3,9.614,3.074,13.158,3.074,7.331,0,37.2-16.806,46.212-20.089s26.326-24.41,28.257-30.717a2.2,2.2,0,0,1,.683-1.094,4.325,4.325,0,0,1,3.515-.574c11.321,1.683,22.376-4.431,26.2-15.222.178-.5.356-.985.5-1.436,1.45-4.267,1.411-10.465,1.03-15.47,0-.04-.015-.094-.015-.134a24.532,24.532,0,0,1,4.238-15.826l3.817-5.51c.723,1.312.792,2.995,1.861,4.059,2.3,2.3,3.02,6.841,2.9,12.1h.01l-.01.168a82.118,82.118,0,0,1-1.411,12.074" transform="translate(153.917 19.029)" fill="#ddcac1"/><path d="M18.935,28.8s5.718-.441,5.718,1.173,1.025,3.812-1.173,3.812S18.935,28.8,18.935,28.8" transform="translate(74.8 113.556)" fill="#333135"/><path d="M17.163,28.116c-.168-.6,3.495,2.049,3.495,4.4s-2.742-1.673-3.495-4.4" transform="translate(67.78 110.727)" fill="#333135"/><g transform="translate(85.184 135.325)" opacity="0.25" style="mix-blend-mode:screen;isolation:isolate"><g clip-path="url(#e)"><path d="M17.992,27.336s5.861,2.931,7.767,2.054,7.559-.342,8.059.163,4.832,2.936,3.96,3.807,1.173,5.114-1.465,5.114-1.668-5.569-3.693-5.569-9.351,1.025-10.381,0-7.178-2.639-4.247-5.569" transform="translate(-17.208 -27.338)" fill="#414042"/></g></g><g transform="translate(126.81 81.274)" opacity="0.33" style="mix-blend-mode:multiply;isolation:isolate"><g clip-path="url(#f)"><path d="M42.507,16.418A22.078,22.078,0,0,1,40.155,22.2a13.729,13.729,0,0,1-2.861,3.733c-4.728,1.846-10.351-3.158-11.678-6.841,1.97,1.5,5.648,4.079,7.891,4.079,3.188,0,8.331-6.074,9-6.757" transform="translate(-25.617 -16.417)" fill="#8e7459"/></g></g><path d="M48.479,28.447c-3.544,1.465-7.727.837-7.727,4.391s3.163,7.7.2,11.985c-1.426,2.069-1.4,4.817-4.2,5.153-2.049.243,0,5.168-6.178,7.926-1.238.554-11.2,2.985-10.312-.911,1.025-5.1,2.2-12.213,2.322-13.475-.752-.777-1.46-1.584-2.134-2.431-2.049-2.653-3.584-5.935-2.708-9.341a59.043,59.043,0,0,1,3.995-10.069,20.384,20.384,0,0,0,7.3-1.777c1.238-.554,4.148-2.3,6.713-3.287a5.488,5.488,0,0,1,5.089.683c1.772,1.218,4.228,1.074,5.757,2.6,2.079,2.079,5.421,7.084,1.876,8.549" transform="translate(69.112 64.258)" fill="#f8eeea"/><path d="M85.358,28.132C84.1,26.35,82.8,24.608,81.4,22.974c-1.416-1.54-3.1-3.218-5.015-3.445L76.725,19a11.906,11.906,0,0,0,3.01,3.9c1.188,1.094,2.7,2.465,2.594,4.277-.168-1.777-1.713-2.782-2.931-3.906a12.446,12.446,0,0,1-3.351-3.96l-.252-.53.589,0A4.923,4.923,0,0,1,79.532,20.2a18.8,18.8,0,0,1,2.3,2.4,28.289,28.289,0,0,1,3.525,5.53" transform="translate(299.413 74.192)" fill="#231f20"/><path d="M75.914,19.019a3.959,3.959,0,0,1,1.485-.193,7.6,7.6,0,0,1,3.059,1.257,16.254,16.254,0,0,1,2.327,2.292,8.209,8.209,0,0,1,.817,1.238s-.436-.4-1.089-.985a15.74,15.74,0,0,0-2.455-1.99,7.053,7.053,0,0,0-2.723-1.45,4.759,4.759,0,0,0-1.421-.168" transform="translate(299.887 74.329)" fill="#231f20"/><path d="M75.895,18.779a4.741,4.741,0,0,0,.292,1.4,7.08,7.08,0,0,0,1.673,2.589,15.966,15.966,0,0,0,2.2,2.277c.644.6,1.074,1,1.074,1a7.959,7.959,0,0,1-1.3-.708,15.742,15.742,0,0,1-2.485-2.119,7.6,7.6,0,0,1-1.515-2.941,3.855,3.855,0,0,1,.064-1.5" transform="translate(299.362 74.184)" fill="#231f20"/><path d="M81.725,29.281a5.1,5.1,0,0,0-1.084-1.589,6.55,6.55,0,0,0-1.51-1.223,4.549,4.549,0,0,1-1.837-1.559,12.886,12.886,0,0,1-1.46-6.173s.188.762.475,1.906a12.082,12.082,0,0,0,1.559,3.9,3.919,3.919,0,0,0,1.545,1.5,7.1,7.1,0,0,1,1.51,1.416,3.969,3.969,0,0,1,.8,1.827" transform="translate(299.552 74.018)" fill="#231f20"/><path d="M82.032,29.121a3.943,3.943,0,0,1-1.188-1.6,7.033,7.033,0,0,1-.48-2.02,3.884,3.884,0,0,0-.54-2.079,12.155,12.155,0,0,0-2.609-3.287C76.364,19.32,75.8,18.78,75.8,18.78a12.865,12.865,0,0,1,4.638,4.327,4.5,4.5,0,0,1,.441,2.371,6.678,6.678,0,0,0,.317,1.916,5.154,5.154,0,0,0,.842,1.728" transform="translate(299.417 74.188)" fill="#231f20"/><path d="M53.13,53.853c0,3.025-5.688,4.282-10.094,3.569a11.15,11.15,0,0,1-2.173-.589A4.127,4.127,0,0,1,38.141,54.4c-.985-3.3-.054-6.183.8-9.317a10.264,10.264,0,0,0,10.015,1.941c1.287-.4,2.465-.817,3.559-1.257.312,3.04.614,6,.614,8.084" transform="translate(148.997 178.106)" fill="#414042"/><path d="M44.369,45.868c-.178,4.609-7.534,5.51-11.42,3.406a5.224,5.224,0,0,1-1.4-1.079,3.435,3.435,0,0,1-.941-2.069,28.008,28.008,0,0,1,.411-4.688,9,9,0,0,0,8.025,1.777c2-.436,3.544-.777,4.762-1.054a12.649,12.649,0,0,1,.559,3.708" transform="translate(120.873 163.691)" fill="#414042"/><path d="M40.526,52.761a11.055,11.055,0,0,1-2.173-.589c.218-2.01.7-5.114,1.5-5.906a47.384,47.384,0,0,0,.668,6.495" transform="translate(151.508 182.767)" fill="#231f20"/><path d="M32.187,47.008a5.146,5.146,0,0,1-1.4-1.079,18.53,18.53,0,0,1,1.327-3.886c.4-.4.193,2.886.069,4.965" transform="translate(121.635 165.956)" fill="#231f20"/><path d="M70.874,39.837H69.85a5.581,5.581,0,0,1-1.069-.094c-2.025-.342-2.941-1.955-2.391-8.069,2.267,1.257,5.673,2.718,8.015,1.8,1.282-.49,3.089-1.148,4.935-1.8.084.861.124,1.653.124,2.322,0,4.49.312,5.812-8.589,5.841" transform="translate(261.641 125.123)" fill="#414042"/><path d="M69.012,33.153c-.713,2.436-11.242,2.792-11.777-1.708a21.306,21.306,0,0,1,.752-4.089c1.738,1.282,3.94,2.5,5.856,2.158a33.639,33.639,0,0,0,5.51-1.584,15.7,15.7,0,0,1-.342,5.223" transform="translate(226.059 108.066)" fill="#414042"/><path d="M68.841,32.386v4.638H67.816a5.2,5.2,0,0,1-1.069-.1c.673-1.2,2.094-3.856,2.094-4.539" transform="translate(263.674 127.936)" fill="#231f20"/><path d="M57.462,31.071l1.614-3.119.713,4.213Z" transform="translate(226.995 110.42)" fill="#231f20"/><path d="M74.245,65.548a9.687,9.687,0,0,1-8.069-3.812c-7.762-10.039-.985-36.548-.693-37.677l1.327.347c-.074.267-6.906,26.984.45,36.494a8.264,8.264,0,0,0,6.985,3.287c18.153,0,49.528-35.89,49.84-36.256l1.035.9c-1.3,1.5-32.1,36.717-50.875,36.717" transform="translate(246.756 95.042)" fill="#b1665c"/><path d="M76.541,74.375a17.141,17.141,0,0,1-11.148-3.96c-8.227-6.723-5.762-38.083-5.653-39.42a.648.648,0,0,1,.738-.624.684.684,0,0,1,.624.743c-.025.317-2.515,31.974,5.158,38.241a16.3,16.3,0,0,0,13.054,3.455c24.475-3.4,56.761-49.276,57.083-49.736a.7.7,0,0,1,.955-.168.686.686,0,0,1,.168.95c-1.337,1.911-32.954,46.83-58.018,50.305a21.819,21.819,0,0,1-2.96.213" transform="translate(234.297 90.016)" fill="#0147ca"/><path d="M41.756,225.245a3.66,3.66,0,0,1-3.663-3.658v-85.1c0-9.762,6.158-20.97,14.019-25.5L222.746,12.672c4.247-2.455,8.475-2.713,11.906-.723,3.668,2.119,5.772,6.544,5.772,12.158v85.1a3.663,3.663,0,0,1-7.327,0v-85.1c0-2.881-.787-5.054-2.1-5.817-1.441-.837-3.495.1-4.589.728L55.771,117.327c-5.609,3.238-10.351,12.014-10.351,19.163v85.1a3.66,3.66,0,0,1-3.663,3.658" transform="translate(150.481 41.965)" fill="#8f8fa3"/><path d="M41.823,135.36a3.665,3.665,0,0,1-1.817-6.846L234.689,17.487a3.663,3.663,0,0,1,3.624,6.366L43.635,134.875a3.645,3.645,0,0,1-1.812.485" transform="translate(150.741 67.189)" fill="#8f8fa3"/><path d="M41.823,143.275a3.665,3.665,0,0,1-1.817-6.846L234.689,25.4a3.663,3.663,0,0,1,3.624,6.366L43.635,142.79a3.645,3.645,0,0,1-1.812.485" transform="translate(150.741 98.466)" fill="#8f8fa3"/><g transform="translate(371.254 63.311)" style="isolation:isolate"><g clip-path="url(#g)"><path d="M120.707,16.184l.267,93.5L81.1,132.705l-.267-93.5Z" transform="translate(-51.92 0.621)" fill="#565662"/><path d="M104.178,127.748,75.263,110.941,75,17.439,103.91,34.245Z" transform="translate(-74.995 5.579)" fill="#666674"/><path d="M103.911,52.614,75,35.808l39.865-23.019L143.781,29.6Z" transform="translate(-74.994 -12.791)" fill="#828294"/><g transform="translate(30.886 23.321)" opacity="0.52" style="mix-blend-mode:multiply;isolation:isolate"><g clip-path="url(#h)"><path d="M81.463,120.988l-.228-82.725L117.2,17.5l.233,82.725-.347.193ZM82.6,39.055l.228,79.562,33.232-19.188-.228-79.562Z" transform="translate(-81.232 -17.497)" fill="#565662"/></g></g><g transform="translate(36.334 75.798)" opacity="0.7" style="mix-blend-mode:multiply;isolation:isolate"><g clip-path="url(#i)"><path d="M83.018,36.071a.685.685,0,0,1-.683-.683V28.779a.683.683,0,0,1,1.366,0v6.609a.684.684,0,0,1-.683.683" transform="translate(-82.336 -28.1)" fill="#565662"/></g></g></g></g></g></g></svg>