<svg xmlns="http://www.w3.org/2000/svg" width="708" height="449" viewBox="0 0 708 449">
  <g id="Grupo_848032" data-name="Grupo 848032" transform="translate(-446 -3361)">
    <path id="Trazado_570690" data-name="Trazado 570690" d="M12,0H696a12,12,0,0,1,12,12V437a12,12,0,0,1-12,12H12A12,12,0,0,1,0,437V12A12,12,0,0,1,12,0Z" transform="translate(446 3361)" fill="#f5faff"/>
    <path id="Trazado_570691" data-name="Trazado 570691" d="M6,0H184a6,6,0,0,1,6,6V76a6,6,0,0,1-6,6H6a6,6,0,0,1-6-6V6A6,6,0,0,1,6,0Z" transform="translate(705 3400)" fill="#bbdeaf"/>
    <path id="Trazado_570699" data-name="Trazado 570699" d="M6,0H184a6,6,0,0,1,6,6V76a6,6,0,0,1-6,6H6a6,6,0,0,1-6-6V6A6,6,0,0,1,6,0Z" transform="translate(495 3688)" fill="#ff854e"/>
    <path id="Trazado_570700" data-name="Trazado 570700" d="M6,0H184a6,6,0,0,1,6,6V76a6,6,0,0,1-6,6H6a6,6,0,0,1-6-6V6A6,6,0,0,1,6,0Z" transform="translate(915 3688)" fill="#ffd63d"/>
    <path id="Trazado_570702" data-name="Trazado 570702" d="M10.065-2.922H4.9L4,0H-.032L5.7-15.641H9.249L15.028,0h-4.05ZM5.8-5.833H9.163L7.477-11.258ZM20.915-2.578A1.61,1.61,0,0,0,22.1-2.992,1.517,1.517,0,0,0,22.5-4.146H25.9A4.018,4.018,0,0,1,24.53-1.01,5.1,5.1,0,0,1,21,.215a5.158,5.158,0,0,1-4-1.59,6.264,6.264,0,0,1-1.461-4.4v-.15a7.08,7.08,0,0,1,.65-3.11,4.732,4.732,0,0,1,1.875-2.073,5.589,5.589,0,0,1,2.9-.725,5.03,5.03,0,0,1,3.6,1.257A4.458,4.458,0,0,1,25.9-7.176H22.5a1.987,1.987,0,0,0-.44-1.386,1.52,1.52,0,0,0-1.182-.483q-1.407,0-1.644,1.794a12.658,12.658,0,0,0-.075,1.568,4.972,4.972,0,0,0,.419,2.428A1.45,1.45,0,0,0,20.915-2.578Zm11.43,0a1.61,1.61,0,0,0,1.182-.414,1.517,1.517,0,0,0,.408-1.155h3.395a4.018,4.018,0,0,1-1.37,3.137A5.1,5.1,0,0,1,32.431.215a5.158,5.158,0,0,1-4-1.59,6.264,6.264,0,0,1-1.461-4.4v-.15a7.08,7.08,0,0,1,.65-3.11A4.732,4.732,0,0,1,29.5-11.113a5.589,5.589,0,0,1,2.9-.725A5.03,5.03,0,0,1,36-10.581a4.458,4.458,0,0,1,1.332,3.405H33.935a1.987,1.987,0,0,0-.44-1.386,1.52,1.52,0,0,0-1.182-.483q-1.407,0-1.644,1.794a12.658,12.658,0,0,0-.075,1.568,4.972,4.972,0,0,0,.419,2.428A1.45,1.45,0,0,0,32.345-2.578ZM42.679,0H39.048V-11.623h3.631ZM38.833-14.62a1.616,1.616,0,0,1,.559-1.268,2.108,2.108,0,0,1,1.45-.494,2.108,2.108,0,0,1,1.45.494,1.616,1.616,0,0,1,.559,1.268,1.616,1.616,0,0,1-.559,1.268,2.108,2.108,0,0,1-1.45.494,2.108,2.108,0,0,1-1.45-.494A1.616,1.616,0,0,1,38.833-14.62Zm5.618,8.7a6.86,6.86,0,0,1,.677-3.1,4.84,4.84,0,0,1,1.944-2.089,5.856,5.856,0,0,1,2.976-.73,5.344,5.344,0,0,1,4.114,1.617,6.2,6.2,0,0,1,1.5,4.4v.129A6.019,6.019,0,0,1,54.157-1.38a5.359,5.359,0,0,1-4.087,1.6,5.42,5.42,0,0,1-3.985-1.488,5.819,5.819,0,0,1-1.622-4.034Zm3.62.226a4.325,4.325,0,0,0,.5,2.363,1.682,1.682,0,0,0,1.493.752q1.934,0,1.977-2.976v-.365q0-3.126-2-3.126-1.815,0-1.966,2.7Zm12.515-5.93.118,1.364a3.942,3.942,0,0,1,3.319-1.579,3.316,3.316,0,0,1,2.712,1.085,5.165,5.165,0,0,1,.929,3.266V0H64.034V-7.337a1.961,1.961,0,0,0-.354-1.294,1.64,1.64,0,0,0-1.289-.414,1.726,1.726,0,0,0-1.579.838V0h-3.62V-11.623ZM73.487,0H69.856V-11.623h3.631ZM69.642-14.62a1.616,1.616,0,0,1,.559-1.268,2.108,2.108,0,0,1,1.45-.494,2.108,2.108,0,0,1,1.45.494,1.616,1.616,0,0,1,.559,1.268,1.616,1.616,0,0,1-.559,1.268,2.108,2.108,0,0,1-1.45.494,2.108,2.108,0,0,1-1.45-.494A1.616,1.616,0,0,1,69.642-14.62ZM81.8-3.266a.836.836,0,0,0-.483-.741,7.353,7.353,0,0,0-1.837-.58,8.376,8.376,0,0,1-2.234-.79A3.743,3.743,0,0,1,75.9-6.563a2.834,2.834,0,0,1-.462-1.6A3.212,3.212,0,0,1,76.764-10.8a5.443,5.443,0,0,1,3.459-1.037,6.03,6.03,0,0,1,3.7,1.042,3.258,3.258,0,0,1,1.4,2.739H81.684q0-1.4-1.472-1.4a1.459,1.459,0,0,0-.956.317.981.981,0,0,0-.387.79.9.9,0,0,0,.473.784,4.466,4.466,0,0,0,1.509.494,13.043,13.043,0,0,1,1.821.462q2.621.9,2.621,3.233A3.044,3.044,0,0,1,83.88-.784a6.2,6.2,0,0,1-3.658,1,6.322,6.322,0,0,1-2.664-.537,4.455,4.455,0,0,1-1.826-1.461,3.308,3.308,0,0,1-.655-1.944h3.384A1.4,1.4,0,0,0,79-2.551a2.209,2.209,0,0,0,1.321.371,1.738,1.738,0,0,0,1.112-.3A.962.962,0,0,0,81.8-3.266Zm9.4-11.247v2.89h1.912v2.514H91.2v5.317a1.358,1.358,0,0,0,.236.913,1.268,1.268,0,0,0,.935.258,5.311,5.311,0,0,0,.9-.064V-.1a6.681,6.681,0,0,1-2.041.312,3.792,3.792,0,0,1-2.761-.881,3.61,3.61,0,0,1-.892-2.675V-9.109H86.1v-2.514h1.482v-2.89ZM101.084,0a4.087,4.087,0,0,1-.344-1.042A3.366,3.366,0,0,1,97.947.215a4.124,4.124,0,0,1-2.793-.994A3.163,3.163,0,0,1,94-3.276a3.251,3.251,0,0,1,1.4-2.857A7.114,7.114,0,0,1,99.462-7.1h1.117v-.612q0-1.6-1.386-1.6A1.13,1.13,0,0,0,97.9-8.046h-3.62a3.25,3.25,0,0,1,1.434-2.739,6.022,6.022,0,0,1,3.658-1.053,5.284,5.284,0,0,1,3.513,1.085,3.772,3.772,0,0,1,1.321,2.976v5.146A5.269,5.269,0,0,0,104.7-.183V0ZM98.817-2.363a2.019,2.019,0,0,0,1.123-.29,1.818,1.818,0,0,0,.639-.655V-5.167H99.526q-1.891,0-1.891,1.7a1.036,1.036,0,0,0,.333.8A1.205,1.205,0,0,0,98.817-2.363Zm13.481-.9a.836.836,0,0,0-.483-.741,7.353,7.353,0,0,0-1.837-.58,8.376,8.376,0,0,1-2.234-.79A3.743,3.743,0,0,1,106.4-6.563a2.834,2.834,0,0,1-.462-1.6,3.212,3.212,0,0,1,1.321-2.637,5.443,5.443,0,0,1,3.459-1.037,6.03,6.03,0,0,1,3.7,1.042,3.258,3.258,0,0,1,1.4,2.739h-3.631q0-1.4-1.472-1.4a1.459,1.459,0,0,0-.956.317.981.981,0,0,0-.387.79.9.9,0,0,0,.473.784,4.466,4.466,0,0,0,1.509.494,13.043,13.043,0,0,1,1.821.462q2.621.9,2.621,3.233a3.044,3.044,0,0,1-1.413,2.589,6.2,6.2,0,0,1-3.658,1,6.322,6.322,0,0,1-2.664-.537,4.455,4.455,0,0,1-1.826-1.461,3.308,3.308,0,0,1-.655-1.944h3.384a1.4,1.4,0,0,0,.537,1.176,2.209,2.209,0,0,0,1.321.371,1.738,1.738,0,0,0,1.112-.3A.962.962,0,0,0,112.3-3.266Z" transform="translate(959 3737)" fill="#12263f"/>
    <path id="Trazado_565798" data-name="Trazado 565798" d="M-7828-8872.817l-95,160.067" transform="translate(8580.5 12378)" fill="none" stroke="#bbdeaf" stroke-width="3"/>
    <path id="Trazado_565799" data-name="Trazado 565799" d="M-7923-8872.817l95,160.067" transform="translate(8774 12378)" fill="none" stroke="#ff854e" stroke-width="3"/>
    <path id="Trazado_570693" data-name="Trazado 570693" d="M10.5,0,21,18H0Z" transform="translate(752.17 3486.955) rotate(30)" fill="#bbdeaf"/>
    <path id="Trazado_570697" data-name="Trazado 570697" d="M10.5,0,21,18H0Z" transform="matrix(-0.809, -0.588, 0.588, -0.809, 660.705, 3676.906)" fill="#bbdeaf"/>
    <path id="Trazado_570694" data-name="Trazado 570694" d="M10.5,0,21,18H0Z" transform="translate(834.407 3497.455) rotate(-30)" fill="#ff854e"/>
    <path id="Trazado_570698" data-name="Trazado 570698" d="M10.5,0,21,18H0Z" transform="translate(958.636 3665.76) rotate(149)" fill="#ff854e"/>
    <path id="Trazado_570934" data-name="Trazado 570934" d="M-23.452-4.736a5.031,5.031,0,0,1-1.694,3.613A5.951,5.951,0,0,1-29.175.2a5.351,5.351,0,0,1-4.3-1.841A7.548,7.548,0,0,1-35.044-6.7v-.869a8.523,8.523,0,0,1,.723-3.613,5.415,5.415,0,0,1,2.065-2.4,5.786,5.786,0,0,1,3.12-.835A5.8,5.8,0,0,1-25.171-13.1a5.407,5.407,0,0,1,1.738,3.7h-2.93a2.97,2.97,0,0,0-.767-2,2.839,2.839,0,0,0-2.007-.62,2.489,2.489,0,0,0-2.192,1.05,5.883,5.883,0,0,0-.747,3.257v1.074a6.3,6.3,0,0,0,.7,3.369,2.443,2.443,0,0,0,2.2,1.064,2.892,2.892,0,0,0,2.026-.62,2.8,2.8,0,0,0,.767-1.919ZM-15.591,0a3.134,3.134,0,0,1-.283-.947A3.415,3.415,0,0,1-18.54.2a3.752,3.752,0,0,1-2.573-.9,2.89,2.89,0,0,1-1.021-2.266,2.986,2.986,0,0,1,1.245-2.578,6.144,6.144,0,0,1,3.6-.908h1.3v-.605a1.741,1.741,0,0,0-.376-1.172,1.479,1.479,0,0,0-1.187-.439,1.682,1.682,0,0,0-1.118.342,1.161,1.161,0,0,0-.405.938H-21.9a2.835,2.835,0,0,1,.566-1.7,3.744,3.744,0,0,1,1.6-1.226,5.837,5.837,0,0,1,2.324-.444,4.611,4.611,0,0,1,3.1.981,3.433,3.433,0,0,1,1.147,2.759v4.58a5.052,5.052,0,0,0,.42,2.275V0Zm-2.334-1.963a2.431,2.431,0,0,0,1.152-.278,1.828,1.828,0,0,0,.781-.747V-4.8h-1.055q-2.119,0-2.256,1.465l-.01.166a1.13,1.13,0,0,0,.371.869A1.441,1.441,0,0,0-17.925-1.963ZM-8-10.566V.576A3.78,3.78,0,0,1-8.931,3.3a3.526,3.526,0,0,1-2.676.972A5.738,5.738,0,0,1-13,4.1V1.865a5.3,5.3,0,0,0,.889.088q1.279,0,1.279-1.357V-10.566ZM-11.06-13.3a1.39,1.39,0,0,1,.425-1.045,1.6,1.6,0,0,1,1.157-.41,1.6,1.6,0,0,1,1.157.41A1.39,1.39,0,0,1-7.9-13.3a1.386,1.386,0,0,1-.435,1.055,1.6,1.6,0,0,1-1.147.41,1.6,1.6,0,0,1-1.147-.41A1.386,1.386,0,0,1-11.06-13.3ZM.327,0A3.134,3.134,0,0,1,.044-.947,3.415,3.415,0,0,1-2.622.2,3.752,3.752,0,0,1-5.2-.7,2.89,2.89,0,0,1-6.216-2.969,2.986,2.986,0,0,1-4.971-5.547a6.144,6.144,0,0,1,3.6-.908h1.3v-.605A1.741,1.741,0,0,0-.449-8.232a1.479,1.479,0,0,0-1.187-.439,1.682,1.682,0,0,0-1.118.342,1.161,1.161,0,0,0-.405.938H-5.981a2.835,2.835,0,0,1,.566-1.7,3.744,3.744,0,0,1,1.6-1.226,5.837,5.837,0,0,1,2.324-.444,4.611,4.611,0,0,1,3.1.981A3.433,3.433,0,0,1,2.759-7.021v4.58a5.052,5.052,0,0,0,.42,2.275V0ZM-2.007-1.963A2.431,2.431,0,0,0-.854-2.241a1.828,1.828,0,0,0,.781-.747V-4.8H-1.128q-2.119,0-2.256,1.465l-.01.166a1.13,1.13,0,0,0,.371.869A1.441,1.441,0,0,0-2.007-1.963Zm11.475-3.4A6.368,6.368,0,0,1,10.576-9.3a3.6,3.6,0,0,1,3.032-1.465,3.236,3.236,0,0,1,2.549,1.152V-15h2.832V0H16.44L16.3-1.123A3.321,3.321,0,0,1,13.589.2,3.587,3.587,0,0,1,10.6-1.274,6.573,6.573,0,0,1,9.468-5.361Zm2.822.205a4.16,4.16,0,0,0,.518,2.275,1.687,1.687,0,0,0,1.5.791,1.889,1.889,0,0,0,1.846-1.1v-4.17a1.862,1.862,0,0,0-1.826-1.1Q12.29-8.467,12.29-5.156ZM26.04.2A5.187,5.187,0,0,1,22.256-1.23a5.068,5.068,0,0,1-1.46-3.8V-5.3a6.383,6.383,0,0,1,.615-2.847,4.515,4.515,0,0,1,1.743-1.934,4.893,4.893,0,0,1,2.573-.679,4.385,4.385,0,0,1,3.413,1.367,5.555,5.555,0,0,1,1.245,3.877v1.152H23.657a2.622,2.622,0,0,0,.825,1.66,2.5,2.5,0,0,0,1.743.625,3.046,3.046,0,0,0,2.549-1.182l1.387,1.553a4.237,4.237,0,0,1-1.719,1.4A5.639,5.639,0,0,1,26.04.2Zm-.322-8.672a1.767,1.767,0,0,0-1.362.566,2.926,2.926,0,0,0-.669,1.621h3.926v-.225a2.086,2.086,0,0,0-.508-1.45A1.824,1.824,0,0,0,25.718-8.477ZM-46.343,25.2a5.187,5.187,0,0,1-3.784-1.426,5.068,5.068,0,0,1-1.46-3.8V19.7a6.383,6.383,0,0,1,.615-2.847,4.515,4.515,0,0,1,1.743-1.934,4.893,4.893,0,0,1,2.573-.679,4.385,4.385,0,0,1,3.413,1.367A5.555,5.555,0,0,1-42,19.482v1.152h-6.729a2.622,2.622,0,0,0,.825,1.66,2.5,2.5,0,0,0,1.743.625,3.046,3.046,0,0,0,2.549-1.182l1.387,1.553a4.237,4.237,0,0,1-1.719,1.4A5.639,5.639,0,0,1-46.343,25.2Zm-.322-8.672a1.767,1.767,0,0,0-1.362.566,2.926,2.926,0,0,0-.669,1.621h3.926v-.225a2.086,2.086,0,0,0-.508-1.45A1.824,1.824,0,0,0-46.665,16.523Zm10.293,1.064,1.777-3.154h3.018l-3.008,5.176L-31.45,25h-3.027l-1.885-3.32L-38.237,25h-3.037l3.135-5.391-3-5.176h3.027Zm15.664,2.227a6.337,6.337,0,0,1-1.108,3.911A3.554,3.554,0,0,1-24.81,25.2,3.292,3.292,0,0,1-27.4,24.082v4.98H-30.22V14.434H-27.6l.1,1.035a3.317,3.317,0,0,1,2.676-1.23,3.578,3.578,0,0,1,3.037,1.445,6.509,6.509,0,0,1,1.084,3.984Zm-2.822-.205a4.159,4.159,0,0,0-.522-2.275,1.7,1.7,0,0,0-1.519-.8A1.848,1.848,0,0,0-27.4,17.549v4.326a1.879,1.879,0,0,0,1.846,1.045Q-23.53,22.92-23.53,19.609ZM-15.981,25h-2.832V10h2.832Zm1.885-5.381a6.267,6.267,0,0,1,.605-2.8,4.432,4.432,0,0,1,1.743-1.9,5.086,5.086,0,0,1,2.642-.674,4.812,4.812,0,0,1,3.491,1.309A5.252,5.252,0,0,1-4.106,19.1l.02.723a5.523,5.523,0,0,1-1.357,3.9A4.718,4.718,0,0,1-9.087,25.2a4.742,4.742,0,0,1-3.647-1.465A5.62,5.62,0,0,1-14.1,19.746Zm2.822.205a3.939,3.939,0,0,0,.566,2.3,1.869,1.869,0,0,0,1.621.8,1.874,1.874,0,0,0,1.6-.786,4.31,4.31,0,0,0,.576-2.515,3.9,3.9,0,0,0-.576-2.285,1.874,1.874,0,0,0-1.621-.811,1.843,1.843,0,0,0-1.6.806A4.383,4.383,0,0,0-11.274,19.824Zm12.3-7.988v2.6H2.837V16.5H1.03v5.273a1.259,1.259,0,0,0,.225.84,1.128,1.128,0,0,0,.859.254,4.5,4.5,0,0,0,.83-.068v2.139a5.81,5.81,0,0,1-1.709.254q-2.969,0-3.027-3V16.5H-3.335v-2.07h1.543v-2.6ZM10.532,25a3.134,3.134,0,0,1-.283-.947A3.415,3.415,0,0,1,7.583,25.2a3.752,3.752,0,0,1-2.573-.9,2.89,2.89,0,0,1-1.021-2.266,2.986,2.986,0,0,1,1.245-2.578,6.144,6.144,0,0,1,3.6-.908h1.3v-.605a1.741,1.741,0,0,0-.376-1.172,1.479,1.479,0,0,0-1.187-.439,1.682,1.682,0,0,0-1.118.342,1.161,1.161,0,0,0-.405.938H4.224a2.835,2.835,0,0,1,.566-1.7,3.744,3.744,0,0,1,1.6-1.226,5.837,5.837,0,0,1,2.324-.444,4.611,4.611,0,0,1,3.1.981,3.433,3.433,0,0,1,1.147,2.759v4.58a5.052,5.052,0,0,0,.42,2.275V25ZM8.2,23.037a2.431,2.431,0,0,0,1.152-.278,1.828,1.828,0,0,0,.781-.747V20.2H9.077q-2.119,0-2.256,1.465l-.01.166a1.13,1.13,0,0,0,.371.869A1.441,1.441,0,0,0,8.2,23.037Zm11.328-.117a1.851,1.851,0,0,0,1.27-.43,1.506,1.506,0,0,0,.508-1.143H23.95a3.62,3.62,0,0,1-.586,1.968A3.866,3.866,0,0,1,21.787,24.7a4.936,4.936,0,0,1-2.212.493A4.587,4.587,0,0,1,16,23.755a5.7,5.7,0,0,1-1.309-3.979V19.59a5.635,5.635,0,0,1,1.3-3.9,4.534,4.534,0,0,1,3.564-1.455,4.444,4.444,0,0,1,3.179,1.128,3.994,3.994,0,0,1,1.216,3H21.3a1.923,1.923,0,0,0-.508-1.333,1.892,1.892,0,0,0-2.778.205,4.155,4.155,0,0,0-.5,2.329v.293a4.207,4.207,0,0,0,.5,2.344A1.722,1.722,0,0,0,19.526,22.92ZM28.54,25H25.708V14.434H28.54Zm-3-13.3a1.39,1.39,0,0,1,.425-1.045,1.831,1.831,0,0,1,2.31,0,1.491,1.491,0,0,1,0,2.1,1.81,1.81,0,0,1-2.295,0A1.386,1.386,0,0,1,25.542,11.7Zm4.883,7.92a6.266,6.266,0,0,1,.605-2.8,4.432,4.432,0,0,1,1.743-1.9,5.086,5.086,0,0,1,2.642-.674,4.812,4.812,0,0,1,3.491,1.309A5.252,5.252,0,0,1,40.415,19.1l.02.723a5.523,5.523,0,0,1-1.357,3.9,4.718,4.718,0,0,1-3.643,1.47,4.742,4.742,0,0,1-3.647-1.465,5.62,5.62,0,0,1-1.362-3.984Zm2.822.205a3.939,3.939,0,0,0,.566,2.3,2.037,2.037,0,0,0,3.223.01,4.31,4.31,0,0,0,.576-2.515,3.9,3.9,0,0,0-.576-2.285,1.874,1.874,0,0,0-1.621-.811,1.843,1.843,0,0,0-1.6.806A4.383,4.383,0,0,0,33.247,19.824ZM35.972,10h3.076l-2.705,3.027H34.048Zm8.8,4.434.088,1.221A3.689,3.689,0,0,1,47.9,14.238a3.066,3.066,0,0,1,2.5.986,4.6,4.6,0,0,1,.84,2.949V25H48.413V18.242a1.831,1.831,0,0,0-.391-1.3,1.749,1.749,0,0,0-1.3-.405,1.942,1.942,0,0,0-1.787,1.016V25H42.114V14.434Z" transform="translate(804 3436)" fill="#12263f"/>
    <path id="Trazado_570932" data-name="Trazado 570932" d="M7.859-4.648h-4.5V0H1.016V-11.375H8.422v1.9H3.359v2.938h4.5ZM12.016,0H9.75V-12h2.266Zm6.922-.859A2.831,2.831,0,0,1,16.625.156a2.67,2.67,0,0,1-2.074-.781,3.335,3.335,0,0,1-.73-2.289V-8.453h2.258v5.461q0,1.32,1.2,1.32a1.631,1.631,0,0,0,1.578-.8V-8.453h2.266V0H19Zm6.281-7.594V.461a3.024,3.024,0,0,1-.742,2.176,2.821,2.821,0,0,1-2.141.777,4.591,4.591,0,0,1-1.117-.133V1.492a4.238,4.238,0,0,0,.711.07q1.023,0,1.023-1.086v-8.93Zm-2.445-2.187a1.112,1.112,0,0,1,.34-.836,1.277,1.277,0,0,1,.926-.328,1.277,1.277,0,0,1,.926.328,1.112,1.112,0,0,1,.34.836,1.108,1.108,0,0,1-.348.844,1.283,1.283,0,0,1-.918.328,1.283,1.283,0,0,1-.918-.328A1.108,1.108,0,0,1,22.773-10.641ZM26.633-4.3a5.013,5.013,0,0,1,.484-2.242A3.546,3.546,0,0,1,28.512-8.07a4.069,4.069,0,0,1,2.113-.539,3.849,3.849,0,0,1,2.793,1.047,4.2,4.2,0,0,1,1.207,2.844l.016.578A4.418,4.418,0,0,1,33.555-1.02,3.775,3.775,0,0,1,30.641.156a3.793,3.793,0,0,1-2.918-1.172A4.5,4.5,0,0,1,26.633-4.2Zm2.258.164a3.151,3.151,0,0,0,.453,1.84,1.5,1.5,0,0,0,1.3.637,1.5,1.5,0,0,0,1.281-.629A3.448,3.448,0,0,0,32.383-4.3a3.12,3.12,0,0,0-.461-1.828,1.5,1.5,0,0,0-1.3-.648,1.475,1.475,0,0,0-1.281.645A3.506,3.506,0,0,0,28.891-4.141Zm11.719,1.8a.727.727,0,0,0-.41-.652,4.659,4.659,0,0,0-1.316-.426q-3.016-.633-3.016-2.562A2.323,2.323,0,0,1,36.8-7.855a3.766,3.766,0,0,1,2.441-.754,4.053,4.053,0,0,1,2.574.758,2.388,2.388,0,0,1,.965,1.969H40.523a1.092,1.092,0,0,0-.312-.8A1.322,1.322,0,0,0,39.234-7a1.351,1.351,0,0,0-.883.258.814.814,0,0,0-.312.656.7.7,0,0,0,.355.605,3.657,3.657,0,0,0,1.2.4,9.8,9.8,0,0,1,1.422.379A2.336,2.336,0,0,1,42.8-2.43a2.2,2.2,0,0,1-.992,1.871A4.28,4.28,0,0,1,39.25.156a4.47,4.47,0,0,1-1.887-.379A3.166,3.166,0,0,1,36.07-1.262,2.414,2.414,0,0,1,35.6-2.687h2.141a1.179,1.179,0,0,0,.445.922,1.766,1.766,0,0,0,1.109.32,1.635,1.635,0,0,0,.98-.246A.766.766,0,0,0,40.609-2.336ZM52.133.156A4.15,4.15,0,0,1,49.105-.984a4.054,4.054,0,0,1-1.168-3.039v-.219A5.106,5.106,0,0,1,48.43-6.52a3.612,3.612,0,0,1,1.395-1.547,3.914,3.914,0,0,1,2.059-.543,3.508,3.508,0,0,1,2.73,1.094,4.444,4.444,0,0,1,1,3.1v.922H50.227a2.1,2.1,0,0,0,.66,1.328,2,2,0,0,0,1.395.5,2.437,2.437,0,0,0,2.039-.945L55.43-1.367A3.389,3.389,0,0,1,54.055-.246,4.511,4.511,0,0,1,52.133.156Zm-.258-6.937a1.414,1.414,0,0,0-1.09.453,2.341,2.341,0,0,0-.535,1.3h3.141v-.18a1.669,1.669,0,0,0-.406-1.16A1.459,1.459,0,0,0,51.875-6.781Zm7.094-1.672.07.977a2.951,2.951,0,0,1,2.43-1.133,2.453,2.453,0,0,1,2,.789,3.682,3.682,0,0,1,.672,2.359V0H61.883V-5.406a1.465,1.465,0,0,0-.312-1.043,1.4,1.4,0,0,0-1.039-.324,1.553,1.553,0,0,0-1.43.813V0H56.844V-8.453ZM73.727.156A4.15,4.15,0,0,1,70.7-.984a4.054,4.054,0,0,1-1.168-3.039v-.219a5.106,5.106,0,0,1,.492-2.277,3.612,3.612,0,0,1,1.395-1.547,3.914,3.914,0,0,1,2.059-.543,3.508,3.508,0,0,1,2.73,1.094,4.444,4.444,0,0,1,1,3.1v.922H71.82a2.1,2.1,0,0,0,.66,1.328,2,2,0,0,0,1.395.5,2.437,2.437,0,0,0,2.039-.945l1.109,1.242A3.389,3.389,0,0,1,75.648-.246,4.511,4.511,0,0,1,73.727.156Zm-.258-6.937a1.414,1.414,0,0,0-1.09.453,2.341,2.341,0,0,0-.535,1.3h3.141v-.18a1.669,1.669,0,0,0-.406-1.16A1.459,1.459,0,0,0,73.469-6.781Zm9.594,4.445a.727.727,0,0,0-.41-.652,4.659,4.659,0,0,0-1.316-.426Q78.32-4.047,78.32-5.977a2.323,2.323,0,0,1,.934-1.879A3.766,3.766,0,0,1,81.7-8.609a4.053,4.053,0,0,1,2.574.758,2.388,2.388,0,0,1,.965,1.969H82.977a1.092,1.092,0,0,0-.312-.8A1.322,1.322,0,0,0,81.688-7a1.351,1.351,0,0,0-.883.258.814.814,0,0,0-.312.656.7.7,0,0,0,.355.605,3.657,3.657,0,0,0,1.2.4,9.8,9.8,0,0,1,1.422.379A2.336,2.336,0,0,1,85.258-2.43a2.2,2.2,0,0,1-.992,1.871A4.28,4.28,0,0,1,81.7.156a4.47,4.47,0,0,1-1.887-.379,3.166,3.166,0,0,1-1.293-1.039,2.414,2.414,0,0,1-.469-1.426H80.2a1.179,1.179,0,0,0,.445.922,1.766,1.766,0,0,0,1.109.32,1.635,1.635,0,0,0,.98-.246A.766.766,0,0,0,83.063-2.336ZM94.32-4.148a5.07,5.07,0,0,1-.887,3.129A2.843,2.843,0,0,1,91.039.156a2.633,2.633,0,0,1-2.07-.891V3.25H86.711v-11.7H88.8l.078.828a2.654,2.654,0,0,1,2.141-.984,2.862,2.862,0,0,1,2.43,1.156,5.207,5.207,0,0,1,.867,3.188Zm-2.258-.164a3.327,3.327,0,0,0-.418-1.82,1.361,1.361,0,0,0-1.215-.641,1.478,1.478,0,0,0-1.461.813V-2.5a1.5,1.5,0,0,0,1.477.836Q92.063-1.664,92.063-4.312ZM99.609.156A4.15,4.15,0,0,1,96.582-.984a4.054,4.054,0,0,1-1.168-3.039v-.219a5.106,5.106,0,0,1,.492-2.277A3.612,3.612,0,0,1,97.3-8.066a3.914,3.914,0,0,1,2.059-.543,3.508,3.508,0,0,1,2.73,1.094,4.444,4.444,0,0,1,1,3.1v.922H97.7a2.1,2.1,0,0,0,.66,1.328,2,2,0,0,0,1.395.5,2.437,2.437,0,0,0,2.039-.945l1.109,1.242a3.389,3.389,0,0,1-1.375,1.121A4.511,4.511,0,0,1,99.609.156Zm-.258-6.937a1.414,1.414,0,0,0-1.09.453,2.341,2.341,0,0,0-.535,1.3h3.141v-.18a1.669,1.669,0,0,0-.406-1.16A1.459,1.459,0,0,0,99.352-6.781Zm8.531,5.117a1.481,1.481,0,0,0,1.016-.344,1.2,1.2,0,0,0,.406-.914h2.117a2.9,2.9,0,0,1-.469,1.574,3.093,3.093,0,0,1-1.262,1.109,3.949,3.949,0,0,1-1.77.395A3.67,3.67,0,0,1,105.063-1a4.56,4.56,0,0,1-1.047-3.184v-.148a4.508,4.508,0,0,1,1.039-3.117,3.627,3.627,0,0,1,2.852-1.164,3.555,3.555,0,0,1,2.543.9,3.2,3.2,0,0,1,.973,2.4H109.3a1.539,1.539,0,0,0-.406-1.066,1.358,1.358,0,0,0-1.031-.41,1.361,1.361,0,0,0-1.191.574,3.324,3.324,0,0,0-.4,1.863v.234a3.366,3.366,0,0,0,.4,1.875A1.378,1.378,0,0,0,107.883-1.664ZM115.094,0h-2.266V-8.453h2.266Zm-2.4-10.641a1.112,1.112,0,0,1,.34-.836,1.277,1.277,0,0,1,.926-.328,1.28,1.28,0,0,1,.922.328,1.105,1.105,0,0,1,.344.836,1.108,1.108,0,0,1-.348.844,1.283,1.283,0,0,1-.918.328,1.283,1.283,0,0,1-.918-.328A1.108,1.108,0,0,1,112.7-10.641Zm8.148,10.8a4.15,4.15,0,0,1-3.027-1.141,4.054,4.054,0,0,1-1.168-3.039v-.219a5.106,5.106,0,0,1,.492-2.277,3.612,3.612,0,0,1,1.395-1.547,3.914,3.914,0,0,1,2.059-.543,3.508,3.508,0,0,1,2.73,1.094,4.444,4.444,0,0,1,1,3.1v.922h-5.383a2.1,2.1,0,0,0,.66,1.328,2,2,0,0,0,1.395.5,2.437,2.437,0,0,0,2.039-.945l1.109,1.242a3.389,3.389,0,0,1-1.375,1.121A4.511,4.511,0,0,1,120.844.156Zm-.258-6.937a1.414,1.414,0,0,0-1.09.453,2.341,2.341,0,0,0-.535,1.3H122.1v-.18a1.669,1.669,0,0,0-.406-1.16A1.459,1.459,0,0,0,120.586-6.781Z" transform="translate(885.487 3524.306) rotate(60)" fill="#12263f"/>
    <path id="Trazado_570933" data-name="Trazado 570933" d="M7.859-4.648h-4.5V0H1.016V-11.375H8.422v1.9H3.359v2.938h4.5ZM12.016,0H9.75V-12h2.266Zm6.922-.859A2.831,2.831,0,0,1,16.625.156a2.67,2.67,0,0,1-2.074-.781,3.335,3.335,0,0,1-.73-2.289V-8.453h2.258v5.461q0,1.32,1.2,1.32a1.631,1.631,0,0,0,1.578-.8V-8.453h2.266V0H19Zm6.281-7.594V.461a3.024,3.024,0,0,1-.742,2.176,2.821,2.821,0,0,1-2.141.777,4.591,4.591,0,0,1-1.117-.133V1.492a4.238,4.238,0,0,0,.711.07q1.023,0,1.023-1.086v-8.93Zm-2.445-2.187a1.112,1.112,0,0,1,.34-.836,1.277,1.277,0,0,1,.926-.328,1.277,1.277,0,0,1,.926.328,1.112,1.112,0,0,1,.34.836,1.108,1.108,0,0,1-.348.844,1.283,1.283,0,0,1-.918.328,1.283,1.283,0,0,1-.918-.328A1.108,1.108,0,0,1,22.773-10.641ZM26.633-4.3a5.013,5.013,0,0,1,.484-2.242A3.546,3.546,0,0,1,28.512-8.07a4.069,4.069,0,0,1,2.113-.539,3.849,3.849,0,0,1,2.793,1.047,4.2,4.2,0,0,1,1.207,2.844l.016.578A4.418,4.418,0,0,1,33.555-1.02,3.775,3.775,0,0,1,30.641.156a3.793,3.793,0,0,1-2.918-1.172A4.5,4.5,0,0,1,26.633-4.2Zm2.258.164a3.151,3.151,0,0,0,.453,1.84,1.5,1.5,0,0,0,1.3.637,1.5,1.5,0,0,0,1.281-.629A3.448,3.448,0,0,0,32.383-4.3a3.12,3.12,0,0,0-.461-1.828,1.5,1.5,0,0,0-1.3-.648,1.475,1.475,0,0,0-1.281.645A3.506,3.506,0,0,0,28.891-4.141Zm11.719,1.8a.727.727,0,0,0-.41-.652,4.659,4.659,0,0,0-1.316-.426q-3.016-.633-3.016-2.562A2.323,2.323,0,0,1,36.8-7.855a3.766,3.766,0,0,1,2.441-.754,4.053,4.053,0,0,1,2.574.758,2.388,2.388,0,0,1,.965,1.969H40.523a1.092,1.092,0,0,0-.312-.8A1.322,1.322,0,0,0,39.234-7a1.351,1.351,0,0,0-.883.258.814.814,0,0,0-.312.656.7.7,0,0,0,.355.605,3.657,3.657,0,0,0,1.2.4,9.8,9.8,0,0,1,1.422.379A2.336,2.336,0,0,1,42.8-2.43a2.2,2.2,0,0,1-.992,1.871A4.28,4.28,0,0,1,39.25.156a4.47,4.47,0,0,1-1.887-.379A3.166,3.166,0,0,1,36.07-1.262,2.414,2.414,0,0,1,35.6-2.687h2.141a1.179,1.179,0,0,0,.445.922,1.766,1.766,0,0,0,1.109.32,1.635,1.635,0,0,0,.98-.246A.766.766,0,0,0,40.609-2.336ZM48.789,0V-6.8H47.531V-8.453h1.258v-.391a3.17,3.17,0,0,1,.98-2.457,3.945,3.945,0,0,1,2.723-.863,9.031,9.031,0,0,1,2.563.461l-.328,1.867a10,10,0,0,0-1.187-.293,5.835,5.835,0,0,0-.906-.066q-1.578,0-1.578,1.4v.344h1.664V-6.8H51.055V0Zm7.32,0H53.844V-8.453h2.266Zm3.945-8.453.07.977a2.951,2.951,0,0,1,2.43-1.133,2.453,2.453,0,0,1,2,.789,3.682,3.682,0,0,1,.672,2.359V0H62.969V-5.406a1.465,1.465,0,0,0-.312-1.043,1.4,1.4,0,0,0-1.039-.324,1.553,1.553,0,0,0-1.43.813V0H57.93V-8.453ZM71.836,0a2.507,2.507,0,0,1-.227-.758,2.732,2.732,0,0,1-2.133.914,3,3,0,0,1-2.059-.719A2.312,2.312,0,0,1,66.6-2.375a2.389,2.389,0,0,1,1-2.062,4.915,4.915,0,0,1,2.879-.727h1.039v-.484a1.393,1.393,0,0,0-.3-.937,1.183,1.183,0,0,0-.949-.352,1.345,1.345,0,0,0-.895.273.929.929,0,0,0-.324.75H66.789a2.268,2.268,0,0,1,.453-1.359,3,3,0,0,1,1.281-.98,4.669,4.669,0,0,1,1.859-.355,3.689,3.689,0,0,1,2.48.785,2.747,2.747,0,0,1,.918,2.207v3.664a4.041,4.041,0,0,0,.336,1.82V0ZM69.969-1.57a1.945,1.945,0,0,0,.922-.223,1.462,1.462,0,0,0,.625-.6V-3.844h-.844q-1.7,0-1.8,1.172l-.008.133a.9.9,0,0,0,.3.7A1.153,1.153,0,0,0,69.969-1.57Zm7.625-6.883.07.977a2.951,2.951,0,0,1,2.43-1.133,2.453,2.453,0,0,1,2,.789,3.682,3.682,0,0,1,.672,2.359V0H80.508V-5.406A1.465,1.465,0,0,0,80.2-6.449a1.4,1.4,0,0,0-1.039-.324,1.553,1.553,0,0,0-1.43.813V0H75.469V-8.453Zm10.4,6.789a1.481,1.481,0,0,0,1.016-.344,1.2,1.2,0,0,0,.406-.914h2.117a2.9,2.9,0,0,1-.469,1.574A3.093,3.093,0,0,1,89.8-.238a3.949,3.949,0,0,1-1.77.395A3.67,3.67,0,0,1,85.172-1,4.56,4.56,0,0,1,84.125-4.18v-.148a4.508,4.508,0,0,1,1.039-3.117,3.627,3.627,0,0,1,2.852-1.164,3.555,3.555,0,0,1,2.543.9,3.2,3.2,0,0,1,.973,2.4H89.414a1.539,1.539,0,0,0-.406-1.066,1.358,1.358,0,0,0-1.031-.41,1.361,1.361,0,0,0-1.191.574,3.324,3.324,0,0,0-.4,1.863v.234a3.366,3.366,0,0,0,.4,1.875A1.378,1.378,0,0,0,87.992-1.664ZM95.2,0H92.938V-8.453H95.2ZM92.8-10.641a1.112,1.112,0,0,1,.34-.836,1.277,1.277,0,0,1,.926-.328,1.28,1.28,0,0,1,.922.328,1.105,1.105,0,0,1,.344.836,1.108,1.108,0,0,1-.348.844,1.283,1.283,0,0,1-.918.328,1.283,1.283,0,0,1-.918-.328A1.108,1.108,0,0,1,92.8-10.641Zm8.148,10.8A4.15,4.15,0,0,1,97.926-.984a4.054,4.054,0,0,1-1.168-3.039v-.219A5.106,5.106,0,0,1,97.25-6.52a3.612,3.612,0,0,1,1.395-1.547,3.914,3.914,0,0,1,2.059-.543,3.508,3.508,0,0,1,2.73,1.094,4.444,4.444,0,0,1,1,3.1v.922H99.047a2.1,2.1,0,0,0,.66,1.328,2,2,0,0,0,1.395.5,2.437,2.437,0,0,0,2.039-.945l1.109,1.242a3.389,3.389,0,0,1-1.375,1.121A4.511,4.511,0,0,1,100.953.156ZM100.7-6.781a1.414,1.414,0,0,0-1.09.453,2.341,2.341,0,0,0-.535,1.3h3.141v-.18a1.669,1.669,0,0,0-.406-1.16A1.459,1.459,0,0,0,100.7-6.781Zm9.766.445a6.134,6.134,0,0,0-.812-.062,1.654,1.654,0,0,0-1.68.867V0h-2.258V-8.453h2.133l.063,1.008a2.092,2.092,0,0,1,1.883-1.164,2.366,2.366,0,0,1,.7.1Zm.453,2.031a5.013,5.013,0,0,1,.484-2.242,3.546,3.546,0,0,1,1.395-1.523,4.069,4.069,0,0,1,2.113-.539A3.849,3.849,0,0,1,117.7-7.562a4.2,4.2,0,0,1,1.207,2.844l.016.578a4.418,4.418,0,0,1-1.086,3.121A3.775,3.775,0,0,1,114.922.156,3.793,3.793,0,0,1,112-1.016a4.5,4.5,0,0,1-1.09-3.187Zm2.258.164a3.151,3.151,0,0,0,.453,1.84,1.5,1.5,0,0,0,1.3.637,1.5,1.5,0,0,0,1.281-.629,3.448,3.448,0,0,0,.461-2.012,3.12,3.12,0,0,0-.461-1.828,1.5,1.5,0,0,0-1.3-.648,1.475,1.475,0,0,0-1.281.645A3.506,3.506,0,0,0,113.172-4.141Zm11.719,1.8a.727.727,0,0,0-.41-.652,4.659,4.659,0,0,0-1.316-.426q-3.016-.633-3.016-2.562a2.323,2.323,0,0,1,.934-1.879,3.766,3.766,0,0,1,2.441-.754,4.053,4.053,0,0,1,2.574.758,2.388,2.388,0,0,1,.965,1.969H124.8a1.092,1.092,0,0,0-.312-.8A1.322,1.322,0,0,0,123.516-7a1.351,1.351,0,0,0-.883.258.814.814,0,0,0-.312.656.7.7,0,0,0,.355.605,3.657,3.657,0,0,0,1.2.4A9.8,9.8,0,0,1,125.3-4.7a2.336,2.336,0,0,1,1.789,2.273,2.2,2.2,0,0,1-.992,1.871,4.28,4.28,0,0,1-2.562.715,4.47,4.47,0,0,1-1.887-.379,3.166,3.166,0,0,1-1.293-1.039,2.414,2.414,0,0,1-.469-1.426h2.141a1.179,1.179,0,0,0,.445.922,1.766,1.766,0,0,0,1.109.32,1.635,1.635,0,0,0,.98-.246A.766.766,0,0,0,124.891-2.336Z" transform="translate(660.78 3623.875) rotate(-59)" fill="#12263f"/>
    <path id="Trazado_570935" data-name="Trazado 570935" d="M-51.638-5.511V0H-54.86V-15.641h6.1a7.059,7.059,0,0,1,3.1.645A4.75,4.75,0,0,1-43.6-13.165a5.107,5.107,0,0,1,.72,2.7,4.491,4.491,0,0,1-1.574,3.625,6.555,6.555,0,0,1-4.356,1.327Zm0-2.61h2.879a2.831,2.831,0,0,0,1.95-.6,2.188,2.188,0,0,0,.671-1.719,2.58,2.58,0,0,0-.677-1.858,2.528,2.528,0,0,0-1.869-.73h-2.954Zm17.295-.591A8.434,8.434,0,0,0-35.46-8.8a2.274,2.274,0,0,0-2.31,1.192V0h-3.1V-11.623h2.933l.086,1.386a2.877,2.877,0,0,1,2.589-1.6,3.253,3.253,0,0,1,.967.14Zm.623,2.793A6.893,6.893,0,0,1-33.054-9,4.876,4.876,0,0,1-31.136-11.1a5.594,5.594,0,0,1,2.906-.741A5.293,5.293,0,0,1-24.39-10.4a5.777,5.777,0,0,1,1.66,3.91l.021.795A6.075,6.075,0,0,1-24.2-1.4,5.19,5.19,0,0,1-28.209.215,5.216,5.216,0,0,1-32.221-1.4a6.182,6.182,0,0,1-1.5-4.383Zm3.1.226a4.333,4.333,0,0,0,.623,2.53,2.056,2.056,0,0,0,1.783.875,2.061,2.061,0,0,0,1.762-.865,4.741,4.741,0,0,0,.634-2.766,4.29,4.29,0,0,0-.634-2.514,2.061,2.061,0,0,0-1.783-.892,2.028,2.028,0,0,0-1.762.886A4.821,4.821,0,0,0-30.615-5.693Zm9.335-.2a7,7,0,0,1,1.219-4.329,3.956,3.956,0,0,1,3.335-1.611,3.56,3.56,0,0,1,2.8,1.268V-16.5h3.115V0h-2.8l-.15-1.235A3.653,3.653,0,0,1-16.747.215,3.945,3.945,0,0,1-20.04-1.4,7.23,7.23,0,0,1-21.28-5.9Zm3.1.226a4.576,4.576,0,0,0,.569,2.5,1.855,1.855,0,0,0,1.654.87,2.078,2.078,0,0,0,2.03-1.214V-8.1a2.048,2.048,0,0,0-2.009-1.214Q-18.176-9.313-18.176-5.672Zm16.736,4.49a3.893,3.893,0,0,1-3.18,1.4A3.672,3.672,0,0,1-7.471-.859a4.586,4.586,0,0,1-1-3.147v-7.616h3.1v7.509q0,1.815,1.654,1.815a2.242,2.242,0,0,0,2.17-1.1v-8.229H1.568V0H-1.354ZM8.744-2.288a2.036,2.036,0,0,0,1.4-.473A1.656,1.656,0,0,0,10.7-4.018H13.61a3.982,3.982,0,0,1-.645,2.165A4.253,4.253,0,0,1,11.231-.328,5.43,5.43,0,0,1,8.8.215,5.046,5.046,0,0,1,4.866-1.37,6.27,6.27,0,0,1,3.427-5.747v-.2a6.2,6.2,0,0,1,1.429-4.286,4.987,4.987,0,0,1,3.921-1.6,4.889,4.889,0,0,1,3.5,1.241,4.393,4.393,0,0,1,1.337,3.3H10.7a2.116,2.116,0,0,0-.559-1.466,1.868,1.868,0,0,0-1.418-.564,1.871,1.871,0,0,0-1.638.79,4.57,4.57,0,0,0-.553,2.562v.322a4.628,4.628,0,0,0,.548,2.578A1.894,1.894,0,0,0,8.744-2.288Zm11.473,0a2.036,2.036,0,0,0,1.4-.473,1.656,1.656,0,0,0,.559-1.257h2.911a3.982,3.982,0,0,1-.645,2.165A4.253,4.253,0,0,1,22.7-.328a5.43,5.43,0,0,1-2.433.542A5.046,5.046,0,0,1,16.339-1.37,6.27,6.27,0,0,1,14.9-5.747v-.2a6.2,6.2,0,0,1,1.429-4.286,4.987,4.987,0,0,1,3.921-1.6,4.889,4.889,0,0,1,3.5,1.241,4.393,4.393,0,0,1,1.337,3.3H22.172a2.116,2.116,0,0,0-.559-1.466A1.868,1.868,0,0,0,20.2-9.324a1.871,1.871,0,0,0-1.638.79A4.57,4.57,0,0,0,18-5.973v.322a4.628,4.628,0,0,0,.548,2.578A1.894,1.894,0,0,0,20.217-2.288ZM30.132,0H27.017V-11.623h3.115Zm-3.3-14.631A1.529,1.529,0,0,1,27.3-15.78a1.755,1.755,0,0,1,1.273-.451,1.759,1.759,0,0,1,1.268.451,1.52,1.52,0,0,1,.473,1.149,1.524,1.524,0,0,1-.478,1.16,1.764,1.764,0,0,1-1.262.451,1.764,1.764,0,0,1-1.262-.451A1.524,1.524,0,0,1,26.834-14.631Zm5.371,8.712A6.893,6.893,0,0,1,32.871-9,4.876,4.876,0,0,1,34.789-11.1a5.594,5.594,0,0,1,2.906-.741,5.293,5.293,0,0,1,3.84,1.439,5.777,5.777,0,0,1,1.66,3.91l.021.795A6.075,6.075,0,0,1,41.723-1.4,5.19,5.19,0,0,1,37.716.215,5.216,5.216,0,0,1,33.7-1.4a6.182,6.182,0,0,1-1.5-4.383Zm3.1.226a4.333,4.333,0,0,0,.623,2.53,2.056,2.056,0,0,0,1.783.875,2.061,2.061,0,0,0,1.762-.865,4.741,4.741,0,0,0,.634-2.766,4.29,4.29,0,0,0-.634-2.514,2.061,2.061,0,0,0-1.783-.892,2.028,2.028,0,0,0-1.762.886A4.821,4.821,0,0,0,35.31-5.693Zm3-10.807H41.69l-2.976,3.33H36.19Zm9.679,4.877.1,1.343a4.058,4.058,0,0,1,3.341-1.558,3.372,3.372,0,0,1,2.75,1.085A5.062,5.062,0,0,1,55.1-7.509V0h-3.1V-7.434a2.014,2.014,0,0,0-.43-1.434,1.924,1.924,0,0,0-1.429-.446A2.136,2.136,0,0,0,48.168-8.2V0h-3.1V-11.623ZM-42.775,22.712a2.036,2.036,0,0,0,1.4-.473,1.656,1.656,0,0,0,.559-1.257h2.911a3.982,3.982,0,0,1-.645,2.165,4.253,4.253,0,0,1-1.735,1.525,5.43,5.43,0,0,1-2.433.542,5.046,5.046,0,0,1-3.932-1.584,6.27,6.27,0,0,1-1.439-4.377v-.2a6.2,6.2,0,0,1,1.429-4.286,4.987,4.987,0,0,1,3.921-1.6,4.889,4.889,0,0,1,3.5,1.241,4.393,4.393,0,0,1,1.337,3.3H-40.82a2.116,2.116,0,0,0-.559-1.466,1.868,1.868,0,0,0-1.418-.564,1.871,1.871,0,0,0-1.638.79,4.57,4.57,0,0,0-.553,2.562v.322a4.628,4.628,0,0,0,.548,2.578A1.894,1.894,0,0,0-42.775,22.712Zm6.155-3.631A6.893,6.893,0,0,1-35.954,16,4.876,4.876,0,0,1-34.037,13.9a5.594,5.594,0,0,1,2.906-.741,5.293,5.293,0,0,1,3.84,1.439,5.777,5.777,0,0,1,1.66,3.91l.021.795A6.075,6.075,0,0,1-27.1,23.6a5.19,5.19,0,0,1-4.007,1.617A5.216,5.216,0,0,1-35.122,23.6a6.182,6.182,0,0,1-1.5-4.383Zm3.1.226a4.333,4.333,0,0,0,.623,2.53,2.056,2.056,0,0,0,1.783.875,2.061,2.061,0,0,0,1.762-.865,4.741,4.741,0,0,0,.634-2.766,4.29,4.29,0,0,0-.634-2.514,2.061,2.061,0,0,0-1.783-.892,2.028,2.028,0,0,0-1.762.886A4.821,4.821,0,0,0-33.516,19.307Zm12.729-5.93.1,1.3a4.085,4.085,0,0,1,3.341-1.515,3.1,3.1,0,0,1,3.083,1.772,3.991,3.991,0,0,1,3.491-1.772,3.467,3.467,0,0,1,2.814,1.1,5.061,5.061,0,0,1,.924,3.314V25h-3.115V17.588a2.213,2.213,0,0,0-.387-1.445,1.714,1.714,0,0,0-1.364-.457,1.938,1.938,0,0,0-1.934,1.332L-13.825,25h-3.1V17.6a2.186,2.186,0,0,0-.4-1.461,1.731,1.731,0,0,0-1.354-.451,2.012,2.012,0,0,0-1.912,1.1V25h-3.1V13.377ZM.7,25.215a5.706,5.706,0,0,1-4.163-1.568A5.575,5.575,0,0,1-5.07,19.468v-.3a7.021,7.021,0,0,1,.677-3.131,4.967,4.967,0,0,1,1.917-2.127,5.382,5.382,0,0,1,2.831-.747,4.824,4.824,0,0,1,3.754,1.5,6.111,6.111,0,0,1,1.37,4.265V20.2h-7.4a2.884,2.884,0,0,0,.908,1.826A2.744,2.744,0,0,0,.9,22.712a3.351,3.351,0,0,0,2.8-1.3L5.231,23.12a4.66,4.66,0,0,1-1.891,1.542A6.2,6.2,0,0,1,.7,25.215ZM.344,15.676a1.944,1.944,0,0,0-1.5.623,3.219,3.219,0,0,0-.736,1.783H2.428v-.247a2.3,2.3,0,0,0-.559-1.6A2.006,2.006,0,0,0,.344,15.676Zm13.428.612a8.434,8.434,0,0,0-1.117-.086,2.274,2.274,0,0,0-2.31,1.192V25H7.24V13.377h2.933l.086,1.386a2.877,2.877,0,0,1,2.589-1.6,3.253,3.253,0,0,1,.967.14Zm6.123,6.424a2.036,2.036,0,0,0,1.4-.473,1.656,1.656,0,0,0,.559-1.257h2.911a3.982,3.982,0,0,1-.645,2.165,4.253,4.253,0,0,1-1.735,1.525,5.43,5.43,0,0,1-2.433.542,5.046,5.046,0,0,1-3.932-1.584,6.27,6.27,0,0,1-1.439-4.377v-.2a6.2,6.2,0,0,1,1.429-4.286,4.987,4.987,0,0,1,3.921-1.6,4.889,4.889,0,0,1,3.5,1.241,4.393,4.393,0,0,1,1.337,3.3H21.85a2.116,2.116,0,0,0-.559-1.466,2.081,2.081,0,0,0-3.056.226,4.57,4.57,0,0,0-.553,2.562v.322a4.628,4.628,0,0,0,.548,2.578A1.894,1.894,0,0,0,19.895,22.712ZM29.81,25H26.694V13.377H29.81Zm-3.3-14.631a1.529,1.529,0,0,1,.467-1.149,2.014,2.014,0,0,1,2.541,0,1.64,1.64,0,0,1-.005,2.31,1.991,1.991,0,0,1-2.524,0A1.524,1.524,0,0,1,26.512,10.369ZM39.1,25a3.447,3.447,0,0,1-.312-1.042,3.756,3.756,0,0,1-2.933,1.257,4.127,4.127,0,0,1-2.831-.988A3.178,3.178,0,0,1,31.9,21.734a3.285,3.285,0,0,1,1.37-2.836,6.758,6.758,0,0,1,3.958-1h1.429v-.666a1.915,1.915,0,0,0-.414-1.289,1.627,1.627,0,0,0-1.305-.483,1.85,1.85,0,0,0-1.23.376,1.277,1.277,0,0,0-.446,1.031h-3.1A3.118,3.118,0,0,1,32.785,15a4.118,4.118,0,0,1,1.762-1.348,6.42,6.42,0,0,1,2.557-.489,5.073,5.073,0,0,1,3.411,1.08,3.777,3.777,0,0,1,1.262,3.035v5.038a5.557,5.557,0,0,0,.462,2.5V25Zm-2.567-2.159a2.674,2.674,0,0,0,1.268-.306,2.011,2.011,0,0,0,.859-.822v-2H37.5q-2.331,0-2.481,1.611l-.011.183a1.243,1.243,0,0,0,.408.956A1.586,1.586,0,0,0,36.534,22.841ZM47.438,25H44.322V8.5h3.115Z" transform="translate(589 3724)" fill="#12263f"/>
  </g>
</svg>
