<svg xmlns="http://www.w3.org/2000/svg" width="187" height="180" viewBox="0 0 187 180">
  <g id="Grupo_847988" data-name="Grupo 847988" transform="translate(-318 -1130)">
    <circle id="Elipse_6736" data-name="Elipse 6736" cx="72" cy="72" r="72" transform="translate(354 1130)" fill="#f5d664"/>
    <g id="vaca_2_" data-name="vaca (2)" transform="translate(376.5 1157.944)">
      <path id="Trazado_568894" data-name="Trazado 568894" d="M282.1,395.035v2.051a4.634,4.634,0,0,1-.06.756,4.821,4.821,0,0,1-9.523,0,4.637,4.637,0,0,1-.06-.756v-2.051Zm0,0" transform="translate(-219.778 -318.651)" fill="#e3f4ff"/>
      <path id="Trazado_568895" data-name="Trazado 568895" d="M282.1,395.035v2.051a4.634,4.634,0,0,1-.06.756h-9.523a4.637,4.637,0,0,1-.06-.756v-2.051Zm0,0" transform="translate(-219.778 -318.651)" fill="#bddff4"/>
      <path id="Trazado_568896" data-name="Trazado 568896" d="M57.535,83.555h4.641V164.7H57.535Zm0,0" transform="translate(-46.41 -67.399)" fill="#e3f4ff"/>
      <path id="Trazado_568897" data-name="Trazado 568897" d="M430.465,83.555h4.641V164.7h-4.641Zm0,0" transform="translate(-347.23 -67.399)" fill="#e3f4ff"/>
      <path id="Trazado_568898" data-name="Trazado 568898" d="M247,261.506v37.316a3.837,3.837,0,0,1-7.675,0V285.353a1.933,1.933,0,0,0-1.934-1.934H224.706a1.933,1.933,0,0,0-1.934,1.934v13.469a3.837,3.837,0,0,1-7.675,0V261.506a5.43,5.43,0,0,1,.934-3.051h0a5.436,5.436,0,0,1,4.511-2.4h21.006A5.445,5.445,0,0,1,247,261.506Zm0,0" transform="translate(-173.507 -206.547)" fill="#ffeee1"/>
      <path id="Trazado_568899" data-name="Trazado 568899" d="M249.964,258.448a6.5,6.5,0,0,1-2.094.617v8.322a12.839,12.839,0,0,1-.766,4.385,13.027,13.027,0,0,1-3.016,4.749,12.916,12.916,0,0,1-22.055-9.135v-8.322a6.552,6.552,0,0,1-2.1-.611,5.436,5.436,0,0,1,4.511-2.4h21.006A5.443,5.443,0,0,1,249.964,258.448Zm0,0" transform="translate(-177.411 -206.547)" fill="#fecbaa"/>
      <path id="Trazado_568900" data-name="Trazado 568900" d="M348.057,428.059v9.506a3.837,3.837,0,0,1-7.675,0v-9.506Zm0,0" transform="translate(-274.567 -345.289)" fill="#618baa"/>
      <path id="Trazado_568901" data-name="Trazado 568901" d="M219.638,368.6a4.541,4.541,0,0,1-4.544,4.544v-9.088A4.544,4.544,0,0,1,219.638,368.6Zm0,0" transform="translate(-173.503 -293.664)" fill="#618baa"/>
      <path id="Trazado_568902" data-name="Trazado 568902" d="M245.5,213.2a4.284,4.284,0,0,1-4.285,4.285h-1.537v10.6a10.6,10.6,0,1,1-21.2,0v-10.6h-1.537a4.285,4.285,0,0,1-4.285-4.285,1.9,1.9,0,0,1,1.9-1.9h1.619a4.036,4.036,0,0,0,3.48-1.987,4.04,4.04,0,0,1,3.48-1.986h11.888a4.04,4.04,0,0,1,3.48,1.986,4.042,4.042,0,0,0,3.48,1.987h1.619a1.9,1.9,0,0,1,1.9,1.9Zm0,0" transform="translate(-171.543 -167.239)" fill="#ffeee1"/>
      <path id="Trazado_568903" data-name="Trazado 568903" d="M302.884,270.445h5.3v-10.6h-5.3a5.3,5.3,0,0,0,0,10.6Zm0,0" transform="translate(-240.045 -209.604)" fill="#618baa"/>
      <path id="Trazado_568904" data-name="Trazado 568904" d="M265.959,333.25a10.6,10.6,0,0,1-19.943,0Zm0,0" transform="translate(-198.446 -268.813)" fill="#ffae85"/>
      <path id="Trazado_568905" data-name="Trazado 568905" d="M114.261,51.3H29.968a1.933,1.933,0,0,1-1.933-1.933v-5.8h88.158v5.8A1.933,1.933,0,0,1,114.261,51.3Zm0,0" transform="translate(-22.614 -35.149)" fill="#64bdff"/>
      <path id="Trazado_568906" data-name="Trazado 568906" d="M101.665,16.512H9.435A1.933,1.933,0,0,1,7.665,13.8L9.92,8.657A1.932,1.932,0,0,1,11.69,7.5H99.409a1.932,1.932,0,0,1,1.77,1.157l2.255,5.146A1.933,1.933,0,0,1,101.665,16.512Zm0,0" transform="translate(-6.05 -6.05)" fill="#e3f4ff"/>
      <path id="Trazado_568907" data-name="Trazado 568907" d="M107.652,351.753h-4.024a1.594,1.594,0,0,1-1.594-1.594v-4.116h7.211v4.116A1.594,1.594,0,0,1,107.652,351.753Zm0,0" transform="translate(-82.306 -279.132)" fill="#64bdff"/>
      <path id="Trazado_568908" data-name="Trazado 568908" d="M112.712,181.389h-5.126v-3.375a1.069,1.069,0,0,1,1.068-1.069h2.99a1.069,1.069,0,0,1,1.068,1.069Zm0,0" transform="translate(-86.783 -142.731)" fill="#bddff4"/>
      <path id="Trazado_568909" data-name="Trazado 568909" d="M81.272,204.217v20.177a4.287,4.287,0,0,1-4.287,4.287H61.826a4.289,4.289,0,0,1-4.287-4.287V204.217a4.241,4.241,0,0,1,.1-.921,4.284,4.284,0,0,1,4.187-3.366H76.985A4.287,4.287,0,0,1,81.272,204.217Zm0,0" transform="translate(-46.413 -161.271)" fill="#bddff4"/>
      <path id="Trazado_568910" data-name="Trazado 568910" d="M67.3,221.594V235.1a4.259,4.259,0,0,1-4.254,4.254h-5.4a4.256,4.256,0,0,1-.1-.921V218.261a4.241,4.241,0,0,1,.1-.921h5.4A4.259,4.259,0,0,1,67.3,221.594Zm0,0" transform="translate(-46.413 -175.315)" fill="#9cc6db"/>
      <path id="Trazado_568911" data-name="Trazado 568911" d="M146.187,204.213v20.178a4.287,4.287,0,0,1-4.286,4.286h-3.885a4.287,4.287,0,0,0,4.287-4.286V204.213a4.287,4.287,0,0,0-4.287-4.287H141.9A4.288,4.288,0,0,1,146.187,204.213Zm0,0" transform="translate(-111.329 -161.268)" fill="#9cc6db"/>
      <path id="Trazado_568912" data-name="Trazado 568912" d="M81.272,240.7V257.28a4.287,4.287,0,0,1-4.287,4.287H61.826A4.285,4.285,0,0,1,57.64,258.2c-.015-.074-.031-.149-.042-.224s-.023-.147-.032-.223v-.008c-.006-.048-.01-.094-.012-.143s-.006-.068-.008-.1c0-.073-.006-.147-.006-.221V240.7Zm0,0" transform="translate(-46.413 -194.158)" fill="#ffeee1"/>
      <g id="Grupo_847438" data-name="Grupo 847438" transform="translate(1.45 21.5)">
        <path id="Trazado_568913" data-name="Trazado 568913" d="M67.3,240.7v13.247a4.259,4.259,0,0,1-4.254,4.254h-5.4c-.015-.074-.031-.149-.042-.224s-.023-.147-.032-.223v-.008c-.006-.048-.01-.094-.012-.143s-.006-.068-.008-.1c0-.073-.006-.147-.006-.221V240.7Zm0,0" transform="translate(-47.864 -215.658)" fill="#fedfc5"/>
        <path id="Trazado_568914" data-name="Trazado 568914" d="M146.187,240.7v16.581a4.287,4.287,0,0,1-4.286,4.286h-3.885a4.287,4.287,0,0,0,4.287-4.286V240.7Zm0,0" transform="translate(-112.779 -215.658)" fill="#fedfc5"/>
        <path id="Trazado_568915" data-name="Trazado 568915" d="M7.5,111.191h96.1v4.455H7.5Zm0,0" transform="translate(-7.5 -111.191)" fill="#fedfc5"/>
      </g>
      <path id="Trazado_568916" data-name="Trazado 568916" d="M48.895,246.717H42.747A2.747,2.747,0,0,1,40,243.969V232.087a2.747,2.747,0,0,1,2.747-2.747h6.147a1.933,1.933,0,0,1,1.934,1.934v13.51A1.934,1.934,0,0,1,48.895,246.717Zm0,0" transform="translate(-32.266 -184.995)" fill="#64bdff"/>
      <path id="Trazado_568917" data-name="Trazado 568917" d="M323.036,274.895a1.45,1.45,0,0,0-1.45,1.45v1.16a1.45,1.45,0,0,0,2.9,0v-1.16A1.45,1.45,0,0,0,323.036,274.895Zm0,0" transform="translate(-259.404 -221.741)"/>
      <path id="Trazado_568918" data-name="Trazado 568918" d="M260.036,278.955a1.451,1.451,0,0,0,1.45-1.45v-1.16a1.45,1.45,0,0,0-2.9,0v1.16A1.45,1.45,0,0,0,260.036,278.955Zm0,0" transform="translate(-208.586 -221.741)"/>
      <path id="Trazado_568919" data-name="Trazado 568919" d="M1.45,20.05a1.45,1.45,0,0,0,0,2.9h96.1a1.45,1.45,0,0,0,0-2.9H89.325V17.606h2.321a3.387,3.387,0,0,0,3.383-3.383V11.912h.585a3.383,3.383,0,0,0,3.1-4.741L96.458,2.025A3.383,3.383,0,0,0,93.359,0H5.641a3.383,3.383,0,0,0-3.1,2.025L.286,7.171a3.383,3.383,0,0,0,3.1,4.741h.585v2.311a3.387,3.387,0,0,0,3.383,3.383H9.675V20.05Zm83.234,0V17.606h1.74V20.05ZM2.981,8.793a.471.471,0,0,1-.039-.458L5.2,3.189A.483.483,0,0,1,5.641,2.9H93.359a.483.483,0,0,1,.443.289l2.255,5.146a.484.484,0,0,1-.443.677H3.385a.47.47,0,0,1-.4-.219Zm3.89,5.431V11.912H92.129v2.311a.483.483,0,0,1-.483.483H7.354A.483.483,0,0,1,6.871,14.223Zm74.913,3.383V20.05H17.216V17.606Zm-69.209,0h1.74V20.05h-1.74Zm0,0"/>
      <path id="Trazado_568920" data-name="Trazado 568920" d="M97.55,126.73H1.45a1.45,1.45,0,0,0,0,2.9H9.675V145.2a4.2,4.2,0,0,0-3.391,4.119V161.2a4.2,4.2,0,0,0,3.391,4.119v34.2a1.45,1.45,0,0,0,1.45,1.45h4.641a1.45,1.45,0,0,0,1.45-1.45v-5.367a1.45,1.45,0,0,0-2.9,0v3.917h-1.74V170.331a5.684,5.684,0,0,0,1.74.647v16.568a1.45,1.45,0,0,0,2.9,0V171.085h1.063v2.168a3.047,3.047,0,0,0,3.043,3.044h.593v9.573a5.893,5.893,0,0,0,5.886,5.886h12.34V194.5a5.287,5.287,0,0,0,10.574,0v-2.745h2.391a5.9,5.9,0,0,0,5.817-4.987,6.282,6.282,0,0,0,4.854-6.107v-.113h.107a.484.484,0,0,1,.483.483v3.95s0,.008,0,.013,0,.009,0,.014V194.5a5.286,5.286,0,0,0,10.573,0v-9.489c0-.005,0-.011,0-.017s0-.011,0-.017v-8.612a1.45,1.45,0,0,0-2.9,0v7.178H67.268v-2.513a3.388,3.388,0,0,0-3.384-3.384H51.2a3.388,3.388,0,0,0-3.384,3.384V194.5a2.386,2.386,0,0,1-4.772,0V182.982a6,6,0,0,0,0-11.633V157.184a4.015,4.015,0,0,1,1.741-3.3,5.659,5.659,0,0,0,.623.035h.088v9.147a12,12,0,0,0,.681,3.986,1.555,1.555,0,0,0,.065.187,12.047,12.047,0,0,0,22.6,0,1.329,1.329,0,0,0,.065-.187,11.977,11.977,0,0,0,.681-3.986V153.92h.088a5.659,5.659,0,0,0,.623-.035,4.014,4.014,0,0,1,1.74,3.3v12.574a1.45,1.45,0,0,0,2.9,0V157.184a6.914,6.914,0,0,0-1.69-4.518,5.724,5.724,0,0,0,2.162-4.48,3.351,3.351,0,0,0-3.348-3.348H70.446a2.6,2.6,0,0,1-2.231-1.274,5.516,5.516,0,0,0-4.729-2.7H51.6a5.515,5.515,0,0,0-4.729,2.7,2.6,2.6,0,0,1-2.231,1.274H43.017a3.351,3.351,0,0,0-3.347,3.348,5.727,5.727,0,0,0,2.161,4.48,6.917,6.917,0,0,0-1.69,4.518V172.6c0,.005,0,.011,0,.017s0,.011,0,.017v9.055c0,.005,0,.011,0,.017s0,.011,0,.017v7.131H27.8a2.989,2.989,0,0,1-2.985-2.986V176.3h.53a3.047,3.047,0,0,0,3.044-3.044v-2.168h2.182a5.744,5.744,0,0,0,5.737-5.737V145.171a5.743,5.743,0,0,0-5.737-5.737H27.379v-1.925a2.518,2.518,0,0,0-1.15-2.112,2.305,2.305,0,0,1,2.053-1.262h11.65a5.213,5.213,0,0,0,5.157-4.5h36.7v9.77a1.45,1.45,0,0,0,2.9,0v-9.77h1.74v68.442h-1.74V146.009a1.45,1.45,0,0,0-2.9,0v53.514a1.45,1.45,0,0,0,1.45,1.45h4.641a1.451,1.451,0,0,0,1.45-1.45V129.631H97.55a1.45,1.45,0,0,0,0-2.9ZM72.04,186.445V194.5a2.386,2.386,0,0,1-4.773,0v-8.055Zm-11.164-5.783a3.371,3.371,0,1,1-6.743,0v-.113h6.743Zm-9.678-.113h.035v.113a6.283,6.283,0,0,0,4.728,6.079,2.989,2.989,0,0,1-2.855,2.115H50.715v-7.823A.484.484,0,0,1,51.2,180.549Zm6.343-8.334a9.146,9.146,0,0,1-7.625-4.1H65.165A9.145,9.145,0,0,1,57.541,172.214Zm5.3-10.6a3.849,3.849,0,0,1,0-7.7h3.848v7.7ZM43.017,147.739h1.619a5.513,5.513,0,0,0,4.729-2.7,2.6,2.6,0,0,1,2.232-1.274H63.485a2.6,2.6,0,0,1,2.231,1.274,5.514,5.514,0,0,0,4.729,2.7h1.619a.447.447,0,0,1,.447.446,2.838,2.838,0,0,1-2.835,2.835H62.84a6.749,6.749,0,1,0,0,13.5h3.732c-.037.235-.085.467-.14.7H48.65a9.135,9.135,0,0,1-.257-2.146v-10.6a1.45,1.45,0,0,0-1.45-1.45H45.4a2.838,2.838,0,0,1-2.835-2.835A.448.448,0,0,1,43.017,147.739Zm1.667,29.425a3.08,3.08,0,0,1-.9,2.187,3.132,3.132,0,0,1-.739.547v-5.465A3.1,3.1,0,0,1,44.684,177.164Zm-24.264-41.71a2.514,2.514,0,0,0-1.068,2.055v1.925H17.216v-9.8h3.2Zm-6.105-5.823v9.909a5.7,5.7,0,0,0-1.74.647V129.631ZM9.185,161.2V149.318a1.3,1.3,0,0,1,1.3-1.3h6.147a.484.484,0,0,1,.483.483v13.509a.484.484,0,0,1-.483.483H10.481A1.3,1.3,0,0,1,9.185,161.2ZM25.49,173.253a.144.144,0,0,1-.144.144H21.322a.143.143,0,0,1-.144-.144v-2.168h4.311v2.168Zm5.082-5.068H15.412a2.839,2.839,0,0,1-2.834-2.787h4.051a3.388,3.388,0,0,0,3.384-3.384v-11.8h13.4v15.13A2.84,2.84,0,0,1,30.572,168.185Zm2.837-23.014v2.147H19.794a3.387,3.387,0,0,0-3.165-2.2H12.578a2.838,2.838,0,0,1,2.834-2.786H30.573A2.839,2.839,0,0,1,33.409,145.171Zm-11.156-5.737v-1.543h2.226v1.543Zm17.679-8.2H28.282a5.215,5.215,0,0,0-4.961,3.629v-5.232H42.127A2.308,2.308,0,0,1,39.932,131.234Zm0,0" transform="translate(0 -102.226)"/>
    </g>
    <g id="Elipse_6729" data-name="Elipse 6729" transform="translate(318 1181)" fill="#ff854e" stroke="#fff" stroke-width="3">
      <circle cx="26.5" cy="26.5" r="26.5" stroke="none"/>
      <circle cx="26.5" cy="26.5" r="25" fill="none"/>
    </g>
    <text id="_1" data-name="1" transform="translate(337 1213)" fill="#fff" font-size="24" font-family="Roboto-Black, Roboto" font-weight="800"><tspan x="0" y="0">1</tspan></text>
    <rect id="Rectángulo_281594" data-name="Rectángulo 281594" width="161" height="45" rx="8" transform="translate(344 1265)" fill="#fff"/>
    <path id="Trazado_570770" data-name="Trazado 570770" d="M4.727,0H1.309V-14.219H4.727ZM9.98-10.566l.107,1.24a3.583,3.583,0,0,1,3.018-1.436,3.015,3.015,0,0,1,2.466.986,4.7,4.7,0,0,1,.845,2.969V0h-3.3V-6.67a1.783,1.783,0,0,0-.322-1.177,1.491,1.491,0,0,0-1.172-.376,1.569,1.569,0,0,0-1.436.762V0H6.895V-10.566Zm13.789,7.6a.76.76,0,0,0-.439-.674,6.685,6.685,0,0,0-1.67-.527,7.615,7.615,0,0,1-2.031-.718,3.4,3.4,0,0,1-1.221-1.079,2.577,2.577,0,0,1-.42-1.455,2.92,2.92,0,0,1,1.2-2.4,4.948,4.948,0,0,1,3.145-.942,5.482,5.482,0,0,1,3.359.947,2.962,2.962,0,0,1,1.27,2.49h-3.3q0-1.27-1.338-1.27a1.326,1.326,0,0,0-.869.288.892.892,0,0,0-.352.718.819.819,0,0,0,.43.713,4.06,4.06,0,0,0,1.372.449,11.857,11.857,0,0,1,1.655.42,3.007,3.007,0,0,1,2.383,2.939A2.767,2.767,0,0,1,25.659-.713,5.631,5.631,0,0,1,22.334.2a5.747,5.747,0,0,1-2.422-.488,4.05,4.05,0,0,1-1.66-1.328,3.007,3.007,0,0,1-.6-1.768h3.076a1.272,1.272,0,0,0,.488,1.069,2.009,2.009,0,0,0,1.2.337,1.58,1.58,0,0,0,1.011-.273A.875.875,0,0,0,23.77-2.969Zm8.545-10.225v2.627h1.738v2.285H32.314v4.834a1.234,1.234,0,0,0,.215.83,1.152,1.152,0,0,0,.85.234,4.828,4.828,0,0,0,.82-.059V-.088A6.074,6.074,0,0,1,32.344.2a3.448,3.448,0,0,1-2.51-.8,3.282,3.282,0,0,1-.811-2.432V-8.281H27.676v-2.285h1.348v-2.627ZM41.3,0a3.716,3.716,0,0,1-.312-.947A3.06,3.06,0,0,1,38.447.2a3.749,3.749,0,0,1-2.539-.9,2.875,2.875,0,0,1-1.045-2.271,2.955,2.955,0,0,1,1.27-2.6,6.468,6.468,0,0,1,3.691-.879H40.84v-.557q0-1.455-1.26-1.455a1.027,1.027,0,0,0-1.172,1.152H35.117a2.955,2.955,0,0,1,1.3-2.49,5.474,5.474,0,0,1,3.325-.957,4.8,4.8,0,0,1,3.193.986,3.429,3.429,0,0,1,1.2,2.705v4.678A4.79,4.79,0,0,0,44.59-.166V0ZM39.238-2.148a1.836,1.836,0,0,0,1.021-.264,1.653,1.653,0,0,0,.581-.6V-4.7h-.957q-1.719,0-1.719,1.543a.942.942,0,0,0,.3.728A1.1,1.1,0,0,0,39.238-2.148ZM49.434,0h-3.3V-15h3.3Zm7.979,0A3.716,3.716,0,0,1,57.1-.947,3.06,3.06,0,0,1,54.561.2a3.749,3.749,0,0,1-2.539-.9,2.875,2.875,0,0,1-1.045-2.271,2.955,2.955,0,0,1,1.27-2.6,6.468,6.468,0,0,1,3.691-.879h1.016v-.557q0-1.455-1.26-1.455a1.027,1.027,0,0,0-1.172,1.152H51.23a2.955,2.955,0,0,1,1.3-2.49,5.474,5.474,0,0,1,3.325-.957,4.8,4.8,0,0,1,3.193.986,3.429,3.429,0,0,1,1.2,2.705v4.678A4.79,4.79,0,0,0,60.7-.166V0ZM55.352-2.148a1.836,1.836,0,0,0,1.021-.264,1.653,1.653,0,0,0,.581-.6V-4.7H56q-1.719,0-1.719,1.543a.942.942,0,0,0,.3.728A1.1,1.1,0,0,0,55.352-2.148Zm11.191-.2a1.464,1.464,0,0,0,1.074-.376,1.379,1.379,0,0,0,.371-1.05h3.086A3.653,3.653,0,0,1,69.829-.918,4.631,4.631,0,0,1,66.621.2,4.689,4.689,0,0,1,62.988-1.25a5.7,5.7,0,0,1-1.328-4v-.137a6.436,6.436,0,0,1,.591-2.827,4.3,4.3,0,0,1,1.7-1.885,5.081,5.081,0,0,1,2.637-.659,4.573,4.573,0,0,1,3.271,1.143,4.053,4.053,0,0,1,1.211,3.1H67.988a1.806,1.806,0,0,0-.4-1.26,1.382,1.382,0,0,0-1.074-.439q-1.279,0-1.494,1.631a11.508,11.508,0,0,0-.068,1.426,4.52,4.52,0,0,0,.381,2.207A1.319,1.319,0,0,0,66.543-2.344ZM75.938,0h-3.3V-10.566h3.3Zm-3.5-13.291a1.469,1.469,0,0,1,.508-1.152,1.916,1.916,0,0,1,1.318-.449,1.916,1.916,0,0,1,1.318.449,1.469,1.469,0,0,1,.508,1.152,1.469,1.469,0,0,1-.508,1.152,1.916,1.916,0,0,1-1.318.449,1.916,1.916,0,0,1-1.318-.449A1.469,1.469,0,0,1,72.441-13.291Zm5.107,7.91A6.236,6.236,0,0,1,78.164-8.2a4.4,4.4,0,0,1,1.768-1.9,5.323,5.323,0,0,1,2.705-.664,4.858,4.858,0,0,1,3.74,1.47,5.64,5.64,0,0,1,1.367,4v.117a5.472,5.472,0,0,1-1.372,3.921A4.871,4.871,0,0,1,82.656.2a4.927,4.927,0,0,1-3.623-1.353,5.29,5.29,0,0,1-1.475-3.667Zm3.291.205A3.932,3.932,0,0,0,81.3-3.027a1.529,1.529,0,0,0,1.357.684q1.758,0,1.8-2.705v-.332q0-2.842-1.816-2.842-1.65,0-1.787,2.451Zm11.377-5.391.107,1.24a3.583,3.583,0,0,1,3.018-1.436,3.015,3.015,0,0,1,2.466.986,4.7,4.7,0,0,1,.845,2.969V0h-3.3V-6.67a1.783,1.783,0,0,0-.322-1.177,1.491,1.491,0,0,0-1.172-.376,1.569,1.569,0,0,0-1.436.762V0H89.131V-10.566ZM105.586.2a5.432,5.432,0,0,1-3.936-1.45,5.008,5.008,0,0,1-1.5-3.774V-5.3a6.489,6.489,0,0,1,.6-2.861,4.395,4.395,0,0,1,1.753-1.919,5.292,5.292,0,0,1,2.734-.679A4.574,4.574,0,0,1,108.75-9.38a5.43,5.43,0,0,1,1.289,3.853v1.279H103.5a2.372,2.372,0,0,0,.771,1.4,2.3,2.3,0,0,0,1.543.508,2.958,2.958,0,0,0,2.441-1.094l1.5,1.777a4.2,4.2,0,0,1-1.743,1.353A5.891,5.891,0,0,1,105.586.2Zm-.371-8.418q-1.445,0-1.719,1.914h3.32v-.254a1.63,1.63,0,0,0-.4-1.226A1.593,1.593,0,0,0,105.215-8.223Zm11.68,5.254a.76.76,0,0,0-.439-.674,6.685,6.685,0,0,0-1.67-.527,7.615,7.615,0,0,1-2.031-.718,3.4,3.4,0,0,1-1.221-1.079,2.577,2.577,0,0,1-.42-1.455,2.92,2.92,0,0,1,1.2-2.4,4.948,4.948,0,0,1,3.145-.942,5.482,5.482,0,0,1,3.359.947,2.962,2.962,0,0,1,1.27,2.49h-3.3q0-1.27-1.338-1.27a1.326,1.326,0,0,0-.869.288.892.892,0,0,0-.352.718.819.819,0,0,0,.43.713,4.06,4.06,0,0,0,1.372.449,11.857,11.857,0,0,1,1.655.42,3.007,3.007,0,0,1,2.383,2.939,2.767,2.767,0,0,1-1.284,2.354A5.631,5.631,0,0,1,115.459.2a5.747,5.747,0,0,1-2.422-.488,4.05,4.05,0,0,1-1.66-1.328,3.007,3.007,0,0,1-.6-1.768h3.076a1.272,1.272,0,0,0,.488,1.069,2.009,2.009,0,0,0,1.2.337,1.58,1.58,0,0,0,1.011-.273A.875.875,0,0,0,116.895-2.969Z" transform="translate(365 1292)" fill="#12263f"/>
  </g>
</svg>
