<svg xmlns="http://www.w3.org/2000/svg" width="187" height="174" viewBox="0 0 187 174">
  <g id="Grupo_847992" data-name="Grupo 847992" transform="translate(-446 -1337)">
    <circle id="Elipse_6742" data-name="Elipse 6742" cx="72" cy="72" r="72" transform="translate(482 1337)" fill="#f5d664"/>
    <g id="Elipse_6743" data-name="Elipse 6743" transform="translate(446 1388)" fill="#ff854e" stroke="#fff" stroke-width="3">
      <circle cx="26.5" cy="26.5" r="26.5" stroke="none"/>
      <circle cx="26.5" cy="26.5" r="25" fill="none"/>
    </g>
    <text id="_5" data-name="5" transform="translate(465 1420)" fill="#fff" font-size="24" font-family="Roboto-Black, Roboto" font-weight="800"><tspan x="0" y="0">5</tspan></text>
    <g id="Grupo_847462" data-name="Grupo 847462" transform="translate(506.003 1373.838)">
      <path id="Trazado_569026" data-name="Trazado 569026" d="M375.513,119.537c6.174,0,12.77-3.136,15.292-7.613a15.117,15.117,0,0,0,1.358-6.306c0-3.766-2.439-6.2-6.062-6.2-7.14,0-17.323,4.559-22.095,6.907l3.266,12.66s2.01.55,8.242.55Z" transform="translate(-292.556 -90.14)" fill="#c38778"/>
      <path id="Trazado_569027" data-name="Trazado 569027" d="M29.573,119.467a54.848,54.848,0,0,0,14.03-2.135l2.19-9.643H43.6s-15.139-8.27-24.756-8.27a7.12,7.12,0,0,0-1.842.233,7.869,7.869,0,0,0-2.9,5.944C14.11,112.894,20,119.467,29.573,119.467Z" transform="translate(-12.785 -90.139)" fill="#c38778"/>
      <path id="Trazado_569028" data-name="Trazado 569028" d="M90.457,119.064c-6.232,0-8.242-.55-8.242-.55s-1.364-5.556-3.266-11.257c-1.655.814-2.661,1.364-2.661,1.364H40.507L36.8,117.913a82.6,82.6,0,0,1-12.651,1.151c-8.447,0-13.644-5.931-13.644-12.516a12.367,12.367,0,0,1,1.214-5.965c-2.583.691-4.22,2.88-4.22,5.965,0,8.723,7.135,15.522,16.65,15.522A55.823,55.823,0,0,0,34.8,121.12H79.81a55.826,55.826,0,0,0,10.647.951c7.05,0,12.79-3.735,15.292-9.217C102.434,116.816,96.631,119.064,90.457,119.064Z" transform="translate(-7.5 -91.07)" fill="#8c5e5e"/>
      <path id="Trazado_569029" data-name="Trazado 569029" d="M179.016,140.685H144.052s-8.076,20.334-8.076,31.257c0,9.777,8.327,17.507,8.327,17.507l4.008,7.1c.593,4.715,3.247,6.1,6.125,6.1h12.677c2.263,0,3.863-1.784,4.912-2.383a10.052,10.052,0,0,0,.667-1.825l.134-9.39,6.123-1.118c2.644-2.9,6.741-8.6,6.741-16,0-10.923-6.673-31.257-6.673-31.257Z" transform="translate(-110.227 -123.134)" fill="#c38778"/>
      <path id="Trazado_569030" data-name="Trazado 569030" d="M172.551,187.938c-1.119-3.674-2.941-7.95-4.248-9.257a53.67,53.67,0,0,1-4.249-20.541c0-9.834,2.243-13.937,2.243-13.937H159.7l-20.394,44.044s-8.327-6.528-8.327-16.3c0-10.923,6.673-31.257,6.673-31.257h-3.006s-6.673,20.334-6.673,31.257,8.931,18.131,8.931,18.131l4.067,8.373s1.378,6.013,6.434,6.013H159.86c3.207,0,4.933-2.418,5.767-4.187a9.758,9.758,0,0,1-4.912,1.181H148.039c-2.878,0-4.129-1.387-4.722-6.1,0,0,18.149-1.045,26.091-3.315l.953-1.963A22.1,22.1,0,0,0,172.551,187.938Z" transform="translate(-103.831 -123.134)" fill="#8c5e5e"/>
      <path id="Trazado_569031" data-name="Trazado 569031" d="M116.447,54.44a2.216,2.216,0,0,0-1.75-1.246c-4.66,8.05.071,15.045,8.855,15.045l2.413-6.125c-4.244-1.242-7.377-3.347-9.518-7.674Z" transform="translate(-91.753 -53.178)" fill="#fff0af"/>
      <path id="Trazado_569032" data-name="Trazado 569032" d="M109.726,53.131A2.193,2.193,0,0,0,107.3,54.79c-2.647,10.579,3.22,13.8,10.3,15.876l.981-2.49C111.427,66.023,107.352,62.436,109.726,53.131Z" transform="translate(-86.781 -53.115)" fill="#ffd064"/>
      <path id="Trazado_569033" data-name="Trazado 569033" d="M359.831,54.789a2.234,2.234,0,0,0-4.175-.413,13.469,13.469,0,0,1-6.424,6.5,64.542,64.542,0,0,0,1.179,7.9c3.778-1.449,8-3.6,9.932-7.408a16.853,16.853,0,0,0-.513-6.581Z" transform="translate(-280.743 -53.114)" fill="#fff0af"/>
      <path id="Trazado_569034" data-name="Trazado 569034" d="M336.89,91.851a19.738,19.738,0,0,1-3.094,1.172l3.394,8.615c5.332-1.56,9.975-3.776,10.811-9.295a21.608,21.608,0,0,1-8.866,5.543A35.277,35.277,0,0,0,336.89,91.851Z" transform="translate(-268.401 -84.088)" fill="#ffd064"/>
      <path id="Trazado_569035" data-name="Trazado 569035" d="M207.795,93.388l-1.7-5.5a9.019,9.019,0,0,0-8.616-6.354H180.141a9,9,0,0,0-2.4.326c-2.429,1.078-3.823,3.475-4.612,6.027l-1.161,3.753S183,95.671,183,110.843a69.781,69.781,0,0,1-3.585,22.142h21.8a52.78,52.78,0,0,1-4.988-22.142c0-15.172,11.572-17.455,11.572-17.455Z" transform="translate(-139.006 -75.837)" fill="#f5fcff"/>
      <path id="Trazado_569036" data-name="Trazado 569036" d="M164.816,92.942l1.161-3.753c.79-2.553,1.435-4.555,3.209-6.027a9.019,9.019,0,0,0-6.216,6.027l-1.7,5.5s11.572,2.283,11.572,17.455a52.78,52.78,0,0,1-4.988,22.142h3.006a52.78,52.78,0,0,0,4.988-22.142C175.847,96.974,164.816,92.942,164.816,92.942Z" transform="translate(-130.451 -77.14)" fill="#d8e2f3"/>
      <path id="Trazado_569037" data-name="Trazado 569037" d="M205.853,328.3c-2.633-2.633-14.527-3.183-21.037-1.652-3.062,1.652-7.043,9.655-7.043,15.087,0,2,1.062,3.127,3.018,3.127h25.32a5.874,5.874,0,0,0,4.516-2.508c.021-.229.036-.463.036-.708C210.663,337.713,207.919,330.362,205.853,328.3Z" transform="translate(-143.647 -271.149)" fill="#ffcdbe"/>
      <path id="Trazado_569038" data-name="Trazado 569038" d="M174.671,346.823c-.887,0-1.615-.258-1.615-1.724,0-5.432,2.949-12.485,5.64-15.087a8.25,8.25,0,0,0-3.767,1.652c-2.066,2.065-4.81,9.417-4.81,13.345,0,3,1.6,4.819,4.552,4.819h25.32a4.156,4.156,0,0,0,4.516-4.112,8.718,8.718,0,0,1-4.516,1.105Z" transform="translate(-137.527 -274.518)" fill="#ebae9d"/>
    </g>
    <g id="Grupo_847463" data-name="Grupo 847463" transform="translate(504.5 1372.334)">
      <path id="Trazado_569039" data-name="Trazado 569039" d="M57.533,129.94H45.081c-4.768,0-6.856-4.177-7.562-6.091-3.068-.446-4.927-2.753-4.927-6.243a16.074,16.074,0,0,1,.34-3c-2.258-2.085-8.785-8.956-8.785-18.681,0-4.738,1.193-11.1,2.577-16.888a62.866,62.866,0,0,1-8.569.583,1.5,1.5,0,1,1,0-3.006,58.092,58.092,0,0,0,9.356-.738c1.147-4.438,2.3-8.232,2.919-10.219a19.888,19.888,0,0,1-6.69-3.416C17.053,59.4,11.463,57.9,7.566,57.9c-2.812,0-4.559,1.8-4.559,4.695A13.813,13.813,0,0,0,13.012,75.839a1.5,1.5,0,1,1-.9,2.867A16.769,16.769,0,0,1,0,62.591a7.3,7.3,0,0,1,7.566-7.7c3.438,0,7.794.958,12.99,2.854-.921-2.549-.914-5.631.009-9.321a3.68,3.68,0,0,1,3.2-2.791,3.73,3.73,0,0,1,3.776,2.076,12.3,12.3,0,0,0,7.7,6.617,10.481,10.481,0,0,1,7.393-3.019h8.748a1.5,1.5,0,0,1,0,3.006H42.639a7.479,7.479,0,0,0-7.18,5.295L34.2,63.666a16.828,16.828,0,0,1,10.46,12.155,1.5,1.5,0,1,1-2.915.735A13.986,13.986,0,0,0,33.3,66.542c-1.484,4.765-6.15,20.457-6.15,29.379,0,7.162,4.231,12.712,6.655,15.3,1.006-3.179,2.486-6.33,3.853-7.836A52.083,52.083,0,0,0,42.39,82.119a1.5,1.5,0,0,1,3.006,0,55.122,55.122,0,0,1-3.561,19.141,34.217,34.217,0,0,1,6.379-.909,1.5,1.5,0,1,1,.179,3c-4.708.281-7.607,1.181-8.409,1.955l-.037.037c-1.726,1.758-4.35,8.608-4.35,12.262,0,2.231,1,3.316,3.049,3.316h25.32c2.051,0,3.049-1.085,3.049-3.316,0-3.654-2.624-10.5-4.349-12.262l-.037-.037c-.8-.773-3.7-1.674-8.409-1.955a1.5,1.5,0,1,1,.179-3,34.235,34.235,0,0,1,6.379.909,55.122,55.122,0,0,1-3.561-19.141c0-8.41,3.433-13.1,6.314-15.561a16.556,16.556,0,0,1,4.881-2.887l-1.257-4.064a7.48,7.48,0,0,0-7.18-5.295H57.4a1.5,1.5,0,0,1,0-3.006h2.575a10.481,10.481,0,0,1,7.393,3.019,12.3,12.3,0,0,0,7.7-6.617,3.729,3.729,0,0,1,3.776-2.076,3.68,3.68,0,0,1,3.2,2.791c.923,3.69.93,6.772.009,9.321,5.2-1.9,9.552-2.854,12.99-2.854a7.3,7.3,0,0,1,7.566,7.7A16.769,16.769,0,0,1,90.5,78.706a1.5,1.5,0,0,1-.9-2.867A13.813,13.813,0,0,0,99.607,62.591c0-2.9-1.747-4.695-4.559-4.695-3.9,0-9.487,1.5-16.172,4.341a19.892,19.892,0,0,1-6.69,3.416c.623,1.987,1.772,5.781,2.919,10.219a58.116,58.116,0,0,0,9.356.738,1.5,1.5,0,0,1,0,3.006,62.865,62.865,0,0,1-8.569-.583c1.383,5.785,2.577,12.149,2.577,16.888,0,9.725-6.528,16.6-8.786,18.681a16.076,16.076,0,0,1,.34,3c0,3.49-1.859,5.8-4.927,6.243-.706,1.915-2.795,6.091-7.562,6.091Zm-16.71-6.013a4.867,4.867,0,0,0,4.257,3.006H57.533a4.867,4.867,0,0,0,4.257-3.006Zm24.13-20.539c1.366,1.505,2.847,4.656,3.853,7.837,2.424-2.592,6.655-8.142,6.655-15.3,0-8.927-4.672-24.632-6.153-29.387-2.778,1.066-9.085,4.687-9.085,15.585a51.879,51.879,0,0,0,4.73,21.27Zm4.29-46.549a10.675,10.675,0,0,1,.783,1.878l1.257,4.064c6.611-2.181,9.92-5.349,7.849-13.63a.67.67,0,0,0-.61-.532.729.729,0,0,0-.76.42,15.058,15.058,0,0,1-8.52,7.8ZM24.179,48.616c-.034,0-.064,0-.088,0a.67.67,0,0,0-.61.532c-2.072,8.28,1.238,11.449,7.849,13.63l1.257-4.064a10.678,10.678,0,0,1,.783-1.878,15.058,15.058,0,0,1-8.52-7.8.719.719,0,0,0-.672-.425ZM57,115.555A1.5,1.5,0,0,1,55.923,113c.91-.93,2.354-2.893,2.354-4.2a1.5,1.5,0,0,1,3.006,0c0,2.958-2.887,5.975-3.216,6.31A1.5,1.5,0,0,1,57,115.555Zm-11.379,0a1.5,1.5,0,0,1-1.07-.448c-.329-.334-3.216-3.352-3.216-6.31a1.5,1.5,0,0,1,3.006,0c0,1.309,1.444,3.272,2.354,4.2a1.5,1.5,0,0,1-1.074,2.556ZM67.784,89.847a1.5,1.5,0,0,1-1.5-1.5V82.378a1.5,1.5,0,0,1,3.006,0v5.966A1.5,1.5,0,0,1,67.784,89.847Zm-32.955,0a1.5,1.5,0,0,1-1.5-1.5V82.378a1.5,1.5,0,1,1,3.006,0v5.966A1.5,1.5,0,0,1,34.829,89.847Zm25.337-23.68c-3.439,0-7.765-2.615-9.647-5.057A1.5,1.5,0,1,1,52.9,59.275c1.54,2,5.071,3.886,7.266,3.886a1.5,1.5,0,0,1,0,3.006Zm-11.825,0c-3.439,0-7.765-2.615-9.647-5.057a1.5,1.5,0,1,1,2.381-1.835c1.54,2,5.071,3.886,7.266,3.886a1.5,1.5,0,1,1,0,3.006Z" transform="translate(0 -45.609)"/>
    </g>
    <rect id="Rectángulo_281593" data-name="Rectángulo 281593" width="161" height="45" rx="8" transform="translate(472 1466)" fill="#fff"/>
    <path id="Trazado_570772" data-name="Trazado 570772" d="M9.15-2.656h-4.7L3.633,0H-.029L5.186-14.219H8.408L13.662,0H9.98ZM5.273-5.3H8.33L6.8-10.234ZM17.1-10.566l.107,1.24a3.583,3.583,0,0,1,3.018-1.436,3.015,3.015,0,0,1,2.466.986,4.7,4.7,0,0,1,.845,2.969V0h-3.3V-6.67a1.783,1.783,0,0,0-.322-1.177,1.491,1.491,0,0,0-1.172-.376,1.569,1.569,0,0,0-1.436.762V0H14.014V-10.566ZM28.828,0h-3.3V-10.566h3.3Zm-3.5-13.291a1.469,1.469,0,0,1,.508-1.152,1.916,1.916,0,0,1,1.318-.449,1.916,1.916,0,0,1,1.318.449,1.469,1.469,0,0,1,.508,1.152,1.469,1.469,0,0,1-.508,1.152,1.916,1.916,0,0,1-1.318.449,1.916,1.916,0,0,1-1.318-.449A1.469,1.469,0,0,1,25.332-13.291Zm8.633,2.725.107,1.24a3.633,3.633,0,0,1,3.018-1.436A2.675,2.675,0,0,1,39.795-9.17,3.516,3.516,0,0,1,42.9-10.762q3.213,0,3.3,3.887V0H42.9V-6.67a2.014,2.014,0,0,0-.273-1.182,1.164,1.164,0,0,0-1-.371,1.559,1.559,0,0,0-1.455.869l.01.137V0h-3.3V-6.65a2.117,2.117,0,0,0-.264-1.2,1.161,1.161,0,0,0-1.006-.371,1.578,1.578,0,0,0-1.445.869V0H30.879V-10.566ZM54.033,0a3.716,3.716,0,0,1-.312-.947A3.06,3.06,0,0,1,51.182.2a3.749,3.749,0,0,1-2.539-.9A2.875,2.875,0,0,1,47.6-2.979a2.955,2.955,0,0,1,1.27-2.6,6.468,6.468,0,0,1,3.691-.879h1.016v-.557q0-1.455-1.26-1.455a1.027,1.027,0,0,0-1.172,1.152H47.852a2.955,2.955,0,0,1,1.3-2.49,5.474,5.474,0,0,1,3.325-.957,4.8,4.8,0,0,1,3.193.986,3.429,3.429,0,0,1,1.2,2.705v4.678a4.79,4.79,0,0,0,.449,2.227V0ZM51.973-2.148a1.836,1.836,0,0,0,1.021-.264,1.653,1.653,0,0,0,.581-.6V-4.7h-.957Q50.9-4.7,50.9-3.154a.942.942,0,0,0,.3.728A1.1,1.1,0,0,0,51.973-2.148ZM62.168,0h-3.3V-15h3.3Zm7.139.2a5.432,5.432,0,0,1-3.936-1.45,5.008,5.008,0,0,1-1.5-3.774V-5.3a6.489,6.489,0,0,1,.6-2.861,4.395,4.395,0,0,1,1.753-1.919,5.292,5.292,0,0,1,2.734-.679A4.574,4.574,0,0,1,72.471-9.38,5.43,5.43,0,0,1,73.76-5.527v1.279H67.217a2.372,2.372,0,0,0,.771,1.4,2.3,2.3,0,0,0,1.543.508,2.958,2.958,0,0,0,2.441-1.094l1.5,1.777A4.2,4.2,0,0,1,71.733-.308,5.891,5.891,0,0,1,69.307.2Zm-.371-8.418q-1.445,0-1.719,1.914h3.32v-.254a1.63,1.63,0,0,0-.4-1.226A1.593,1.593,0,0,0,68.936-8.223Zm11.68,5.254a.76.76,0,0,0-.439-.674,6.685,6.685,0,0,0-1.67-.527,7.615,7.615,0,0,1-2.031-.718,3.4,3.4,0,0,1-1.221-1.079,2.577,2.577,0,0,1-.42-1.455,2.92,2.92,0,0,1,1.2-2.4,4.948,4.948,0,0,1,3.145-.942,5.482,5.482,0,0,1,3.359.947,2.962,2.962,0,0,1,1.27,2.49h-3.3q0-1.27-1.338-1.27a1.326,1.326,0,0,0-.869.288.892.892,0,0,0-.352.718.819.819,0,0,0,.43.713,4.06,4.06,0,0,0,1.372.449,11.857,11.857,0,0,1,1.655.42,3.007,3.007,0,0,1,2.383,2.939A2.767,2.767,0,0,1,82.5-.713,5.631,5.631,0,0,1,79.18.2a5.747,5.747,0,0,1-2.422-.488A4.05,4.05,0,0,1,75.1-1.621a3.007,3.007,0,0,1-.6-1.768h3.076a1.272,1.272,0,0,0,.488,1.069,2.009,2.009,0,0,0,1.2.337,1.58,1.58,0,0,0,1.011-.273A.875.875,0,0,0,80.615-2.969Z" transform="translate(511 1493)" fill="#12263f"/>
  </g>
</svg>
