<svg xmlns="http://www.w3.org/2000/svg" width="183" height="180" viewBox="0 0 183 180">
  <g id="Grupo_847989" data-name="Grupo 847989" transform="translate(-594 -1130)">
    <circle id="Elipse_6737" data-name="Elipse 6737" cx="72" cy="72" r="72" transform="translate(624 1130)" fill="#f5d664"/>
    <g id="Elipse_6730" data-name="Elipse 6730" transform="translate(594 1181)" fill="#ff854e" stroke="#fff" stroke-width="3">
      <circle cx="26.5" cy="26.5" r="26.5" stroke="none"/>
      <circle cx="26.5" cy="26.5" r="25" fill="none"/>
    </g>
    <text id="_2" data-name="2" transform="translate(613 1213)" fill="#fff" font-size="24" font-family="Roboto-Black, Roboto" font-weight="800"><tspan x="0" y="0">2</tspan></text>
    <g id="cultivo" transform="translate(657 1160)">
      <g id="Grupo_847458" data-name="Grupo 847458" transform="translate(1.274 1.274)">
        <g id="Grupo_847439" data-name="Grupo 847439" transform="translate(7.645 48.419)">
          <path id="Trazado_568921" data-name="Trazado 568921" d="M50.323,46.645a7.639,7.639,0,0,0,7.543-6.46h.013A91.6,91.6,0,0,1,72.506,39h3.3V56.839H73.258a7.651,7.651,0,0,0-7.645,7.645,7.651,7.651,0,0,0-7.645-7.645H55.419v2.548a7.651,7.651,0,0,0,7.645,7.645H38.855A7.651,7.651,0,0,0,46.5,59.387V56.839H43.952a7.651,7.651,0,0,0-7.645,7.645,7.651,7.651,0,0,0-7.645-7.645H26.113v2.548a7.651,7.651,0,0,0,7.645,7.645H7A90.66,90.66,0,0,1,40.358,44.9a7.6,7.6,0,0,0,4.867,1.746h5.1Z" transform="translate(-7 -39)" fill="#cf9e76"/>
        </g>
        <g id="Grupo_847440" data-name="Grupo 847440" transform="translate(0 28.032)">
          <path id="Trazado_568922" data-name="Trazado 568922" d="M19.31,28.237A37.308,37.308,0,0,1,43.8,41.106v.013a7.139,7.139,0,0,0-2.026-.28H39.226v2.548A7.647,7.647,0,0,0,42,49.287,90.66,90.66,0,0,0,8.645,71.419H1V23a7.651,7.651,0,0,0,7.645,7.645h5.1A7.656,7.656,0,0,0,19.31,28.237Z" transform="translate(-1 -23)" fill="#dfb28b"/>
        </g>
        <g id="Grupo_847441" data-name="Grupo 847441" transform="translate(66.258 66.258)">
          <path id="Trazado_568923" data-name="Trazado 568923" d="M63.194,55.548a7.651,7.651,0,0,1-7.645,7.645H53V60.645A7.651,7.651,0,0,1,60.645,53h2.548Z" transform="translate(-53 -53)" fill="#b4dd7f"/>
        </g>
        <g id="Grupo_847442" data-name="Grupo 847442" transform="translate(56.065 66.258)">
          <path id="Trazado_568924" data-name="Trazado 568924" d="M55.194,60.645v2.548H52.645A7.651,7.651,0,0,1,45,55.548V53h2.548A7.651,7.651,0,0,1,55.194,60.645Z" transform="translate(-45 -53)" fill="#b4dd7f"/>
        </g>
        <g id="Grupo_847443" data-name="Grupo 847443" transform="translate(36.952 66.258)">
          <path id="Trazado_568925" data-name="Trazado 568925" d="M40.194,55.548a7.651,7.651,0,0,1-7.645,7.645H30V60.645A7.651,7.651,0,0,1,37.645,53h2.548Z" transform="translate(-30 -53)" fill="#b4dd7f"/>
        </g>
        <g id="Grupo_847444" data-name="Grupo 847444" transform="translate(26.758 66.258)">
          <path id="Trazado_568926" data-name="Trazado 568926" d="M32.194,60.645v2.548H29.645A7.651,7.651,0,0,1,22,55.548V53h2.548A7.651,7.651,0,0,1,32.194,60.645Z" transform="translate(-22 -53)" fill="#b4dd7f"/>
        </g>
        <g id="Grupo_847445" data-name="Grupo 847445" transform="translate(48.419 45.871)">
          <path id="Trazado_568927" data-name="Trazado 568927" d="M49.092,40.733a7.639,7.639,0,0,1-7.543,6.46H39V44.645A7.651,7.651,0,0,1,46.645,37h2.548v2.548A6.032,6.032,0,0,1,49.092,40.733Z" transform="translate(-39 -37)" fill="#b4dd7f"/>
        </g>
        <g id="Grupo_847446" data-name="Grupo 847446" transform="translate(38.226 45.871)">
          <path id="Trazado_568928" data-name="Trazado 568928" d="M41.194,44.645v2.548H38.645A7.638,7.638,0,0,1,31,39.548V37h2.548a7.139,7.139,0,0,1,2.026.28A7.637,7.637,0,0,1,41.194,44.645Z" transform="translate(-31 -37)" fill="#b4dd7f"/>
        </g>
        <g id="Grupo_847447" data-name="Grupo 847447" transform="translate(19.113 45.871)">
          <path id="Trazado_568929" data-name="Trazado 568929" d="M26.194,39.548a7.651,7.651,0,0,1-7.645,7.645H16V44.645A7.651,7.651,0,0,1,23.645,37h2.548Z" transform="translate(-16 -37)" fill="#b4dd7f"/>
        </g>
        <g id="Grupo_847448" data-name="Grupo 847448" transform="translate(8.919 45.871)">
          <path id="Trazado_568930" data-name="Trazado 568930" d="M18.194,44.645v2.548H15.645A7.651,7.651,0,0,1,8,39.548V37h2.548A7.651,7.651,0,0,1,18.194,44.645Z" transform="translate(-8 -37)" fill="#b4dd7f"/>
        </g>
        <g id="Grupo_847449" data-name="Grupo 847449" transform="translate(10.194 25.484)">
          <path id="Trazado_568931" data-name="Trazado 568931" d="M17.117,28.785a7.656,7.656,0,0,1-5.568,2.408H9V28.645A7.651,7.651,0,0,1,16.645,21h2.548v2.548A7.588,7.588,0,0,1,17.117,28.785Z" transform="translate(-9 -21)" fill="#b4dd7f"/>
        </g>
        <g id="Grupo_847450" data-name="Grupo 847450" transform="translate(0 25.484)">
          <path id="Trazado_568932" data-name="Trazado 568932" d="M11.194,28.645v2.548H8.645A7.651,7.651,0,0,1,1,23.548V21H3.548A7.651,7.651,0,0,1,11.194,28.645Z" transform="translate(-1 -21)" fill="#b4dd7f"/>
        </g>
        <g id="Grupo_847451" data-name="Grupo 847451" transform="translate(35.677 20.387)">
          <path id="Trazado_568933" data-name="Trazado 568933" d="M59.581,20.364V32.29H49.387V23.371A1.278,1.278,0,0,0,48.113,22.1H40.468a1.278,1.278,0,0,0-1.274,1.274V32.29H29V20.364L33.944,17H54.637Z" transform="translate(-29 -17)" fill="#e6e9ed"/>
        </g>
        <g id="Grupo_847452" data-name="Grupo 847452" transform="translate(45.871 25.484)">
          <path id="Trazado_568934" data-name="Trazado 568934" d="M47.194,22.274v8.919H37V22.274A1.278,1.278,0,0,1,38.274,21h7.645A1.278,1.278,0,0,1,47.194,22.274Z" transform="translate(-37 -21)" fill="#aab2bd"/>
        </g>
        <g id="Grupo_847453" data-name="Grupo 847453" transform="translate(40.634 13.354)">
          <path id="Trazado_568935" data-name="Trazado 568935" d="M43.224,11.48l10.334,7.034H32.89Z" transform="translate(-32.89 -11.48)" fill="#fc6e51"/>
        </g>
        <g id="Grupo_847454" data-name="Grupo 847454" transform="translate(50.968 10.576)">
          <path id="Trazado_568936" data-name="Trazado 568936" d="M61.387,21.418v.841a1.956,1.956,0,0,1-3.045,1.618l-2.051-1.4-4.944-3.364h-.013L41,12.078,45.09,9.3,60.533,19.8A1.96,1.96,0,0,1,61.387,21.418Z" transform="translate(-41 -9.3)" fill="#ff826e"/>
        </g>
        <g id="Grupo_847455" data-name="Grupo 847455" transform="translate(36.952 0)">
          <path id="Trazado_568937" data-name="Trazado 568937" d="M44.016,8.8l-4.09,2.778L30.854,5.409A1.96,1.96,0,0,1,30,3.79V2.95a1.956,1.956,0,0,1,3.045-1.618Z" transform="translate(-30 -1)" fill="#ff826e"/>
        </g>
        <g id="Grupo_847456" data-name="Grupo 847456" transform="translate(30.581)">
          <path id="Trazado_568938" data-name="Trazado 568938" d="M59.4,2.95V3.79a1.96,1.96,0,0,1-.854,1.618l-9.072,6.167-4.09,2.778L35.053,21.387h-.013L30.1,24.751v.013l-2.051,1.389A1.956,1.956,0,0,1,25,24.534v-.841a1.96,1.96,0,0,1,.854-1.618L41.3,11.576,45.387,8.8,56.358,1.331A1.956,1.956,0,0,1,59.4,2.95Z" transform="translate(-25 -1)" fill="#ff826e"/>
        </g>
        <g id="Grupo_847457" data-name="Grupo 847457" transform="translate(5.097 2.548)">
          <circle id="Elipse_6738" data-name="Elipse 6738" cx="9" cy="9" r="9" transform="translate(-0.371 0.178)" fill="#fcd770"/>
        </g>
      </g>
      <g id="Grupo_847459" data-name="Grupo 847459" transform="translate(0 0)">
        <path id="Trazado_568939" data-name="Trazado 568939" d="M18.468,40.349A8.916,8.916,0,0,0,10.823,36H7v3.823a8.93,8.93,0,0,0,8.919,8.919h5.1a8.93,8.93,0,0,0,8.919-8.919V36H26.113a8.916,8.916,0,0,0-7.645,4.349Zm-1.274,5.845H15.919a6.378,6.378,0,0,1-6.371-6.371V38.548h1.274a6.378,6.378,0,0,1,6.371,6.371Zm8.919-7.645h1.274v1.274a6.378,6.378,0,0,1-6.371,6.371H19.742V44.919A6.378,6.378,0,0,1,26.113,38.548Z" transform="translate(1.919 9.871)"/>
        <path id="Trazado_568940" data-name="Trazado 568940" d="M68.806,35.677V27.432l.061.042A3.223,3.223,0,0,0,73.9,24.81v-.842A3.22,3.22,0,0,0,72.493,21.3l-13.9-9.452,7.528-5.118a3.224,3.224,0,0,0,1.411-2.667V3.222A3.222,3.222,0,0,0,62.5.558L52.242,7.532,41.987.558a3.223,3.223,0,0,0-5.036,2.664v.842A3.221,3.221,0,0,0,38.362,6.73l7.529,5.12L31.992,21.3a3.218,3.218,0,0,0-1.412,2.666v.842a3.222,3.222,0,0,0,5.034,2.664l.062-.041v8.244H29.662a38.432,38.432,0,0,0-7.812-2.11,8.868,8.868,0,0,0,1.086-4.261V25.484H19.113a8.916,8.916,0,0,0-7.645,4.349,8.916,8.916,0,0,0-7.645-4.349H0V79H70.081A8.93,8.93,0,0,0,79,70.081V48.419H74.431a92.226,92.226,0,0,0-13.269.981v-3.53H57.339a8.916,8.916,0,0,0-7.645,4.349,8.951,8.951,0,0,0-4.9-3.912A38.51,38.51,0,0,0,35,38.226H79V35.677ZM19.113,28.032h1.274v1.274a6.378,6.378,0,0,1-6.371,6.371H12.742V34.4A6.378,6.378,0,0,1,19.113,28.032Zm-16.565,0H3.823A6.378,6.378,0,0,1,10.194,34.4v1.274H8.919a6.378,6.378,0,0,1-6.371-6.371ZM35.677,76.452a6.378,6.378,0,0,1-6.371-6.371V68.806h1.274a6.378,6.378,0,0,1,6.371,6.371v1.274Zm3.823,0V75.177a6.378,6.378,0,0,1,6.371-6.371h1.274v1.274a6.378,6.378,0,0,1-6.371,6.371Zm25.484,0a6.378,6.378,0,0,1-6.371-6.371V68.806h1.274a6.378,6.378,0,0,1,6.371,6.371v1.274Zm11.468-6.371a6.378,6.378,0,0,1-6.371,6.371H68.806V75.177a6.378,6.378,0,0,1,6.371-6.371h1.274Zm0-19.113v15.29H75.177a8.916,8.916,0,0,0-7.645,4.349,8.916,8.916,0,0,0-7.645-4.349H56.065v3.823a8.885,8.885,0,0,0,2.69,6.371H47a8.889,8.889,0,0,0,2.689-6.371V66.258H45.871a8.916,8.916,0,0,0-7.645,4.349,8.916,8.916,0,0,0-7.645-4.349H26.758v3.823a8.885,8.885,0,0,0,2.69,6.371H12.017A89.9,89.9,0,0,1,42.1,57.043a8.857,8.857,0,0,0,5.042,1.57h5.1a8.927,8.927,0,0,0,8.6-6.593,89.551,89.551,0,0,1,13.588-1.052ZM57.339,48.419h1.274v1.274a6.378,6.378,0,0,1-6.371,6.371H50.968V54.79A6.378,6.378,0,0,1,57.339,48.419ZM48.419,54.79v1.274H47.145a6.378,6.378,0,0,1-6.371-6.371V48.419h1.274A6.378,6.378,0,0,1,48.419,54.79Zm-7.534-8.919H38.226v3.823a8.87,8.87,0,0,0,1.858,5.428A92.37,92.37,0,0,0,8.4,76.452H2.548V35.537a8.889,8.889,0,0,0,6.371,2.689h5.1a8.876,8.876,0,0,0,6-2.339A35.791,35.791,0,0,1,40.885,45.871ZM71.06,23.409a.674.674,0,0,1,.294.558v.842a.7.7,0,0,1-1.054.558L54.509,14.628l1.818-1.237ZM52.242,16.17l6.2,4.218H46.038ZM39.794,4.623a.674.674,0,0,1-.294-.558V3.222a.7.7,0,0,1,1.054-.558l9.423,6.407-1.818,1.236ZM34.183,25.368a.7.7,0,0,1-1.054-.558v-.842a.673.673,0,0,1,.3-.558L63.93,2.664a.675.675,0,0,1,1.054.558v.842a.673.673,0,0,1-.3.558Zm4.043.333,4.065-2.765h19.9L66.258,25.7v9.978H58.613V28.032a2.551,2.551,0,0,0-2.548-2.548H48.419a2.551,2.551,0,0,0-2.548,2.548v7.645H38.226Zm17.839,9.977H48.419V28.032h7.645Z" transform="translate(0 0)"/>
        <path id="Trazado_568941" data-name="Trazado 568941" d="M36,32h7.645v2.548H36Z" transform="translate(9.871 8.774)"/>
        <path id="Trazado_568942" data-name="Trazado 568942" d="M44,32H56.742v2.548H44Z" transform="translate(12.065 8.774)"/>
        <path id="Trazado_568943" data-name="Trazado 568943" d="M56,32h7.645v2.548H56Z" transform="translate(15.355 8.774)"/>
        <path id="Trazado_568944" data-name="Trazado 568944" d="M14.194,22.387A10.194,10.194,0,1,0,4,12.194,10.205,10.205,0,0,0,14.194,22.387Zm0-17.839a7.645,7.645,0,1,1-7.645,7.645A7.653,7.653,0,0,1,14.194,4.548Z" transform="translate(1.097 0.548)"/>
      </g>
    </g>
    <rect id="Rectángulo_281595" data-name="Rectángulo 281595" width="161" height="45" rx="8" transform="translate(616 1265)" fill="#fff"/>
    <path id="Trazado_570771" data-name="Trazado 570771" d="M9.893-6.025H4.5v3.389h6.367V0H1.074V-14.219h9.814v2.646H4.5v3H9.893ZM15.586,0h-3.3V-15h3.3Zm7.139.2a5.432,5.432,0,0,1-3.936-1.45,5.008,5.008,0,0,1-1.5-3.774V-5.3a6.489,6.489,0,0,1,.6-2.861,4.395,4.395,0,0,1,1.753-1.919,5.292,5.292,0,0,1,2.734-.679A4.574,4.574,0,0,1,25.889-9.38a5.43,5.43,0,0,1,1.289,3.853v1.279H20.635a2.372,2.372,0,0,0,.771,1.4,2.3,2.3,0,0,0,1.543.508,2.958,2.958,0,0,0,2.441-1.094l1.5,1.777A4.2,4.2,0,0,1,25.151-.308,5.891,5.891,0,0,1,22.725.2Zm-.371-8.418q-1.445,0-1.719,1.914h3.32v-.254a1.63,1.63,0,0,0-.4-1.226A1.593,1.593,0,0,0,22.354-8.223Zm9.258-2.344.107,1.24a3.633,3.633,0,0,1,3.018-1.436A2.675,2.675,0,0,1,37.441-9.17a3.516,3.516,0,0,1,3.105-1.592q3.213,0,3.3,3.887V0h-3.3V-6.67a2.014,2.014,0,0,0-.273-1.182,1.164,1.164,0,0,0-1-.371,1.559,1.559,0,0,0-1.455.869l.01.137V0h-3.3V-6.65a2.117,2.117,0,0,0-.264-1.2,1.161,1.161,0,0,0-1.006-.371,1.578,1.578,0,0,0-1.445.869V0H28.525V-10.566ZM50.84.2A5.432,5.432,0,0,1,46.9-1.255a5.008,5.008,0,0,1-1.5-3.774V-5.3A6.489,6.489,0,0,1,46-8.164a4.395,4.395,0,0,1,1.753-1.919,5.292,5.292,0,0,1,2.734-.679A4.574,4.574,0,0,1,54-9.38a5.43,5.43,0,0,1,1.289,3.853v1.279H48.75a2.372,2.372,0,0,0,.771,1.4,2.3,2.3,0,0,0,1.543.508,2.958,2.958,0,0,0,2.441-1.094l1.5,1.777A4.2,4.2,0,0,1,53.267-.308,5.891,5.891,0,0,1,50.84.2Zm-.371-8.418q-1.445,0-1.719,1.914h3.32v-.254a1.63,1.63,0,0,0-.4-1.226A1.593,1.593,0,0,0,50.469-8.223Zm9.17-2.344.107,1.24a3.583,3.583,0,0,1,3.018-1.436,3.015,3.015,0,0,1,2.466.986,4.7,4.7,0,0,1,.845,2.969V0h-3.3V-6.67a1.783,1.783,0,0,0-.322-1.177,1.491,1.491,0,0,0-1.172-.376,1.569,1.569,0,0,0-1.436.762V0H56.553V-10.566Zm12.09-2.627v2.627h1.738v2.285H71.729v4.834a1.234,1.234,0,0,0,.215.83,1.152,1.152,0,0,0,.85.234,4.828,4.828,0,0,0,.82-.059V-.088A6.074,6.074,0,0,1,71.758.2a3.448,3.448,0,0,1-2.51-.8,3.282,3.282,0,0,1-.811-2.432V-8.281H67.09v-2.285h1.348v-2.627Zm2.324,7.813A6.236,6.236,0,0,1,74.668-8.2a4.4,4.4,0,0,1,1.768-1.9,5.323,5.323,0,0,1,2.705-.664,4.858,4.858,0,0,1,3.74,1.47,5.64,5.64,0,0,1,1.367,4v.117a5.472,5.472,0,0,1-1.372,3.921A4.871,4.871,0,0,1,79.16.2a4.927,4.927,0,0,1-3.623-1.353,5.29,5.29,0,0,1-1.475-3.667Zm3.291.205A3.932,3.932,0,0,0,77.8-3.027a1.529,1.529,0,0,0,1.357.684q1.758,0,1.8-2.705v-.332q0-2.842-1.816-2.842-1.65,0-1.787,2.451ZM91.23-2.969a.76.76,0,0,0-.439-.674,6.685,6.685,0,0,0-1.67-.527,7.615,7.615,0,0,1-2.031-.718,3.4,3.4,0,0,1-1.221-1.079,2.577,2.577,0,0,1-.42-1.455,2.92,2.92,0,0,1,1.2-2.4,4.948,4.948,0,0,1,3.145-.942,5.482,5.482,0,0,1,3.359.947,2.962,2.962,0,0,1,1.27,2.49h-3.3q0-1.27-1.338-1.27a1.326,1.326,0,0,0-.869.288.892.892,0,0,0-.352.718.819.819,0,0,0,.43.713,4.06,4.06,0,0,0,1.372.449,11.857,11.857,0,0,1,1.655.42A3.007,3.007,0,0,1,94.4-3.066,2.767,2.767,0,0,1,93.12-.713,5.631,5.631,0,0,1,89.795.2a5.747,5.747,0,0,1-2.422-.488,4.05,4.05,0,0,1-1.66-1.328,3.007,3.007,0,0,1-.6-1.768h3.076a1.272,1.272,0,0,0,.488,1.069,2.009,2.009,0,0,0,1.2.337,1.58,1.58,0,0,0,1.011-.273A.875.875,0,0,0,91.23-2.969Z" transform="translate(650 1292)" fill="#12263f"/>
  </g>
</svg>
