<svg xmlns="http://www.w3.org/2000/svg" width="180" height="174" viewBox="0 0 180 174">
  <g id="Grupo_847993" data-name="Grupo 847993" transform="translate(-722 -1337)">
    <circle id="Elipse_6744" data-name="Elipse 6744" cx="72" cy="72" r="72" transform="translate(752 1337)" fill="#f5d664"/>
    <g id="Elipse_6745" data-name="Elipse 6745" transform="translate(722 1388)" fill="#ff854e" stroke="#fff" stroke-width="3">
      <circle cx="26.5" cy="26.5" r="26.5" stroke="none"/>
      <circle cx="26.5" cy="26.5" r="25" fill="none"/>
    </g>
    <text id="_6" data-name="6" transform="translate(741 1420)" fill="#fff" font-size="24" font-family="Roboto-Black, Roboto" font-weight="800"><tspan x="0" y="0">6</tspan></text>
    <g id="agricultor" transform="translate(782.977 1361.567)">
      <path id="Trazado_569040" data-name="Trazado 569040" d="M125.181,286.241H75.166a1.654,1.654,0,0,1-1.654-1.654V256.012a13.7,13.7,0,0,1,13.7-13.7h25.915a13.7,13.7,0,0,1,13.7,13.7v28.574A1.654,1.654,0,0,1,125.181,286.241Zm0,0" transform="translate(-60.048 -199.286)" fill="#52cc61"/>
      <path id="Trazado_569041" data-name="Trazado 569041" d="M132.332,394.523h32.436v16.905H132.332Zm0,0" transform="translate(-108.424 -324.474)" fill="#fbcc85"/>
      <path id="Trazado_569042" data-name="Trazado 569042" d="M294.926,394.523h3.566v16.905h-3.566Zm0,0" transform="translate(-242.149 -324.474)" fill="#e8b76b"/>
      <path id="Trazado_569043" data-name="Trazado 569043" d="M293.916,256.009v28.574a1.653,1.653,0,0,1-1.654,1.654h-3.548a1.655,1.655,0,0,0,1.654-1.654V256.009a13.7,13.7,0,0,0-13.7-13.7h3.548A13.7,13.7,0,0,1,293.916,256.009Zm0,0" transform="translate(-227.129 -199.283)" fill="#00b232"/>
      <path id="Trazado_569044" data-name="Trazado 569044" d="M451.937,253.518a6.37,6.37,0,0,0-1.622,6.257,6.374,6.374,0,0,0,7.88-7.88A6.373,6.373,0,0,0,451.937,253.518Zm0,0" transform="translate(-369.747 -206.97)" fill="#ffa964"/>
      <path id="Trazado_569045" data-name="Trazado 569045" d="M462.45,258.152a6.355,6.355,0,0,1-5.232,1.824,6.3,6.3,0,0,0,2.527-1.66,7.153,7.153,0,0,0,1.649-6.6,6.408,6.408,0,0,1,2.679.176A6.369,6.369,0,0,1,462.45,258.152Zm0,0" transform="translate(-375.626 -206.969)" fill="#ff872a"/>
      <path id="Trazado_569046" data-name="Trazado 569046" d="M451.937,319.207a6.369,6.369,0,0,0-1.622,6.256,6.374,6.374,0,0,0,7.88-7.88A6.373,6.373,0,0,0,451.937,319.207Zm0,0" transform="translate(-369.747 -260.995)" fill="#ffa964"/>
      <path id="Trazado_569047" data-name="Trazado 569047" d="M462.45,323.842a6.356,6.356,0,0,1-5.232,1.825,6.3,6.3,0,0,0,2.527-1.66,7.152,7.152,0,0,0,1.649-6.6,6.432,6.432,0,0,1,2.679.176A6.369,6.369,0,0,1,462.45,323.842Zm0,0" transform="translate(-375.626 -260.996)" fill="#ff872a"/>
      <path id="Trazado_569048" data-name="Trazado 569048" d="M451.937,384.894a6.37,6.37,0,0,0-1.622,6.257,6.375,6.375,0,0,0,7.88-7.88A6.373,6.373,0,0,0,451.937,384.894Zm0,0" transform="translate(-369.747 -315.019)" fill="#ffa964"/>
      <path id="Trazado_569049" data-name="Trazado 569049" d="M462.45,389.53a6.355,6.355,0,0,1-5.232,1.824,6.3,6.3,0,0,0,2.527-1.66,7.154,7.154,0,0,0,1.649-6.6,6.432,6.432,0,0,1,2.679.176A6.37,6.37,0,0,1,462.45,389.53Zm0,0" transform="translate(-375.626 -315.02)" fill="#ff872a"/>
      <path id="Trazado_569050" data-name="Trazado 569050" d="M409.444,253.518a6.369,6.369,0,0,1,1.622,6.257,6.374,6.374,0,0,1-7.88-7.88A6.373,6.373,0,0,1,409.444,253.518Zm0,0" transform="translate(-330.987 -206.97)" fill="#ffa964"/>
      <path id="Trazado_569051" data-name="Trazado 569051" d="M419.447,259.78a6.416,6.416,0,0,1-2.915.138,6.373,6.373,0,0,0-3.4-8.258,6.374,6.374,0,0,1,6.314,8.12Zm0,0" transform="translate(-339.367 -206.974)" fill="#ff872a"/>
      <path id="Trazado_569052" data-name="Trazado 569052" d="M409.444,319.206a6.369,6.369,0,0,1,1.622,6.257,6.374,6.374,0,0,1-7.88-7.88A6.375,6.375,0,0,1,409.444,319.206Zm0,0" transform="translate(-330.987 -260.995)" fill="#ffa964"/>
      <path id="Trazado_569053" data-name="Trazado 569053" d="M419.447,325.466a6.416,6.416,0,0,1-2.915.138,6.374,6.374,0,0,0-3.4-8.258,6.374,6.374,0,0,1,6.314,8.12Zm0,0" transform="translate(-339.367 -260.998)" fill="#ff872a"/>
      <path id="Trazado_569054" data-name="Trazado 569054" d="M409.444,384.894a6.367,6.367,0,0,1,1.622,6.256,6.374,6.374,0,0,1-7.88-7.88A6.373,6.373,0,0,1,409.444,384.894Zm0,0" transform="translate(-330.987 -315.019)" fill="#ffa964"/>
      <path id="Trazado_569055" data-name="Trazado 569055" d="M419.447,391.148a6.425,6.425,0,0,1-2.915.139,6.377,6.377,0,0,0-3.4-8.261,6.375,6.375,0,0,1,6.314,8.122Zm0,0" transform="translate(-339.367 -315.016)" fill="#ff872a"/>
      <path id="Trazado_569056" data-name="Trazado 569056" d="M166.365,12.742v11a1.617,1.617,0,0,1-1.323,1.59,80.454,80.454,0,0,1-14.456,1.228,80.465,80.465,0,0,1-14.456-1.228,1.616,1.616,0,0,1-1.323-1.59v-11a5.241,5.241,0,0,1,7.534-4.714c2.6,1.264,5.37,2.605,8.245,2.605s5.646-1.341,8.245-2.605A5.241,5.241,0,0,1,166.365,12.742Zm0,0" transform="translate(-110.461 -6.163)" fill="#e8b76b"/>
      <path id="Trazado_569057" data-name="Trazado 569057" d="M278.208,12.745v11a1.619,1.619,0,0,1-1.323,1.591c-1.12.208-2.3.393-3.521.551a1.605,1.605,0,0,0,.5-1.172V12.745A5.214,5.214,0,0,0,270.8,7.974,5.241,5.241,0,0,1,278.208,12.745Zm0,0" transform="translate(-222.304 -6.166)" fill="#c99d5c"/>
      <path id="Trazado_569058" data-name="Trazado 569058" d="M109.433,80.465c0-5.087-14.082-9.211-31.453-9.211s-31.453,4.123-31.453,9.211,14.082,9.211,31.453,9.211S109.433,85.551,109.433,80.465Zm0,0" transform="translate(-37.855 -58.603)" fill="#fbcc85"/>
      <path id="Trazado_569059" data-name="Trazado 569059" d="M350.108,90.784c0,2.792-4.245,5.3-10.947,6.984,3.653-1.97,5.8-4.38,5.8-6.984s-2.148-5.013-5.8-6.984C345.865,85.488,350.108,87.991,350.108,90.784Zm0,0" transform="translate(-278.529 -68.922)" fill="#e8b76b"/>
      <g id="Grupo_847464" data-name="Grupo 847464" transform="translate(19.475 23.365)">
        <path id="Trazado_569060" data-name="Trazado 569060" d="M197.466,248.695a5.658,5.658,0,0,1-5.658-5.658v-7.662h11.315v7.662A5.658,5.658,0,0,1,197.466,248.695Zm0,0" transform="translate(-176.816 -216.948)" fill="#ffbc8a"/>
        <path id="Trazado_569061" data-name="Trazado 569061" d="M304.528,135.42a3.826,3.826,0,1,1-3.826-3.826A3.826,3.826,0,0,1,304.528,135.42Zm0,0" transform="translate(-263.227 -131.594)" fill="#ffbc8a"/>
        <path id="Trazado_569062" data-name="Trazado 569062" d="M115.02,135.42a3.826,3.826,0,1,1-3.826-3.826A3.826,3.826,0,0,1,115.02,135.42Zm0,0" transform="translate(-107.367 -131.594)" fill="#ffbc8a"/>
      </g>
      <path id="Trazado_569063" data-name="Trazado 569063" d="M168,121.2a1.621,1.621,0,0,1,1.345,1.658L169,132.242a14.634,14.634,0,0,1-29.228,0l-.343-9.388a1.621,1.621,0,0,1,1.345-1.658,86.441,86.441,0,0,1,27.224,0Zm0,0" transform="translate(-114.26 -98.79)" fill="#fdd1a7"/>
      <path id="Trazado_569064" data-name="Trazado 569064" d="M27.815,288.174a2.26,2.26,0,0,0-2.26,2.26v12.615a2.128,2.128,0,1,1-4.256,0V290.434a2.261,2.261,0,0,0-4.521,0v12.615a2.128,2.128,0,1,1-4.256,0V290.5a2.3,2.3,0,0,0-2.151-2.323A2.262,2.262,0,0,0,8,290.434v18.405a5.439,5.439,0,0,0,5.439,5.439h11.2a5.439,5.439,0,0,0,5.438-5.439V290.434A2.26,2.26,0,0,0,27.815,288.174Zm0,0" transform="translate(-6.168 -237.007)" fill="#efe2dd"/>
      <path id="Trazado_569065" data-name="Trazado 569065" d="M59.594,425.038H58.019a1.71,1.71,0,0,1-1.71-1.71V410.38a2.5,2.5,0,0,1,5,0v12.948A1.71,1.71,0,0,1,59.594,425.038Zm0,0" transform="translate(-45.899 -335.461)" fill="#9e9797"/>
      <path id="Trazado_569066" data-name="Trazado 569066" d="M360,426.7a1.332,1.332,0,0,0-1.332,1.332v8.207a.323.323,0,0,1-.323.323,1.332,1.332,0,0,0,0,2.663,2.989,2.989,0,0,0,2.986-2.986v-8.207A1.332,1.332,0,0,0,360,426.7Zm0,0" transform="translate(-293.214 -350.934)"/>
      <path id="Trazado_569067" data-name="Trazado 569067" d="M53.3,41.7a15.9,15.9,0,0,0,2.765-8.176c0-.007,0-.014,0-.021l.044-1.221a5.1,5.1,0,0,0,.835.071,5.157,5.157,0,0,0,4.28-2.282c9.649-2.486,11.681-5.832,11.681-8.206,0-3.148-3.516-5.843-10.17-7.791-1.692-.5-3.537-.929-5.5-1.3v-6.2A6.573,6.573,0,0,0,47.787.667c-2.5,1.215-5.081,2.471-7.662,2.471S34.962,1.882,32.464.667a6.573,6.573,0,0,0-9.448,5.912v6.2c-1.968.368-3.813.8-5.506,1.3-6.653,1.948-10.169,4.642-10.169,7.791,0,2.381,2.038,5.724,11.681,8.206a5.157,5.157,0,0,0,4.28,2.282,5.088,5.088,0,0,0,.834-.071L24.18,33.5c0,.007,0,.014,0,.021a15.9,15.9,0,0,0,2.764,8.174,15.008,15.008,0,0,0-13.2,8.252,3.578,3.578,0,0,0-4.468,3.48V66.043a.8.8,0,0,1-1.592,0V53.491a3.62,3.62,0,0,0-3.42-3.652,3.571,3.571,0,0,0-2.652.989A3.609,3.609,0,0,0,.5,53.427v7.788a1.332,1.332,0,1,0,2.663,0V53.427a.923.923,0,0,1,.288-.672.91.91,0,0,1,.688-.256.974.974,0,0,1,.882.993V66.043a3.46,3.46,0,0,0,6.919,0V53.427a.929.929,0,0,1,1.858,0V66.043a3.46,3.46,0,0,0,6.919,0V53.427a.929.929,0,0,1,1.858,0V71.833a4.111,4.111,0,0,1-4.107,4.107H16.736V74.919a3.829,3.829,0,0,0-7.658,0V75.94H7.27a4.112,4.112,0,0,1-4.107-4.107V67.467a1.332,1.332,0,1,0-2.663,0v4.366A6.778,6.778,0,0,0,7.27,78.6H9.077V89.577a1.332,1.332,0,0,0,2.663,0V74.919a1.166,1.166,0,0,1,2.332,0V89.577a1.332,1.332,0,0,0,2.663,0V78.6h1.733a6.736,6.736,0,0,0,4.107-1.393v9.248a1.332,1.332,0,1,0,2.663,0V71.381H55.012V86.459a1.332,1.332,0,1,0,2.663,0V65.188a1.332,1.332,0,1,0-2.663,0v3.53H52.4V44.355h.685A12.387,12.387,0,0,1,65.456,56.727V70.846a1.332,1.332,0,0,0,2.663,0V56.727A15.051,15.051,0,0,0,53.3,41.7ZM56.95,29.686a2.51,2.51,0,0,1-.736-.112l.175-4.813a2.494,2.494,0,1,1,.56,4.925ZM25.679,6.579A3.911,3.911,0,0,1,31.3,3.062c2.64,1.285,5.633,2.74,8.826,2.74s6.187-1.455,8.827-2.74a3.91,3.91,0,0,1,5.619,3.517v5.75a99.14,99.14,0,0,0-14.447-1.01,99.147,99.147,0,0,0-14.447,1.01ZM23.3,29.686a2.5,2.5,0,1,1,.56-4.925l.175,4.814A2.5,2.5,0,0,1,23.3,29.686Zm3.2-5.671a.291.291,0,0,1,.239-.3,80.782,80.782,0,0,1,13.387-1.059c.769,0,1.572.011,2.385.032a1.332,1.332,0,1,0,.069-2.663c-.836-.022-1.662-.033-2.455-.033a83.486,83.486,0,0,0-13.838,1.1,2.95,2.95,0,0,0-1.809,1.076,5.158,5.158,0,0,0-6.333,4.895C12.179,25.3,10,23.207,10,21.862c0-3.29,11.459-7.879,30.121-7.879s30.121,4.589,30.121,7.879c0,1.339-2.172,3.437-8.142,5.2a5.156,5.156,0,0,0-6.334-4.893,2.948,2.948,0,0,0-1.809-1.077c-1.589-.273-3.283-.5-5.037-.673a1.332,1.332,0,0,0-.263,2.651c1.69.168,3.322.386,4.849.648a.291.291,0,0,1,.239.3l-.343,9.376a13.3,13.3,0,0,1-26.568,0Zm9.3,24.04a15.976,15.976,0,0,0,8.652,0v1.4a4.326,4.326,0,1,1-8.652,0Zm-10.56,5.372a3.592,3.592,0,0,0-7.185,0V66.043a.8.8,0,1,1-1.592,0V53.427a3.564,3.564,0,0,0-.535-1.876,12.354,12.354,0,0,1,11.241-7.2h.685V68.718H25.239Zm5.277,15.291V45.435a16,16,0,0,0,2.62,1.606v2.412a6.989,6.989,0,0,0,13.978,0V47.041a15.9,15.9,0,0,0,2.62-1.608V68.718Zm0,0" transform="translate(0 0)"/>
      <path id="Trazado_569068" data-name="Trazado 569068" d="M407.133,263.843a7.705,7.705,0,0,0,7.414-9.821,1.332,1.332,0,0,0-.917-.916,7.723,7.723,0,0,0-7.156,1.586v-2.543c.22.019.44.032.66.032a7.705,7.705,0,0,0,7.413-9.821,1.33,1.33,0,0,0-.917-.916,7.72,7.72,0,0,0-7.156,1.586v-1.2a1.332,1.332,0,0,0-2.663,0v1.2a7.72,7.72,0,0,0-7.156-1.586,1.33,1.33,0,0,0-.917.916,7.705,7.705,0,0,0,7.414,9.821c.219,0,.439-.013.66-.032v2.543a7.722,7.722,0,0,0-7.156-1.586,1.332,1.332,0,0,0-.917.917,7.705,7.705,0,0,0,7.414,9.82c.219,0,.44-.013.66-.031v2.543a7.72,7.72,0,0,0-7.156-1.586,1.33,1.33,0,0,0-.917.916,7.705,7.705,0,0,0,7.414,9.821c.219,0,.439-.013.66-.032v11.9a1.332,1.332,0,0,0,2.663,0v-11.9c.22.019.44.032.66.032a7.705,7.705,0,0,0,7.413-9.82,1.332,1.332,0,0,0-.917-.917,7.724,7.724,0,0,0-7.156,1.586v-2.543C406.693,263.831,406.914,263.843,407.133,263.843Zm.817-6.891a5.057,5.057,0,0,1,4.19-1.438,5.042,5.042,0,0,1-5.628,5.628A5.052,5.052,0,0,1,407.95,256.952Zm0-11.663a5.052,5.052,0,0,1,4.19-1.438,5.042,5.042,0,0,1-5.628,5.628A5.049,5.049,0,0,1,407.95,245.288Zm-4.178,4.189a5.043,5.043,0,0,1-5.628-5.628,5.043,5.043,0,0,1,5.628,5.628Zm0,11.663a5.043,5.043,0,0,1-5.628-5.628,5.043,5.043,0,0,1,5.628,5.628Zm0,11.663a5.043,5.043,0,0,1-5.628-5.628,5.043,5.043,0,0,1,5.628,5.628Zm4.178-4.189a5.057,5.057,0,0,1,4.19-1.439,5.043,5.043,0,0,1-5.628,5.628A5.049,5.049,0,0,1,407.95,268.616Zm0,0" transform="translate(-324.818 -197.798)"/>
      <path id="Trazado_569069" data-name="Trazado 569069" d="M179.082,176.1a1.332,1.332,0,0,0,1.332-1.332v-.017a1.324,1.324,0,0,0-1.332-1.323,1.336,1.336,0,0,0,0,2.672Zm0,0" transform="translate(-145.778 -142.633)"/>
      <path id="Trazado_569070" data-name="Trazado 569070" d="M255.925,176.1a1.332,1.332,0,0,0,1.332-1.332v-.017a1.324,1.324,0,0,0-1.332-1.323,1.336,1.336,0,0,0,0,2.672Zm0,0" transform="translate(-208.978 -142.633)"/>
      <path id="Trazado_569071" data-name="Trazado 569071" d="M199.843,210.377a5.323,5.323,0,0,0,5.092-3.835,1.332,1.332,0,1,0-2.559-.737,2.634,2.634,0,0,1-5.064,0,1.332,1.332,0,0,0-2.56.737A5.324,5.324,0,0,0,199.843,210.377Zm0,0" transform="translate(-159.717 -168.471)"/>
      <path id="Trazado_569072" data-name="Trazado 569072" d="M185.519,434.629H167.906a1.332,1.332,0,0,0,0,2.663h17.613a1.332,1.332,0,1,0,0-2.663Zm0,0" transform="translate(-136.587 -357.458)"/>
      <path id="Trazado_569073" data-name="Trazado 569073" d="M384.511,42.831a1.332,1.332,0,0,0,1.332-1.332,1.514,1.514,0,0,1,2.674-.973,1.331,1.331,0,0,0,.756,2.428h1.862a1.331,1.331,0,0,0,.755-2.428,1.514,1.514,0,0,1,2.674.972,1.332,1.332,0,1,0,2.663,0,4.175,4.175,0,0,0-7.025-3.055A4.175,4.175,0,0,0,383.18,41.5,1.332,1.332,0,0,0,384.511,42.831Zm0,0" transform="translate(-314.733 -30.694)"/>
      <path id="Trazado_569074" data-name="Trazado 569074" d="M22.406,212.494a1.332,1.332,0,0,0,1.332-1.332,1.513,1.513,0,0,1,2.674-.973,1.331,1.331,0,0,0,.756,2.428H29.03a1.331,1.331,0,0,0,.756-2.428,1.514,1.514,0,0,1,2.674.973,1.332,1.332,0,0,0,2.663,0,4.175,4.175,0,0,0-7.025-3.055,4.175,4.175,0,0,0-7.025,3.055A1.332,1.332,0,0,0,22.406,212.494Zm0,0" transform="translate(-16.921 -170.234)"/>
      <path id="Trazado_569075" data-name="Trazado 569075" d="M414.682,175.668a4.183,4.183,0,0,0-4.178,4.178,1.332,1.332,0,1,0,2.663,0,1.514,1.514,0,0,1,2.674-.972,1.331,1.331,0,0,0,.756,2.428h1.862a1.331,1.331,0,0,0,.756-2.428,1.513,1.513,0,0,1,2.674.972,1.332,1.332,0,0,0,2.663,0,4.175,4.175,0,0,0-7.025-3.055A4.16,4.16,0,0,0,414.682,175.668Zm0,0" transform="translate(-337.205 -144.478)"/>
    </g>
    <rect id="Rectángulo_281598" data-name="Rectángulo 281598" width="161" height="45" rx="8" transform="translate(741 1466)" fill="#fff"/>
    <path id="Trazado_570773" data-name="Trazado 570773" d="M4.5-4.824V0H1.074V-14.219H6.748a6.608,6.608,0,0,1,2.886.6,4.526,4.526,0,0,1,1.943,1.709,4.667,4.667,0,0,1,.688,2.515,4.114,4.114,0,0,1-1.489,3.325A6.179,6.179,0,0,1,6.689-4.824Zm0-2.646H6.748a2.118,2.118,0,0,0,1.519-.5,1.85,1.85,0,0,0,.522-1.406,2.287,2.287,0,0,0-.537-1.592,1.9,1.9,0,0,0-1.465-.605H4.5ZM18.926.2a5.432,5.432,0,0,1-3.936-1.45,5.008,5.008,0,0,1-1.5-3.774V-5.3a6.489,6.489,0,0,1,.6-2.861,4.395,4.395,0,0,1,1.753-1.919,5.292,5.292,0,0,1,2.734-.679A4.574,4.574,0,0,1,22.09-9.38a5.43,5.43,0,0,1,1.289,3.853v1.279H16.836a2.372,2.372,0,0,0,.771,1.4,2.3,2.3,0,0,0,1.543.508,2.958,2.958,0,0,0,2.441-1.094L23.1-1.66A4.2,4.2,0,0,1,21.353-.308,5.891,5.891,0,0,1,18.926.2Zm-.371-8.418q-1.445,0-1.719,1.914h3.32v-.254a1.63,1.63,0,0,0-.4-1.226A1.593,1.593,0,0,0,18.555-8.223Zm12.539.635L30.01-7.666a1.947,1.947,0,0,0-1.992.977V0H24.727V-10.566h3.086l.107,1.357a2.548,2.548,0,0,1,2.314-1.553,3.209,3.209,0,0,1,.918.117Zm6.719,4.619a.76.76,0,0,0-.439-.674A6.685,6.685,0,0,0,35.7-4.17a7.615,7.615,0,0,1-2.031-.718,3.4,3.4,0,0,1-1.221-1.079,2.577,2.577,0,0,1-.42-1.455,2.92,2.92,0,0,1,1.2-2.4,4.948,4.948,0,0,1,3.145-.942,5.482,5.482,0,0,1,3.359.947,2.962,2.962,0,0,1,1.27,2.49h-3.3q0-1.27-1.338-1.27a1.326,1.326,0,0,0-.869.288.892.892,0,0,0-.352.718.819.819,0,0,0,.43.713,4.06,4.06,0,0,0,1.372.449,11.857,11.857,0,0,1,1.655.42,3.007,3.007,0,0,1,2.383,2.939A2.767,2.767,0,0,1,39.7-.713,5.632,5.632,0,0,1,36.377.2a5.747,5.747,0,0,1-2.422-.488,4.05,4.05,0,0,1-1.66-1.328,3.007,3.007,0,0,1-.6-1.768h3.076a1.272,1.272,0,0,0,.488,1.069,2.009,2.009,0,0,0,1.2.337,1.58,1.58,0,0,0,1.011-.273A.875.875,0,0,0,37.813-2.969Zm4.3-2.412A6.236,6.236,0,0,1,42.725-8.2a4.4,4.4,0,0,1,1.768-1.9,5.323,5.323,0,0,1,2.705-.664,4.858,4.858,0,0,1,3.74,1.47,5.64,5.64,0,0,1,1.367,4v.117a5.472,5.472,0,0,1-1.372,3.921A4.871,4.871,0,0,1,47.217.2a4.927,4.927,0,0,1-3.623-1.353,5.29,5.29,0,0,1-1.475-3.667Zm3.291.205a3.932,3.932,0,0,0,.459,2.148,1.529,1.529,0,0,0,1.357.684q1.758,0,1.8-2.705v-.332q0-2.842-1.816-2.842-1.65,0-1.787,2.451Zm11.377-5.391.107,1.24A3.583,3.583,0,0,1,59.9-10.762a3.015,3.015,0,0,1,2.466.986,4.7,4.7,0,0,1,.845,2.969V0h-3.3V-6.67a1.783,1.783,0,0,0-.322-1.177,1.491,1.491,0,0,0-1.172-.376,1.569,1.569,0,0,0-1.436.762V0H53.691V-10.566ZM70.986,0a3.716,3.716,0,0,1-.312-.947A3.06,3.06,0,0,1,68.135.2a3.749,3.749,0,0,1-2.539-.9,2.875,2.875,0,0,1-1.045-2.271,2.955,2.955,0,0,1,1.27-2.6,6.468,6.468,0,0,1,3.691-.879h1.016v-.557q0-1.455-1.26-1.455A1.027,1.027,0,0,0,68.1-7.314H64.8a2.955,2.955,0,0,1,1.3-2.49,5.474,5.474,0,0,1,3.325-.957,4.8,4.8,0,0,1,3.193.986,3.429,3.429,0,0,1,1.2,2.705v4.678a4.79,4.79,0,0,0,.449,2.227V0ZM68.926-2.148a1.836,1.836,0,0,0,1.021-.264,1.653,1.653,0,0,0,.581-.6V-4.7H69.57q-1.719,0-1.719,1.543a.942.942,0,0,0,.3.728A1.1,1.1,0,0,0,68.926-2.148ZM79.121,0h-3.3V-15h3.3Z" transform="translate(782 1494)" fill="#12263f"/>
  </g>
</svg>
