<svg xmlns="http://www.w3.org/2000/svg" xmlns:xlink="http://www.w3.org/1999/xlink" width="715" height="432" viewBox="0 0 715 432"><defs><clipPath id="a"><rect width="618.618" height="179.116" fill="none"/></clipPath><clipPath id="c"><rect width="138.304" height="62.469" fill="none"/></clipPath><clipPath id="d"><rect width="29.108" height="42.848" fill="none"/></clipPath><clipPath id="e"><rect width="153.118" height="63.416" fill="none"/></clipPath><clipPath id="f"><rect width="32.976" height="38.27" fill="none"/></clipPath></defs><g transform="translate(4614 9024)"><rect width="715" height="432" rx="18" transform="translate(-4614 -9024)" fill="#d2e3ca"/><g transform="translate(-4563.45 -8897.559)"><g clip-path="url(#a)"><g clip-path="url(#a)"><path d="M76.446,180.221H72.005V14.444a12.613,12.613,0,0,1,12.6-12.6H353.787a12.613,12.613,0,0,1,12.6,12.6V180.221h-4.44V14.444a8.167,8.167,0,0,0-8.158-8.158H84.6a8.167,8.167,0,0,0-8.158,8.158Z" transform="translate(-43.132 -1.105)" fill="#0e5d98"/><path d="M361.295,180.221h-4.441V14.444a12.613,12.613,0,0,1,12.6-12.6H544.631a12.613,12.613,0,0,1,12.6,12.6V180.221h-4.441V14.444a8.167,8.167,0,0,0-8.157-8.158H369.452a8.167,8.167,0,0,0-8.158,8.158Z" transform="translate(-213.762 -1.105)" fill="#0e5d98"/><path d="M1001.023,136.045H776.758a13.338,13.338,0,0,1-13.323-13.323V15.169a8.892,8.892,0,0,0-8.882-8.882H695.882A8.892,8.892,0,0,0,687,15.169V42.924h-4.44V15.169A13.338,13.338,0,0,1,695.882,1.846h58.672a13.338,13.338,0,0,1,13.323,13.323V122.722a8.892,8.892,0,0,0,8.882,8.882h224.265a8.892,8.892,0,0,0,8.882-8.882V36.633a8.892,8.892,0,0,0-8.882-8.882h-9.992V23.31h9.992a13.338,13.338,0,0,1,13.322,13.323v86.089a13.338,13.338,0,0,1-13.322,13.323" transform="translate(-408.866 -1.106)" fill="#0e5d98"/><path d="M687,42.924h-4.44V15.169A13.338,13.338,0,0,1,695.882,1.846h32.026V6.287H695.882A8.892,8.892,0,0,0,687,15.169Z" transform="translate(-408.866 -1.106)" fill="#0e5d98"/><path d="M955.19,296.75h-3.331V270.144c0-2.011.214-12.043,4.437-12.043h64.217c4.222,0,4.437,10.032,4.437,12.043V296.75h-3.331V270.144c0-4.821-.9-7.915-1.452-8.713H956.641c-.552.8-1.452,3.892-1.452,8.713Z" transform="translate(-570.181 -154.607)" fill="#4489c2"/><path d="M1022.531,0V120.27a5.184,5.184,0,0,1-5.185,5.185h-72.53a5.184,5.184,0,0,1-5.185-5.185V0Z" transform="translate(-562.857)" fill="#9ac8e6"/><rect width="37.655" height="6.29" transform="translate(391.161 129.573)" fill="#4489c2"/><path d="M1013.193,315.506a6.206,6.206,0,1,0,6.206,6.206,6.209,6.209,0,0,0-6.206-6.206m0,11.38a5.174,5.174,0,1,1,5.173-5.173,5.179,5.179,0,0,1-5.173,5.173" transform="translate(-603.204 -188.994)" fill="#0e5d98"/><path d="M1019.908,323.255a5.174,5.174,0,1,1-5.173-5.173,5.179,5.179,0,0,1,5.173,5.173" transform="translate(-604.746 -190.537)" fill="#fff"/><path d="M1020.927,323.473v-2.881h-1.11v2.881a1.4,1.4,0,1,0,1.11,0" transform="translate(-610.384 -192.041)" fill="#0e5d98"/><path d="M994.761,128.112h-9.907V10.613h9.907Zm7.486-117.5h-2.8v117.5h2.8Z" transform="translate(-589.946 -6.357)" fill="#c9e3f3"/><path d="M1011.24,0V5.921H939.63v4.811h71.61V125.455h6.106a5.184,5.184,0,0,0,5.185-5.185V0Z" transform="translate(-562.856)" fill="#5caed6"/><rect width="87.707" height="8.512" transform="translate(374.369)" fill="#9ac8e6"/><path d="M1270.829,296.75H1267.5V270.144c0-2.011.214-12.043,4.437-12.043h64.217c4.222,0,4.436,10.032,4.436,12.043V296.75h-3.331V270.144c0-4.821-.9-7.915-1.452-8.713h-63.525c-.553.8-1.452,3.892-1.452,8.713Z" transform="translate(-759.255 -154.607)" fill="#4489c2"/><path d="M1338.17,0V120.27a5.184,5.184,0,0,1-5.185,5.185h-72.531a5.184,5.184,0,0,1-5.184-5.185V0Z" transform="translate(-751.93)" fill="#9ac8e6"/><rect width="37.655" height="6.29" transform="translate(517.726 129.573)" fill="#4489c2"/><path d="M1328.83,315.506a6.206,6.206,0,1,0,6.207,6.206,6.21,6.21,0,0,0-6.207-6.206m0,11.38a5.174,5.174,0,1,1,5.174-5.173,5.179,5.179,0,0,1-5.174,5.173" transform="translate(-792.277 -188.994)" fill="#0e5d98"/><path d="M1335.547,323.255a5.174,5.174,0,1,1-5.173-5.173,5.178,5.178,0,0,1,5.173,5.173" transform="translate(-793.82 -190.537)" fill="#fff"/><path d="M1336.567,323.473v-2.881h-1.111v2.881a1.4,1.4,0,1,0,1.111,0" transform="translate(-799.458 -192.041)" fill="#0e5d98"/><path d="M1310.4,128.112h-9.907V10.613h9.907Zm7.487-117.5h-2.8v117.5h2.8Z" transform="translate(-779.02 -6.357)" fill="#c9e3f3"/><path d="M1326.879,0V5.921H1255.27v4.811h71.609V125.455h6.107a5.184,5.184,0,0,0,5.184-5.185V0Z" transform="translate(-751.93)" fill="#5caed6"/><rect width="87.707" height="8.512" transform="translate(500.935)" fill="#9ac8e6"/><rect width="12.583" height="61.271" transform="translate(475.214 80.861)" fill="#0e5d98"/><path d="M1189.349,206.378h-35.111a1.873,1.873,0,0,1-1.873-1.873V175.269a1.873,1.873,0,0,1,1.873-1.873h35.111a1.873,1.873,0,0,1,1.873,1.873V204.5a1.873,1.873,0,0,1-1.873,1.873" transform="translate(-690.288 -103.867)" fill="#0e5d98"/><rect width="29.791" height="10.917" transform="translate(466.61 75.103)" fill="#1b7bbf"/><rect width="3.6" height="6.8" transform="translate(466.61 90.622)" fill="#1b7bbf"/><rect width="3.6" height="6.8" transform="translate(475.34 90.622)" fill="#1b7bbf"/><rect width="3.601" height="6.8" transform="translate(484.07 90.622)" fill="#1b7bbf"/><rect width="3.601" height="6.8" transform="translate(492.8 90.622)" fill="#1b7bbf"/><path d="M324.516,179.047s-15.533,27.385.829,63.282c0,0,2.563,34.787,1.962,44.039h-2.444s-.848-27.848-17.574-52-11-48.572-11-48.572Z" transform="translate(-176.917 -107.253)" fill="#99c3e0"/><path d="M138.479,252.583s10.652,25.165,4.642,75.865h2.22s12.436-35.832,15.2-66.4c0,0-3.649-20.572-22.06-9.47" transform="translate(-82.952 -149.332)" fill="#99c3e0"/><path d="M320.618,336.979s7.032,11.1,3.331,11.843-3.331-11.843-3.331-11.843m-11.556,11.66c3.7.767,1.569-12.2,1.569-12.2s-5.264,11.435-1.569,12.2" transform="translate(-184.346 -201.533)" fill="#f0856c"/><path d="M309.126,281.111s8.053,12.457,8.331,19.119-7.216,9.342-12.768,9.389-21.649-1.91-15.265-14.254,19.7-14.254,19.7-14.254" transform="translate(-172.488 -168.391)" fill="#f7a992"/><path d="M197.862,161.445s-11.1-.68-22.945-11.782c0,0-20.8,7.342-78.832,0,0,0-22.092,11.782-52.808,9.62l3.331,24s37.446,35.383,44.845,35.157c3.282-.1,15.022-9.992,15.022-9.992s16.333,17.326,31.969,16.653c29.726-1.278,59.418-63.653,59.418-63.653" transform="translate(-25.924 -89.651)" fill="#dae8f0"/><path d="M267.069,162.746c1.072-2.138-2.094-5.635-5.226-8.4-7.581,1.049-20.208,1.952-39.2.929-7.247,4.752-18.625,12.946-18.814,17.671-.278,6.939,14.155,11.148,18.318,17.232s-1.943,10.59.555,15,23.268-5.953,24.54-7.434-4-16.469-3.724-20.355,21.571-10.691,23.553-14.643" transform="translate(-122.093 -92.458)" fill="#404040"/><path d="M80.974,161.386c2.591,5.448,7.632,19.61,13.459,20.672,5.736,1.045,13.1-4.441,15.543-7.275,1.428-1.659,2.035-9.379,5.684-21.6a107.725,107.725,0,0,1-34.686,8.2" transform="translate(-48.505 -91.76)" fill="#404040"/><path d="M83.335,262.418c4.608-.134,13.4-.033,15.121,1.754,1.388,1.432,2.354,7.927,2.942,13.434Z" transform="translate(-49.919 -157.169)" fill="#b8443c"/><g transform="translate(19.422 72.997)" opacity="0.24" style="mix-blend-mode:multiply;isolation:isolate"><g clip-path="url(#c)"><path d="M186.741,205.775l-15.207-10.167c-4.414,8.95-24.8,38.526-33.679,40.416s-22.39-14.255-22.39-14.255l-22.682-5.951c-2.512,24.244-23.578-9.031-23.578-9.031,7.216-18.067-9.3-24.742-9.3-24.742L48.437,193.588l1.261,9.089s37.446,35.383,44.845,35.157c3.282-.1,15.022-9.992,15.022-9.992s16.334,17.326,31.97,16.654c16.9-.727,33.779-21.191,45.207-38.721" transform="translate(-48.437 -182.046)" fill="#0e6fb8"/></g></g><path d="M421.9,179.047s-1.665,22.3,2.5,35.62c0,0,4.441.555,5.829,13.6l-2.637-3.608a15.134,15.134,0,0,0,3.192,6.245s-10.27-5-7.91-15.959c0,0-5.69-21.927-4.858-33.168Z" transform="translate(-250.348 -107.253)" fill="#99c3e0"/><path d="M381.94,179.047s-18.134,27.385-5.181,63.282c0,0-.74,34.787-2.22,44.039h-2.444s1.8-27.848-12.637-52-6.384-48.572-6.384-48.572Z" transform="translate(-210.158 -107.253)" fill="#dae8f0"/><path d="M153.3,252.583s18.411,25.165,28.033,75.865h2.221s1.388-35.832-5.274-66.4c0,0-9.992-20.572-24.98-9.47" transform="translate(-91.83 -149.332)" fill="#dae8f0"/><path d="M15.374,250.076c-3.053,3.885-5.74,6.617-7.572,6.572a11.788,11.788,0,0,1-3.641-1.332A13.428,13.428,0,0,1,1.8,253.64c-.311-.267-.589-.533-.832-.788a3.351,3.351,0,0,1-.622-3.819,77.525,77.525,0,0,0,3.652-8.759c2.165.178,4.619,2.076,6.684,4.152a45.762,45.762,0,0,1,4.674,5.629l.022.022" transform="translate(0 -143.928)" fill="#0e5d98"/><path d="M4.472,267a13.778,13.778,0,0,0,2.373,1.682c.836-1.111,2.261-3.191,2.009-4.14-.345-1.335-1.729-2.322-2.714-1.842-.646.314-1.3,2.733-1.669,4.3" transform="translate(-2.679 -157.286)" fill="#0d497b"/><path d="M20.905,171.834s-5.281-1.628-6.739-4.644,4.719-9,4.719-9-2.195,4.177-1.4,5.7,5.3,1.405,5.3,1.405,2.582,2.092-1.878,6.544" transform="translate(-8.352 -94.759)" fill="#ffa55c"/><path d="M39.928,197.1c-1.4,3.93-18.585,12.89-18.585,12.89a46.836,46.836,0,0,0-4.7-5.651c-2.065-2.076-4.519-3.975-6.684-4.152a156.267,156.267,0,0,0,6.24-25.124,22.408,22.408,0,0,1,20.661,1.776s5.829,12.512,3.064,20.262" transform="translate(-5.968 -103.842)" fill="#dae8f0"/><g transform="translate(5.596 69.873)" opacity="0.24" style="mix-blend-mode:multiply;isolation:isolate"><g clip-path="url(#d)"><path d="M42.319,197.641c2.764-7.749-3.064-20.262-3.064-20.262a20.943,20.943,0,0,0-7.975-3.124l-4.378,7.2s9.067,8.3,9.067,13.353S29.536,208.264,21,207.023c0,0-1.129,8.992-7.047,9.429a11.508,11.508,0,0,0,2.207.652c1.832.044,4.519-2.687,7.572-6.572,0,0,17.186-8.96,18.585-12.89" transform="translate(-13.955 -174.256)" fill="#0e6fb8"/></g></g><path d="M47.4,187.083s6.6-2.425,7.741-2.118,3.136,3.88,3.045,5.02-5.013,2.786-6.016,2.516-4.77-5.418-4.77-5.418" transform="translate(-28.395 -110.782)" fill="#0e5d98"/><path d="M42.328,171.834s5.28-1.628,6.739-4.644-4.719-9-4.719-9,2.195,4.177,1.4,5.7-5.3,1.405-5.3,1.405-2.582,2.092,1.878,6.544" transform="translate(-23.785 -94.759)" fill="#ffa55c"/><path d="M34.061,203.224c-.02,1.407.642,2.557,1.478,2.569s1.532-1.118,1.553-2.525-.642-2.557-1.478-2.569-1.532,1.118-1.553,2.525" transform="translate(-20.403 -120.223)" fill="#0d497b"/><path d="M372.726,227.68c-1.873,1.449,1.571,7.472-.177,10.889s-3.909,7.646-2.78,11.086c.736,2.243,8.892,4.882,14.485,6.449a75.429,75.429,0,0,1,1.26-30.5c0-.029.006-.061.01-.09-3.735.314-11.393,1.08-12.8,2.167" transform="translate(-221.311 -135.087)" fill="#b8443c"/><path d="M124.416,421.866H56.394v9.956H203.986v-9.956Z" transform="translate(-33.781 -252.706)" fill="#a8cbe0"/><path d="M363,42.924h-4.441V15.169A13.338,13.338,0,0,1,371.886,1.846H507.25V6.287H371.886A8.892,8.892,0,0,0,363,15.169Z" transform="translate(-214.786 -1.106)" fill="#0e5d98"/><path d="M331.35,265.777a8.556,8.556,0,0,1-6.793-3.517,17.948,17.948,0,0,1-10.5,3.4c-4.843,0-8.607-1.516-11.188-4.506-4.763-5.516-3.579-13.981-3.527-14.339l3.3.486c-.01.07-1.006,7.339,2.762,11.688,1.92,2.217,4.833,3.34,8.657,3.34a14.7,14.7,0,0,0,8.693-2.88,38.079,38.079,0,0,1-3.389-12.529l3.319-.28a34.89,34.89,0,0,0,2.649,10.542,21.992,21.992,0,0,0,2.372-3.007c6.416-9.714,9.273-29.467-1.953-55.775-3.965-9.293-3.707-17.169-3.315-29.09.142-4.311.3-9.2.3-14.96h3.331c0,22.165,4.971,37.524,9.358,51.075a162.058,162.058,0,0,1,5.334,19.021c3,15.575,1.324,32.095-3.9,38.427a7.054,7.054,0,0,1-5.5,2.906m-4.244-5.65a5.472,5.472,0,0,0,4.244,2.319,3.91,3.91,0,0,0,2.934-1.7c4.017-4.865,6.313-19.539,3.2-35.676a130.25,130.25,0,0,0-3.987-14.756c5.889,21.006,2.722,37-3.02,45.691a25,25,0,0,1-3.374,4.118m-1.445-77.144a39.686,39.686,0,0,0,3.15,14.108q1.27,2.976,2.312,5.849a196.282,196.282,0,0,1-5.462-19.956" transform="translate(-179.211 -92.457)" fill="#0a3557"/><path d="M297.552,368.567a3.007,3.007,0,1,0,5.86,1.35l2.42-10.5-5.86-1.351Z" transform="translate(-178.193 -214.487)" fill="#09375c"/><rect width="3.747" height="6.014" transform="translate(121.779 143.577) rotate(-77.026)" fill="#eb8a3e"/><path d="M347.321,367.6a3.007,3.007,0,1,1-5.86,1.35l-2.419-10.5,5.86-1.35Z" transform="translate(-203.093 -213.91)" fill="#09375c"/><rect width="6.014" height="3.747" transform="translate(135.108 140.889) rotate(-12.974)" fill="#eb8a3e"/><path d="M354.4,114.026H338.007a2.693,2.693,0,0,1-2.693-2.693V79.526a2.693,2.693,0,0,1,2.693-2.693H354.4a2.693,2.693,0,0,1,2.693,2.693v31.806a2.693,2.693,0,0,1-2.693,2.693" transform="translate(-200.859 -46.024)" fill="#0e5d98"/><rect width="16.824" height="13.534" transform="translate(136.931 35.871)" fill="#22b2f2"/><path d="M360.526,141.567a3.93,3.93,0,1,1-3.93-3.93,3.931,3.931,0,0,1,3.93,3.93" transform="translate(-211.253 -82.447)" fill="#09375c"/><path d="M663.093,179.044S640.238,206.43,647,242.327c0,0-6.739,34.788-9.814,44.039h-2.444s6.6-27.849-3.671-52,1.991-48.572,1.991-48.572Z" transform="translate(-375.568 -107.251)" fill="#0e5d98"/><path d="M464.379,252.583s14.159,25.165,15.214,75.865h2.221s7.442-35.832,5.946-66.4c0,0-6.516-20.572-23.38-9.47" transform="translate(-278.172 -149.332)" fill="#0e5d98"/><path d="M645.374,336.979s7.031,11.1,3.331,11.843-3.331-11.843-3.331-11.843m-11.556,11.66c3.7.767,1.569-12.2,1.569-12.2s-5.264,11.435-1.569,12.2" transform="translate(-378.881 -201.533)" fill="#f0856c"/><path d="M633.881,281.111s8.053,12.457,8.331,19.119-7.216,9.342-12.768,9.389-21.649-1.91-15.265-14.254,19.7-14.254,19.7-14.254" transform="translate(-367.022 -168.391)" fill="#f7a992"/><path d="M522.618,161.445s-11.1-.68-22.945-11.782c0,0-20.8,7.342-78.832,0,0,0-22.092,11.782-52.808,9.62l3.331,24s37.446,35.383,44.845,35.157c3.282-.1,15.022-9.992,15.022-9.992S447.564,225.77,463.2,225.1c29.727-1.278,59.418-63.653,59.418-63.653" transform="translate(-220.459 -89.651)" fill="#1b7bbf"/><path d="M746.657,179.047s-1.665,22.3,2.5,35.62c0,0,4.441.555,5.829,13.6l-2.637-3.608a15.135,15.135,0,0,0,3.192,6.245s-10.269-5-7.91-15.959c0,0-5.69-21.927-4.857-33.168Z" transform="translate(-444.884 -107.253)" fill="#0e5d98"/><path d="M468.922,147.439c13.177,1.667,24.272,3.463,33.8,3.874,1.843,3.872,4.426,9.54,4.778,11.622.555,3.284-8.6,19.475-11.657,19.475s-13.323-14.433-16.1-14.433-13.878,11.935-19.659,8.19c-4.171-2.7-9.425-14.408-12.03-20.722a72.2,72.2,0,0,0,20.864-8.006m78.918,0s-4.894,2.533-15.94,3.487c.834,4.993,2.63,13.826,5.187,16.033,2.663,2.3,15.9-5.751,22.7-10.162-3.624-1.749-7.619-5.3-11.948-9.359m-29.513,33.305c-3.691.791-14.988,19.151-13.878,23.315s29.421-5.549,29.7-9.02-11.935-15.128-15.821-14.295" transform="translate(-268.395 -88.319)" fill="#dae8f0"/><g transform="translate(147.964 72.049)" opacity="0.44" style="mix-blend-mode:multiply;isolation:isolate"><g clip-path="url(#e)"><path d="M492.36,195.481s-16.115,30.535-26.385,34.765-28.263-9.893-28.263-9.893l-19.754-5.95s-2.065,7.066-5.473,9.128-27.168-22.912-29.721-38.458c-.843-5.135-6.527-6.061-13.76-5l2.941,21.19s37.446,35.383,44.845,35.157c3.282-.1,15.022-9.992,15.022-9.992s16.334,17.326,31.97,16.653c26.4-1.135,52.767-50.448,58.34-61.476Z" transform="translate(-369.004 -179.683)" fill="#42729c"/></g></g><path d="M706.7,179.047s-18.134,27.385-5.181,63.282c0,0-.74,34.787-2.22,44.039h-2.444s1.8-27.848-12.637-52-6.384-48.572-6.384-48.572Z" transform="translate(-404.693 -107.253)" fill="#1b7bbf"/><path d="M478.058,252.583s18.411,25.165,28.033,75.865h2.22s1.388-35.832-5.273-66.4c0,0-9.992-20.572-24.98-9.47" transform="translate(-286.366 -149.332)" fill="#1b7bbf"/><path d="M697.248,242.016c-1.739,3.422-3.887,7.657-2.748,11.094.753,2.27,9.13,4.928,14.731,6.472-2.533-13.221.711-30.637.711-30.637-3.812.337-11.174,1.113-12.547,2.182-1.869,1.454,1.593,7.468-.146,10.89" transform="translate(-415.828 -137.142)" fill="#dae8f0"/><path d="M341.694,173.7s-6.6-.48-8.871-3.141,4.069-9.864,4.069-9.864-1.894,4.579-.677,5.9,6.58.258,6.58.258,3.453,1.511-1.1,6.842" transform="translate(-199.073 -96.259)" fill="#ffa55c"/><path d="M336.862,191.42s-8.228-2.651-9.776-2.374-4.767,3.829-4.843,4.985,6.091,2.968,7.449,2.725,7.169-5.337,7.169-5.337" transform="translate(-193.029 -113.23)" fill="#0e5d98"/><path d="M360.91,176.843a22.4,22.4,0,0,0-20.66-1.777,155.588,155.588,0,0,1-6.242,25.121c-.152.432-.314.859-.472,1.289,3.171-.041,8.016.085,9.525,1.176,1.655,1.2,2.029,5.579,2.109,7.96.074-.207.146-.4.224-.624,0,0,17.18-8.952,18.587-12.891,2.764-7.745-3.07-20.256-3.07-20.256" transform="translate(-199.794 -103.844)" fill="#dae8f0"/><path d="M339.31,244.653c-1.51-1.091-6.355-1.218-9.525-1.176a35.827,35.827,0,0,1-2.256,5.164c-.635,1.265,0,5.3.99,6.329,1.8,1.873,7.625,2.082,9.95.694,2.085-1.244,1.879-.059,2.951-3.049-.081-2.381-.455-6.764-2.11-7.96" transform="translate(-196.044 -145.843)" fill="#0e5d98"/><path d="M358.515,200.236c.725.419.742,1.745.039,2.963s-1.861,1.867-2.586,1.448-.743-1.745-.039-2.964,1.861-1.866,2.586-1.448m-13.771,4.411c.725-.418.743-1.745.039-2.964a4.091,4.091,0,0,0-.552-.744c-.256,1.127-.539,2.32-.848,3.557a1.347,1.347,0,0,0,1.361.15" transform="translate(-205.693 -119.869)" fill="#0d497b"/><path d="M335.992,259.694a2.527,2.527,0,0,1-1.155-2.591c.164-.832,2.427-2.035,2.427-2.035,1.943,2.5-.371,5-1.272,4.626m-7.147-4.163a7.65,7.65,0,0,0-.964-1.006c-.117.244-.23.5-.35.737a7.489,7.489,0,0,0,.021,3.959l.923-.175a5.074,5.074,0,0,0,.37-3.516" transform="translate(-196.045 -152.465)" fill="#0d497b"/><g transform="translate(131.954 72.448)" opacity="0.24" style="mix-blend-mode:multiply;isolation:isolate"><g clip-path="url(#f)"><path d="M329.077,216.474a2.918,2.918,0,0,0,.522.881c1.8,1.873,7.625,2.081,9.95.694,2.085-1.244,1.879-.059,2.951-3.049.074-.207.146-.4.224-.624,0,0,17.18-8.952,18.587-12.891,2.764-7.745-3.07-20.256-3.07-20.256s-.3-.221-.868-.551c.277,2.139-2.179,1.778-2.028,4.992,2.755,4.647,2.871,11.7,1.861,13.9-2.226,4.862-6.1,10.356-15.441,9.883,0,0-.931,11.4-12.686,7.018" transform="translate(-329.077 -180.678)" fill="#0e6fb8"/></g></g><path d="M391.064,173.7s6.6-.48,8.871-3.141-4.069-9.864-4.069-9.864,1.894,4.579.677,5.9-6.581.258-6.581.258-3.453,1.511,1.1,6.842" transform="translate(-232.844 -96.259)" fill="#ffa55c"/><path d="M395.673,192.726s8.552-1.257,10.033-.729,4.07,4.563,3.954,5.716-6.5,1.923-7.8,1.46-6.191-6.447-6.191-6.447" transform="translate(-237.016 -114.932)" fill="#0e5d98"/><path d="M500.582,421.866H417.93v9.956H597.263v-9.956Z" transform="translate(-250.348 -252.706)" fill="#a8cbe0"/><path d="M656.567,265.73c-3.294,0-5.669-2-7.377-4.7a12.735,12.735,0,0,1-9.464,4.567c-4.806.109-8.537-1.311-11.126-4.23-4.876-5.5-3.682-14.239-3.629-14.609l3.3.475c-.01.073-1.019,7.6,2.833,11.934,1.909,2.145,4.793,3.188,8.547,3.1a9.69,9.69,0,0,0,7.791-4.372l.1-.135a41.545,41.545,0,0,1-2.545-10.905l3.319-.275h0a44.922,44.922,0,0,0,1.372,7.17c3.574-9.01,2.865-23.8-2.133-40.985-3.27-11.236-2.033-23.125-.725-35.712a216.859,216.859,0,0,0,1.541-22.766l3.33-.04c.775,32.521,4.026,38.379,8.526,46.487a91.747,91.747,0,0,1,4.461,8.874c7.7,17.929,6.325,40.6.214,50.53-2.131,3.462-4.832,5.39-7.813,5.574q-.262.016-.516.016M651.3,258.06c1.287,2.558,3.094,4.481,5.577,4.331,2.34-.145,4.11-2.253,5.183-4,5.556-9.027,6.742-30.742-.439-47.47a87.692,87.692,0,0,0-4.313-8.571c-3.186-5.74-5.776-10.408-7.371-23.026-1.189,11.541-2.116,22.459.809,32.511,5.852,20.113,6.02,36.752.553,46.222" transform="translate(-374.27 -92.399)" fill="#0a3557"/><path d="M623.181,368.567a3.007,3.007,0,1,0,5.86,1.35l2.419-10.5-5.86-1.351Z" transform="translate(-373.251 -214.487)" fill="#09375c"/><rect width="3.747" height="6.014" transform="translate(252.35 143.577) rotate(-77.025)" fill="#eb8a3e"/><path d="M672.951,367.6a3.007,3.007,0,1,1-5.86,1.35l-2.419-10.5,5.86-1.35Z" transform="translate(-398.15 -213.91)" fill="#09375c"/><rect width="6.014" height="3.747" transform="translate(265.679 140.889) rotate(-12.975)" fill="#eb8a3e"/><path d="M680.026,114.026H663.636a2.693,2.693,0,0,1-2.693-2.693V79.526a2.693,2.693,0,0,1,2.693-2.693h16.389a2.693,2.693,0,0,1,2.693,2.693v31.806a2.693,2.693,0,0,1-2.693,2.693" transform="translate(-395.917 -46.024)" fill="#0e5d98"/><rect width="16.823" height="13.534" transform="translate(267.502 35.871)" fill="#22b2f2"/><path d="M686.155,141.567a3.93,3.93,0,1,1-3.93-3.93,3.931,3.931,0,0,1,3.93,3.93" transform="translate(-406.311 -82.447)" fill="#09375c"/><path d="M882.884,387.3h-5.551V360.691a13.169,13.169,0,0,1,13.154-13.153H1131a13.169,13.169,0,0,1,13.153,13.153V387.3h-5.551V360.691a7.611,7.611,0,0,0-7.6-7.6H890.487a7.611,7.611,0,0,0-7.6,7.6Z" transform="translate(-525.539 -208.182)" fill="#0e5d98"/><rect width="5.551" height="38.093" transform="translate(482.43 141.023)" fill="#0e5d98"/><rect width="261.273" height="3.331" transform="translate(354.57 156.098)" fill="#0e5d98"/></g></g></g></g></svg>