<svg xmlns="http://www.w3.org/2000/svg" width="150.994" height="79.941" viewBox="0 0 150.994 79.941">
  <g id="Grupo_848028" data-name="Grupo 848028" transform="translate(-723.503 -3599.5)">
    <g id="cultivo_1_" data-name="cultivo (1)" transform="translate(723.503 3599.5)">
      <g id="Grupo_847526" data-name="Grupo 847526" transform="translate(1.289 1.289)">
        <g id="Grupo_847507" data-name="Grupo 847507" transform="translate(7.736 48.996)">
          <path id="Trazado_569193" data-name="Trazado 569193" d="M50.839,46.736A7.73,7.73,0,0,0,58.472,40.2h.013a92.691,92.691,0,0,1,14.8-1.2h3.339V57.051H74.048a7.742,7.742,0,0,0-7.736,7.736,7.742,7.742,0,0,0-7.736-7.736H56V59.63a7.742,7.742,0,0,0,7.736,7.736h-24.5a7.742,7.742,0,0,0,7.736-7.736V57.051H44.392a7.742,7.742,0,0,0-7.736,7.736,7.742,7.742,0,0,0-7.736-7.736H26.341V59.63a7.742,7.742,0,0,0,7.736,7.736H7a91.74,91.74,0,0,1,33.756-22.4,7.694,7.694,0,0,0,4.925,1.766h5.158Z" transform="translate(-7 -39)" fill="#cf9e76"/>
        </g>
        <g id="Grupo_847508" data-name="Grupo 847508" transform="translate(0 28.366)">
          <path id="Trazado_569194" data-name="Trazado 569194" d="M19.528,28.3A37.752,37.752,0,0,1,44.31,41.322v.013a7.224,7.224,0,0,0-2.05-.284H39.681V43.63a7.738,7.738,0,0,0,2.811,5.97A91.74,91.74,0,0,0,8.736,72H1V23a7.742,7.742,0,0,0,7.736,7.736h5.158A7.748,7.748,0,0,0,19.528,28.3Z" transform="translate(-1 -23)" fill="#dfb28b"/>
        </g>
        <g id="Grupo_847509" data-name="Grupo 847509" transform="translate(67.048 67.048)">
          <path id="Trazado_569195" data-name="Trazado 569195" d="M63.315,55.579a7.742,7.742,0,0,1-7.736,7.736H53V60.736A7.742,7.742,0,0,1,60.736,53h2.579Z" transform="translate(-53 -53)" fill="#b4dd7f"/>
        </g>
        <g id="Grupo_847510" data-name="Grupo 847510" transform="translate(56.733 67.048)">
          <path id="Trazado_569196" data-name="Trazado 569196" d="M55.315,60.736v2.579H52.736A7.742,7.742,0,0,1,45,55.579V53h2.579A7.742,7.742,0,0,1,55.315,60.736Z" transform="translate(-45 -53)" fill="#b4dd7f"/>
        </g>
        <g id="Grupo_847511" data-name="Grupo 847511" transform="translate(37.392 67.048)">
          <path id="Trazado_569197" data-name="Trazado 569197" d="M40.315,55.579a7.742,7.742,0,0,1-7.736,7.736H30V60.736A7.742,7.742,0,0,1,37.736,53h2.579Z" transform="translate(-30 -53)" fill="#b4dd7f"/>
        </g>
        <g id="Grupo_847512" data-name="Grupo 847512" transform="translate(27.077 67.048)">
          <path id="Trazado_569198" data-name="Trazado 569198" d="M32.315,60.736v2.579H29.736A7.742,7.742,0,0,1,22,55.579V53h2.579A7.742,7.742,0,0,1,32.315,60.736Z" transform="translate(-22 -53)" fill="#b4dd7f"/>
        </g>
        <g id="Grupo_847513" data-name="Grupo 847513" transform="translate(48.996 46.418)">
          <path id="Trazado_569199" data-name="Trazado 569199" d="M49.212,40.778a7.73,7.73,0,0,1-7.633,6.537H39V44.736A7.742,7.742,0,0,1,46.736,37h2.579v2.579A6.1,6.1,0,0,1,49.212,40.778Z" transform="translate(-39 -37)" fill="#b4dd7f"/>
        </g>
        <g id="Grupo_847514" data-name="Grupo 847514" transform="translate(38.681 46.418)">
          <path id="Trazado_569200" data-name="Trazado 569200" d="M41.315,44.736v2.579H38.736A7.729,7.729,0,0,1,31,39.579V37h2.579a7.224,7.224,0,0,1,2.05.284A7.728,7.728,0,0,1,41.315,44.736Z" transform="translate(-31 -37)" fill="#b4dd7f"/>
        </g>
        <g id="Grupo_847515" data-name="Grupo 847515" transform="translate(19.341 46.418)">
          <path id="Trazado_569201" data-name="Trazado 569201" d="M26.315,39.579a7.742,7.742,0,0,1-7.736,7.736H16V44.736A7.742,7.742,0,0,1,23.736,37h2.579Z" transform="translate(-16 -37)" fill="#b4dd7f"/>
        </g>
        <g id="Grupo_847516" data-name="Grupo 847516" transform="translate(9.026 46.418)">
          <path id="Trazado_569202" data-name="Trazado 569202" d="M18.315,44.736v2.579H15.736A7.742,7.742,0,0,1,8,39.579V37h2.579A7.742,7.742,0,0,1,18.315,44.736Z" transform="translate(-8 -37)" fill="#b4dd7f"/>
        </g>
        <g id="Grupo_847517" data-name="Grupo 847517" transform="translate(10.315 25.788)">
          <path id="Trazado_569203" data-name="Trazado 569203" d="M17.213,28.878a7.748,7.748,0,0,1-5.635,2.437H9V28.736A7.742,7.742,0,0,1,16.736,21h2.579v2.579A7.679,7.679,0,0,1,17.213,28.878Z" transform="translate(-9 -21)" fill="#b4dd7f"/>
        </g>
        <g id="Grupo_847518" data-name="Grupo 847518" transform="translate(0 25.788)">
          <path id="Trazado_569204" data-name="Trazado 569204" d="M11.315,28.736v2.579H8.736A7.742,7.742,0,0,1,1,23.579V21H3.579A7.742,7.742,0,0,1,11.315,28.736Z" transform="translate(-1 -21)" fill="#b4dd7f"/>
        </g>
        <g id="Grupo_847519" data-name="Grupo 847519" transform="translate(36.103 20.63)">
          <path id="Trazado_569205" data-name="Trazado 569205" d="M59.945,20.4V32.473H49.63V23.447a1.293,1.293,0,0,0-1.289-1.289H40.6a1.293,1.293,0,0,0-1.289,1.289v9.026H29V20.4L34,17H54.942Z" transform="translate(-29 -17)" fill="#e6e9ed"/>
        </g>
        <g id="Grupo_847520" data-name="Grupo 847520" transform="translate(46.418 25.788)">
          <path id="Trazado_569206" data-name="Trazado 569206" d="M47.315,22.289v9.026H37V22.289A1.293,1.293,0,0,1,38.289,21h7.736A1.293,1.293,0,0,1,47.315,22.289Z" transform="translate(-37 -21)" fill="#aab2bd"/>
        </g>
        <g id="Grupo_847521" data-name="Grupo 847521" transform="translate(41.118 13.513)">
          <path id="Trazado_569207" data-name="Trazado 569207" d="M43.347,11.48,53.8,18.6H32.89Z" transform="translate(-32.89 -11.48)" fill="#fc6e51"/>
        </g>
        <g id="Grupo_847522" data-name="Grupo 847522" transform="translate(51.575 10.702)">
          <path id="Trazado_569208" data-name="Trazado 569208" d="M61.63,21.562v.851a1.979,1.979,0,0,1-3.082,1.638l-2.076-1.418-5-3.4h-.013L41,12.111,45.139,9.3,60.766,19.924a1.984,1.984,0,0,1,.864,1.638Z" transform="translate(-41 -9.3)" fill="#ff826e"/>
        </g>
        <g id="Grupo_847523" data-name="Grupo 847523" transform="translate(37.392 0)">
          <path id="Trazado_569209" data-name="Trazado 569209" d="M44.183,8.891,40.044,11.7l-9.18-6.241A1.984,1.984,0,0,1,30,3.824V2.973a1.979,1.979,0,0,1,3.082-1.638Z" transform="translate(-30 -1)" fill="#ff826e"/>
        </g>
        <g id="Grupo_847524" data-name="Grupo 847524" transform="translate(30.945)">
          <path id="Trazado_569210" data-name="Trazado 569210" d="M59.813,2.973v.851a1.984,1.984,0,0,1-.864,1.638L49.769,11.7,45.63,14.513,35.173,21.63H35.16l-5,3.4v.013l-2.076,1.405A1.979,1.979,0,0,1,25,24.815v-.851a1.984,1.984,0,0,1,.864-1.638L41.491,11.7,45.63,8.891l11.1-7.556a1.979,1.979,0,0,1,3.082,1.638Z" transform="translate(-25 -1)" fill="#ff826e"/>
        </g>
        <g id="Grupo_847525" data-name="Grupo 847525" transform="translate(5.158 2.579)">
          <circle id="Elipse_6755" data-name="Elipse 6755" cx="9" cy="9" r="9" transform="translate(-0.447 0.073)" fill="#fcd770"/>
        </g>
      </g>
      <g id="Grupo_847527" data-name="Grupo 847527" transform="translate(0 0)">
        <path id="Trazado_569211" data-name="Trazado 569211" d="M18.6,40.4A9.022,9.022,0,0,0,10.868,36H7v3.868a9.036,9.036,0,0,0,9.026,9.026h5.158a9.036,9.036,0,0,0,9.026-9.026V36H26.341A9.022,9.022,0,0,0,18.6,40.4Zm-1.289,5.914H16.026a6.454,6.454,0,0,1-6.447-6.447V38.579h1.289a6.454,6.454,0,0,1,6.447,6.447Zm9.026-7.736H27.63v1.289a6.454,6.454,0,0,1-6.447,6.447H19.894V45.026A6.454,6.454,0,0,1,26.341,38.579Z" transform="translate(2.026 10.418)"/>
        <path id="Trazado_569212" data-name="Trazado 569212" d="M69.626,36.1V27.759l.062.043a3.261,3.261,0,0,0,5.1-2.7v-.852a3.258,3.258,0,0,0-1.427-2.7L59.292,11.991,66.91,6.812a3.262,3.262,0,0,0,1.427-2.7V3.261a3.26,3.26,0,0,0-5.094-2.7L52.864,7.622,42.488.565a3.261,3.261,0,0,0-5.1,2.7v.852a3.26,3.26,0,0,0,1.427,2.7l7.619,5.181L32.374,21.556a3.256,3.256,0,0,0-1.429,2.7v.852a3.26,3.26,0,0,0,5.094,2.7l.063-.041V36.1H30.015a38.89,38.89,0,0,0-7.905-2.135,8.973,8.973,0,0,0,1.1-4.312V25.788H19.341a9.022,9.022,0,0,0-7.736,4.4,9.022,9.022,0,0,0-7.736-4.4H0V79.941H70.916a9.036,9.036,0,0,0,9.026-9.026V49H75.318a93.324,93.324,0,0,0-13.428.993V46.418H58.022a9.022,9.022,0,0,0-7.736,4.4,9.058,9.058,0,0,0-4.958-3.958,38.969,38.969,0,0,0-9.91-8.179H79.941V36.1ZM19.341,28.366H20.63v1.289A6.454,6.454,0,0,1,14.183,36.1H12.894V34.813A6.454,6.454,0,0,1,19.341,28.366Zm-16.762,0H3.868a6.454,6.454,0,0,1,6.447,6.447V36.1H9.026a6.454,6.454,0,0,1-6.447-6.447Zm33.524,49a6.454,6.454,0,0,1-6.447-6.447V69.626h1.289a6.454,6.454,0,0,1,6.447,6.447v1.289Zm3.868,0V76.073a6.454,6.454,0,0,1,6.447-6.447h1.289v1.289a6.454,6.454,0,0,1-6.447,6.447Zm25.788,0a6.454,6.454,0,0,1-6.447-6.447V69.626H60.6a6.454,6.454,0,0,1,6.447,6.447v1.289Zm11.6-6.447a6.454,6.454,0,0,1-6.447,6.447H69.626V76.073a6.454,6.454,0,0,1,6.447-6.447h1.289Zm0-19.341V67.048H76.073a9.022,9.022,0,0,0-7.736,4.4,9.022,9.022,0,0,0-7.736-4.4H56.733v3.868a8.991,8.991,0,0,0,2.722,6.447H47.565a9,9,0,0,0,2.721-6.447V67.048H46.418a9.022,9.022,0,0,0-7.736,4.4,9.022,9.022,0,0,0-7.736-4.4H27.077v3.868A8.991,8.991,0,0,0,29.8,77.363H12.16A90.966,90.966,0,0,1,42.6,57.723a8.962,8.962,0,0,0,5.1,1.589h5.158a9.033,9.033,0,0,0,8.7-6.671,90.617,90.617,0,0,1,13.75-1.065ZM58.022,49h1.289v1.289a6.454,6.454,0,0,1-6.447,6.447H51.575V55.443A6.454,6.454,0,0,1,58.022,49ZM49,55.443v1.289H47.707a6.454,6.454,0,0,1-6.447-6.447V49h1.289A6.454,6.454,0,0,1,49,55.443Zm-7.624-9.026H38.681v3.868a8.976,8.976,0,0,0,1.88,5.493A93.471,93.471,0,0,0,8.5,77.363H2.579v-41.4a9,9,0,0,0,6.447,2.721h5.158a8.982,8.982,0,0,0,6.072-2.367A36.218,36.218,0,0,1,41.372,46.418ZM71.907,23.688a.682.682,0,0,1,.3.565v.852a.706.706,0,0,1-1.066.565L55.158,14.8,57,13.55ZM52.864,16.362l6.277,4.268H46.586ZM40.269,4.678a.682.682,0,0,1-.3-.565V3.261A.7.7,0,0,1,41.037,2.7l9.535,6.483-1.84,1.251ZM34.59,25.67a.707.707,0,0,1-1.066-.565v-.852a.681.681,0,0,1,.3-.565L64.692,2.7a.683.683,0,0,1,1.066.565v.852a.681.681,0,0,1-.3.565Zm4.091.337,4.113-2.8h20.14l4.113,2.8V36.1H59.311V28.366a2.581,2.581,0,0,0-2.579-2.579H49a2.581,2.581,0,0,0-2.579,2.579V36.1H38.681ZM56.733,36.1H49V28.366h7.736Z" transform="translate(0 0)"/>
        <path id="Trazado_569213" data-name="Trazado 569213" d="M36,32h7.736v2.579H36Z" transform="translate(10.418 9.26)"/>
        <path id="Trazado_569214" data-name="Trazado 569214" d="M44,32H56.894v2.579H44Z" transform="translate(12.733 9.26)"/>
        <path id="Trazado_569215" data-name="Trazado 569215" d="M56,32h7.736v2.579H56Z" transform="translate(16.205 9.26)"/>
        <path id="Trazado_569216" data-name="Trazado 569216" d="M14.315,22.63A10.315,10.315,0,1,0,4,12.315,10.327,10.327,0,0,0,14.315,22.63Zm0-18.051a7.736,7.736,0,1,1-7.736,7.736A7.744,7.744,0,0,1,14.315,4.579Z" transform="translate(1.158 0.579)"/>
      </g>
    </g>
    <g id="equipo-de-limpieza" transform="translate(781.539 3613.729)">
      <g id="Grupo_847550" data-name="Grupo 847550" transform="translate(37.618 0.963)">
        <g id="Grupo_847528" data-name="Grupo 847528" transform="translate(8.006)">
          <path id="Trazado_569217" data-name="Trazado 569217" d="M129.636,7.5H119.368a12.872,12.872,0,0,0-12.834,12.834v3.209a8.9,8.9,0,0,0,1.072,4.241,3.864,3.864,0,0,1,1.51-1.223v-.579a7.709,7.709,0,0,1,7.7-7.7h15.372a7.709,7.709,0,0,1,7.7,7.7v.579a3.864,3.864,0,0,1,1.51,1.223,8.9,8.9,0,0,0,1.072-4.241V20.334A12.872,12.872,0,0,0,129.636,7.5Z" transform="translate(-106.534 -7.5)" fill="#ffd63d"/>
        </g>
        <g id="Grupo_847529" data-name="Grupo 847529" transform="translate(8.006)">
          <path id="Trazado_569218" data-name="Trazado 569218" d="M109.115,26.561v-.579a7.684,7.684,0,0,1,2.679-5.83A12.872,12.872,0,0,1,124.626,7.5h-5.258a12.872,12.872,0,0,0-12.834,12.834v3.209a8.9,8.9,0,0,0,1.072,4.241,3.862,3.862,0,0,1,1.51-1.223Z" transform="translate(-106.534 -7.5)" fill="#ff854e"/>
        </g>
        <path id="Trazado_569219" data-name="Trazado 569219" d="M149.72,91.5H134.348a7.709,7.709,0,0,0-7.7,7.7v.579a3.835,3.835,0,0,1,1.59-.344h1.619V99.2a4.492,4.492,0,0,1,4.492-4.492H149.72a4.492,4.492,0,0,1,4.492,4.492v.236h1.619a3.835,3.835,0,0,1,1.59.344V99.2A7.71,7.71,0,0,0,149.72,91.5Z" transform="translate(-116.06 -80.719)" fill="#00c285"/>
        <path id="Trazado_569220" data-name="Trazado 569220" d="M129.855,99.2a4.481,4.481,0,0,1,1.586-3.424,7.708,7.708,0,0,1,6.895-4.276h-3.989a7.709,7.709,0,0,0-7.7,7.7v.579a3.835,3.835,0,0,1,1.59-.344h1.619Z" transform="translate(-116.059 -80.719)" fill="#07b27b"/>
        <path id="Trazado_569221" data-name="Trazado 569221" d="M130.468,307.3a.642.642,0,0,1,.642-.642h.706v-1.42a6.416,6.416,0,0,0-1.773-.25H97.187a6.386,6.386,0,0,0-3.143.823v7.811h.515a1.662,1.662,0,0,1,1,3,.256.256,0,0,0,0,.41,1.659,1.659,0,0,1,0,2.662.256.256,0,0,0,0,.41,1.659,1.659,0,0,1,0,2.662.256.256,0,0,0,0,.41,1.662,1.662,0,0,1-1,2.995h-.515V330.6h36.424V307.3Z" transform="translate(-87.641 -266.809)" fill="#bbdeaf"/>
        <path id="Trazado_569222" data-name="Trazado 569222" d="M103.729,304.991H97.188a6.386,6.386,0,0,0-3.143.823v7.811h.515a1.662,1.662,0,0,1,1,3,.256.256,0,0,0,0,.41,1.659,1.659,0,0,1,0,2.662.256.256,0,0,0,0,.41,1.659,1.659,0,0,1,0,2.662.256.256,0,0,0,0,.41,1.662,1.662,0,0,1-1,2.995h-.515V330.6H98.6a1.283,1.283,0,0,1-1.283-1.283v-17.9A6.417,6.417,0,0,1,103.729,304.991Z" transform="translate(-87.642 -266.81)" fill="#0ed290"/>
        <path id="Trazado_569223" data-name="Trazado 569223" d="M204.673,280.513a10.885,10.885,0,0,1-2.13.212h-2.67a10.876,10.876,0,0,1-2.13-.212v3.142h-3.209l3.9,6.743a3.209,3.209,0,0,0,5.556,0l3.9-6.743h-3.209Z" transform="translate(-175.234 -245.474)" fill="#ffbd86"/>
        <g id="Grupo_847531" data-name="Grupo 847531" transform="translate(19.3 38.181)">
          <g id="Grupo_847530" data-name="Grupo 847530">
            <path id="Trazado_569224" data-name="Trazado 569224" d="M201.12,311.734l-3.9-6.743h-2.691l3.9,6.743a3.209,3.209,0,0,0,4.124,1.311A3.169,3.169,0,0,1,201.12,311.734Z" transform="translate(-194.533 -304.991)" fill="#f6a96c"/>
          </g>
        </g>
        <g id="Grupo_847532" data-name="Grupo 847532" transform="translate(8.327 18.717)">
          <path id="Trazado_569225" data-name="Trazado 569225" d="M339.227,153.335h-1.619v5.691a10.82,10.82,0,0,1-.561,3.442h2.18a3.85,3.85,0,0,0,3.85-3.85v-1.433a3.85,3.85,0,0,0-3.85-3.85Z" transform="translate(-307.783 -153.335)" fill="#ffbd86"/>
          <path id="Trazado_569226" data-name="Trazado 569226" d="M114.5,159.027v-5.691h-1.619a3.85,3.85,0,0,0-3.85,3.85v1.433a3.85,3.85,0,0,0,3.85,3.85h2.18A10.829,10.829,0,0,1,114.5,159.027Z" transform="translate(-109.033 -153.336)" fill="#ffbd86"/>
        </g>
        <g id="Grupo_847533" data-name="Grupo 847533" transform="translate(13.796 13.989)">
          <path id="Trazado_569227" data-name="Trazado 569227" d="M151.647,120.992v5.927a10.843,10.843,0,0,0,10.843,10.843h2.67A10.843,10.843,0,0,0,176,126.919v-5.927a4.492,4.492,0,0,0-4.492-4.492H156.139A4.492,4.492,0,0,0,151.647,120.992Z" transform="translate(-151.647 -116.5)" fill="#fed2a4"/>
        </g>
        <g id="Grupo_847534" data-name="Grupo 847534" transform="translate(13.796 13.989)">
          <path id="Trazado_569228" data-name="Trazado 569228" d="M155.637,126.919v-5.927a4.492,4.492,0,0,1,4.492-4.492H156.14a4.492,4.492,0,0,0-4.492,4.492v5.927a10.843,10.843,0,0,0,10.843,10.843h2.67c.222,0,.441-.009.659-.022A10.842,10.842,0,0,1,155.637,126.919Z" transform="translate(-151.648 -116.5)" fill="#ffbd86"/>
        </g>
        <g id="Grupo_847535" data-name="Grupo 847535" transform="translate(14.066 24.203)">
          <path id="Trazado_569229" data-name="Trazado 569229" d="M177.569,198.685h-5.681a8.739,8.739,0,0,0-12.454,0h-5.681a10.845,10.845,0,0,0,10.573,8.441H167A10.845,10.845,0,0,0,177.569,198.685Z" transform="translate(-153.754 -196.078)" fill="#8ac9fe"/>
        </g>
        <g id="Grupo_847536" data-name="Grupo 847536" transform="translate(14.066 26.81)">
          <path id="Trazado_569230" data-name="Trazado 569230" d="M164.326,224.834H167c.222,0,.441-.009.659-.022a10.846,10.846,0,0,1-9.913-8.419h-3.989A10.845,10.845,0,0,0,164.326,224.834Z" transform="translate(-153.753 -216.393)" fill="#60b7ff"/>
        </g>
        <g id="Grupo_847537" data-name="Grupo 847537" transform="translate(2.179 29.519)">
          <path id="Trazado_569231" data-name="Trazado 569231" d="M61.807,254.8h3.55V238.142a.642.642,0,0,0-.642-.642H61.775a.642.642,0,0,0-.642.642v16.735A2.844,2.844,0,0,1,61.807,254.8Z" transform="translate(-61.133 -237.5)" fill="#fd8087"/>
          <path id="Trazado_569232" data-name="Trazado 569232" d="M61.807,469.45a2.85,2.85,0,0,1-.674-.081v3.867a.642.642,0,0,0,.642.642h3.582V469.45Z" transform="translate(-61.133 -439.61)" fill="#fd8087"/>
        </g>
        <g id="Grupo_847539" data-name="Grupo 847539" transform="translate(2.179 29.519)">
          <path id="Trazado_569233" data-name="Trazado 569233" d="M63.373,238.142a.642.642,0,0,1,.642-.642h-2.24a.642.642,0,0,0-.642.642v11.615h2.24V238.142Z" transform="translate(-61.133 -237.5)" fill="#fe646f"/>
          <g id="Grupo_847538" data-name="Grupo 847538" transform="translate(0 29.759)">
            <path id="Trazado_569234" data-name="Trazado 569234" d="M63.373,473.236V469.45H61.807a2.85,2.85,0,0,1-.674-.081v3.867a.642.642,0,0,0,.642.642h2.24A.642.642,0,0,1,63.373,473.236Z" transform="translate(-61.133 -469.369)" fill="#fe646f"/>
          </g>
        </g>
        <path id="Trazado_569235" data-name="Trazado 569235" d="M61.807,338.039h3.55V333H61.133v5.12A2.844,2.844,0,0,1,61.807,338.039Z" transform="translate(-58.954 -291.224)" fill="#554e56"/>
        <path id="Trazado_569236" data-name="Trazado 569236" d="M61.807,338.039h1.567V333h-2.24v5.12A2.844,2.844,0,0,1,61.807,338.039Z" transform="translate(-58.954 -291.224)" fill="#433f43"/>
        <g id="Grupo_847540" data-name="Grupo 847540" transform="translate(0 46.815)">
          <path id="Trazado_569237" data-name="Trazado 569237" d="M47.008,372.264a2.856,2.856,0,0,0-2.853,2.853v6.839a2.856,2.856,0,0,0,2.853,2.853h4.065a1.662,1.662,0,0,0,1-2.995.256.256,0,0,1,0-.41,1.659,1.659,0,0,0,0-2.662.256.256,0,0,1,0-.41,1.659,1.659,0,0,0,0-2.662.256.256,0,0,1,0-.41,1.662,1.662,0,0,0-1-3Z" transform="translate(-44.155 -372.264)" fill="#ffbd86"/>
        </g>
        <g id="Grupo_847541" data-name="Grupo 847541" transform="translate(0 46.815)">
          <path id="Trazado_569238" data-name="Trazado 569238" d="M47.665,381.955v-6.839a2.856,2.856,0,0,1,2.847-2.852h-3.5a2.856,2.856,0,0,0-2.853,2.853v6.839a2.856,2.856,0,0,0,2.853,2.853h3.51A2.856,2.856,0,0,1,47.665,381.955Z" transform="translate(-44.155 -372.264)" fill="#f6a96c"/>
        </g>
        <g id="Grupo_847549" data-name="Grupo 847549" transform="translate(42.313 31.893)">
          <g id="Grupo_847542" data-name="Grupo 847542" transform="translate(0.513 3.594)">
            <path id="Trazado_569239" data-name="Trazado 569239" d="M388.344,284h3.209v4.364h-3.209Z" transform="translate(-386.996 -284)" fill="#b5adb6"/>
            <path id="Trazado_569240" data-name="Trazado 569240" d="M383.748,318.642a.642.642,0,0,0-.642-.642h-4.62a.642.642,0,0,0-.642.642v2.7h5.9Z" transform="translate(-377.844 -313.636)" fill="#26a6fe"/>
            <path id="Trazado_569241" data-name="Trazado 569241" d="M380.5,318.642a.642.642,0,0,1,.642-.642h-2.651a.642.642,0,0,0-.642.642v2.7H380.5Z" transform="translate(-377.844 -313.636)" fill="#0593fc"/>
          </g>
          <g id="Grupo_847543" data-name="Grupo 847543" transform="translate(0.513 11.294)">
            <path id="Trazado_569242" data-name="Trazado 569242" d="M388.753,364.6H377.844V344h7.7a3.85,3.85,0,0,1,3.85,3.85v16.107A.642.642,0,0,1,388.753,364.6Z" transform="translate(-377.844 -344)" fill="#8ac9fe"/>
          </g>
          <g id="Grupo_847544" data-name="Grupo 847544" transform="translate(0.513 11.294)">
            <path id="Trazado_569243" data-name="Trazado 569243" d="M377.844,344h3.934v20.6h-3.934Z" transform="translate(-377.844 -344)" fill="#60b7ff"/>
          </g>
          <g id="Grupo_847545" data-name="Grupo 847545" transform="translate(0.513 26.824)">
            <path id="Trazado_569244" data-name="Trazado 569244" d="M377.844,470.07h10.909a.642.642,0,0,0,.642-.642V465H377.844Z" transform="translate(-377.844 -465)" fill="#26a6fe"/>
          </g>
          <g id="Grupo_847546" data-name="Grupo 847546" transform="translate(0.513 26.824)">
            <path id="Trazado_569245" data-name="Trazado 569245" d="M377.844,465h3.934v5.07h-3.934Z" transform="translate(-377.844 -465)" fill="#0593fc"/>
          </g>
          <g id="Grupo_847547" data-name="Grupo 847547">
            <path id="Trazado_569246" data-name="Trazado 569246" d="M383.6,259.594h-8.342a1.412,1.412,0,0,1-1.412-1.412v-.77A1.412,1.412,0,0,1,375.256,256H383.6a.385.385,0,0,1,.385.385v2.824A.385.385,0,0,1,383.6,259.594Z" transform="translate(-373.844 -256)" fill="#26a6fe"/>
          </g>
          <g id="Grupo_847548" data-name="Grupo 847548">
            <path id="Trazado_569247" data-name="Trazado 569247" d="M377.778,258.182v-.77A1.412,1.412,0,0,1,379.19,256h-3.934a1.412,1.412,0,0,0-1.412,1.412v.77a1.412,1.412,0,0,0,1.412,1.412h3.934A1.412,1.412,0,0,1,377.778,258.182Z" transform="translate(-373.844 -256)" fill="#0593fc"/>
          </g>
        </g>
      </g>
      <g id="Grupo_847551" data-name="Grupo 847551" transform="translate(36.655 0)">
        <path id="Trazado_569248" data-name="Trazado 569248" d="M195,156.654a.962.962,0,0,0,.963-.963v-2.077a.963.963,0,1,0-1.925,0v2.077A.962.962,0,0,0,195,156.654Z" transform="translate(-173.835 -133.06)"/>
        <path id="Trazado_569249" data-name="Trazado 569249" d="M285,156.654a.963.963,0,0,0,.963-.963v-2.077a.963.963,0,1,0-1.925,0v2.077A.963.963,0,0,0,285,156.654Z" transform="translate(-252.284 -133.06)"/>
        <path id="Trazado_569250" data-name="Trazado 569250" d="M92,51.658a.963.963,0,0,0,.963-.963V48a4.818,4.818,0,0,0-4.813-4.813h-.834V41.455a1.605,1.605,0,0,0-1.348-1.582V37.412h.115l3.312,3.312a.963.963,0,0,0,1.361-1.361l-1.95-1.95h.885a1.349,1.349,0,0,0,1.348-1.348V33.241a1.349,1.349,0,0,0-1.348-1.348H81.343a2.377,2.377,0,0,0-2.374,2.374v.77a2.377,2.377,0,0,0,1.861,2.317v.873a7.34,7.34,0,0,0-.81-.047h-12V36.765a11.859,11.859,0,0,0,7.86-6.989h1.509A4.818,4.818,0,0,0,82.2,24.963V23.53a4.778,4.778,0,0,0-.608-2.337,9.874,9.874,0,0,0,.929-4.188V13.8A13.691,13.691,0,0,0,80.193,6.15a.963.963,0,0,0-1.6,1.072,11.774,11.774,0,0,1,2,6.575v3.209a7.974,7.974,0,0,1-.434,2.6c-.073-.051-.146-.1-.222-.149v-.008A8.676,8.676,0,0,0,72.9,10.935V8.727a.963.963,0,1,0-1.925,0v2.054H67.762V8.727a.963.963,0,0,0-1.925,0v2.054H61.345V8.727a.963.963,0,1,0-1.925,0v2.054H56.212V8.727a.963.963,0,0,0-1.925,0v2.208a8.676,8.676,0,0,0-7.044,8.509v.008c-.076.047-.149.1-.222.149a7.975,7.975,0,0,1-.434-2.6V13.8A11.885,11.885,0,0,1,58.458,1.925H68.725a11.748,11.748,0,0,1,6.99,2.294.963.963,0,0,0,1.138-1.553A13.661,13.661,0,0,0,68.725,0H58.458a13.813,13.813,0,0,0-13.8,13.8v3.209a9.876,9.876,0,0,0,.929,4.188,4.778,4.778,0,0,0-.608,2.337v1.433a4.818,4.818,0,0,0,4.813,4.813H51.3a11.858,11.858,0,0,0,7.86,6.989v1.416h-12a7.335,7.335,0,0,0-2.18.332V37.6a.963.963,0,0,0-1.925,0v4.171h-2.3V31.444h2.3v1.668a.963.963,0,0,0,1.925,0V31.123a1.606,1.606,0,0,0-1.6-1.6H40.438a1.606,1.606,0,0,0-1.6,1.6V47.184a3.82,3.82,0,0,0-2.179,3.446v6.839a3.82,3.82,0,0,0,2.179,3.446v3.193a1.606,1.606,0,0,0,1.6,1.6H91.353a1.606,1.606,0,0,0,1.6-1.6v-8.92a.963.963,0,1,0-1.925,0v3.529H81.407v-13.6h6.738A2.891,2.891,0,0,1,91.033,48v2.7A.963.963,0,0,0,92,51.658ZM80.276,23.53v1.433a2.891,2.891,0,0,1-2.888,2.888h-.919a11.809,11.809,0,0,0,.263-2.48V20.642h.656A2.891,2.891,0,0,1,80.276,23.53ZM49.794,27.85a2.891,2.891,0,0,1-2.888-2.888V23.53a2.891,2.891,0,0,1,2.888-2.888h.656v4.729a11.8,11.8,0,0,0,.263,2.48h-.919Zm.706-9.134h-.706a4.819,4.819,0,0,0-.592.038,6.748,6.748,0,0,1,6.7-6.049H71.277a6.748,6.748,0,0,1,6.7,6.049,4.845,4.845,0,0,0-.592-.038h-.706a5.462,5.462,0,0,0-5.4-4.728H55.905A5.462,5.462,0,0,0,50.5,18.717Zm1.875,6.654V19.444a3.533,3.533,0,0,1,3.529-3.529h2.11a4.307,4.307,0,0,0,4.2,3.4.963.963,0,0,0,0-1.925,2.377,2.377,0,0,1-2.2-1.476H71.277a3.533,3.533,0,0,1,3.529,3.529v5.927A9.911,9.911,0,0,1,74.7,26.81H70.245a9.05,9.05,0,0,0-5.691-2.563V21.99a.963.963,0,1,0-1.925,0v2.257a9.05,9.05,0,0,0-5.691,2.563H52.482a9.929,9.929,0,0,1-.106-1.439Zm.591,3.364h4.4a.962.962,0,0,0,.735-.341,7.788,7.788,0,0,1,10.983,0,.962.962,0,0,0,.735.341h4.4a9.9,9.9,0,0,1-9.29,6.516h-2.67a9.9,9.9,0,0,1-9.29-6.516ZM40.759,43.7h2.3v3.114h-2.3Zm2.3,20.086h-2.3v-2.5h2.3ZM40.47,59.359a1.892,1.892,0,0,1-1.89-1.89V50.63a1.892,1.892,0,0,1,1.89-1.89h4.066a.7.7,0,0,1,.7.7.688.688,0,0,1-.284.562,1.218,1.218,0,0,0,0,1.95.7.7,0,0,1,0,1.121,1.218,1.218,0,0,0,0,1.951.7.7,0,0,1,0,1.122,1.219,1.219,0,0,0,0,1.95.687.687,0,0,1,.283.56.7.7,0,0,1-.7.7H40.47Zm22.159,4.428H44.983V61.243a2.629,2.629,0,0,0,2.179-2.586,2.6,2.6,0,0,0-.5-1.536,2.629,2.629,0,0,0,0-3.072,2.628,2.628,0,0,0,0-3.072,2.6,2.6,0,0,0,.5-1.536,2.629,2.629,0,0,0-2.179-2.585V40.563a5.413,5.413,0,0,1,2.18-.457h9.2l3.618,6.262a4.121,4.121,0,0,0,2.649,1.973ZM61.647,45.4l-3.061-5.3h1.541a.963.963,0,0,0,.963-.963V37.117c.384.038.773.059,1.168.059h2.67c.394,0,.783-.022,1.168-.06v2.027a.963.963,0,0,0,.963.963H68.6l-3.061,5.3a2.246,2.246,0,0,1-3.89,0Zm17.835-3.95V63.786H64.554V48.341A4.123,4.123,0,0,0,67.2,46.368l3.618-6.262h9.2c.066,0,.132,0,.2,0A1.6,1.6,0,0,0,79.482,41.455ZM91.033,60.642v3.144H81.407V60.642Zm-9.69-25.155a.45.45,0,0,1-.449-.449v-.77a.45.45,0,0,1,.449-.449h7.765v1.668Zm2.7,1.925V39.85H82.754V37.412Zm1.348,5.775H81.407V41.776h3.979Z" transform="translate(-36.655 0)"/>
        <path id="Trazado_569251" data-name="Trazado 569251" d="M146.748,411.5H142a.963.963,0,0,0,0,1.925h4.743a.963.963,0,0,0,0-1.925Z" transform="translate(-127.645 -358.687)"/>
        <path id="Trazado_569252" data-name="Trazado 569252" d="M146.748,437.5H142a.963.963,0,0,0,0,1.925h4.743a.963.963,0,0,0,0-1.925Z" transform="translate(-127.645 -381.35)"/>
      </g>
    </g>
  </g>
</svg>
