<svg xmlns="http://www.w3.org/2000/svg" width="179.043" height="80.411" viewBox="0 0 179.043 80.411">
  <g id="Grupo_848027" data-name="Grupo 848027" transform="translate(-706.479 -2716.058)">
    <g id="granja-inteligente" transform="translate(706.479 2684.473)">
      <path id="Trazado_569152" data-name="Trazado 569152" d="M93,231.953H35.139L8.016,259.076v1.808H13.44v28.931H120.125v-30.74Zm0,0" transform="translate(-6.207 -179.628)" fill="#bbdeaf"/>
      <path id="Trazado_569153" data-name="Trazado 569153" d="M486.362,333.565V364.3h-5.425V328.141Zm0,0" transform="translate(-372.445 -254.117)" fill="#498790"/>
      <path id="Trazado_569154" data-name="Trazado 569154" d="M213.236,259.076v1.808H157.181L128.25,231.953h57.863Zm0,0" transform="translate(-99.319 -179.628)" fill="#ff854e"/>
      <path id="Trazado_569155" data-name="Trazado 569155" d="M387.044,259.076v1.808h-5.425l-28.931-28.931h7.233Zm0,0" transform="translate(-273.126 -179.628)" fill="#ffce7e"/>
      <g id="Grupo_847504" data-name="Grupo 847504" transform="translate(14.466 66.791)">
        <path id="Trazado_569156" data-name="Trazado 569156" d="M64.125,389.135V360.2H93.056v28.931" transform="translate(-64.125 -345.737)" fill="#79be60"/>
        <path id="Trazado_569157" data-name="Trazado 569157" d="M119.452,299.695a3.616,3.616,0,1,1-3.616-3.616A3.616,3.616,0,0,1,119.452,299.695Zm0,0" transform="translate(-101.369 -296.078)" fill="#79be60"/>
        <path id="Trazado_569158" data-name="Trazado 569158" d="M296.578,392.266h10.849v10.849H296.578Zm0,0" transform="translate(-244.14 -370.567)" fill="#79be60"/>
        <path id="Trazado_569159" data-name="Trazado 569159" d="M384.75,392.266H395.6v10.849H384.75Zm0,0" transform="translate(-312.422 -370.567)" fill="#79be60"/>
      </g>
      <path id="Trazado_569160" data-name="Trazado 569160" d="M400.781,408.8H404.4v3.391h-3.616Zm0,0" transform="translate(-310.371 -316.578)" fill="#fff"/>
      <path id="Trazado_569161" data-name="Trazado 569161" d="M312.609,408.8h3.616v3.391h-3.616Zm0,0" transform="translate(-242.089 -316.578)" fill="#fff"/>
      <path id="Trazado_569162" data-name="Trazado 569162" d="M120.256,219.538a3.616,3.616,0,1,1-3.616-3.616A3.616,3.616,0,0,1,120.256,219.538Zm0,0" transform="translate(-87.527 -167.213)" fill="#fff"/>
      <path id="Trazado_569165" data-name="Trazado 569165" d="M87.5,212.184H37.972v3.391h4.722l25.541,25.541H58.565L33.809,216.3a5.4,5.4,0,0,0,.616-2.508,5.311,5.311,0,1,0-5.312,5.287,5.247,5.247,0,0,0,2.237-.441l25.811,25.866h54.948v25.541h-59.9V242.7H48.822v27.35H44.98V241.116H12.657v28.931H8.815V241.116H4.092l20.613-20.67-2.454-2.425L0,240.187v4.319H5.425v28.931H115.5v-33.25Zm-58.384,3.5a1.921,1.921,0,1,1,1.922-1.921A1.923,1.923,0,0,1,29.113,215.688Zm43.918,25.429L47.49,215.575h9.67L82.7,241.116Zm14.466,0L61.956,215.575h9.67l25.541,25.541Zm14.466,0L76.422,215.575h9.671l25.541,25.541ZM39.3,244.506,28.931,254.88,18.559,244.506Zm-23.257,2.285,10.373,10.373L16.048,267.537Zm2.511,23.257,10.373-10.373L39.3,270.048Zm23.03-2.511L31.216,257.164l10.373-10.373Zm0,0" transform="translate(0 -161.441)"/>
      <path id="Trazado_569166" data-name="Trazado 569166" d="M110.015,299.186a5.312,5.312,0,1,0-5.312-5.312A5.318,5.318,0,0,0,110.015,299.186Zm0-7.233a1.921,1.921,0,1,1-1.921,1.921A1.923,1.923,0,0,1,110.015,291.953Zm0,0" transform="translate(-81.084 -223.467)"/>
      <path id="Trazado_569167" data-name="Trazado 569167" d="M288.563,385.254v14.239H302.8V385.254ZM299.412,396.1h-7.458v-7.459h7.458Zm0,0" transform="translate(-223.467 -298.346)"/>
      <path id="Trazado_569168" data-name="Trazado 569168" d="M376.734,385.254v14.239h14.24V385.254ZM387.584,396.1h-7.458v-7.459h7.458Zm0,0" transform="translate(-291.748 -298.346)"/>
    </g>
    <g id="_x31_9_Checklist" transform="translate(722.625 2682.277)">
      <g id="Grupo_847506" data-name="Grupo 847506" transform="translate(110.103 33.781)">
        <path id="Trazado_569169" data-name="Trazado 569169" d="M165.845,101.494v61.333a3.291,3.291,0,0,1-3.291,3.291H118.021a3.291,3.291,0,0,1-3.291-3.291V101.494a3.291,3.291,0,0,1,3.291-3.291h44.533A3.291,3.291,0,0,1,165.845,101.494Z" transform="translate(-113.893 -86.547)" fill="#f4f4f4"/>
        <path id="Trazado_569170" data-name="Trazado 569170" d="M346.191,101.475v61.337A3.292,3.292,0,0,1,342.9,166.1h-7.991a3.292,3.292,0,0,0,3.292-3.292V101.475a3.292,3.292,0,0,0-3.292-3.292H342.9A3.292,3.292,0,0,1,346.191,101.475Z" transform="translate(-294.236 -86.531)" opacity="0.18"/>
        <path id="Trazado_569171" data-name="Trazado 569171" d="M163.352,169.689a5.357,5.357,0,1,1-5.362-5.362A5.363,5.363,0,0,1,163.352,169.689Z" transform="translate(-144.942 -140.708)" fill="#ff854e"/>
        <path id="Trazado_569172" data-name="Trazado 569172" d="M163.352,261.621a5.357,5.357,0,1,1-5.362-5.362A5.363,5.363,0,0,1,163.352,261.621Z" transform="translate(-144.942 -216.007)" fill="#ff854e"/>
        <path id="Trazado_569173" data-name="Trazado 569173" d="M163.352,353.552a5.357,5.357,0,1,1-5.362-5.362A5.363,5.363,0,0,1,163.352,353.552Z" transform="translate(-144.942 -291.305)" fill="#ff854e"/>
        <path id="Trazado_569174" data-name="Trazado 569174" d="M207.679,80.524v2.5A2.383,2.383,0,0,1,205.3,85.4H182.669a2.383,2.383,0,0,1-2.384-2.384v-2.5a2.383,2.383,0,0,1,2.384-2.384H205.3a2.383,2.383,0,0,1,2.383,2.384Z" transform="translate(-167.587 -70.114)" fill="#79be60"/>
        <path id="Trazado_569175" data-name="Trazado 569175" d="M288.6,80.525v2.488a2.386,2.386,0,0,1-2.387,2.387h-7.136a2.386,2.386,0,0,0,2.387-2.387V80.525a2.386,2.386,0,0,0-2.387-2.387h7.136A2.386,2.386,0,0,1,288.6,80.525Z" transform="translate(-248.506 -70.113)" fill="#79be60" opacity="0.18"/>
        <path id="Trazado_569176" data-name="Trazado 569176" d="M235.024,45.6V44.356a5.944,5.944,0,1,0-11.889,0V45.6Z" transform="translate(-202.685 -37.574)" fill="#79be60"/>
        <g id="Grupo_847505" data-name="Grupo 847505" transform="translate(0)">
          <path id="Trazado_569177" data-name="Trazado 569177" d="M394.314,377.254a.838.838,0,1,0-1.675,0v2.8a.838.838,0,0,0,1.675,0Z" transform="translate(-341.521 -314.425)" fill="#2b3c65"/>
          <path id="Trazado_569178" data-name="Trazado 569178" d="M110.1,97.683V159.02a4.134,4.134,0,0,0,4.129,4.129h44.535a4.134,4.134,0,0,0,4.129-4.129v-7.287a.838.838,0,0,0-1.675,0v7.287a2.457,2.457,0,0,1-2.454,2.454H114.232a2.457,2.457,0,0,1-2.454-2.454V97.683a2.457,2.457,0,0,1,2.454-2.454h5.218a.838.838,0,1,0,0-1.675h-5.218a4.134,4.134,0,0,0-4.129,4.129Z" transform="translate(-110.103 -82.74)" fill="#2b3c65"/>
          <path id="Trazado_569179" data-name="Trazado 569179" d="M355.787,97.682a4.134,4.134,0,0,0-4.129-4.129H346.44a.838.838,0,1,0,0,1.675h5.219a2.457,2.457,0,0,1,2.454,2.454V138.23a.838.838,0,0,0,1.675,0V97.682Z" transform="translate(-302.994 -82.739)" fill="#2b3c65"/>
          <path id="Trazado_569180" data-name="Trazado 569180" d="M154.2,159.7a6.2,6.2,0,1,0,6.2,6.2A6.2,6.2,0,0,0,154.2,159.7Zm0,10.723a4.524,4.524,0,1,1,4.524-4.524A4.525,4.525,0,0,1,154.2,170.42Z" transform="translate(-141.149 -136.916)" fill="#2b3c65"/>
          <path id="Trazado_569181" data-name="Trazado 569181" d="M172.284,183.459l-1.621,1.622-.358-.357a.837.837,0,0,0-1.184,1.184l.95.949a.837.837,0,0,0,1.184,0l2.213-2.214a.838.838,0,0,0-1.184-1.185Z" transform="translate(-158.242 -156.177)" fill="#2b3c65"/>
          <path id="Trazado_569182" data-name="Trazado 569182" d="M258.309,176.075h-21.48a.838.838,0,1,0,0,1.675h21.48a.838.838,0,0,0,0-1.675Z" transform="translate(-213.215 -150.33)" fill="#2b3c65"/>
          <path id="Trazado_569183" data-name="Trazado 569183" d="M236.829,204.266H250a.838.838,0,1,0,0-1.675H236.829a.838.838,0,1,0,0,1.675Z" transform="translate(-213.215 -172.049)" fill="#2b3c65"/>
          <path id="Trazado_569184" data-name="Trazado 569184" d="M154.2,251.629a6.2,6.2,0,1,0,6.2,6.2A6.2,6.2,0,0,0,154.2,251.629Zm0,10.723a4.524,4.524,0,1,1,4.524-4.524A4.525,4.525,0,0,1,154.2,262.352Z" transform="translate(-141.149 -212.215)" fill="#2b3c65"/>
          <path id="Trazado_569185" data-name="Trazado 569185" d="M172.284,275.391l-1.621,1.622-.358-.357a.837.837,0,0,0-1.184,1.184l.95.949a.837.837,0,0,0,1.184,0l2.213-2.214a.838.838,0,0,0-1.184-1.185Z" transform="translate(-158.242 -231.476)" fill="#2b3c65"/>
          <path id="Trazado_569186" data-name="Trazado 569186" d="M258.309,268h-21.48a.838.838,0,1,0,0,1.675h21.48a.838.838,0,0,0,0-1.675Z" transform="translate(-213.215 -225.627)" fill="#2b3c65"/>
          <path id="Trazado_569187" data-name="Trazado 569187" d="M236.829,296.2H250a.838.838,0,1,0,0-1.675H236.829a.838.838,0,1,0,0,1.675Z" transform="translate(-213.215 -247.348)" fill="#2b3c65"/>
          <path id="Trazado_569188" data-name="Trazado 569188" d="M154.2,343.561a6.2,6.2,0,1,0,6.2,6.2A6.2,6.2,0,0,0,154.2,343.561Zm0,10.723a4.524,4.524,0,1,1,4.524-4.524A4.525,4.525,0,0,1,154.2,354.284Z" transform="translate(-141.149 -287.514)" fill="#2b3c65"/>
          <path id="Trazado_569189" data-name="Trazado 569189" d="M172.284,367.322l-1.621,1.622-.358-.358a.837.837,0,0,0-1.184,1.184l.95.95a.837.837,0,0,0,1.184,0l2.213-2.214a.837.837,0,0,0-1.184-1.184Z" transform="translate(-158.242 -306.775)" fill="#2b3c65"/>
          <path id="Trazado_569190" data-name="Trazado 569190" d="M259.147,360.775a.837.837,0,0,0-.837-.838H236.829a.838.838,0,1,0,0,1.675h21.48A.837.837,0,0,0,259.147,360.775Z" transform="translate(-213.215 -300.927)" fill="#2b3c65"/>
          <path id="Trazado_569191" data-name="Trazado 569191" d="M236.829,386.452a.838.838,0,1,0,0,1.675H250a.838.838,0,1,0,0-1.675Z" transform="translate(-213.215 -322.645)" fill="#2b3c65"/>
          <path id="Trazado_569192" data-name="Trazado 569192" d="M204.727,46.685v-2.5a3.225,3.225,0,0,0-3.221-3.221h-4.531v-.406a6.782,6.782,0,1,0-13.564,0v.406h-4.531a3.224,3.224,0,0,0-3.22,3.221v2.5a3.224,3.224,0,0,0,3.22,3.221h22.627A3.225,3.225,0,0,0,204.727,46.685Zm-19.642-6.122a5.107,5.107,0,1,1,10.214,0v.406H185.085v-.406Zm-7.752,6.122v-2.5a1.547,1.547,0,0,1,1.545-1.546h22.627a1.548,1.548,0,0,1,1.546,1.546v2.5a1.548,1.548,0,0,1-1.546,1.546H178.878A1.547,1.547,0,0,1,177.333,46.685Z" transform="translate(-163.797 -33.781)" fill="#2b3c65"/>
        </g>
      </g>
    </g>
  </g>
</svg>
