<svg xmlns="http://www.w3.org/2000/svg" width="107" height="107" viewBox="0 0 107 107">
  <g id="Grupo_841740" data-name="Grupo 841740" transform="translate(-739 -4073)">
    <g id="Grupo_145063" data-name="Grupo 145063" transform="translate(499 2786.258)">
      <rect id="Rectángulo_38178" data-name="Rectángulo 38178" width="107" height="107" transform="translate(240 1286.742)" fill="none"/>
    </g>
    <g id="ordeno" transform="translate(749.387 4081.002)">
      <g id="Grupo_841738" data-name="Grupo 841738" transform="translate(0 -0.001)">
        <g id="Grupo_841737" data-name="Grupo 841737">
          <path id="Trazado_565800" data-name="Trazado 565800" d="M96.783,7.272a26.107,26.107,0,0,0,2.353,10.866l-3.149,1.819c-3.02,1.744-.359,6.5,2.724,4.719l3.192-1.844a26.342,26.342,0,0,0,5.769,5.7L105.843,31.7c-1.743,3.019,2.936,5.811,4.718,2.725l1.837-3.182a26.015,26.015,0,0,0,7.852,2.085v3.615c0,3.514,5.448,3.514,5.448,0V33.33a26.016,26.016,0,0,0,7.889-2.1l1.761,3.05c1.782,3.086,6.459.292,4.718-2.725l-1.757-3.044a26.343,26.343,0,0,0,5.824-5.8l2.957,1.708c3.083,1.781,5.743-2.975,2.724-4.719l-2.94-1.7a26.109,26.109,0,0,0,2.291-10.731H96.783Z" transform="translate(-78.018 -5.994)" fill="#ffce7e"/>
          <g id="Grupo_841733" data-name="Grupo 841733" transform="translate(27.442 1.279)">
            <path id="Trazado_565801" data-name="Trazado 565801" d="M200.451,19.7l-2.94-1.7A26.109,26.109,0,0,0,199.8,7.273H188.2A23.632,23.632,0,0,1,157.223,27.7c.356.286.716.566,1.086.833L156.481,31.7c-1.743,3.019,2.936,5.811,4.718,2.725l1.837-3.182a26.015,26.015,0,0,0,7.852,2.085v3.615c0,3.514,5.448,3.514,5.448,0V33.331a26.011,26.011,0,0,0,7.889-2.1l1.761,3.051c1.782,3.086,6.459.292,4.718-2.725l-1.757-3.044a26.342,26.342,0,0,0,5.824-5.8l2.957,1.708c3.083,1.781,5.743-2.975,2.724-4.719Z" transform="translate(-156.099 -7.273)" fill="#ff854e"/>
          </g>
          <g id="Grupo_841734" data-name="Grupo 841734" transform="translate(16.74 16.839)">
            <path id="Trazado_565802" data-name="Trazado 565802" d="M95.333,95.785l-.113.065a2.947,2.947,0,0,0,1.865,2.056A26.335,26.335,0,0,1,95.333,95.785Z" transform="translate(-95.22 -95.785)" fill="#fa697f"/>
          </g>
          <g id="Grupo_841736" data-name="Grupo 841736" transform="translate(14.659 45.563)">
            <path id="Trazado_565803" data-name="Trazado 565803" d="M90.853,333.409l-7.469-36.446h60.607l-7.469,36.446Z" transform="translate(-83.384 -290.319)" fill="#cad4e6"/>
            <path id="Trazado_565804" data-name="Trazado 565804" d="M353.11,296.963l-7.469,36.446h7.032l7.469-36.446Z" transform="translate(-299.535 -290.319)" fill="#bac5d9"/>
            <ellipse id="Elipse_6714" data-name="Elipse 6714" cx="30.272" cy="6.644" rx="30.272" ry="6.644" fill="#6d788a"/>
            <g id="Grupo_841735" data-name="Grupo 841735" transform="translate(5.348 7.542)">
              <path id="Trazado_565805" data-name="Trazado 565805" d="M163.653,304.946c-5.461-1.735-14.587-2.873-24.924-2.873s-19.462,1.137-24.924,2.873c5.461,1.735,14.587,3.048,24.924,3.048S158.191,306.681,163.653,304.946Z" transform="translate(-113.805 -302.073)" fill="#fff1ec"/>
            </g>
            <path id="Trazado_565806" data-name="Trazado 565806" d="M239.094,302.073q-1.784,0-3.516.045a108.906,108.906,0,0,1,14.678,1.289,1.584,1.584,0,0,1,.016,3.122,103.781,103.781,0,0,1-14.693,1.414q1.731.05,3.516.052c10.337,0,19.462-1.313,24.924-3.048C258.556,303.21,249.431,302.073,239.094,302.073Z" transform="translate(-208.822 -294.531)" fill="#fce2c5"/>
          </g>
          <path id="Trazado_565807" data-name="Trazado 565807" fill="#cad4e6"/>
          <path id="Trazado_565808" data-name="Trazado 565808" d="M242.836,223.633a3.436,3.436,0,1,1-6.871,0c0-1.9,3.436-6.518,3.436-6.518S242.836,221.735,242.836,223.633Z" transform="translate(-194.482 -178.946)" fill="#fff1ec"/>
          <path id="Trazado_565809" data-name="Trazado 565809" d="M247.266,217.115s-.886,1.192-1.758,2.613a9.953,9.953,0,0,1,1.678,3.9,3.432,3.432,0,0,1-1.678,2.949,3.43,3.43,0,0,0,5.194-2.949C250.7,221.735,247.266,217.115,247.266,217.115Z" transform="translate(-202.347 -178.946)" fill="#fce2c5"/>
        </g>
      </g>
      <g id="Grupo_841739" data-name="Grupo 841739" transform="translate(13.337 -0.002)">
        <path id="Trazado_565810" data-name="Trazado 565810" d="M368.749,16.06a1.319,1.319,0,0,0,.482,1.8l2.957,1.708c4.37,2.523,8.5-4.429,4.043-7l-1.93-1.115a27.321,27.321,0,0,0,1.941-10.172,1.319,1.319,0,0,0-2.637,0,24.7,24.7,0,0,1-2.176,10.19,1.318,1.318,0,0,0,.543,1.682l2.94,1.7a1.408,1.408,0,0,1-1.405,2.436l-2.957-1.708A1.319,1.319,0,0,0,368.749,16.06Z" transform="translate(-317.114 0)" fill="#060606"/>
        <path id="Trazado_565811" data-name="Trazado 565811" d="M93.468,19.823l2.194-1.267a27.589,27.589,0,0,0,4.383,4.334L98.8,25.048c-2.576,4.463,4.424,8.508,7,4.043l1.258-2.179a27.294,27.294,0,0,0,5.971,1.586V30.95c0,5.111,8.085,5.1,8.085,0V28.5a27.3,27.3,0,0,0,6.008-1.6l1.181,2.046c2.577,4.464,9.577.418,7-4.043l-1.175-2.036q.59-.467,1.152-.964a1.318,1.318,0,0,0-1.747-1.975c-.606.536-1.246,1.048-1.9,1.523a1.318,1.318,0,0,0-.369,1.727l1.757,3.044c.853,1.478-1.539,2.957-2.434,1.406l-1.761-3.051a1.318,1.318,0,0,0-1.677-.546,24.692,24.692,0,0,1-7.49,1.995,1.318,1.318,0,0,0-1.183,1.311V30.95c0,1.714-2.811,1.768-2.811,0V27.335a1.318,1.318,0,0,0-1.183-1.311,24.689,24.689,0,0,1-7.455-1.98,1.318,1.318,0,0,0-1.675.547l-1.837,3.182a1.409,1.409,0,0,1-2.434-1.406l1.829-3.168a1.318,1.318,0,0,0-.371-1.728,24.977,24.977,0,0,1-5.48-5.417,1.319,1.319,0,0,0-1.72-.358l-3.192,1.843c-1.474.852-2.932-1.554-1.405-2.436l3.149-1.819a1.318,1.318,0,0,0,.54-1.689A24.687,24.687,0,0,1,92.2,1.277a1.319,1.319,0,0,0-2.637,0,27.309,27.309,0,0,0,2,10.31L89.424,12.82C84.985,15.385,89.018,22.392,93.468,19.823Z" transform="translate(-85.453 0.002)" fill="#060606"/>
        <path id="Trazado_565812" data-name="Trazado 565812" d="M328.487,43.309a1.311,1.311,0,0,0,.794-.267c.18-.136,4.41-3.378,5.738-8.105a1.319,1.319,0,0,0-2.539-.713c-1.082,3.853-4.745,6.681-4.791,6.716a1.343,1.343,0,0,0,.8,2.369Z" transform="translate(-283.02 -27.44)" fill="#060606"/>
        <path id="Trazado_565813" data-name="Trazado 565813" d="M139.085,225.234c.346-1.688-1.83-3.375-3.008-3.959-6.377-3.16-16.258-3.929-23.9-4.187-.273-2.221-2.85-5.839-3.671-6.943a1.318,1.318,0,0,0-2.116,0c-.821,1.1-3.4,4.722-3.671,6.943a111.686,111.686,0,0,0-11.394.929,1.321,1.321,0,0,0,.356,2.613,109.893,109.893,0,0,1,11.584-.921,4.752,4.752,0,0,0,8.368-.005c.031,0,.062.007.094.008a102.1,102.1,0,0,1,14.211,1.334,29.611,29.611,0,0,1,8.9,2.558c.969.517,1.481,1.042,1.558,1.333.01.038.027.1-.075.263-.667,1.059-2.434,1.715-3.917,2.169-5.813-1.767-15.087-2.818-24.944-2.818s-19.112,1.049-24.926,2.813c-1.169-.4-3.244-.943-3.942-2.108.484-2.008,3.761-2.669,5.654-3.184a1.319,1.319,0,0,0-.691-2.545c-2.628.714-7.228,1.83-7.659,5.068a2.972,2.972,0,0,0,.18,1.514l7.291,35.573a1.319,1.319,0,0,0,2.583-.53l-6.6-32.222c7.109,3.04,19.07,4.007,28.184,4,8.98,0,21-.613,28.1-3.953l-5.617,27.4a16.18,16.18,0,0,1-6.148,1.593,29.26,29.26,0,0,1-25.736-10.664,39.154,39.154,0,0,1-7-12.325,1.318,1.318,0,0,0-2.524.762,41.081,41.081,0,0,0,7.449,13.189,33.24,33.24,0,0,0,10.925,8.656,32.026,32.026,0,0,0,14.117,3.126,24.746,24.746,0,0,0,8.275-1.188l-.331,1.617a1.319,1.319,0,0,0,2.583.529l.735-3.586a13.091,13.091,0,0,0,3.927-3.835c5.077-7.607,1.917-19.273,1.258-21.461Zm-31.639-5.666a2.12,2.12,0,0,1-2.117-2.118c0-.671.973-2.482,2.119-4.221a12.833,12.833,0,0,1,2.115,4.221A2.12,2.12,0,0,1,107.446,219.568Zm12.539,10.126a115.775,115.775,0,0,1-31.9-.948,109.911,109.911,0,0,1,19.369-1.56,109.9,109.9,0,0,1,19.374,1.561C124.355,229.214,121.978,229.493,119.986,229.694ZM134.08,252.8a10.523,10.523,0,0,1-.877,1.135l2.992-14.6C136.719,243.473,136.694,248.889,134.08,252.8Z" transform="translate(-75.865 -172.762)" fill="#060606"/>
      </g>
    </g>
  </g>
</svg>
